  0
SECTION
  2
ENTITIES
  0
LINE
 10
-116.838000
 11
-116.838000
 20
-23.975000
 21
-11.275000
  0
LINE
 10
-116.838000
 11
-113.838000
 20
-11.275000
 21
-11.275000
  0
LINE
 10
-113.838000
 11
-113.838000
 20
-11.275000
 21
11.275000
  0
LINE
 10
-113.838000
 11
-116.838000
 20
11.275000
 21
11.275000
  0
LINE
 10
-116.838000
 11
-116.838000
 20
11.275000
 21
23.975000
  0
LINE
 10
-116.838000
 11
-113.838000
 20
23.975000
 21
23.975000
  0
LINE
 10
-113.838000
 11
-113.838000
 20
23.975000
 21
35.250000
  0
LINE
 10
-113.838000
 11
-104.307000
 20
35.250000
 21
35.250000
  0
LINE
 10
-104.307000
 11
-104.307000
 20
35.250000
 21
32.250000
  0
LINE
 10
-104.307000
 11
-91.607000
 20
32.250000
 21
32.250000
  0
LINE
 10
-91.607000
 11
-91.607000
 20
32.250000
 21
35.250000
  0
LINE
 10
-91.607000
 11
-82.075000
 20
35.250000
 21
35.250000
  0
LINE
 10
-82.075000
 11
-82.075000
 20
35.250000
 21
23.975000
  0
LINE
 10
-82.075000
 11
-77.525000
 20
23.975000
 21
23.975000
  0
LINE
 10
-77.525000
 11
-77.525000
 20
23.975000
 21
11.275000
  0
LINE
 10
-77.525000
 11
-82.075000
 20
11.275000
 21
11.275000
  0
LINE
 10
-82.075000
 11
-82.075000
 20
11.275000
 21
-11.275000
  0
LINE
 10
-82.075000
 11
-77.525000
 20
-11.275000
 21
-11.275000
  0
LINE
 10
-77.525000
 11
-77.525000
 20
-11.275000
 21
-23.975000
  0
LINE
 10
-77.525000
 11
-82.075000
 20
-23.975000
 21
-23.975000
  0
LINE
 10
-82.075000
 11
-82.075000
 20
-23.975000
 21
-35.250000
  0
LINE
 10
-82.075000
 11
-91.607000
 20
-35.250000
 21
-35.250000
  0
LINE
 10
-91.607000
 11
-91.607000
 20
-35.250000
 21
-32.250000
  0
LINE
 10
-91.607000
 11
-104.307000
 20
-32.250000
 21
-32.250000
  0
LINE
 10
-104.307000
 11
-104.307000
 20
-32.250000
 21
-35.250000
  0
LINE
 10
-104.307000
 11
-113.838000
 20
-35.250000
 21
-35.250000
  0
LINE
 10
-113.838000
 11
-113.838000
 20
-35.250000
 21
-23.975000
  0
LINE
 10
-113.838000
 11
-116.838000
 20
-23.975000
 21
-23.975000
  0
LINE
 10
-67.075000
 11
-67.075000
 20
-30.932000
 21
30.932000
  0
LINE
 10
-67.075000
 11
-67.025000
 20
30.932000
 21
31.728000
  0
LINE
 10
-67.025000
 11
-66.876000
 20
31.728000
 21
32.512000
  0
LINE
 10
-66.876000
 11
-66.629000
 20
32.512000
 21
33.270000
  0
LINE
 10
-66.629000
 11
-66.290000
 20
33.270000
 21
33.992000
  0
LINE
 10
-66.290000
 11
-65.863000
 20
33.992000
 21
34.665000
  0
LINE
 10
-65.863000
 11
-65.354000
 20
34.665000
 21
35.279000
  0
LINE
 10
-65.354000
 11
-64.773000
 20
35.279000
 21
35.825000
  0
LINE
 10
-64.773000
 11
-64.128000
 20
35.825000
 21
36.294000
  0
LINE
 10
-64.128000
 11
-63.429000
 20
36.294000
 21
36.678000
  0
LINE
 10
-63.429000
 11
-62.688000
 20
36.678000
 21
36.972000
  0
LINE
 10
-62.688000
 11
-61.915000
 20
36.972000
 21
37.170000
  0
LINE
 10
-61.915000
 11
-61.124000
 20
37.170000
 21
37.270000
  0
LINE
 10
-61.124000
 11
-60.725000
 20
37.270000
 21
37.270000
  0
LINE
 10
-60.725000
 11
-60.725000
 20
37.270000
 21
37.282000
  0
LINE
 10
-60.725000
 11
60.725000
 20
37.282000
 21
37.282000
  0
LINE
 10
60.725000
 11
60.725000
 20
37.282000
 21
37.270000
  0
LINE
 10
60.725000
 11
61.124000
 20
37.270000
 21
37.270000
  0
LINE
 10
61.124000
 11
61.915000
 20
37.270000
 21
37.170000
  0
LINE
 10
61.915000
 11
62.688000
 20
37.170000
 21
36.972000
  0
LINE
 10
62.688000
 11
63.429000
 20
36.972000
 21
36.678000
  0
LINE
 10
63.429000
 11
64.128000
 20
36.678000
 21
36.294000
  0
LINE
 10
64.128000
 11
64.773000
 20
36.294000
 21
35.825000
  0
LINE
 10
64.773000
 11
65.354000
 20
35.825000
 21
35.279000
  0
LINE
 10
65.354000
 11
65.863000
 20
35.279000
 21
34.665000
  0
LINE
 10
65.863000
 11
66.290000
 20
34.665000
 21
33.992000
  0
LINE
 10
66.290000
 11
66.629000
 20
33.992000
 21
33.270000
  0
LINE
 10
66.629000
 11
66.876000
 20
33.270000
 21
32.512000
  0
LINE
 10
66.876000
 11
67.025000
 20
32.512000
 21
31.728000
  0
LINE
 10
67.025000
 11
67.075000
 20
31.728000
 21
30.932000
  0
LINE
 10
67.075000
 11
67.075000
 20
30.932000
 21
-30.932000
  0
LINE
 10
67.075000
 11
67.025000
 20
-30.932000
 21
-31.728000
  0
LINE
 10
67.025000
 11
66.876000
 20
-31.728000
 21
-32.512000
  0
LINE
 10
66.876000
 11
66.629000
 20
-32.512000
 21
-33.270000
  0
LINE
 10
66.629000
 11
66.290000
 20
-33.270000
 21
-33.992000
  0
LINE
 10
66.290000
 11
65.863000
 20
-33.992000
 21
-34.665000
  0
LINE
 10
65.863000
 11
65.354000
 20
-34.665000
 21
-35.279000
  0
LINE
 10
65.354000
 11
64.773000
 20
-35.279000
 21
-35.825000
  0
LINE
 10
64.773000
 11
64.128000
 20
-35.825000
 21
-36.294000
  0
LINE
 10
64.128000
 11
63.429000
 20
-36.294000
 21
-36.678000
  0
LINE
 10
63.429000
 11
62.688000
 20
-36.678000
 21
-36.972000
  0
LINE
 10
62.688000
 11
61.915000
 20
-36.972000
 21
-37.170000
  0
LINE
 10
61.915000
 11
61.124000
 20
-37.170000
 21
-37.270000
  0
LINE
 10
61.124000
 11
60.725000
 20
-37.270000
 21
-37.270000
  0
LINE
 10
60.725000
 11
60.725000
 20
-37.270000
 21
-37.282000
  0
LINE
 10
60.725000
 11
-60.725000
 20
-37.282000
 21
-37.282000
  0
LINE
 10
-60.725000
 11
-60.725000
 20
-37.282000
 21
-37.270000
  0
LINE
 10
-60.725000
 11
-61.124000
 20
-37.270000
 21
-37.270000
  0
LINE
 10
-61.124000
 11
-61.915000
 20
-37.270000
 21
-37.170000
  0
LINE
 10
-61.915000
 11
-62.688000
 20
-37.170000
 21
-36.972000
  0
LINE
 10
-62.688000
 11
-63.429000
 20
-36.972000
 21
-36.678000
  0
LINE
 10
-63.429000
 11
-64.128000
 20
-36.678000
 21
-36.294000
  0
LINE
 10
-64.128000
 11
-64.773000
 20
-36.294000
 21
-35.825000
  0
LINE
 10
-64.773000
 11
-65.354000
 20
-35.825000
 21
-35.279000
  0
LINE
 10
-65.354000
 11
-65.863000
 20
-35.279000
 21
-34.665000
  0
LINE
 10
-65.863000
 11
-66.290000
 20
-34.665000
 21
-33.992000
  0
LINE
 10
-66.290000
 11
-66.629000
 20
-33.992000
 21
-33.270000
  0
LINE
 10
-66.629000
 11
-66.876000
 20
-33.270000
 21
-32.512000
  0
LINE
 10
-66.876000
 11
-67.025000
 20
-32.512000
 21
-31.728000
  0
LINE
 10
-67.025000
 11
-67.075000
 20
-31.728000
 21
-30.932000
  0
LINE
 10
-60.725000
 11
-60.725000
 20
-74.514000
 21
-61.814000
  0
LINE
 10
-60.725000
 11
-57.725000
 20
-61.814000
 21
-61.814000
  0
LINE
 10
-57.725000
 11
-57.725000
 20
-61.814000
 21
-52.282000
  0
LINE
 10
-57.725000
 11
-40.985000
 20
-52.282000
 21
-52.282000
  0
LINE
 10
-40.985000
 11
-40.985000
 20
-52.282000
 21
-47.732000
  0
LINE
 10
-40.985000
 11
-28.285000
 20
-47.732000
 21
-47.732000
  0
LINE
 10
-28.285000
 11
-28.285000
 20
-47.732000
 21
-52.282000
  0
LINE
 10
-28.285000
 11
-6.350000
 20
-52.282000
 21
-52.282000
  0
LINE
 10
-6.350000
 11
-6.350000
 20
-52.282000
 21
-47.732000
  0
LINE
 10
-6.350000
 11
6.350000
 20
-47.732000
 21
-47.732000
  0
LINE
 10
6.350000
 11
6.350000
 20
-47.732000
 21
-52.282000
  0
LINE
 10
6.350000
 11
28.285000
 20
-52.282000
 21
-52.282000
  0
LINE
 10
28.285000
 11
28.285000
 20
-52.282000
 21
-47.732000
  0
LINE
 10
28.285000
 11
40.985000
 20
-47.732000
 21
-47.732000
  0
LINE
 10
40.985000
 11
40.985000
 20
-47.732000
 21
-52.282000
  0
LINE
 10
40.985000
 11
57.725000
 20
-52.282000
 21
-52.282000
  0
LINE
 10
57.725000
 11
57.725000
 20
-52.282000
 21
-61.814000
  0
LINE
 10
57.725000
 11
60.725000
 20
-61.814000
 21
-61.814000
  0
LINE
 10
60.725000
 11
60.725000
 20
-61.814000
 21
-74.514000
  0
LINE
 10
60.725000
 11
57.725000
 20
-74.514000
 21
-74.514000
  0
LINE
 10
57.725000
 11
57.725000
 20
-74.514000
 21
-84.045000
  0
LINE
 10
57.725000
 11
40.985000
 20
-84.045000
 21
-84.045000
  0
LINE
 10
40.985000
 11
40.985000
 20
-84.045000
 21
-87.045000
  0
LINE
 10
40.985000
 11
28.285000
 20
-87.045000
 21
-87.045000
  0
LINE
 10
28.285000
 11
28.285000
 20
-87.045000
 21
-84.045000
  0
LINE
 10
28.285000
 11
6.350000
 20
-84.045000
 21
-84.045000
  0
LINE
 10
6.350000
 11
6.350000
 20
-84.045000
 21
-87.045000
  0
LINE
 10
6.350000
 11
-6.350000
 20
-87.045000
 21
-87.045000
  0
LINE
 10
-6.350000
 11
-6.350000
 20
-87.045000
 21
-84.045000
  0
LINE
 10
-6.350000
 11
-28.285000
 20
-84.045000
 21
-84.045000
  0
LINE
 10
-28.285000
 11
-28.285000
 20
-84.045000
 21
-87.045000
  0
LINE
 10
-28.285000
 11
-40.985000
 20
-87.045000
 21
-87.045000
  0
LINE
 10
-40.985000
 11
-40.985000
 20
-87.045000
 21
-84.045000
  0
LINE
 10
-40.985000
 11
-57.725000
 20
-84.045000
 21
-84.045000
  0
LINE
 10
-57.725000
 11
-57.725000
 20
-84.045000
 21
-74.514000
  0
LINE
 10
-57.725000
 11
-60.725000
 20
-74.514000
 21
-74.514000
  0
LINE
 10
-60.725000
 11
-60.725000
 20
-23.975000
 21
-11.275000
  0
LINE
 10
-60.725000
 11
-57.725000
 20
-11.275000
 21
-11.275000
  0
LINE
 10
-57.725000
 11
-57.725000
 20
-11.275000
 21
-23.975000
  0
LINE
 10
-57.725000
 11
-60.725000
 20
-23.975000
 21
-23.975000
  0
LINE
 10
-60.725000
 11
-60.725000
 20
11.275000
 21
23.975000
  0
LINE
 10
-60.725000
 11
-57.725000
 20
23.975000
 21
23.975000
  0
LINE
 10
-57.725000
 11
-57.725000
 20
23.975000
 21
11.275000
  0
LINE
 10
-57.725000
 11
-60.725000
 20
11.275000
 21
11.275000
  0
LINE
 10
-60.725000
 11
-60.725000
 20
61.814000
 21
74.514000
  0
LINE
 10
-60.725000
 11
-57.725000
 20
74.514000
 21
74.514000
  0
LINE
 10
-57.725000
 11
-57.725000
 20
74.514000
 21
84.045000
  0
LINE
 10
-57.725000
 11
-40.985000
 20
84.045000
 21
84.045000
  0
LINE
 10
-40.985000
 11
-40.985000
 20
84.045000
 21
87.045000
  0
LINE
 10
-40.985000
 11
-28.285000
 20
87.045000
 21
87.045000
  0
LINE
 10
-28.285000
 11
-28.285000
 20
87.045000
 21
84.045000
  0
LINE
 10
-28.285000
 11
-6.350000
 20
84.045000
 21
84.045000
  0
LINE
 10
-6.350000
 11
-6.350000
 20
84.045000
 21
87.045000
  0
LINE
 10
-6.350000
 11
6.350000
 20
87.045000
 21
87.045000
  0
LINE
 10
6.350000
 11
6.350000
 20
87.045000
 21
84.045000
  0
LINE
 10
6.350000
 11
28.285000
 20
84.045000
 21
84.045000
  0
LINE
 10
28.285000
 11
28.285000
 20
84.045000
 21
87.045000
  0
LINE
 10
28.285000
 11
40.985000
 20
87.045000
 21
87.045000
  0
LINE
 10
40.985000
 11
40.985000
 20
87.045000
 21
84.045000
  0
LINE
 10
40.985000
 11
57.725000
 20
84.045000
 21
84.045000
  0
LINE
 10
57.725000
 11
57.725000
 20
84.045000
 21
74.514000
  0
LINE
 10
57.725000
 11
60.725000
 20
74.514000
 21
74.514000
  0
LINE
 10
60.725000
 11
60.725000
 20
74.514000
 21
61.814000
  0
LINE
 10
60.725000
 11
57.725000
 20
61.814000
 21
61.814000
  0
LINE
 10
57.725000
 11
57.725000
 20
61.814000
 21
52.282000
  0
LINE
 10
57.725000
 11
40.985000
 20
52.282000
 21
52.282000
  0
LINE
 10
40.985000
 11
40.985000
 20
52.282000
 21
47.732000
  0
LINE
 10
40.985000
 11
28.285000
 20
47.732000
 21
47.732000
  0
LINE
 10
28.285000
 11
28.285000
 20
47.732000
 21
52.282000
  0
LINE
 10
28.285000
 11
6.350000
 20
52.282000
 21
52.282000
  0
LINE
 10
6.350000
 11
6.350000
 20
52.282000
 21
47.732000
  0
LINE
 10
6.350000
 11
-6.350000
 20
47.732000
 21
47.732000
  0
LINE
 10
-6.350000
 11
-6.350000
 20
47.732000
 21
52.282000
  0
LINE
 10
-6.350000
 11
-28.285000
 20
52.282000
 21
52.282000
  0
LINE
 10
-28.285000
 11
-28.285000
 20
52.282000
 21
47.732000
  0
LINE
 10
-28.285000
 11
-40.985000
 20
47.732000
 21
47.732000
  0
LINE
 10
-40.985000
 11
-40.985000
 20
47.732000
 21
52.282000
  0
LINE
 10
-40.985000
 11
-57.725000
 20
52.282000
 21
52.282000
  0
LINE
 10
-57.725000
 11
-57.725000
 20
52.282000
 21
61.814000
  0
LINE
 10
-57.725000
 11
-60.725000
 20
61.814000
 21
61.814000
  0
LINE
 10
-54.754000
 11
-54.742000
 20
-27.805000
 21
-27.621000
  0
LINE
 10
-54.742000
 11
-54.707000
 20
-27.621000
 21
-27.439000
  0
LINE
 10
-54.707000
 11
-54.650000
 20
-27.439000
 21
-27.263000
  0
LINE
 10
-54.650000
 11
-54.571000
 20
-27.263000
 21
-27.096000
  0
LINE
 10
-54.571000
 11
-54.472000
 20
-27.096000
 21
-26.939000
  0
LINE
 10
-54.472000
 11
-54.354000
 20
-26.939000
 21
-26.797000
  0
LINE
 10
-54.354000
 11
-54.219000
 20
-26.797000
 21
-26.670000
  0
LINE
 10
-54.219000
 11
-54.070000
 20
-26.670000
 21
-26.562000
  0
LINE
 10
-54.070000
 11
-53.908000
 20
-26.562000
 21
-26.472000
  0
LINE
 10
-53.908000
 11
-53.736000
 20
-26.472000
 21
-26.404000
  0
LINE
 10
-53.736000
 11
-53.556000
 20
-26.404000
 21
-26.358000
  0
LINE
 10
-53.556000
 11
-53.373000
 20
-26.358000
 21
-26.335000
  0
LINE
 10
-53.373000
 11
-53.188000
 20
-26.335000
 21
-26.335000
  0
LINE
 10
-53.188000
 11
-53.004000
 20
-26.335000
 21
-26.358000
  0
LINE
 10
-53.004000
 11
-52.825000
 20
-26.358000
 21
-26.404000
  0
LINE
 10
-52.825000
 11
-52.653000
 20
-26.404000
 21
-26.472000
  0
LINE
 10
-52.653000
 11
-52.491000
 20
-26.472000
 21
-26.562000
  0
LINE
 10
-52.491000
 11
-52.341000
 20
-26.562000
 21
-26.670000
  0
LINE
 10
-52.341000
 11
-52.206000
 20
-26.670000
 21
-26.797000
  0
LINE
 10
-52.206000
 11
-52.088000
 20
-26.797000
 21
-26.939000
  0
LINE
 10
-52.088000
 11
-51.989000
 20
-26.939000
 21
-27.096000
  0
LINE
 10
-51.989000
 11
-51.911000
 20
-27.096000
 21
-27.263000
  0
LINE
 10
-51.911000
 11
-51.853000
 20
-27.263000
 21
-27.439000
  0
LINE
 10
-51.853000
 11
-51.819000
 20
-27.439000
 21
-27.621000
  0
LINE
 10
-51.819000
 11
-51.807000
 20
-27.621000
 21
-27.805000
  0
LINE
 10
-51.807000
 11
-51.819000
 20
-27.805000
 21
-27.990000
  0
LINE
 10
-51.819000
 11
-51.853000
 20
-27.990000
 21
-28.172000
  0
LINE
 10
-51.853000
 11
-51.911000
 20
-28.172000
 21
-28.348000
  0
LINE
 10
-51.911000
 11
-51.989000
 20
-28.348000
 21
-28.515000
  0
LINE
 10
-51.989000
 11
-52.088000
 20
-28.515000
 21
-28.671000
  0
LINE
 10
-52.088000
 11
-52.206000
 20
-28.671000
 21
-28.814000
  0
LINE
 10
-52.206000
 11
-52.341000
 20
-28.814000
 21
-28.941000
  0
LINE
 10
-52.341000
 11
-52.491000
 20
-28.941000
 21
-29.049000
  0
LINE
 10
-52.491000
 11
-52.653000
 20
-29.049000
 21
-29.138000
  0
LINE
 10
-52.653000
 11
-52.825000
 20
-29.138000
 21
-29.206000
  0
LINE
 10
-52.825000
 11
-53.004000
 20
-29.206000
 21
-29.252000
  0
LINE
 10
-53.004000
 11
-53.188000
 20
-29.252000
 21
-29.276000
  0
LINE
 10
-53.188000
 11
-53.373000
 20
-29.276000
 21
-29.276000
  0
LINE
 10
-53.373000
 11
-53.556000
 20
-29.276000
 21
-29.252000
  0
LINE
 10
-53.556000
 11
-53.736000
 20
-29.252000
 21
-29.206000
  0
LINE
 10
-53.736000
 11
-53.908000
 20
-29.206000
 21
-29.138000
  0
LINE
 10
-53.908000
 11
-54.070000
 20
-29.138000
 21
-29.049000
  0
LINE
 10
-54.070000
 11
-54.219000
 20
-29.049000
 21
-28.941000
  0
LINE
 10
-54.219000
 11
-54.354000
 20
-28.941000
 21
-28.814000
  0
LINE
 10
-54.354000
 11
-54.472000
 20
-28.814000
 21
-28.671000
  0
LINE
 10
-54.472000
 11
-54.571000
 20
-28.671000
 21
-28.515000
  0
LINE
 10
-54.571000
 11
-54.650000
 20
-28.515000
 21
-28.348000
  0
LINE
 10
-54.650000
 11
-54.707000
 20
-28.348000
 21
-28.172000
  0
LINE
 10
-54.707000
 11
-54.742000
 20
-28.172000
 21
-27.990000
  0
LINE
 10
-54.742000
 11
-54.754000
 20
-27.990000
 21
-27.805000
  0
LINE
 10
-54.754000
 11
-54.742000
 20
27.805000
 21
27.990000
  0
LINE
 10
-54.742000
 11
-54.707000
 20
27.990000
 21
28.172000
  0
LINE
 10
-54.707000
 11
-54.650000
 20
28.172000
 21
28.348000
  0
LINE
 10
-54.650000
 11
-54.571000
 20
28.348000
 21
28.515000
  0
LINE
 10
-54.571000
 11
-54.472000
 20
28.515000
 21
28.671000
  0
LINE
 10
-54.472000
 11
-54.354000
 20
28.671000
 21
28.814000
  0
LINE
 10
-54.354000
 11
-54.219000
 20
28.814000
 21
28.941000
  0
LINE
 10
-54.219000
 11
-54.070000
 20
28.941000
 21
29.049000
  0
LINE
 10
-54.070000
 11
-53.908000
 20
29.049000
 21
29.138000
  0
LINE
 10
-53.908000
 11
-53.736000
 20
29.138000
 21
29.206000
  0
LINE
 10
-53.736000
 11
-53.556000
 20
29.206000
 21
29.252000
  0
LINE
 10
-53.556000
 11
-53.373000
 20
29.252000
 21
29.276000
  0
LINE
 10
-53.373000
 11
-53.188000
 20
29.276000
 21
29.276000
  0
LINE
 10
-53.188000
 11
-53.004000
 20
29.276000
 21
29.252000
  0
LINE
 10
-53.004000
 11
-52.825000
 20
29.252000
 21
29.206000
  0
LINE
 10
-52.825000
 11
-52.653000
 20
29.206000
 21
29.138000
  0
LINE
 10
-52.653000
 11
-52.491000
 20
29.138000
 21
29.049000
  0
LINE
 10
-52.491000
 11
-52.341000
 20
29.049000
 21
28.941000
  0
LINE
 10
-52.341000
 11
-52.206000
 20
28.941000
 21
28.814000
  0
LINE
 10
-52.206000
 11
-52.088000
 20
28.814000
 21
28.671000
  0
LINE
 10
-52.088000
 11
-51.989000
 20
28.671000
 21
28.515000
  0
LINE
 10
-51.989000
 11
-51.911000
 20
28.515000
 21
28.348000
  0
LINE
 10
-51.911000
 11
-51.853000
 20
28.348000
 21
28.172000
  0
LINE
 10
-51.853000
 11
-51.819000
 20
28.172000
 21
27.990000
  0
LINE
 10
-51.819000
 11
-51.807000
 20
27.990000
 21
27.805000
  0
LINE
 10
-51.807000
 11
-51.819000
 20
27.805000
 21
27.621000
  0
LINE
 10
-51.819000
 11
-51.853000
 20
27.621000
 21
27.439000
  0
LINE
 10
-51.853000
 11
-51.911000
 20
27.439000
 21
27.263000
  0
LINE
 10
-51.911000
 11
-51.989000
 20
27.263000
 21
27.096000
  0
LINE
 10
-51.989000
 11
-52.088000
 20
27.096000
 21
26.939000
  0
LINE
 10
-52.088000
 11
-52.206000
 20
26.939000
 21
26.797000
  0
LINE
 10
-52.206000
 11
-52.341000
 20
26.797000
 21
26.670000
  0
LINE
 10
-52.341000
 11
-52.491000
 20
26.670000
 21
26.562000
  0
LINE
 10
-52.491000
 11
-52.653000
 20
26.562000
 21
26.472000
  0
LINE
 10
-52.653000
 11
-52.825000
 20
26.472000
 21
26.404000
  0
LINE
 10
-52.825000
 11
-53.004000
 20
26.404000
 21
26.358000
  0
LINE
 10
-53.004000
 11
-53.188000
 20
26.358000
 21
26.335000
  0
LINE
 10
-53.188000
 11
-53.373000
 20
26.335000
 21
26.335000
  0
LINE
 10
-53.373000
 11
-53.556000
 20
26.335000
 21
26.358000
  0
LINE
 10
-53.556000
 11
-53.736000
 20
26.358000
 21
26.404000
  0
LINE
 10
-53.736000
 11
-53.908000
 20
26.404000
 21
26.472000
  0
LINE
 10
-53.908000
 11
-54.070000
 20
26.472000
 21
26.562000
  0
LINE
 10
-54.070000
 11
-54.219000
 20
26.562000
 21
26.670000
  0
LINE
 10
-54.219000
 11
-54.354000
 20
26.670000
 21
26.797000
  0
LINE
 10
-54.354000
 11
-54.472000
 20
26.797000
 21
26.939000
  0
LINE
 10
-54.472000
 11
-54.571000
 20
26.939000
 21
27.096000
  0
LINE
 10
-54.571000
 11
-54.650000
 20
27.096000
 21
27.263000
  0
LINE
 10
-54.650000
 11
-54.707000
 20
27.263000
 21
27.439000
  0
LINE
 10
-54.707000
 11
-54.742000
 20
27.439000
 21
27.621000
  0
LINE
 10
-54.742000
 11
-54.754000
 20
27.621000
 21
27.805000
  0
LINE
 10
-40.985000
 11
-40.985000
 20
-35.250000
 21
-32.250000
  0
LINE
 10
-40.985000
 11
-28.285000
 20
-32.250000
 21
-32.250000
  0
LINE
 10
-28.285000
 11
-28.285000
 20
-32.250000
 21
-35.250000
  0
LINE
 10
-28.285000
 11
-40.985000
 20
-35.250000
 21
-35.250000
  0
LINE
 10
-40.985000
 11
-40.985000
 20
32.250000
 21
35.250000
  0
LINE
 10
-40.985000
 11
-28.285000
 20
35.250000
 21
35.250000
  0
LINE
 10
-28.285000
 11
-28.285000
 20
35.250000
 21
32.250000
  0
LINE
 10
-28.285000
 11
-40.985000
 20
32.250000
 21
32.250000
  0
LINE
 10
-34.519000
 11
-34.504000
 20
-28.702000
 21
-28.463000
  0
LINE
 10
-34.504000
 11
-34.459000
 20
-28.463000
 21
-28.228000
  0
LINE
 10
-34.459000
 11
-34.385000
 20
-28.228000
 21
-28.001000
  0
LINE
 10
-34.385000
 11
-34.283000
 20
-28.001000
 21
-27.784000
  0
LINE
 10
-34.283000
 11
-34.155000
 20
-27.784000
 21
-27.582000
  0
LINE
 10
-34.155000
 11
-34.002000
 20
-27.582000
 21
-27.398000
  0
LINE
 10
-34.002000
 11
-33.828000
 20
-27.398000
 21
-27.234000
  0
LINE
 10
-33.828000
 11
-33.634000
 20
-27.234000
 21
-27.094000
  0
LINE
 10
-33.634000
 11
-33.425000
 20
-27.094000
 21
-26.978000
  0
LINE
 10
-33.425000
 11
-33.202000
 20
-26.978000
 21
-26.890000
  0
LINE
 10
-33.202000
 11
-32.971000
 20
-26.890000
 21
-26.831000
  0
LINE
 10
-32.971000
 11
-32.733000
 20
-26.831000
 21
-26.801000
  0
LINE
 10
-32.733000
 11
-32.494000
 20
-26.801000
 21
-26.801000
  0
LINE
 10
-32.494000
 11
-32.257000
 20
-26.801000
 21
-26.831000
  0
LINE
 10
-32.257000
 11
-32.025000
 20
-26.831000
 21
-26.890000
  0
LINE
 10
-32.025000
 11
-31.802000
 20
-26.890000
 21
-26.978000
  0
LINE
 10
-31.802000
 11
-31.593000
 20
-26.978000
 21
-27.094000
  0
LINE
 10
-31.593000
 11
-31.399000
 20
-27.094000
 21
-27.234000
  0
LINE
 10
-31.399000
 11
-31.225000
 20
-27.234000
 21
-27.398000
  0
LINE
 10
-31.225000
 11
-31.072000
 20
-27.398000
 21
-27.582000
  0
LINE
 10
-31.072000
 11
-30.944000
 20
-27.582000
 21
-27.784000
  0
LINE
 10
-30.944000
 11
-30.842000
 20
-27.784000
 21
-28.001000
  0
LINE
 10
-30.842000
 11
-30.768000
 20
-28.001000
 21
-28.228000
  0
LINE
 10
-30.768000
 11
-30.724000
 20
-28.228000
 21
-28.463000
  0
LINE
 10
-30.724000
 11
-30.709000
 20
-28.463000
 21
-28.702000
  0
LINE
 10
-30.709000
 11
-30.724000
 20
-28.702000
 21
-28.941000
  0
LINE
 10
-30.724000
 11
-30.768000
 20
-28.941000
 21
-29.176000
  0
LINE
 10
-30.768000
 11
-30.842000
 20
-29.176000
 21
-29.403000
  0
LINE
 10
-30.842000
 11
-30.944000
 20
-29.403000
 21
-29.620000
  0
LINE
 10
-30.944000
 11
-31.072000
 20
-29.620000
 21
-29.822000
  0
LINE
 10
-31.072000
 11
-31.225000
 20
-29.822000
 21
-30.006000
  0
LINE
 10
-31.225000
 11
-31.399000
 20
-30.006000
 21
-30.170000
  0
LINE
 10
-31.399000
 11
-31.593000
 20
-30.170000
 21
-30.310000
  0
LINE
 10
-31.593000
 11
-31.802000
 20
-30.310000
 21
-30.426000
  0
LINE
 10
-31.802000
 11
-32.025000
 20
-30.426000
 21
-30.514000
  0
LINE
 10
-32.025000
 11
-32.257000
 20
-30.514000
 21
-30.573000
  0
LINE
 10
-32.257000
 11
-32.494000
 20
-30.573000
 21
-30.603000
  0
LINE
 10
-32.494000
 11
-32.733000
 20
-30.603000
 21
-30.603000
  0
LINE
 10
-32.733000
 11
-32.971000
 20
-30.603000
 21
-30.573000
  0
LINE
 10
-32.971000
 11
-33.202000
 20
-30.573000
 21
-30.514000
  0
LINE
 10
-33.202000
 11
-33.425000
 20
-30.514000
 21
-30.426000
  0
LINE
 10
-33.425000
 11
-33.634000
 20
-30.426000
 21
-30.310000
  0
LINE
 10
-33.634000
 11
-33.828000
 20
-30.310000
 21
-30.170000
  0
LINE
 10
-33.828000
 11
-34.002000
 20
-30.170000
 21
-30.006000
  0
LINE
 10
-34.002000
 11
-34.155000
 20
-30.006000
 21
-29.822000
  0
LINE
 10
-34.155000
 11
-34.283000
 20
-29.822000
 21
-29.620000
  0
LINE
 10
-34.283000
 11
-34.385000
 20
-29.620000
 21
-29.403000
  0
LINE
 10
-34.385000
 11
-34.459000
 20
-29.403000
 21
-29.176000
  0
LINE
 10
-34.459000
 11
-34.504000
 20
-29.176000
 21
-28.941000
  0
LINE
 10
-34.504000
 11
-34.519000
 20
-28.941000
 21
-28.702000
  0
LINE
 10
-34.519000
 11
-34.504000
 20
-14.351000
 21
-14.112000
  0
LINE
 10
-34.504000
 11
-34.459000
 20
-14.112000
 21
-13.877000
  0
LINE
 10
-34.459000
 11
-34.385000
 20
-13.877000
 21
-13.650000
  0
LINE
 10
-34.385000
 11
-34.283000
 20
-13.650000
 21
-13.433000
  0
LINE
 10
-34.283000
 11
-34.155000
 20
-13.433000
 21
-13.231000
  0
LINE
 10
-34.155000
 11
-34.002000
 20
-13.231000
 21
-13.047000
  0
LINE
 10
-34.002000
 11
-33.828000
 20
-13.047000
 21
-12.883000
  0
LINE
 10
-33.828000
 11
-33.634000
 20
-12.883000
 21
-12.743000
  0
LINE
 10
-33.634000
 11
-33.425000
 20
-12.743000
 21
-12.627000
  0
LINE
 10
-33.425000
 11
-33.202000
 20
-12.627000
 21
-12.539000
  0
LINE
 10
-33.202000
 11
-32.971000
 20
-12.539000
 21
-12.480000
  0
LINE
 10
-32.971000
 11
-32.733000
 20
-12.480000
 21
-12.450000
  0
LINE
 10
-32.733000
 11
-32.494000
 20
-12.450000
 21
-12.450000
  0
LINE
 10
-32.494000
 11
-32.257000
 20
-12.450000
 21
-12.480000
  0
LINE
 10
-32.257000
 11
-32.025000
 20
-12.480000
 21
-12.539000
  0
LINE
 10
-32.025000
 11
-31.802000
 20
-12.539000
 21
-12.627000
  0
LINE
 10
-31.802000
 11
-31.593000
 20
-12.627000
 21
-12.743000
  0
LINE
 10
-31.593000
 11
-31.399000
 20
-12.743000
 21
-12.883000
  0
LINE
 10
-31.399000
 11
-31.225000
 20
-12.883000
 21
-13.047000
  0
LINE
 10
-31.225000
 11
-31.072000
 20
-13.047000
 21
-13.231000
  0
LINE
 10
-31.072000
 11
-30.944000
 20
-13.231000
 21
-13.433000
  0
LINE
 10
-30.944000
 11
-30.842000
 20
-13.433000
 21
-13.650000
  0
LINE
 10
-30.842000
 11
-30.768000
 20
-13.650000
 21
-13.877000
  0
LINE
 10
-30.768000
 11
-30.724000
 20
-13.877000
 21
-14.112000
  0
LINE
 10
-30.724000
 11
-30.709000
 20
-14.112000
 21
-14.351000
  0
LINE
 10
-30.709000
 11
-30.724000
 20
-14.351000
 21
-14.590000
  0
LINE
 10
-30.724000
 11
-30.768000
 20
-14.590000
 21
-14.825000
  0
LINE
 10
-30.768000
 11
-30.842000
 20
-14.825000
 21
-15.052000
  0
LINE
 10
-30.842000
 11
-30.944000
 20
-15.052000
 21
-15.269000
  0
LINE
 10
-30.944000
 11
-31.072000
 20
-15.269000
 21
-15.471000
  0
LINE
 10
-31.072000
 11
-31.225000
 20
-15.471000
 21
-15.655000
  0
LINE
 10
-31.225000
 11
-31.399000
 20
-15.655000
 21
-15.819000
  0
LINE
 10
-31.399000
 11
-31.593000
 20
-15.819000
 21
-15.959000
  0
LINE
 10
-31.593000
 11
-31.802000
 20
-15.959000
 21
-16.075000
  0
LINE
 10
-31.802000
 11
-32.025000
 20
-16.075000
 21
-16.163000
  0
LINE
 10
-32.025000
 11
-32.257000
 20
-16.163000
 21
-16.222000
  0
LINE
 10
-32.257000
 11
-32.494000
 20
-16.222000
 21
-16.252000
  0
LINE
 10
-32.494000
 11
-32.733000
 20
-16.252000
 21
-16.252000
  0
LINE
 10
-32.733000
 11
-32.971000
 20
-16.252000
 21
-16.222000
  0
LINE
 10
-32.971000
 11
-33.202000
 20
-16.222000
 21
-16.163000
  0
LINE
 10
-33.202000
 11
-33.425000
 20
-16.163000
 21
-16.075000
  0
LINE
 10
-33.425000
 11
-33.634000
 20
-16.075000
 21
-15.959000
  0
LINE
 10
-33.634000
 11
-33.828000
 20
-15.959000
 21
-15.819000
  0
LINE
 10
-33.828000
 11
-34.002000
 20
-15.819000
 21
-15.655000
  0
LINE
 10
-34.002000
 11
-34.155000
 20
-15.655000
 21
-15.471000
  0
LINE
 10
-34.155000
 11
-34.283000
 20
-15.471000
 21
-15.269000
  0
LINE
 10
-34.283000
 11
-34.385000
 20
-15.269000
 21
-15.052000
  0
LINE
 10
-34.385000
 11
-34.459000
 20
-15.052000
 21
-14.825000
  0
LINE
 10
-34.459000
 11
-34.504000
 20
-14.825000
 21
-14.590000
  0
LINE
 10
-34.504000
 11
-34.519000
 20
-14.590000
 21
-14.351000
  0
LINE
 10
-34.519000
 11
-34.504000
 20
0.000000
 21
0.239000
  0
LINE
 10
-34.504000
 11
-34.459000
 20
0.239000
 21
0.474000
  0
LINE
 10
-34.459000
 11
-34.385000
 20
0.474000
 21
0.701000
  0
LINE
 10
-34.385000
 11
-34.283000
 20
0.701000
 21
0.918000
  0
LINE
 10
-34.283000
 11
-34.155000
 20
0.918000
 21
1.120000
  0
LINE
 10
-34.155000
 11
-34.002000
 20
1.120000
 21
1.304000
  0
LINE
 10
-34.002000
 11
-33.828000
 20
1.304000
 21
1.468000
  0
LINE
 10
-33.828000
 11
-33.634000
 20
1.468000
 21
1.608000
  0
LINE
 10
-33.634000
 11
-33.425000
 20
1.608000
 21
1.724000
  0
LINE
 10
-33.425000
 11
-33.202000
 20
1.724000
 21
1.812000
  0
LINE
 10
-33.202000
 11
-32.971000
 20
1.812000
 21
1.871000
  0
LINE
 10
-32.971000
 11
-32.733000
 20
1.871000
 21
1.901000
  0
LINE
 10
-32.733000
 11
-32.494000
 20
1.901000
 21
1.901000
  0
LINE
 10
-32.494000
 11
-32.257000
 20
1.901000
 21
1.871000
  0
LINE
 10
-32.257000
 11
-32.025000
 20
1.871000
 21
1.812000
  0
LINE
 10
-32.025000
 11
-31.802000
 20
1.812000
 21
1.724000
  0
LINE
 10
-31.802000
 11
-31.593000
 20
1.724000
 21
1.608000
  0
LINE
 10
-31.593000
 11
-31.399000
 20
1.608000
 21
1.468000
  0
LINE
 10
-31.399000
 11
-31.225000
 20
1.468000
 21
1.304000
  0
LINE
 10
-31.225000
 11
-31.072000
 20
1.304000
 21
1.120000
  0
LINE
 10
-31.072000
 11
-30.944000
 20
1.120000
 21
0.918000
  0
LINE
 10
-30.944000
 11
-30.842000
 20
0.918000
 21
0.701000
  0
LINE
 10
-30.842000
 11
-30.768000
 20
0.701000
 21
0.474000
  0
LINE
 10
-30.768000
 11
-30.724000
 20
0.474000
 21
0.239000
  0
LINE
 10
-30.724000
 11
-30.709000
 20
0.239000
 21
0.000000
  0
LINE
 10
-30.709000
 11
-30.724000
 20
0.000000
 21
-0.239000
  0
LINE
 10
-30.724000
 11
-30.768000
 20
-0.239000
 21
-0.474000
  0
LINE
 10
-30.768000
 11
-30.842000
 20
-0.474000
 21
-0.701000
  0
LINE
 10
-30.842000
 11
-30.944000
 20
-0.701000
 21
-0.918000
  0
LINE
 10
-30.944000
 11
-31.072000
 20
-0.918000
 21
-1.120000
  0
LINE
 10
-31.072000
 11
-31.225000
 20
-1.120000
 21
-1.304000
  0
LINE
 10
-31.225000
 11
-31.399000
 20
-1.304000
 21
-1.468000
  0
LINE
 10
-31.399000
 11
-31.593000
 20
-1.468000
 21
-1.608000
  0
LINE
 10
-31.593000
 11
-31.802000
 20
-1.608000
 21
-1.724000
  0
LINE
 10
-31.802000
 11
-32.025000
 20
-1.724000
 21
-1.812000
  0
LINE
 10
-32.025000
 11
-32.257000
 20
-1.812000
 21
-1.871000
  0
LINE
 10
-32.257000
 11
-32.494000
 20
-1.871000
 21
-1.901000
  0
LINE
 10
-32.494000
 11
-32.733000
 20
-1.901000
 21
-1.901000
  0
LINE
 10
-32.733000
 11
-32.971000
 20
-1.901000
 21
-1.871000
  0
LINE
 10
-32.971000
 11
-33.202000
 20
-1.871000
 21
-1.812000
  0
LINE
 10
-33.202000
 11
-33.425000
 20
-1.812000
 21
-1.724000
  0
LINE
 10
-33.425000
 11
-33.634000
 20
-1.724000
 21
-1.608000
  0
LINE
 10
-33.634000
 11
-33.828000
 20
-1.608000
 21
-1.468000
  0
LINE
 10
-33.828000
 11
-34.002000
 20
-1.468000
 21
-1.304000
  0
LINE
 10
-34.002000
 11
-34.155000
 20
-1.304000
 21
-1.120000
  0
LINE
 10
-34.155000
 11
-34.283000
 20
-1.120000
 21
-0.918000
  0
LINE
 10
-34.283000
 11
-34.385000
 20
-0.918000
 21
-0.701000
  0
LINE
 10
-34.385000
 11
-34.459000
 20
-0.701000
 21
-0.474000
  0
LINE
 10
-34.459000
 11
-34.504000
 20
-0.474000
 21
-0.239000
  0
LINE
 10
-34.504000
 11
-34.519000
 20
-0.239000
 21
0.000000
  0
LINE
 10
-34.519000
 11
-34.504000
 20
14.351000
 21
14.590000
  0
LINE
 10
-34.504000
 11
-34.459000
 20
14.590000
 21
14.825000
  0
LINE
 10
-34.459000
 11
-34.385000
 20
14.825000
 21
15.052000
  0
LINE
 10
-34.385000
 11
-34.283000
 20
15.052000
 21
15.269000
  0
LINE
 10
-34.283000
 11
-34.155000
 20
15.269000
 21
15.471000
  0
LINE
 10
-34.155000
 11
-34.002000
 20
15.471000
 21
15.655000
  0
LINE
 10
-34.002000
 11
-33.828000
 20
15.655000
 21
15.819000
  0
LINE
 10
-33.828000
 11
-33.634000
 20
15.819000
 21
15.959000
  0
LINE
 10
-33.634000
 11
-33.425000
 20
15.959000
 21
16.075000
  0
LINE
 10
-33.425000
 11
-33.202000
 20
16.075000
 21
16.163000
  0
LINE
 10
-33.202000
 11
-32.971000
 20
16.163000
 21
16.222000
  0
LINE
 10
-32.971000
 11
-32.733000
 20
16.222000
 21
16.252000
  0
LINE
 10
-32.733000
 11
-32.494000
 20
16.252000
 21
16.252000
  0
LINE
 10
-32.494000
 11
-32.257000
 20
16.252000
 21
16.222000
  0
LINE
 10
-32.257000
 11
-32.025000
 20
16.222000
 21
16.163000
  0
LINE
 10
-32.025000
 11
-31.802000
 20
16.163000
 21
16.075000
  0
LINE
 10
-31.802000
 11
-31.593000
 20
16.075000
 21
15.959000
  0
LINE
 10
-31.593000
 11
-31.399000
 20
15.959000
 21
15.819000
  0
LINE
 10
-31.399000
 11
-31.225000
 20
15.819000
 21
15.655000
  0
LINE
 10
-31.225000
 11
-31.072000
 20
15.655000
 21
15.471000
  0
LINE
 10
-31.072000
 11
-30.944000
 20
15.471000
 21
15.269000
  0
LINE
 10
-30.944000
 11
-30.842000
 20
15.269000
 21
15.052000
  0
LINE
 10
-30.842000
 11
-30.768000
 20
15.052000
 21
14.825000
  0
LINE
 10
-30.768000
 11
-30.724000
 20
14.825000
 21
14.590000
  0
LINE
 10
-30.724000
 11
-30.709000
 20
14.590000
 21
14.351000
  0
LINE
 10
-30.709000
 11
-30.724000
 20
14.351000
 21
14.112000
  0
LINE
 10
-30.724000
 11
-30.768000
 20
14.112000
 21
13.877000
  0
LINE
 10
-30.768000
 11
-30.842000
 20
13.877000
 21
13.650000
  0
LINE
 10
-30.842000
 11
-30.944000
 20
13.650000
 21
13.433000
  0
LINE
 10
-30.944000
 11
-31.072000
 20
13.433000
 21
13.231000
  0
LINE
 10
-31.072000
 11
-31.225000
 20
13.231000
 21
13.047000
  0
LINE
 10
-31.225000
 11
-31.399000
 20
13.047000
 21
12.883000
  0
LINE
 10
-31.399000
 11
-31.593000
 20
12.883000
 21
12.743000
  0
LINE
 10
-31.593000
 11
-31.802000
 20
12.743000
 21
12.627000
  0
LINE
 10
-31.802000
 11
-32.025000
 20
12.627000
 21
12.539000
  0
LINE
 10
-32.025000
 11
-32.257000
 20
12.539000
 21
12.480000
  0
LINE
 10
-32.257000
 11
-32.494000
 20
12.480000
 21
12.450000
  0
LINE
 10
-32.494000
 11
-32.733000
 20
12.450000
 21
12.450000
  0
LINE
 10
-32.733000
 11
-32.971000
 20
12.450000
 21
12.480000
  0
LINE
 10
-32.971000
 11
-33.202000
 20
12.480000
 21
12.539000
  0
LINE
 10
-33.202000
 11
-33.425000
 20
12.539000
 21
12.627000
  0
LINE
 10
-33.425000
 11
-33.634000
 20
12.627000
 21
12.743000
  0
LINE
 10
-33.634000
 11
-33.828000
 20
12.743000
 21
12.883000
  0
LINE
 10
-33.828000
 11
-34.002000
 20
12.883000
 21
13.047000
  0
LINE
 10
-34.002000
 11
-34.155000
 20
13.047000
 21
13.231000
  0
LINE
 10
-34.155000
 11
-34.283000
 20
13.231000
 21
13.433000
  0
LINE
 10
-34.283000
 11
-34.385000
 20
13.433000
 21
13.650000
  0
LINE
 10
-34.385000
 11
-34.459000
 20
13.650000
 21
13.877000
  0
LINE
 10
-34.459000
 11
-34.504000
 20
13.877000
 21
14.112000
  0
LINE
 10
-34.504000
 11
-34.519000
 20
14.112000
 21
14.351000
  0
LINE
 10
-34.519000
 11
-34.504000
 20
28.702000
 21
28.941000
  0
LINE
 10
-34.504000
 11
-34.459000
 20
28.941000
 21
29.176000
  0
LINE
 10
-34.459000
 11
-34.385000
 20
29.176000
 21
29.403000
  0
LINE
 10
-34.385000
 11
-34.283000
 20
29.403000
 21
29.620000
  0
LINE
 10
-34.283000
 11
-34.155000
 20
29.620000
 21
29.822000
  0
LINE
 10
-34.155000
 11
-34.002000
 20
29.822000
 21
30.006000
  0
LINE
 10
-34.002000
 11
-33.828000
 20
30.006000
 21
30.170000
  0
LINE
 10
-33.828000
 11
-33.634000
 20
30.170000
 21
30.310000
  0
LINE
 10
-33.634000
 11
-33.425000
 20
30.310000
 21
30.426000
  0
LINE
 10
-33.425000
 11
-33.202000
 20
30.426000
 21
30.514000
  0
LINE
 10
-33.202000
 11
-32.971000
 20
30.514000
 21
30.573000
  0
LINE
 10
-32.971000
 11
-32.733000
 20
30.573000
 21
30.603000
  0
LINE
 10
-32.733000
 11
-32.494000
 20
30.603000
 21
30.603000
  0
LINE
 10
-32.494000
 11
-32.257000
 20
30.603000
 21
30.573000
  0
LINE
 10
-32.257000
 11
-32.025000
 20
30.573000
 21
30.514000
  0
LINE
 10
-32.025000
 11
-31.802000
 20
30.514000
 21
30.426000
  0
LINE
 10
-31.802000
 11
-31.593000
 20
30.426000
 21
30.310000
  0
LINE
 10
-31.593000
 11
-31.399000
 20
30.310000
 21
30.170000
  0
LINE
 10
-31.399000
 11
-31.225000
 20
30.170000
 21
30.006000
  0
LINE
 10
-31.225000
 11
-31.072000
 20
30.006000
 21
29.822000
  0
LINE
 10
-31.072000
 11
-30.944000
 20
29.822000
 21
29.620000
  0
LINE
 10
-30.944000
 11
-30.842000
 20
29.620000
 21
29.403000
  0
LINE
 10
-30.842000
 11
-30.768000
 20
29.403000
 21
29.176000
  0
LINE
 10
-30.768000
 11
-30.724000
 20
29.176000
 21
28.941000
  0
LINE
 10
-30.724000
 11
-30.709000
 20
28.941000
 21
28.702000
  0
LINE
 10
-30.709000
 11
-30.724000
 20
28.702000
 21
28.463000
  0
LINE
 10
-30.724000
 11
-30.768000
 20
28.463000
 21
28.228000
  0
LINE
 10
-30.768000
 11
-30.842000
 20
28.228000
 21
28.001000
  0
LINE
 10
-30.842000
 11
-30.944000
 20
28.001000
 21
27.784000
  0
LINE
 10
-30.944000
 11
-31.072000
 20
27.784000
 21
27.582000
  0
LINE
 10
-31.072000
 11
-31.225000
 20
27.582000
 21
27.398000
  0
LINE
 10
-31.225000
 11
-31.399000
 20
27.398000
 21
27.234000
  0
LINE
 10
-31.399000
 11
-31.593000
 20
27.234000
 21
27.094000
  0
LINE
 10
-31.593000
 11
-31.802000
 20
27.094000
 21
26.978000
  0
LINE
 10
-31.802000
 11
-32.025000
 20
26.978000
 21
26.890000
  0
LINE
 10
-32.025000
 11
-32.257000
 20
26.890000
 21
26.831000
  0
LINE
 10
-32.257000
 11
-32.494000
 20
26.831000
 21
26.801000
  0
LINE
 10
-32.494000
 11
-32.733000
 20
26.801000
 21
26.801000
  0
LINE
 10
-32.733000
 11
-32.971000
 20
26.801000
 21
26.831000
  0
LINE
 10
-32.971000
 11
-33.202000
 20
26.831000
 21
26.890000
  0
LINE
 10
-33.202000
 11
-33.425000
 20
26.890000
 21
26.978000
  0
LINE
 10
-33.425000
 11
-33.634000
 20
26.978000
 21
27.094000
  0
LINE
 10
-33.634000
 11
-33.828000
 20
27.094000
 21
27.234000
  0
LINE
 10
-33.828000
 11
-34.002000
 20
27.234000
 21
27.398000
  0
LINE
 10
-34.002000
 11
-34.155000
 20
27.398000
 21
27.582000
  0
LINE
 10
-34.155000
 11
-34.283000
 20
27.582000
 21
27.784000
  0
LINE
 10
-34.283000
 11
-34.385000
 20
27.784000
 21
28.001000
  0
LINE
 10
-34.385000
 11
-34.459000
 20
28.001000
 21
28.228000
  0
LINE
 10
-34.459000
 11
-34.504000
 20
28.228000
 21
28.463000
  0
LINE
 10
-34.504000
 11
-34.519000
 20
28.463000
 21
28.702000
  0
LINE
 10
-21.473000
 11
-21.458000
 20
-28.702000
 21
-28.463000
  0
LINE
 10
-21.458000
 11
-21.413000
 20
-28.463000
 21
-28.228000
  0
LINE
 10
-21.413000
 11
-21.339000
 20
-28.228000
 21
-28.001000
  0
LINE
 10
-21.339000
 11
-21.238000
 20
-28.001000
 21
-27.784000
  0
LINE
 10
-21.238000
 11
-21.109000
 20
-27.784000
 21
-27.582000
  0
LINE
 10
-21.109000
 11
-20.957000
 20
-27.582000
 21
-27.398000
  0
LINE
 10
-20.957000
 11
-20.782000
 20
-27.398000
 21
-27.234000
  0
LINE
 10
-20.782000
 11
-20.589000
 20
-27.234000
 21
-27.094000
  0
LINE
 10
-20.589000
 11
-20.379000
 20
-27.094000
 21
-26.978000
  0
LINE
 10
-20.379000
 11
-20.157000
 20
-26.978000
 21
-26.890000
  0
LINE
 10
-20.157000
 11
-19.925000
 20
-26.890000
 21
-26.831000
  0
LINE
 10
-19.925000
 11
-19.688000
 20
-26.831000
 21
-26.801000
  0
LINE
 10
-19.688000
 11
-19.449000
 20
-26.801000
 21
-26.801000
  0
LINE
 10
-19.449000
 11
-19.211000
 20
-26.801000
 21
-26.831000
  0
LINE
 10
-19.211000
 11
-18.979000
 20
-26.831000
 21
-26.890000
  0
LINE
 10
-18.979000
 11
-18.757000
 20
-26.890000
 21
-26.978000
  0
LINE
 10
-18.757000
 11
-18.547000
 20
-26.978000
 21
-27.094000
  0
LINE
 10
-18.547000
 11
-18.354000
 20
-27.094000
 21
-27.234000
  0
LINE
 10
-18.354000
 11
-18.179000
 20
-27.234000
 21
-27.398000
  0
LINE
 10
-18.179000
 11
-18.027000
 20
-27.398000
 21
-27.582000
  0
LINE
 10
-18.027000
 11
-17.899000
 20
-27.582000
 21
-27.784000
  0
LINE
 10
-17.899000
 11
-17.797000
 20
-27.784000
 21
-28.001000
  0
LINE
 10
-17.797000
 11
-17.723000
 20
-28.001000
 21
-28.228000
  0
LINE
 10
-17.723000
 11
-17.678000
 20
-28.228000
 21
-28.463000
  0
LINE
 10
-17.678000
 11
-17.663000
 20
-28.463000
 21
-28.702000
  0
LINE
 10
-17.663000
 11
-17.678000
 20
-28.702000
 21
-28.941000
  0
LINE
 10
-17.678000
 11
-17.723000
 20
-28.941000
 21
-29.176000
  0
LINE
 10
-17.723000
 11
-17.797000
 20
-29.176000
 21
-29.403000
  0
LINE
 10
-17.797000
 11
-17.899000
 20
-29.403000
 21
-29.620000
  0
LINE
 10
-17.899000
 11
-18.027000
 20
-29.620000
 21
-29.822000
  0
LINE
 10
-18.027000
 11
-18.179000
 20
-29.822000
 21
-30.006000
  0
LINE
 10
-18.179000
 11
-18.354000
 20
-30.006000
 21
-30.170000
  0
LINE
 10
-18.354000
 11
-18.547000
 20
-30.170000
 21
-30.310000
  0
LINE
 10
-18.547000
 11
-18.757000
 20
-30.310000
 21
-30.426000
  0
LINE
 10
-18.757000
 11
-18.979000
 20
-30.426000
 21
-30.514000
  0
LINE
 10
-18.979000
 11
-19.211000
 20
-30.514000
 21
-30.573000
  0
LINE
 10
-19.211000
 11
-19.449000
 20
-30.573000
 21
-30.603000
  0
LINE
 10
-19.449000
 11
-19.688000
 20
-30.603000
 21
-30.603000
  0
LINE
 10
-19.688000
 11
-19.925000
 20
-30.603000
 21
-30.573000
  0
LINE
 10
-19.925000
 11
-20.157000
 20
-30.573000
 21
-30.514000
  0
LINE
 10
-20.157000
 11
-20.379000
 20
-30.514000
 21
-30.426000
  0
LINE
 10
-20.379000
 11
-20.589000
 20
-30.426000
 21
-30.310000
  0
LINE
 10
-20.589000
 11
-20.782000
 20
-30.310000
 21
-30.170000
  0
LINE
 10
-20.782000
 11
-20.957000
 20
-30.170000
 21
-30.006000
  0
LINE
 10
-20.957000
 11
-21.109000
 20
-30.006000
 21
-29.822000
  0
LINE
 10
-21.109000
 11
-21.238000
 20
-29.822000
 21
-29.620000
  0
LINE
 10
-21.238000
 11
-21.339000
 20
-29.620000
 21
-29.403000
  0
LINE
 10
-21.339000
 11
-21.413000
 20
-29.403000
 21
-29.176000
  0
LINE
 10
-21.413000
 11
-21.458000
 20
-29.176000
 21
-28.941000
  0
LINE
 10
-21.458000
 11
-21.473000
 20
-28.941000
 21
-28.702000
  0
LINE
 10
-21.473000
 11
-21.458000
 20
-14.351000
 21
-14.112000
  0
LINE
 10
-21.458000
 11
-21.413000
 20
-14.112000
 21
-13.877000
  0
LINE
 10
-21.413000
 11
-21.339000
 20
-13.877000
 21
-13.650000
  0
LINE
 10
-21.339000
 11
-21.238000
 20
-13.650000
 21
-13.433000
  0
LINE
 10
-21.238000
 11
-21.109000
 20
-13.433000
 21
-13.231000
  0
LINE
 10
-21.109000
 11
-20.957000
 20
-13.231000
 21
-13.047000
  0
LINE
 10
-20.957000
 11
-20.782000
 20
-13.047000
 21
-12.883000
  0
LINE
 10
-20.782000
 11
-20.589000
 20
-12.883000
 21
-12.743000
  0
LINE
 10
-20.589000
 11
-20.379000
 20
-12.743000
 21
-12.627000
  0
LINE
 10
-20.379000
 11
-20.157000
 20
-12.627000
 21
-12.539000
  0
LINE
 10
-20.157000
 11
-19.925000
 20
-12.539000
 21
-12.480000
  0
LINE
 10
-19.925000
 11
-19.688000
 20
-12.480000
 21
-12.450000
  0
LINE
 10
-19.688000
 11
-19.449000
 20
-12.450000
 21
-12.450000
  0
LINE
 10
-19.449000
 11
-19.211000
 20
-12.450000
 21
-12.480000
  0
LINE
 10
-19.211000
 11
-18.979000
 20
-12.480000
 21
-12.539000
  0
LINE
 10
-18.979000
 11
-18.757000
 20
-12.539000
 21
-12.627000
  0
LINE
 10
-18.757000
 11
-18.547000
 20
-12.627000
 21
-12.743000
  0
LINE
 10
-18.547000
 11
-18.354000
 20
-12.743000
 21
-12.883000
  0
LINE
 10
-18.354000
 11
-18.179000
 20
-12.883000
 21
-13.047000
  0
LINE
 10
-18.179000
 11
-18.027000
 20
-13.047000
 21
-13.231000
  0
LINE
 10
-18.027000
 11
-17.899000
 20
-13.231000
 21
-13.433000
  0
LINE
 10
-17.899000
 11
-17.797000
 20
-13.433000
 21
-13.650000
  0
LINE
 10
-17.797000
 11
-17.723000
 20
-13.650000
 21
-13.877000
  0
LINE
 10
-17.723000
 11
-17.678000
 20
-13.877000
 21
-14.112000
  0
LINE
 10
-17.678000
 11
-17.663000
 20
-14.112000
 21
-14.351000
  0
LINE
 10
-17.663000
 11
-17.678000
 20
-14.351000
 21
-14.590000
  0
LINE
 10
-17.678000
 11
-17.723000
 20
-14.590000
 21
-14.825000
  0
LINE
 10
-17.723000
 11
-17.797000
 20
-14.825000
 21
-15.052000
  0
LINE
 10
-17.797000
 11
-17.899000
 20
-15.052000
 21
-15.269000
  0
LINE
 10
-17.899000
 11
-18.027000
 20
-15.269000
 21
-15.471000
  0
LINE
 10
-18.027000
 11
-18.179000
 20
-15.471000
 21
-15.655000
  0
LINE
 10
-18.179000
 11
-18.354000
 20
-15.655000
 21
-15.819000
  0
LINE
 10
-18.354000
 11
-18.547000
 20
-15.819000
 21
-15.959000
  0
LINE
 10
-18.547000
 11
-18.757000
 20
-15.959000
 21
-16.075000
  0
LINE
 10
-18.757000
 11
-18.979000
 20
-16.075000
 21
-16.163000
  0
LINE
 10
-18.979000
 11
-19.211000
 20
-16.163000
 21
-16.222000
  0
LINE
 10
-19.211000
 11
-19.449000
 20
-16.222000
 21
-16.252000
  0
LINE
 10
-19.449000
 11
-19.688000
 20
-16.252000
 21
-16.252000
  0
LINE
 10
-19.688000
 11
-19.925000
 20
-16.252000
 21
-16.222000
  0
LINE
 10
-19.925000
 11
-20.157000
 20
-16.222000
 21
-16.163000
  0
LINE
 10
-20.157000
 11
-20.379000
 20
-16.163000
 21
-16.075000
  0
LINE
 10
-20.379000
 11
-20.589000
 20
-16.075000
 21
-15.959000
  0
LINE
 10
-20.589000
 11
-20.782000
 20
-15.959000
 21
-15.819000
  0
LINE
 10
-20.782000
 11
-20.957000
 20
-15.819000
 21
-15.655000
  0
LINE
 10
-20.957000
 11
-21.109000
 20
-15.655000
 21
-15.471000
  0
LINE
 10
-21.109000
 11
-21.238000
 20
-15.471000
 21
-15.269000
  0
LINE
 10
-21.238000
 11
-21.339000
 20
-15.269000
 21
-15.052000
  0
LINE
 10
-21.339000
 11
-21.413000
 20
-15.052000
 21
-14.825000
  0
LINE
 10
-21.413000
 11
-21.458000
 20
-14.825000
 21
-14.590000
  0
LINE
 10
-21.458000
 11
-21.473000
 20
-14.590000
 21
-14.351000
  0
LINE
 10
-21.473000
 11
-21.458000
 20
0.000000
 21
0.239000
  0
LINE
 10
-21.458000
 11
-21.413000
 20
0.239000
 21
0.474000
  0
LINE
 10
-21.413000
 11
-21.339000
 20
0.474000
 21
0.701000
  0
LINE
 10
-21.339000
 11
-21.238000
 20
0.701000
 21
0.918000
  0
LINE
 10
-21.238000
 11
-21.109000
 20
0.918000
 21
1.120000
  0
LINE
 10
-21.109000
 11
-20.957000
 20
1.120000
 21
1.304000
  0
LINE
 10
-20.957000
 11
-20.782000
 20
1.304000
 21
1.468000
  0
LINE
 10
-20.782000
 11
-20.589000
 20
1.468000
 21
1.608000
  0
LINE
 10
-20.589000
 11
-20.379000
 20
1.608000
 21
1.724000
  0
LINE
 10
-20.379000
 11
-20.157000
 20
1.724000
 21
1.812000
  0
LINE
 10
-20.157000
 11
-19.925000
 20
1.812000
 21
1.871000
  0
LINE
 10
-19.925000
 11
-19.688000
 20
1.871000
 21
1.901000
  0
LINE
 10
-19.688000
 11
-19.449000
 20
1.901000
 21
1.901000
  0
LINE
 10
-19.449000
 11
-19.211000
 20
1.901000
 21
1.871000
  0
LINE
 10
-19.211000
 11
-18.979000
 20
1.871000
 21
1.812000
  0
LINE
 10
-18.979000
 11
-18.757000
 20
1.812000
 21
1.724000
  0
LINE
 10
-18.757000
 11
-18.547000
 20
1.724000
 21
1.608000
  0
LINE
 10
-18.547000
 11
-18.354000
 20
1.608000
 21
1.468000
  0
LINE
 10
-18.354000
 11
-18.179000
 20
1.468000
 21
1.304000
  0
LINE
 10
-18.179000
 11
-18.027000
 20
1.304000
 21
1.120000
  0
LINE
 10
-18.027000
 11
-17.899000
 20
1.120000
 21
0.918000
  0
LINE
 10
-17.899000
 11
-17.797000
 20
0.918000
 21
0.701000
  0
LINE
 10
-17.797000
 11
-17.723000
 20
0.701000
 21
0.474000
  0
LINE
 10
-17.723000
 11
-17.678000
 20
0.474000
 21
0.239000
  0
LINE
 10
-17.678000
 11
-17.663000
 20
0.239000
 21
0.000000
  0
LINE
 10
-17.663000
 11
-17.678000
 20
0.000000
 21
-0.239000
  0
LINE
 10
-17.678000
 11
-17.723000
 20
-0.239000
 21
-0.474000
  0
LINE
 10
-17.723000
 11
-17.797000
 20
-0.474000
 21
-0.701000
  0
LINE
 10
-17.797000
 11
-17.899000
 20
-0.701000
 21
-0.918000
  0
LINE
 10
-17.899000
 11
-18.027000
 20
-0.918000
 21
-1.120000
  0
LINE
 10
-18.027000
 11
-18.179000
 20
-1.120000
 21
-1.304000
  0
LINE
 10
-18.179000
 11
-18.354000
 20
-1.304000
 21
-1.468000
  0
LINE
 10
-18.354000
 11
-18.547000
 20
-1.468000
 21
-1.608000
  0
LINE
 10
-18.547000
 11
-18.757000
 20
-1.608000
 21
-1.724000
  0
LINE
 10
-18.757000
 11
-18.979000
 20
-1.724000
 21
-1.812000
  0
LINE
 10
-18.979000
 11
-19.211000
 20
-1.812000
 21
-1.871000
  0
LINE
 10
-19.211000
 11
-19.449000
 20
-1.871000
 21
-1.901000
  0
LINE
 10
-19.449000
 11
-19.688000
 20
-1.901000
 21
-1.901000
  0
LINE
 10
-19.688000
 11
-19.925000
 20
-1.901000
 21
-1.871000
  0
LINE
 10
-19.925000
 11
-20.157000
 20
-1.871000
 21
-1.812000
  0
LINE
 10
-20.157000
 11
-20.379000
 20
-1.812000
 21
-1.724000
  0
LINE
 10
-20.379000
 11
-20.589000
 20
-1.724000
 21
-1.608000
  0
LINE
 10
-20.589000
 11
-20.782000
 20
-1.608000
 21
-1.468000
  0
LINE
 10
-20.782000
 11
-20.957000
 20
-1.468000
 21
-1.304000
  0
LINE
 10
-20.957000
 11
-21.109000
 20
-1.304000
 21
-1.120000
  0
LINE
 10
-21.109000
 11
-21.238000
 20
-1.120000
 21
-0.918000
  0
LINE
 10
-21.238000
 11
-21.339000
 20
-0.918000
 21
-0.701000
  0
LINE
 10
-21.339000
 11
-21.413000
 20
-0.701000
 21
-0.474000
  0
LINE
 10
-21.413000
 11
-21.458000
 20
-0.474000
 21
-0.239000
  0
LINE
 10
-21.458000
 11
-21.473000
 20
-0.239000
 21
0.000000
  0
LINE
 10
-21.473000
 11
-21.458000
 20
14.351000
 21
14.590000
  0
LINE
 10
-21.458000
 11
-21.413000
 20
14.590000
 21
14.825000
  0
LINE
 10
-21.413000
 11
-21.339000
 20
14.825000
 21
15.052000
  0
LINE
 10
-21.339000
 11
-21.238000
 20
15.052000
 21
15.269000
  0
LINE
 10
-21.238000
 11
-21.109000
 20
15.269000
 21
15.471000
  0
LINE
 10
-21.109000
 11
-20.957000
 20
15.471000
 21
15.655000
  0
LINE
 10
-20.957000
 11
-20.782000
 20
15.655000
 21
15.819000
  0
LINE
 10
-20.782000
 11
-20.589000
 20
15.819000
 21
15.959000
  0
LINE
 10
-20.589000
 11
-20.379000
 20
15.959000
 21
16.075000
  0
LINE
 10
-20.379000
 11
-20.157000
 20
16.075000
 21
16.163000
  0
LINE
 10
-20.157000
 11
-19.925000
 20
16.163000
 21
16.222000
  0
LINE
 10
-19.925000
 11
-19.688000
 20
16.222000
 21
16.252000
  0
LINE
 10
-19.688000
 11
-19.449000
 20
16.252000
 21
16.252000
  0
LINE
 10
-19.449000
 11
-19.211000
 20
16.252000
 21
16.222000
  0
LINE
 10
-19.211000
 11
-18.979000
 20
16.222000
 21
16.163000
  0
LINE
 10
-18.979000
 11
-18.757000
 20
16.163000
 21
16.075000
  0
LINE
 10
-18.757000
 11
-18.547000
 20
16.075000
 21
15.959000
  0
LINE
 10
-18.547000
 11
-18.354000
 20
15.959000
 21
15.819000
  0
LINE
 10
-18.354000
 11
-18.179000
 20
15.819000
 21
15.655000
  0
LINE
 10
-18.179000
 11
-18.027000
 20
15.655000
 21
15.471000
  0
LINE
 10
-18.027000
 11
-17.899000
 20
15.471000
 21
15.269000
  0
LINE
 10
-17.899000
 11
-17.797000
 20
15.269000
 21
15.052000
  0
LINE
 10
-17.797000
 11
-17.723000
 20
15.052000
 21
14.825000
  0
LINE
 10
-17.723000
 11
-17.678000
 20
14.825000
 21
14.590000
  0
LINE
 10
-17.678000
 11
-17.663000
 20
14.590000
 21
14.351000
  0
LINE
 10
-17.663000
 11
-17.678000
 20
14.351000
 21
14.112000
  0
LINE
 10
-17.678000
 11
-17.723000
 20
14.112000
 21
13.877000
  0
LINE
 10
-17.723000
 11
-17.797000
 20
13.877000
 21
13.650000
  0
LINE
 10
-17.797000
 11
-17.899000
 20
13.650000
 21
13.433000
  0
LINE
 10
-17.899000
 11
-18.027000
 20
13.433000
 21
13.231000
  0
LINE
 10
-18.027000
 11
-18.179000
 20
13.231000
 21
13.047000
  0
LINE
 10
-18.179000
 11
-18.354000
 20
13.047000
 21
12.883000
  0
LINE
 10
-18.354000
 11
-18.547000
 20
12.883000
 21
12.743000
  0
LINE
 10
-18.547000
 11
-18.757000
 20
12.743000
 21
12.627000
  0
LINE
 10
-18.757000
 11
-18.979000
 20
12.627000
 21
12.539000
  0
LINE
 10
-18.979000
 11
-19.211000
 20
12.539000
 21
12.480000
  0
LINE
 10
-19.211000
 11
-19.449000
 20
12.480000
 21
12.450000
  0
LINE
 10
-19.449000
 11
-19.688000
 20
12.450000
 21
12.450000
  0
LINE
 10
-19.688000
 11
-19.925000
 20
12.450000
 21
12.480000
  0
LINE
 10
-19.925000
 11
-20.157000
 20
12.480000
 21
12.539000
  0
LINE
 10
-20.157000
 11
-20.379000
 20
12.539000
 21
12.627000
  0
LINE
 10
-20.379000
 11
-20.589000
 20
12.627000
 21
12.743000
  0
LINE
 10
-20.589000
 11
-20.782000
 20
12.743000
 21
12.883000
  0
LINE
 10
-20.782000
 11
-20.957000
 20
12.883000
 21
13.047000
  0
LINE
 10
-20.957000
 11
-21.109000
 20
13.047000
 21
13.231000
  0
LINE
 10
-21.109000
 11
-21.238000
 20
13.231000
 21
13.433000
  0
LINE
 10
-21.238000
 11
-21.339000
 20
13.433000
 21
13.650000
  0
LINE
 10
-21.339000
 11
-21.413000
 20
13.650000
 21
13.877000
  0
LINE
 10
-21.413000
 11
-21.458000
 20
13.877000
 21
14.112000
  0
LINE
 10
-21.458000
 11
-21.473000
 20
14.112000
 21
14.351000
  0
LINE
 10
-21.473000
 11
-21.458000
 20
28.702000
 21
28.941000
  0
LINE
 10
-21.458000
 11
-21.413000
 20
28.941000
 21
29.176000
  0
LINE
 10
-21.413000
 11
-21.339000
 20
29.176000
 21
29.403000
  0
LINE
 10
-21.339000
 11
-21.238000
 20
29.403000
 21
29.620000
  0
LINE
 10
-21.238000
 11
-21.109000
 20
29.620000
 21
29.822000
  0
LINE
 10
-21.109000
 11
-20.957000
 20
29.822000
 21
30.006000
  0
LINE
 10
-20.957000
 11
-20.782000
 20
30.006000
 21
30.170000
  0
LINE
 10
-20.782000
 11
-20.589000
 20
30.170000
 21
30.310000
  0
LINE
 10
-20.589000
 11
-20.379000
 20
30.310000
 21
30.426000
  0
LINE
 10
-20.379000
 11
-20.157000
 20
30.426000
 21
30.514000
  0
LINE
 10
-20.157000
 11
-19.925000
 20
30.514000
 21
30.573000
  0
LINE
 10
-19.925000
 11
-19.688000
 20
30.573000
 21
30.603000
  0
LINE
 10
-19.688000
 11
-19.449000
 20
30.603000
 21
30.603000
  0
LINE
 10
-19.449000
 11
-19.211000
 20
30.603000
 21
30.573000
  0
LINE
 10
-19.211000
 11
-18.979000
 20
30.573000
 21
30.514000
  0
LINE
 10
-18.979000
 11
-18.757000
 20
30.514000
 21
30.426000
  0
LINE
 10
-18.757000
 11
-18.547000
 20
30.426000
 21
30.310000
  0
LINE
 10
-18.547000
 11
-18.354000
 20
30.310000
 21
30.170000
  0
LINE
 10
-18.354000
 11
-18.179000
 20
30.170000
 21
30.006000
  0
LINE
 10
-18.179000
 11
-18.027000
 20
30.006000
 21
29.822000
  0
LINE
 10
-18.027000
 11
-17.899000
 20
29.822000
 21
29.620000
  0
LINE
 10
-17.899000
 11
-17.797000
 20
29.620000
 21
29.403000
  0
LINE
 10
-17.797000
 11
-17.723000
 20
29.403000
 21
29.176000
  0
LINE
 10
-17.723000
 11
-17.678000
 20
29.176000
 21
28.941000
  0
LINE
 10
-17.678000
 11
-17.663000
 20
28.941000
 21
28.702000
  0
LINE
 10
-17.663000
 11
-17.678000
 20
28.702000
 21
28.463000
  0
LINE
 10
-17.678000
 11
-17.723000
 20
28.463000
 21
28.228000
  0
LINE
 10
-17.723000
 11
-17.797000
 20
28.228000
 21
28.001000
  0
LINE
 10
-17.797000
 11
-17.899000
 20
28.001000
 21
27.784000
  0
LINE
 10
-17.899000
 11
-18.027000
 20
27.784000
 21
27.582000
  0
LINE
 10
-18.027000
 11
-18.179000
 20
27.582000
 21
27.398000
  0
LINE
 10
-18.179000
 11
-18.354000
 20
27.398000
 21
27.234000
  0
LINE
 10
-18.354000
 11
-18.547000
 20
27.234000
 21
27.094000
  0
LINE
 10
-18.547000
 11
-18.757000
 20
27.094000
 21
26.978000
  0
LINE
 10
-18.757000
 11
-18.979000
 20
26.978000
 21
26.890000
  0
LINE
 10
-18.979000
 11
-19.211000
 20
26.890000
 21
26.831000
  0
LINE
 10
-19.211000
 11
-19.449000
 20
26.831000
 21
26.801000
  0
LINE
 10
-19.449000
 11
-19.688000
 20
26.801000
 21
26.801000
  0
LINE
 10
-19.688000
 11
-19.925000
 20
26.801000
 21
26.831000
  0
LINE
 10
-19.925000
 11
-20.157000
 20
26.831000
 21
26.890000
  0
LINE
 10
-20.157000
 11
-20.379000
 20
26.890000
 21
26.978000
  0
LINE
 10
-20.379000
 11
-20.589000
 20
26.978000
 21
27.094000
  0
LINE
 10
-20.589000
 11
-20.782000
 20
27.094000
 21
27.234000
  0
LINE
 10
-20.782000
 11
-20.957000
 20
27.234000
 21
27.398000
  0
LINE
 10
-20.957000
 11
-21.109000
 20
27.398000
 21
27.582000
  0
LINE
 10
-21.109000
 11
-21.238000
 20
27.582000
 21
27.784000
  0
LINE
 10
-21.238000
 11
-21.339000
 20
27.784000
 21
28.001000
  0
LINE
 10
-21.339000
 11
-21.413000
 20
28.001000
 21
28.228000
  0
LINE
 10
-21.413000
 11
-21.458000
 20
28.228000
 21
28.463000
  0
LINE
 10
-21.458000
 11
-21.473000
 20
28.463000
 21
28.702000
  0
LINE
 10
-12.700000
 11
-12.700000
 20
99.045000
 21
124.445000
  0
LINE
 10
-12.700000
 11
12.700000
 20
124.445000
 21
124.445000
  0
LINE
 10
12.700000
 11
12.700000
 20
124.445000
 21
99.045000
  0
LINE
 10
12.700000
 11
-12.700000
 20
99.045000
 21
99.045000
  0
LINE
 10
-8.428000
 11
-8.413000
 20
-28.702000
 21
-28.463000
  0
LINE
 10
-8.413000
 11
-8.368000
 20
-28.463000
 21
-28.228000
  0
LINE
 10
-8.368000
 11
-8.294000
 20
-28.228000
 21
-28.001000
  0
LINE
 10
-8.294000
 11
-8.192000
 20
-28.001000
 21
-27.784000
  0
LINE
 10
-8.192000
 11
-8.064000
 20
-27.784000
 21
-27.582000
  0
LINE
 10
-8.064000
 11
-7.911000
 20
-27.582000
 21
-27.398000
  0
LINE
 10
-7.911000
 11
-7.737000
 20
-27.398000
 21
-27.234000
  0
LINE
 10
-7.737000
 11
-7.543000
 20
-27.234000
 21
-27.094000
  0
LINE
 10
-7.543000
 11
-7.334000
 20
-27.094000
 21
-26.978000
  0
LINE
 10
-7.334000
 11
-7.111000
 20
-26.978000
 21
-26.890000
  0
LINE
 10
-7.111000
 11
-6.880000
 20
-26.890000
 21
-26.831000
  0
LINE
 10
-6.880000
 11
-6.642000
 20
-26.831000
 21
-26.801000
  0
LINE
 10
-6.642000
 11
-6.403000
 20
-26.801000
 21
-26.801000
  0
LINE
 10
-6.403000
 11
-6.166000
 20
-26.801000
 21
-26.831000
  0
LINE
 10
-6.166000
 11
-5.934000
 20
-26.831000
 21
-26.890000
  0
LINE
 10
-5.934000
 11
-5.712000
 20
-26.890000
 21
-26.978000
  0
LINE
 10
-5.712000
 11
-5.502000
 20
-26.978000
 21
-27.094000
  0
LINE
 10
-5.502000
 11
-5.308000
 20
-27.094000
 21
-27.234000
  0
LINE
 10
-5.308000
 11
-5.134000
 20
-27.234000
 21
-27.398000
  0
LINE
 10
-5.134000
 11
-4.982000
 20
-27.398000
 21
-27.582000
  0
LINE
 10
-4.982000
 11
-4.853000
 20
-27.582000
 21
-27.784000
  0
LINE
 10
-4.853000
 11
-4.751000
 20
-27.784000
 21
-28.001000
  0
LINE
 10
-4.751000
 11
-4.678000
 20
-28.001000
 21
-28.228000
  0
LINE
 10
-4.678000
 11
-4.633000
 20
-28.228000
 21
-28.463000
  0
LINE
 10
-4.633000
 11
-4.618000
 20
-28.463000
 21
-28.702000
  0
LINE
 10
-4.618000
 11
-4.633000
 20
-28.702000
 21
-28.941000
  0
LINE
 10
-4.633000
 11
-4.678000
 20
-28.941000
 21
-29.176000
  0
LINE
 10
-4.678000
 11
-4.751000
 20
-29.176000
 21
-29.403000
  0
LINE
 10
-4.751000
 11
-4.853000
 20
-29.403000
 21
-29.620000
  0
LINE
 10
-4.853000
 11
-4.982000
 20
-29.620000
 21
-29.822000
  0
LINE
 10
-4.982000
 11
-5.134000
 20
-29.822000
 21
-30.006000
  0
LINE
 10
-5.134000
 11
-5.308000
 20
-30.006000
 21
-30.170000
  0
LINE
 10
-5.308000
 11
-5.502000
 20
-30.170000
 21
-30.310000
  0
LINE
 10
-5.502000
 11
-5.712000
 20
-30.310000
 21
-30.426000
  0
LINE
 10
-5.712000
 11
-5.934000
 20
-30.426000
 21
-30.514000
  0
LINE
 10
-5.934000
 11
-6.166000
 20
-30.514000
 21
-30.573000
  0
LINE
 10
-6.166000
 11
-6.403000
 20
-30.573000
 21
-30.603000
  0
LINE
 10
-6.403000
 11
-6.642000
 20
-30.603000
 21
-30.603000
  0
LINE
 10
-6.642000
 11
-6.880000
 20
-30.603000
 21
-30.573000
  0
LINE
 10
-6.880000
 11
-7.111000
 20
-30.573000
 21
-30.514000
  0
LINE
 10
-7.111000
 11
-7.334000
 20
-30.514000
 21
-30.426000
  0
LINE
 10
-7.334000
 11
-7.543000
 20
-30.426000
 21
-30.310000
  0
LINE
 10
-7.543000
 11
-7.737000
 20
-30.310000
 21
-30.170000
  0
LINE
 10
-7.737000
 11
-7.911000
 20
-30.170000
 21
-30.006000
  0
LINE
 10
-7.911000
 11
-8.064000
 20
-30.006000
 21
-29.822000
  0
LINE
 10
-8.064000
 11
-8.192000
 20
-29.822000
 21
-29.620000
  0
LINE
 10
-8.192000
 11
-8.294000
 20
-29.620000
 21
-29.403000
  0
LINE
 10
-8.294000
 11
-8.368000
 20
-29.403000
 21
-29.176000
  0
LINE
 10
-8.368000
 11
-8.413000
 20
-29.176000
 21
-28.941000
  0
LINE
 10
-8.413000
 11
-8.428000
 20
-28.941000
 21
-28.702000
  0
LINE
 10
-8.428000
 11
-8.413000
 20
-14.351000
 21
-14.112000
  0
LINE
 10
-8.413000
 11
-8.368000
 20
-14.112000
 21
-13.877000
  0
LINE
 10
-8.368000
 11
-8.294000
 20
-13.877000
 21
-13.650000
  0
LINE
 10
-8.294000
 11
-8.192000
 20
-13.650000
 21
-13.433000
  0
LINE
 10
-8.192000
 11
-8.064000
 20
-13.433000
 21
-13.231000
  0
LINE
 10
-8.064000
 11
-7.911000
 20
-13.231000
 21
-13.047000
  0
LINE
 10
-7.911000
 11
-7.737000
 20
-13.047000
 21
-12.883000
  0
LINE
 10
-7.737000
 11
-7.543000
 20
-12.883000
 21
-12.743000
  0
LINE
 10
-7.543000
 11
-7.334000
 20
-12.743000
 21
-12.627000
  0
LINE
 10
-7.334000
 11
-7.111000
 20
-12.627000
 21
-12.539000
  0
LINE
 10
-7.111000
 11
-6.880000
 20
-12.539000
 21
-12.480000
  0
LINE
 10
-6.880000
 11
-6.642000
 20
-12.480000
 21
-12.450000
  0
LINE
 10
-6.642000
 11
-6.403000
 20
-12.450000
 21
-12.450000
  0
LINE
 10
-6.403000
 11
-6.166000
 20
-12.450000
 21
-12.480000
  0
LINE
 10
-6.166000
 11
-5.934000
 20
-12.480000
 21
-12.539000
  0
LINE
 10
-5.934000
 11
-5.712000
 20
-12.539000
 21
-12.627000
  0
LINE
 10
-5.712000
 11
-5.502000
 20
-12.627000
 21
-12.743000
  0
LINE
 10
-5.502000
 11
-5.308000
 20
-12.743000
 21
-12.883000
  0
LINE
 10
-5.308000
 11
-5.134000
 20
-12.883000
 21
-13.047000
  0
LINE
 10
-5.134000
 11
-4.982000
 20
-13.047000
 21
-13.231000
  0
LINE
 10
-4.982000
 11
-4.853000
 20
-13.231000
 21
-13.433000
  0
LINE
 10
-4.853000
 11
-4.751000
 20
-13.433000
 21
-13.650000
  0
LINE
 10
-4.751000
 11
-4.678000
 20
-13.650000
 21
-13.877000
  0
LINE
 10
-4.678000
 11
-4.633000
 20
-13.877000
 21
-14.112000
  0
LINE
 10
-4.633000
 11
-4.618000
 20
-14.112000
 21
-14.351000
  0
LINE
 10
-4.618000
 11
-4.633000
 20
-14.351000
 21
-14.590000
  0
LINE
 10
-4.633000
 11
-4.678000
 20
-14.590000
 21
-14.825000
  0
LINE
 10
-4.678000
 11
-4.751000
 20
-14.825000
 21
-15.052000
  0
LINE
 10
-4.751000
 11
-4.853000
 20
-15.052000
 21
-15.269000
  0
LINE
 10
-4.853000
 11
-4.982000
 20
-15.269000
 21
-15.471000
  0
LINE
 10
-4.982000
 11
-5.134000
 20
-15.471000
 21
-15.655000
  0
LINE
 10
-5.134000
 11
-5.308000
 20
-15.655000
 21
-15.819000
  0
LINE
 10
-5.308000
 11
-5.502000
 20
-15.819000
 21
-15.959000
  0
LINE
 10
-5.502000
 11
-5.712000
 20
-15.959000
 21
-16.075000
  0
LINE
 10
-5.712000
 11
-5.934000
 20
-16.075000
 21
-16.163000
  0
LINE
 10
-5.934000
 11
-6.166000
 20
-16.163000
 21
-16.222000
  0
LINE
 10
-6.166000
 11
-6.403000
 20
-16.222000
 21
-16.252000
  0
LINE
 10
-6.403000
 11
-6.642000
 20
-16.252000
 21
-16.252000
  0
LINE
 10
-6.642000
 11
-6.880000
 20
-16.252000
 21
-16.222000
  0
LINE
 10
-6.880000
 11
-7.111000
 20
-16.222000
 21
-16.163000
  0
LINE
 10
-7.111000
 11
-7.334000
 20
-16.163000
 21
-16.075000
  0
LINE
 10
-7.334000
 11
-7.543000
 20
-16.075000
 21
-15.959000
  0
LINE
 10
-7.543000
 11
-7.737000
 20
-15.959000
 21
-15.819000
  0
LINE
 10
-7.737000
 11
-7.911000
 20
-15.819000
 21
-15.655000
  0
LINE
 10
-7.911000
 11
-8.064000
 20
-15.655000
 21
-15.471000
  0
LINE
 10
-8.064000
 11
-8.192000
 20
-15.471000
 21
-15.269000
  0
LINE
 10
-8.192000
 11
-8.294000
 20
-15.269000
 21
-15.052000
  0
LINE
 10
-8.294000
 11
-8.368000
 20
-15.052000
 21
-14.825000
  0
LINE
 10
-8.368000
 11
-8.413000
 20
-14.825000
 21
-14.590000
  0
LINE
 10
-8.413000
 11
-8.428000
 20
-14.590000
 21
-14.351000
  0
LINE
 10
-8.428000
 11
-8.413000
 20
0.000000
 21
0.239000
  0
LINE
 10
-8.413000
 11
-8.368000
 20
0.239000
 21
0.474000
  0
LINE
 10
-8.368000
 11
-8.294000
 20
0.474000
 21
0.701000
  0
LINE
 10
-8.294000
 11
-8.192000
 20
0.701000
 21
0.918000
  0
LINE
 10
-8.192000
 11
-8.064000
 20
0.918000
 21
1.120000
  0
LINE
 10
-8.064000
 11
-7.911000
 20
1.120000
 21
1.304000
  0
LINE
 10
-7.911000
 11
-7.737000
 20
1.304000
 21
1.468000
  0
LINE
 10
-7.737000
 11
-7.543000
 20
1.468000
 21
1.608000
  0
LINE
 10
-7.543000
 11
-7.334000
 20
1.608000
 21
1.724000
  0
LINE
 10
-7.334000
 11
-7.111000
 20
1.724000
 21
1.812000
  0
LINE
 10
-7.111000
 11
-6.880000
 20
1.812000
 21
1.871000
  0
LINE
 10
-6.880000
 11
-6.642000
 20
1.871000
 21
1.901000
  0
LINE
 10
-6.642000
 11
-6.403000
 20
1.901000
 21
1.901000
  0
LINE
 10
-6.403000
 11
-6.166000
 20
1.901000
 21
1.871000
  0
LINE
 10
-6.166000
 11
-5.934000
 20
1.871000
 21
1.812000
  0
LINE
 10
-5.934000
 11
-5.712000
 20
1.812000
 21
1.724000
  0
LINE
 10
-5.712000
 11
-5.502000
 20
1.724000
 21
1.608000
  0
LINE
 10
-5.502000
 11
-5.308000
 20
1.608000
 21
1.468000
  0
LINE
 10
-5.308000
 11
-5.134000
 20
1.468000
 21
1.304000
  0
LINE
 10
-5.134000
 11
-4.982000
 20
1.304000
 21
1.120000
  0
LINE
 10
-4.982000
 11
-4.853000
 20
1.120000
 21
0.918000
  0
LINE
 10
-4.853000
 11
-4.751000
 20
0.918000
 21
0.701000
  0
LINE
 10
-4.751000
 11
-4.678000
 20
0.701000
 21
0.474000
  0
LINE
 10
-4.678000
 11
-4.633000
 20
0.474000
 21
0.239000
  0
LINE
 10
-4.633000
 11
-4.618000
 20
0.239000
 21
0.000000
  0
LINE
 10
-4.618000
 11
-4.633000
 20
0.000000
 21
-0.239000
  0
LINE
 10
-4.633000
 11
-4.678000
 20
-0.239000
 21
-0.474000
  0
LINE
 10
-4.678000
 11
-4.751000
 20
-0.474000
 21
-0.701000
  0
LINE
 10
-4.751000
 11
-4.853000
 20
-0.701000
 21
-0.918000
  0
LINE
 10
-4.853000
 11
-4.982000
 20
-0.918000
 21
-1.120000
  0
LINE
 10
-4.982000
 11
-5.134000
 20
-1.120000
 21
-1.304000
  0
LINE
 10
-5.134000
 11
-5.308000
 20
-1.304000
 21
-1.468000
  0
LINE
 10
-5.308000
 11
-5.502000
 20
-1.468000
 21
-1.608000
  0
LINE
 10
-5.502000
 11
-5.712000
 20
-1.608000
 21
-1.724000
  0
LINE
 10
-5.712000
 11
-5.934000
 20
-1.724000
 21
-1.812000
  0
LINE
 10
-5.934000
 11
-6.166000
 20
-1.812000
 21
-1.871000
  0
LINE
 10
-6.166000
 11
-6.403000
 20
-1.871000
 21
-1.901000
  0
LINE
 10
-6.403000
 11
-6.642000
 20
-1.901000
 21
-1.901000
  0
LINE
 10
-6.642000
 11
-6.880000
 20
-1.901000
 21
-1.871000
  0
LINE
 10
-6.880000
 11
-7.111000
 20
-1.871000
 21
-1.812000
  0
LINE
 10
-7.111000
 11
-7.334000
 20
-1.812000
 21
-1.724000
  0
LINE
 10
-7.334000
 11
-7.543000
 20
-1.724000
 21
-1.608000
  0
LINE
 10
-7.543000
 11
-7.737000
 20
-1.608000
 21
-1.468000
  0
LINE
 10
-7.737000
 11
-7.911000
 20
-1.468000
 21
-1.304000
  0
LINE
 10
-7.911000
 11
-8.064000
 20
-1.304000
 21
-1.120000
  0
LINE
 10
-8.064000
 11
-8.192000
 20
-1.120000
 21
-0.918000
  0
LINE
 10
-8.192000
 11
-8.294000
 20
-0.918000
 21
-0.701000
  0
LINE
 10
-8.294000
 11
-8.368000
 20
-0.701000
 21
-0.474000
  0
LINE
 10
-8.368000
 11
-8.413000
 20
-0.474000
 21
-0.239000
  0
LINE
 10
-8.413000
 11
-8.428000
 20
-0.239000
 21
0.000000
  0
LINE
 10
-8.428000
 11
-8.413000
 20
14.351000
 21
14.590000
  0
LINE
 10
-8.413000
 11
-8.368000
 20
14.590000
 21
14.825000
  0
LINE
 10
-8.368000
 11
-8.294000
 20
14.825000
 21
15.052000
  0
LINE
 10
-8.294000
 11
-8.192000
 20
15.052000
 21
15.269000
  0
LINE
 10
-8.192000
 11
-8.064000
 20
15.269000
 21
15.471000
  0
LINE
 10
-8.064000
 11
-7.911000
 20
15.471000
 21
15.655000
  0
LINE
 10
-7.911000
 11
-7.737000
 20
15.655000
 21
15.819000
  0
LINE
 10
-7.737000
 11
-7.543000
 20
15.819000
 21
15.959000
  0
LINE
 10
-7.543000
 11
-7.334000
 20
15.959000
 21
16.075000
  0
LINE
 10
-7.334000
 11
-7.111000
 20
16.075000
 21
16.163000
  0
LINE
 10
-7.111000
 11
-6.880000
 20
16.163000
 21
16.222000
  0
LINE
 10
-6.880000
 11
-6.642000
 20
16.222000
 21
16.252000
  0
LINE
 10
-6.642000
 11
-6.403000
 20
16.252000
 21
16.252000
  0
LINE
 10
-6.403000
 11
-6.166000
 20
16.252000
 21
16.222000
  0
LINE
 10
-6.166000
 11
-5.934000
 20
16.222000
 21
16.163000
  0
LINE
 10
-5.934000
 11
-5.712000
 20
16.163000
 21
16.075000
  0
LINE
 10
-5.712000
 11
-5.502000
 20
16.075000
 21
15.959000
  0
LINE
 10
-5.502000
 11
-5.308000
 20
15.959000
 21
15.819000
  0
LINE
 10
-5.308000
 11
-5.134000
 20
15.819000
 21
15.655000
  0
LINE
 10
-5.134000
 11
-4.982000
 20
15.655000
 21
15.471000
  0
LINE
 10
-4.982000
 11
-4.853000
 20
15.471000
 21
15.269000
  0
LINE
 10
-4.853000
 11
-4.751000
 20
15.269000
 21
15.052000
  0
LINE
 10
-4.751000
 11
-4.678000
 20
15.052000
 21
14.825000
  0
LINE
 10
-4.678000
 11
-4.633000
 20
14.825000
 21
14.590000
  0
LINE
 10
-4.633000
 11
-4.618000
 20
14.590000
 21
14.351000
  0
LINE
 10
-4.618000
 11
-4.633000
 20
14.351000
 21
14.112000
  0
LINE
 10
-4.633000
 11
-4.678000
 20
14.112000
 21
13.877000
  0
LINE
 10
-4.678000
 11
-4.751000
 20
13.877000
 21
13.650000
  0
LINE
 10
-4.751000
 11
-4.853000
 20
13.650000
 21
13.433000
  0
LINE
 10
-4.853000
 11
-4.982000
 20
13.433000
 21
13.231000
  0
LINE
 10
-4.982000
 11
-5.134000
 20
13.231000
 21
13.047000
  0
LINE
 10
-5.134000
 11
-5.308000
 20
13.047000
 21
12.883000
  0
LINE
 10
-5.308000
 11
-5.502000
 20
12.883000
 21
12.743000
  0
LINE
 10
-5.502000
 11
-5.712000
 20
12.743000
 21
12.627000
  0
LINE
 10
-5.712000
 11
-5.934000
 20
12.627000
 21
12.539000
  0
LINE
 10
-5.934000
 11
-6.166000
 20
12.539000
 21
12.480000
  0
LINE
 10
-6.166000
 11
-6.403000
 20
12.480000
 21
12.450000
  0
LINE
 10
-6.403000
 11
-6.642000
 20
12.450000
 21
12.450000
  0
LINE
 10
-6.642000
 11
-6.880000
 20
12.450000
 21
12.480000
  0
LINE
 10
-6.880000
 11
-7.111000
 20
12.480000
 21
12.539000
  0
LINE
 10
-7.111000
 11
-7.334000
 20
12.539000
 21
12.627000
  0
LINE
 10
-7.334000
 11
-7.543000
 20
12.627000
 21
12.743000
  0
LINE
 10
-7.543000
 11
-7.737000
 20
12.743000
 21
12.883000
  0
LINE
 10
-7.737000
 11
-7.911000
 20
12.883000
 21
13.047000
  0
LINE
 10
-7.911000
 11
-8.064000
 20
13.047000
 21
13.231000
  0
LINE
 10
-8.064000
 11
-8.192000
 20
13.231000
 21
13.433000
  0
LINE
 10
-8.192000
 11
-8.294000
 20
13.433000
 21
13.650000
  0
LINE
 10
-8.294000
 11
-8.368000
 20
13.650000
 21
13.877000
  0
LINE
 10
-8.368000
 11
-8.413000
 20
13.877000
 21
14.112000
  0
LINE
 10
-8.413000
 11
-8.428000
 20
14.112000
 21
14.351000
  0
LINE
 10
-8.428000
 11
-8.413000
 20
28.702000
 21
28.941000
  0
LINE
 10
-8.413000
 11
-8.368000
 20
28.941000
 21
29.176000
  0
LINE
 10
-8.368000
 11
-8.294000
 20
29.176000
 21
29.403000
  0
LINE
 10
-8.294000
 11
-8.192000
 20
29.403000
 21
29.620000
  0
LINE
 10
-8.192000
 11
-8.064000
 20
29.620000
 21
29.822000
  0
LINE
 10
-8.064000
 11
-7.911000
 20
29.822000
 21
30.006000
  0
LINE
 10
-7.911000
 11
-7.737000
 20
30.006000
 21
30.170000
  0
LINE
 10
-7.737000
 11
-7.543000
 20
30.170000
 21
30.310000
  0
LINE
 10
-7.543000
 11
-7.334000
 20
30.310000
 21
30.426000
  0
LINE
 10
-7.334000
 11
-7.111000
 20
30.426000
 21
30.514000
  0
LINE
 10
-7.111000
 11
-6.880000
 20
30.514000
 21
30.573000
  0
LINE
 10
-6.880000
 11
-6.642000
 20
30.573000
 21
30.603000
  0
LINE
 10
-6.642000
 11
-6.403000
 20
30.603000
 21
30.603000
  0
LINE
 10
-6.403000
 11
-6.166000
 20
30.603000
 21
30.573000
  0
LINE
 10
-6.166000
 11
-5.934000
 20
30.573000
 21
30.514000
  0
LINE
 10
-5.934000
 11
-5.712000
 20
30.514000
 21
30.426000
  0
LINE
 10
-5.712000
 11
-5.502000
 20
30.426000
 21
30.310000
  0
LINE
 10
-5.502000
 11
-5.308000
 20
30.310000
 21
30.170000
  0
LINE
 10
-5.308000
 11
-5.134000
 20
30.170000
 21
30.006000
  0
LINE
 10
-5.134000
 11
-4.982000
 20
30.006000
 21
29.822000
  0
LINE
 10
-4.982000
 11
-4.853000
 20
29.822000
 21
29.620000
  0
LINE
 10
-4.853000
 11
-4.751000
 20
29.620000
 21
29.403000
  0
LINE
 10
-4.751000
 11
-4.678000
 20
29.403000
 21
29.176000
  0
LINE
 10
-4.678000
 11
-4.633000
 20
29.176000
 21
28.941000
  0
LINE
 10
-4.633000
 11
-4.618000
 20
28.941000
 21
28.702000
  0
LINE
 10
-4.618000
 11
-4.633000
 20
28.702000
 21
28.463000
  0
LINE
 10
-4.633000
 11
-4.678000
 20
28.463000
 21
28.228000
  0
LINE
 10
-4.678000
 11
-4.751000
 20
28.228000
 21
28.001000
  0
LINE
 10
-4.751000
 11
-4.853000
 20
28.001000
 21
27.784000
  0
LINE
 10
-4.853000
 11
-4.982000
 20
27.784000
 21
27.582000
  0
LINE
 10
-4.982000
 11
-5.134000
 20
27.582000
 21
27.398000
  0
LINE
 10
-5.134000
 11
-5.308000
 20
27.398000
 21
27.234000
  0
LINE
 10
-5.308000
 11
-5.502000
 20
27.234000
 21
27.094000
  0
LINE
 10
-5.502000
 11
-5.712000
 20
27.094000
 21
26.978000
  0
LINE
 10
-5.712000
 11
-5.934000
 20
26.978000
 21
26.890000
  0
LINE
 10
-5.934000
 11
-6.166000
 20
26.890000
 21
26.831000
  0
LINE
 10
-6.166000
 11
-6.403000
 20
26.831000
 21
26.801000
  0
LINE
 10
-6.403000
 11
-6.642000
 20
26.801000
 21
26.801000
  0
LINE
 10
-6.642000
 11
-6.880000
 20
26.801000
 21
26.831000
  0
LINE
 10
-6.880000
 11
-7.111000
 20
26.831000
 21
26.890000
  0
LINE
 10
-7.111000
 11
-7.334000
 20
26.890000
 21
26.978000
  0
LINE
 10
-7.334000
 11
-7.543000
 20
26.978000
 21
27.094000
  0
LINE
 10
-7.543000
 11
-7.737000
 20
27.094000
 21
27.234000
  0
LINE
 10
-7.737000
 11
-7.911000
 20
27.234000
 21
27.398000
  0
LINE
 10
-7.911000
 11
-8.064000
 20
27.398000
 21
27.582000
  0
LINE
 10
-8.064000
 11
-8.192000
 20
27.582000
 21
27.784000
  0
LINE
 10
-8.192000
 11
-8.294000
 20
27.784000
 21
28.001000
  0
LINE
 10
-8.294000
 11
-8.368000
 20
28.001000
 21
28.228000
  0
LINE
 10
-8.368000
 11
-8.413000
 20
28.228000
 21
28.463000
  0
LINE
 10
-8.413000
 11
-8.428000
 20
28.463000
 21
28.702000
  0
LINE
 10
-6.350000
 11
-6.350000
 20
-35.250000
 21
-32.250000
  0
LINE
 10
-6.350000
 11
6.350000
 20
-32.250000
 21
-32.250000
  0
LINE
 10
6.350000
 11
6.350000
 20
-32.250000
 21
-35.250000
  0
LINE
 10
6.350000
 11
-6.350000
 20
-35.250000
 21
-35.250000
  0
LINE
 10
-6.350000
 11
-6.350000
 20
32.250000
 21
35.250000
  0
LINE
 10
-6.350000
 11
6.350000
 20
35.250000
 21
35.250000
  0
LINE
 10
6.350000
 11
6.350000
 20
35.250000
 21
32.250000
  0
LINE
 10
6.350000
 11
-6.350000
 20
32.250000
 21
32.250000
  0
LINE
 10
4.618000
 11
4.633000
 20
-28.702000
 21
-28.463000
  0
LINE
 10
4.633000
 11
4.678000
 20
-28.463000
 21
-28.228000
  0
LINE
 10
4.678000
 11
4.751000
 20
-28.228000
 21
-28.001000
  0
LINE
 10
4.751000
 11
4.853000
 20
-28.001000
 21
-27.784000
  0
LINE
 10
4.853000
 11
4.982000
 20
-27.784000
 21
-27.582000
  0
LINE
 10
4.982000
 11
5.134000
 20
-27.582000
 21
-27.398000
  0
LINE
 10
5.134000
 11
5.308000
 20
-27.398000
 21
-27.234000
  0
LINE
 10
5.308000
 11
5.502000
 20
-27.234000
 21
-27.094000
  0
LINE
 10
5.502000
 11
5.712000
 20
-27.094000
 21
-26.978000
  0
LINE
 10
5.712000
 11
5.934000
 20
-26.978000
 21
-26.890000
  0
LINE
 10
5.934000
 11
6.166000
 20
-26.890000
 21
-26.831000
  0
LINE
 10
6.166000
 11
6.403000
 20
-26.831000
 21
-26.801000
  0
LINE
 10
6.403000
 11
6.642000
 20
-26.801000
 21
-26.801000
  0
LINE
 10
6.642000
 11
6.880000
 20
-26.801000
 21
-26.831000
  0
LINE
 10
6.880000
 11
7.111000
 20
-26.831000
 21
-26.890000
  0
LINE
 10
7.111000
 11
7.334000
 20
-26.890000
 21
-26.978000
  0
LINE
 10
7.334000
 11
7.543000
 20
-26.978000
 21
-27.094000
  0
LINE
 10
7.543000
 11
7.737000
 20
-27.094000
 21
-27.234000
  0
LINE
 10
7.737000
 11
7.911000
 20
-27.234000
 21
-27.398000
  0
LINE
 10
7.911000
 11
8.064000
 20
-27.398000
 21
-27.582000
  0
LINE
 10
8.064000
 11
8.192000
 20
-27.582000
 21
-27.784000
  0
LINE
 10
8.192000
 11
8.294000
 20
-27.784000
 21
-28.001000
  0
LINE
 10
8.294000
 11
8.368000
 20
-28.001000
 21
-28.228000
  0
LINE
 10
8.368000
 11
8.413000
 20
-28.228000
 21
-28.463000
  0
LINE
 10
8.413000
 11
8.428000
 20
-28.463000
 21
-28.702000
  0
LINE
 10
8.428000
 11
8.413000
 20
-28.702000
 21
-28.941000
  0
LINE
 10
8.413000
 11
8.368000
 20
-28.941000
 21
-29.176000
  0
LINE
 10
8.368000
 11
8.294000
 20
-29.176000
 21
-29.403000
  0
LINE
 10
8.294000
 11
8.192000
 20
-29.403000
 21
-29.620000
  0
LINE
 10
8.192000
 11
8.064000
 20
-29.620000
 21
-29.822000
  0
LINE
 10
8.064000
 11
7.911000
 20
-29.822000
 21
-30.006000
  0
LINE
 10
7.911000
 11
7.737000
 20
-30.006000
 21
-30.170000
  0
LINE
 10
7.737000
 11
7.543000
 20
-30.170000
 21
-30.310000
  0
LINE
 10
7.543000
 11
7.334000
 20
-30.310000
 21
-30.426000
  0
LINE
 10
7.334000
 11
7.111000
 20
-30.426000
 21
-30.514000
  0
LINE
 10
7.111000
 11
6.880000
 20
-30.514000
 21
-30.573000
  0
LINE
 10
6.880000
 11
6.642000
 20
-30.573000
 21
-30.603000
  0
LINE
 10
6.642000
 11
6.403000
 20
-30.603000
 21
-30.603000
  0
LINE
 10
6.403000
 11
6.166000
 20
-30.603000
 21
-30.573000
  0
LINE
 10
6.166000
 11
5.934000
 20
-30.573000
 21
-30.514000
  0
LINE
 10
5.934000
 11
5.712000
 20
-30.514000
 21
-30.426000
  0
LINE
 10
5.712000
 11
5.502000
 20
-30.426000
 21
-30.310000
  0
LINE
 10
5.502000
 11
5.308000
 20
-30.310000
 21
-30.170000
  0
LINE
 10
5.308000
 11
5.134000
 20
-30.170000
 21
-30.006000
  0
LINE
 10
5.134000
 11
4.982000
 20
-30.006000
 21
-29.822000
  0
LINE
 10
4.982000
 11
4.853000
 20
-29.822000
 21
-29.620000
  0
LINE
 10
4.853000
 11
4.751000
 20
-29.620000
 21
-29.403000
  0
LINE
 10
4.751000
 11
4.678000
 20
-29.403000
 21
-29.176000
  0
LINE
 10
4.678000
 11
4.633000
 20
-29.176000
 21
-28.941000
  0
LINE
 10
4.633000
 11
4.618000
 20
-28.941000
 21
-28.702000
  0
LINE
 10
4.618000
 11
4.633000
 20
-14.351000
 21
-14.112000
  0
LINE
 10
4.633000
 11
4.678000
 20
-14.112000
 21
-13.877000
  0
LINE
 10
4.678000
 11
4.751000
 20
-13.877000
 21
-13.650000
  0
LINE
 10
4.751000
 11
4.853000
 20
-13.650000
 21
-13.433000
  0
LINE
 10
4.853000
 11
4.982000
 20
-13.433000
 21
-13.231000
  0
LINE
 10
4.982000
 11
5.134000
 20
-13.231000
 21
-13.047000
  0
LINE
 10
5.134000
 11
5.308000
 20
-13.047000
 21
-12.883000
  0
LINE
 10
5.308000
 11
5.502000
 20
-12.883000
 21
-12.743000
  0
LINE
 10
5.502000
 11
5.712000
 20
-12.743000
 21
-12.627000
  0
LINE
 10
5.712000
 11
5.934000
 20
-12.627000
 21
-12.539000
  0
LINE
 10
5.934000
 11
6.166000
 20
-12.539000
 21
-12.480000
  0
LINE
 10
6.166000
 11
6.403000
 20
-12.480000
 21
-12.450000
  0
LINE
 10
6.403000
 11
6.642000
 20
-12.450000
 21
-12.450000
  0
LINE
 10
6.642000
 11
6.880000
 20
-12.450000
 21
-12.480000
  0
LINE
 10
6.880000
 11
7.111000
 20
-12.480000
 21
-12.539000
  0
LINE
 10
7.111000
 11
7.334000
 20
-12.539000
 21
-12.627000
  0
LINE
 10
7.334000
 11
7.543000
 20
-12.627000
 21
-12.743000
  0
LINE
 10
7.543000
 11
7.737000
 20
-12.743000
 21
-12.883000
  0
LINE
 10
7.737000
 11
7.911000
 20
-12.883000
 21
-13.047000
  0
LINE
 10
7.911000
 11
8.064000
 20
-13.047000
 21
-13.231000
  0
LINE
 10
8.064000
 11
8.192000
 20
-13.231000
 21
-13.433000
  0
LINE
 10
8.192000
 11
8.294000
 20
-13.433000
 21
-13.650000
  0
LINE
 10
8.294000
 11
8.368000
 20
-13.650000
 21
-13.877000
  0
LINE
 10
8.368000
 11
8.413000
 20
-13.877000
 21
-14.112000
  0
LINE
 10
8.413000
 11
8.428000
 20
-14.112000
 21
-14.351000
  0
LINE
 10
8.428000
 11
8.413000
 20
-14.351000
 21
-14.590000
  0
LINE
 10
8.413000
 11
8.368000
 20
-14.590000
 21
-14.825000
  0
LINE
 10
8.368000
 11
8.294000
 20
-14.825000
 21
-15.052000
  0
LINE
 10
8.294000
 11
8.192000
 20
-15.052000
 21
-15.269000
  0
LINE
 10
8.192000
 11
8.064000
 20
-15.269000
 21
-15.471000
  0
LINE
 10
8.064000
 11
7.911000
 20
-15.471000
 21
-15.655000
  0
LINE
 10
7.911000
 11
7.737000
 20
-15.655000
 21
-15.819000
  0
LINE
 10
7.737000
 11
7.543000
 20
-15.819000
 21
-15.959000
  0
LINE
 10
7.543000
 11
7.334000
 20
-15.959000
 21
-16.075000
  0
LINE
 10
7.334000
 11
7.111000
 20
-16.075000
 21
-16.163000
  0
LINE
 10
7.111000
 11
6.880000
 20
-16.163000
 21
-16.222000
  0
LINE
 10
6.880000
 11
6.642000
 20
-16.222000
 21
-16.252000
  0
LINE
 10
6.642000
 11
6.403000
 20
-16.252000
 21
-16.252000
  0
LINE
 10
6.403000
 11
6.166000
 20
-16.252000
 21
-16.222000
  0
LINE
 10
6.166000
 11
5.934000
 20
-16.222000
 21
-16.163000
  0
LINE
 10
5.934000
 11
5.712000
 20
-16.163000
 21
-16.075000
  0
LINE
 10
5.712000
 11
5.502000
 20
-16.075000
 21
-15.959000
  0
LINE
 10
5.502000
 11
5.308000
 20
-15.959000
 21
-15.819000
  0
LINE
 10
5.308000
 11
5.134000
 20
-15.819000
 21
-15.655000
  0
LINE
 10
5.134000
 11
4.982000
 20
-15.655000
 21
-15.471000
  0
LINE
 10
4.982000
 11
4.853000
 20
-15.471000
 21
-15.269000
  0
LINE
 10
4.853000
 11
4.751000
 20
-15.269000
 21
-15.052000
  0
LINE
 10
4.751000
 11
4.678000
 20
-15.052000
 21
-14.825000
  0
LINE
 10
4.678000
 11
4.633000
 20
-14.825000
 21
-14.590000
  0
LINE
 10
4.633000
 11
4.618000
 20
-14.590000
 21
-14.351000
  0
LINE
 10
4.618000
 11
4.633000
 20
0.000000
 21
0.239000
  0
LINE
 10
4.633000
 11
4.678000
 20
0.239000
 21
0.474000
  0
LINE
 10
4.678000
 11
4.751000
 20
0.474000
 21
0.701000
  0
LINE
 10
4.751000
 11
4.853000
 20
0.701000
 21
0.918000
  0
LINE
 10
4.853000
 11
4.982000
 20
0.918000
 21
1.120000
  0
LINE
 10
4.982000
 11
5.134000
 20
1.120000
 21
1.304000
  0
LINE
 10
5.134000
 11
5.308000
 20
1.304000
 21
1.468000
  0
LINE
 10
5.308000
 11
5.502000
 20
1.468000
 21
1.608000
  0
LINE
 10
5.502000
 11
5.712000
 20
1.608000
 21
1.724000
  0
LINE
 10
5.712000
 11
5.934000
 20
1.724000
 21
1.812000
  0
LINE
 10
5.934000
 11
6.166000
 20
1.812000
 21
1.871000
  0
LINE
 10
6.166000
 11
6.403000
 20
1.871000
 21
1.901000
  0
LINE
 10
6.403000
 11
6.642000
 20
1.901000
 21
1.901000
  0
LINE
 10
6.642000
 11
6.880000
 20
1.901000
 21
1.871000
  0
LINE
 10
6.880000
 11
7.111000
 20
1.871000
 21
1.812000
  0
LINE
 10
7.111000
 11
7.334000
 20
1.812000
 21
1.724000
  0
LINE
 10
7.334000
 11
7.543000
 20
1.724000
 21
1.608000
  0
LINE
 10
7.543000
 11
7.737000
 20
1.608000
 21
1.468000
  0
LINE
 10
7.737000
 11
7.911000
 20
1.468000
 21
1.304000
  0
LINE
 10
7.911000
 11
8.064000
 20
1.304000
 21
1.120000
  0
LINE
 10
8.064000
 11
8.192000
 20
1.120000
 21
0.918000
  0
LINE
 10
8.192000
 11
8.294000
 20
0.918000
 21
0.701000
  0
LINE
 10
8.294000
 11
8.368000
 20
0.701000
 21
0.474000
  0
LINE
 10
8.368000
 11
8.413000
 20
0.474000
 21
0.239000
  0
LINE
 10
8.413000
 11
8.428000
 20
0.239000
 21
0.000000
  0
LINE
 10
8.428000
 11
8.413000
 20
0.000000
 21
-0.239000
  0
LINE
 10
8.413000
 11
8.368000
 20
-0.239000
 21
-0.474000
  0
LINE
 10
8.368000
 11
8.294000
 20
-0.474000
 21
-0.701000
  0
LINE
 10
8.294000
 11
8.192000
 20
-0.701000
 21
-0.918000
  0
LINE
 10
8.192000
 11
8.064000
 20
-0.918000
 21
-1.120000
  0
LINE
 10
8.064000
 11
7.911000
 20
-1.120000
 21
-1.304000
  0
LINE
 10
7.911000
 11
7.737000
 20
-1.304000
 21
-1.468000
  0
LINE
 10
7.737000
 11
7.543000
 20
-1.468000
 21
-1.608000
  0
LINE
 10
7.543000
 11
7.334000
 20
-1.608000
 21
-1.724000
  0
LINE
 10
7.334000
 11
7.111000
 20
-1.724000
 21
-1.812000
  0
LINE
 10
7.111000
 11
6.880000
 20
-1.812000
 21
-1.871000
  0
LINE
 10
6.880000
 11
6.642000
 20
-1.871000
 21
-1.901000
  0
LINE
 10
6.642000
 11
6.403000
 20
-1.901000
 21
-1.901000
  0
LINE
 10
6.403000
 11
6.166000
 20
-1.901000
 21
-1.871000
  0
LINE
 10
6.166000
 11
5.934000
 20
-1.871000
 21
-1.812000
  0
LINE
 10
5.934000
 11
5.712000
 20
-1.812000
 21
-1.724000
  0
LINE
 10
5.712000
 11
5.502000
 20
-1.724000
 21
-1.608000
  0
LINE
 10
5.502000
 11
5.308000
 20
-1.608000
 21
-1.468000
  0
LINE
 10
5.308000
 11
5.134000
 20
-1.468000
 21
-1.304000
  0
LINE
 10
5.134000
 11
4.982000
 20
-1.304000
 21
-1.120000
  0
LINE
 10
4.982000
 11
4.853000
 20
-1.120000
 21
-0.918000
  0
LINE
 10
4.853000
 11
4.751000
 20
-0.918000
 21
-0.701000
  0
LINE
 10
4.751000
 11
4.678000
 20
-0.701000
 21
-0.474000
  0
LINE
 10
4.678000
 11
4.633000
 20
-0.474000
 21
-0.239000
  0
LINE
 10
4.633000
 11
4.618000
 20
-0.239000
 21
0.000000
  0
LINE
 10
4.618000
 11
4.633000
 20
14.351000
 21
14.590000
  0
LINE
 10
4.633000
 11
4.678000
 20
14.590000
 21
14.825000
  0
LINE
 10
4.678000
 11
4.751000
 20
14.825000
 21
15.052000
  0
LINE
 10
4.751000
 11
4.853000
 20
15.052000
 21
15.269000
  0
LINE
 10
4.853000
 11
4.982000
 20
15.269000
 21
15.471000
  0
LINE
 10
4.982000
 11
5.134000
 20
15.471000
 21
15.655000
  0
LINE
 10
5.134000
 11
5.308000
 20
15.655000
 21
15.819000
  0
LINE
 10
5.308000
 11
5.502000
 20
15.819000
 21
15.959000
  0
LINE
 10
5.502000
 11
5.712000
 20
15.959000
 21
16.075000
  0
LINE
 10
5.712000
 11
5.934000
 20
16.075000
 21
16.163000
  0
LINE
 10
5.934000
 11
6.166000
 20
16.163000
 21
16.222000
  0
LINE
 10
6.166000
 11
6.403000
 20
16.222000
 21
16.252000
  0
LINE
 10
6.403000
 11
6.642000
 20
16.252000
 21
16.252000
  0
LINE
 10
6.642000
 11
6.880000
 20
16.252000
 21
16.222000
  0
LINE
 10
6.880000
 11
7.111000
 20
16.222000
 21
16.163000
  0
LINE
 10
7.111000
 11
7.334000
 20
16.163000
 21
16.075000
  0
LINE
 10
7.334000
 11
7.543000
 20
16.075000
 21
15.959000
  0
LINE
 10
7.543000
 11
7.737000
 20
15.959000
 21
15.819000
  0
LINE
 10
7.737000
 11
7.911000
 20
15.819000
 21
15.655000
  0
LINE
 10
7.911000
 11
8.064000
 20
15.655000
 21
15.471000
  0
LINE
 10
8.064000
 11
8.192000
 20
15.471000
 21
15.269000
  0
LINE
 10
8.192000
 11
8.294000
 20
15.269000
 21
15.052000
  0
LINE
 10
8.294000
 11
8.368000
 20
15.052000
 21
14.825000
  0
LINE
 10
8.368000
 11
8.413000
 20
14.825000
 21
14.590000
  0
LINE
 10
8.413000
 11
8.428000
 20
14.590000
 21
14.351000
  0
LINE
 10
8.428000
 11
8.413000
 20
14.351000
 21
14.112000
  0
LINE
 10
8.413000
 11
8.368000
 20
14.112000
 21
13.877000
  0
LINE
 10
8.368000
 11
8.294000
 20
13.877000
 21
13.650000
  0
LINE
 10
8.294000
 11
8.192000
 20
13.650000
 21
13.433000
  0
LINE
 10
8.192000
 11
8.064000
 20
13.433000
 21
13.231000
  0
LINE
 10
8.064000
 11
7.911000
 20
13.231000
 21
13.047000
  0
LINE
 10
7.911000
 11
7.737000
 20
13.047000
 21
12.883000
  0
LINE
 10
7.737000
 11
7.543000
 20
12.883000
 21
12.743000
  0
LINE
 10
7.543000
 11
7.334000
 20
12.743000
 21
12.627000
  0
LINE
 10
7.334000
 11
7.111000
 20
12.627000
 21
12.539000
  0
LINE
 10
7.111000
 11
6.880000
 20
12.539000
 21
12.480000
  0
LINE
 10
6.880000
 11
6.642000
 20
12.480000
 21
12.450000
  0
LINE
 10
6.642000
 11
6.403000
 20
12.450000
 21
12.450000
  0
LINE
 10
6.403000
 11
6.166000
 20
12.450000
 21
12.480000
  0
LINE
 10
6.166000
 11
5.934000
 20
12.480000
 21
12.539000
  0
LINE
 10
5.934000
 11
5.712000
 20
12.539000
 21
12.627000
  0
LINE
 10
5.712000
 11
5.502000
 20
12.627000
 21
12.743000
  0
LINE
 10
5.502000
 11
5.308000
 20
12.743000
 21
12.883000
  0
LINE
 10
5.308000
 11
5.134000
 20
12.883000
 21
13.047000
  0
LINE
 10
5.134000
 11
4.982000
 20
13.047000
 21
13.231000
  0
LINE
 10
4.982000
 11
4.853000
 20
13.231000
 21
13.433000
  0
LINE
 10
4.853000
 11
4.751000
 20
13.433000
 21
13.650000
  0
LINE
 10
4.751000
 11
4.678000
 20
13.650000
 21
13.877000
  0
LINE
 10
4.678000
 11
4.633000
 20
13.877000
 21
14.112000
  0
LINE
 10
4.633000
 11
4.618000
 20
14.112000
 21
14.351000
  0
LINE
 10
4.618000
 11
4.633000
 20
28.702000
 21
28.941000
  0
LINE
 10
4.633000
 11
4.678000
 20
28.941000
 21
29.176000
  0
LINE
 10
4.678000
 11
4.751000
 20
29.176000
 21
29.403000
  0
LINE
 10
4.751000
 11
4.853000
 20
29.403000
 21
29.620000
  0
LINE
 10
4.853000
 11
4.982000
 20
29.620000
 21
29.822000
  0
LINE
 10
4.982000
 11
5.134000
 20
29.822000
 21
30.006000
  0
LINE
 10
5.134000
 11
5.308000
 20
30.006000
 21
30.170000
  0
LINE
 10
5.308000
 11
5.502000
 20
30.170000
 21
30.310000
  0
LINE
 10
5.502000
 11
5.712000
 20
30.310000
 21
30.426000
  0
LINE
 10
5.712000
 11
5.934000
 20
30.426000
 21
30.514000
  0
LINE
 10
5.934000
 11
6.166000
 20
30.514000
 21
30.573000
  0
LINE
 10
6.166000
 11
6.403000
 20
30.573000
 21
30.603000
  0
LINE
 10
6.403000
 11
6.642000
 20
30.603000
 21
30.603000
  0
LINE
 10
6.642000
 11
6.880000
 20
30.603000
 21
30.573000
  0
LINE
 10
6.880000
 11
7.111000
 20
30.573000
 21
30.514000
  0
LINE
 10
7.111000
 11
7.334000
 20
30.514000
 21
30.426000
  0
LINE
 10
7.334000
 11
7.543000
 20
30.426000
 21
30.310000
  0
LINE
 10
7.543000
 11
7.737000
 20
30.310000
 21
30.170000
  0
LINE
 10
7.737000
 11
7.911000
 20
30.170000
 21
30.006000
  0
LINE
 10
7.911000
 11
8.064000
 20
30.006000
 21
29.822000
  0
LINE
 10
8.064000
 11
8.192000
 20
29.822000
 21
29.620000
  0
LINE
 10
8.192000
 11
8.294000
 20
29.620000
 21
29.403000
  0
LINE
 10
8.294000
 11
8.368000
 20
29.403000
 21
29.176000
  0
LINE
 10
8.368000
 11
8.413000
 20
29.176000
 21
28.941000
  0
LINE
 10
8.413000
 11
8.428000
 20
28.941000
 21
28.702000
  0
LINE
 10
8.428000
 11
8.413000
 20
28.702000
 21
28.463000
  0
LINE
 10
8.413000
 11
8.368000
 20
28.463000
 21
28.228000
  0
LINE
 10
8.368000
 11
8.294000
 20
28.228000
 21
28.001000
  0
LINE
 10
8.294000
 11
8.192000
 20
28.001000
 21
27.784000
  0
LINE
 10
8.192000
 11
8.064000
 20
27.784000
 21
27.582000
  0
LINE
 10
8.064000
 11
7.911000
 20
27.582000
 21
27.398000
  0
LINE
 10
7.911000
 11
7.737000
 20
27.398000
 21
27.234000
  0
LINE
 10
7.737000
 11
7.543000
 20
27.234000
 21
27.094000
  0
LINE
 10
7.543000
 11
7.334000
 20
27.094000
 21
26.978000
  0
LINE
 10
7.334000
 11
7.111000
 20
26.978000
 21
26.890000
  0
LINE
 10
7.111000
 11
6.880000
 20
26.890000
 21
26.831000
  0
LINE
 10
6.880000
 11
6.642000
 20
26.831000
 21
26.801000
  0
LINE
 10
6.642000
 11
6.403000
 20
26.801000
 21
26.801000
  0
LINE
 10
6.403000
 11
6.166000
 20
26.801000
 21
26.831000
  0
LINE
 10
6.166000
 11
5.934000
 20
26.831000
 21
26.890000
  0
LINE
 10
5.934000
 11
5.712000
 20
26.890000
 21
26.978000
  0
LINE
 10
5.712000
 11
5.502000
 20
26.978000
 21
27.094000
  0
LINE
 10
5.502000
 11
5.308000
 20
27.094000
 21
27.234000
  0
LINE
 10
5.308000
 11
5.134000
 20
27.234000
 21
27.398000
  0
LINE
 10
5.134000
 11
4.982000
 20
27.398000
 21
27.582000
  0
LINE
 10
4.982000
 11
4.853000
 20
27.582000
 21
27.784000
  0
LINE
 10
4.853000
 11
4.751000
 20
27.784000
 21
28.001000
  0
LINE
 10
4.751000
 11
4.678000
 20
28.001000
 21
28.228000
  0
LINE
 10
4.678000
 11
4.633000
 20
28.228000
 21
28.463000
  0
LINE
 10
4.633000
 11
4.618000
 20
28.463000
 21
28.702000
  0
LINE
 10
17.663000
 11
17.678000
 20
-28.702000
 21
-28.463000
  0
LINE
 10
17.678000
 11
17.723000
 20
-28.463000
 21
-28.228000
  0
LINE
 10
17.723000
 11
17.797000
 20
-28.228000
 21
-28.001000
  0
LINE
 10
17.797000
 11
17.899000
 20
-28.001000
 21
-27.784000
  0
LINE
 10
17.899000
 11
18.027000
 20
-27.784000
 21
-27.582000
  0
LINE
 10
18.027000
 11
18.179000
 20
-27.582000
 21
-27.398000
  0
LINE
 10
18.179000
 11
18.354000
 20
-27.398000
 21
-27.234000
  0
LINE
 10
18.354000
 11
18.547000
 20
-27.234000
 21
-27.094000
  0
LINE
 10
18.547000
 11
18.757000
 20
-27.094000
 21
-26.978000
  0
LINE
 10
18.757000
 11
18.979000
 20
-26.978000
 21
-26.890000
  0
LINE
 10
18.979000
 11
19.211000
 20
-26.890000
 21
-26.831000
  0
LINE
 10
19.211000
 11
19.449000
 20
-26.831000
 21
-26.801000
  0
LINE
 10
19.449000
 11
19.688000
 20
-26.801000
 21
-26.801000
  0
LINE
 10
19.688000
 11
19.925000
 20
-26.801000
 21
-26.831000
  0
LINE
 10
19.925000
 11
20.157000
 20
-26.831000
 21
-26.890000
  0
LINE
 10
20.157000
 11
20.379000
 20
-26.890000
 21
-26.978000
  0
LINE
 10
20.379000
 11
20.589000
 20
-26.978000
 21
-27.094000
  0
LINE
 10
20.589000
 11
20.782000
 20
-27.094000
 21
-27.234000
  0
LINE
 10
20.782000
 11
20.957000
 20
-27.234000
 21
-27.398000
  0
LINE
 10
20.957000
 11
21.109000
 20
-27.398000
 21
-27.582000
  0
LINE
 10
21.109000
 11
21.238000
 20
-27.582000
 21
-27.784000
  0
LINE
 10
21.238000
 11
21.339000
 20
-27.784000
 21
-28.001000
  0
LINE
 10
21.339000
 11
21.413000
 20
-28.001000
 21
-28.228000
  0
LINE
 10
21.413000
 11
21.458000
 20
-28.228000
 21
-28.463000
  0
LINE
 10
21.458000
 11
21.473000
 20
-28.463000
 21
-28.702000
  0
LINE
 10
21.473000
 11
21.458000
 20
-28.702000
 21
-28.941000
  0
LINE
 10
21.458000
 11
21.413000
 20
-28.941000
 21
-29.176000
  0
LINE
 10
21.413000
 11
21.339000
 20
-29.176000
 21
-29.403000
  0
LINE
 10
21.339000
 11
21.238000
 20
-29.403000
 21
-29.620000
  0
LINE
 10
21.238000
 11
21.109000
 20
-29.620000
 21
-29.822000
  0
LINE
 10
21.109000
 11
20.957000
 20
-29.822000
 21
-30.006000
  0
LINE
 10
20.957000
 11
20.782000
 20
-30.006000
 21
-30.170000
  0
LINE
 10
20.782000
 11
20.589000
 20
-30.170000
 21
-30.310000
  0
LINE
 10
20.589000
 11
20.379000
 20
-30.310000
 21
-30.426000
  0
LINE
 10
20.379000
 11
20.157000
 20
-30.426000
 21
-30.514000
  0
LINE
 10
20.157000
 11
19.925000
 20
-30.514000
 21
-30.573000
  0
LINE
 10
19.925000
 11
19.688000
 20
-30.573000
 21
-30.603000
  0
LINE
 10
19.688000
 11
19.449000
 20
-30.603000
 21
-30.603000
  0
LINE
 10
19.449000
 11
19.211000
 20
-30.603000
 21
-30.573000
  0
LINE
 10
19.211000
 11
18.979000
 20
-30.573000
 21
-30.514000
  0
LINE
 10
18.979000
 11
18.757000
 20
-30.514000
 21
-30.426000
  0
LINE
 10
18.757000
 11
18.547000
 20
-30.426000
 21
-30.310000
  0
LINE
 10
18.547000
 11
18.354000
 20
-30.310000
 21
-30.170000
  0
LINE
 10
18.354000
 11
18.179000
 20
-30.170000
 21
-30.006000
  0
LINE
 10
18.179000
 11
18.027000
 20
-30.006000
 21
-29.822000
  0
LINE
 10
18.027000
 11
17.899000
 20
-29.822000
 21
-29.620000
  0
LINE
 10
17.899000
 11
17.797000
 20
-29.620000
 21
-29.403000
  0
LINE
 10
17.797000
 11
17.723000
 20
-29.403000
 21
-29.176000
  0
LINE
 10
17.723000
 11
17.678000
 20
-29.176000
 21
-28.941000
  0
LINE
 10
17.678000
 11
17.663000
 20
-28.941000
 21
-28.702000
  0
LINE
 10
17.663000
 11
17.678000
 20
-14.351000
 21
-14.112000
  0
LINE
 10
17.678000
 11
17.723000
 20
-14.112000
 21
-13.877000
  0
LINE
 10
17.723000
 11
17.797000
 20
-13.877000
 21
-13.650000
  0
LINE
 10
17.797000
 11
17.899000
 20
-13.650000
 21
-13.433000
  0
LINE
 10
17.899000
 11
18.027000
 20
-13.433000
 21
-13.231000
  0
LINE
 10
18.027000
 11
18.179000
 20
-13.231000
 21
-13.047000
  0
LINE
 10
18.179000
 11
18.354000
 20
-13.047000
 21
-12.883000
  0
LINE
 10
18.354000
 11
18.547000
 20
-12.883000
 21
-12.743000
  0
LINE
 10
18.547000
 11
18.757000
 20
-12.743000
 21
-12.627000
  0
LINE
 10
18.757000
 11
18.979000
 20
-12.627000
 21
-12.539000
  0
LINE
 10
18.979000
 11
19.211000
 20
-12.539000
 21
-12.480000
  0
LINE
 10
19.211000
 11
19.449000
 20
-12.480000
 21
-12.450000
  0
LINE
 10
19.449000
 11
19.688000
 20
-12.450000
 21
-12.450000
  0
LINE
 10
19.688000
 11
19.925000
 20
-12.450000
 21
-12.480000
  0
LINE
 10
19.925000
 11
20.157000
 20
-12.480000
 21
-12.539000
  0
LINE
 10
20.157000
 11
20.379000
 20
-12.539000
 21
-12.627000
  0
LINE
 10
20.379000
 11
20.589000
 20
-12.627000
 21
-12.743000
  0
LINE
 10
20.589000
 11
20.782000
 20
-12.743000
 21
-12.883000
  0
LINE
 10
20.782000
 11
20.957000
 20
-12.883000
 21
-13.047000
  0
LINE
 10
20.957000
 11
21.109000
 20
-13.047000
 21
-13.231000
  0
LINE
 10
21.109000
 11
21.238000
 20
-13.231000
 21
-13.433000
  0
LINE
 10
21.238000
 11
21.339000
 20
-13.433000
 21
-13.650000
  0
LINE
 10
21.339000
 11
21.413000
 20
-13.650000
 21
-13.877000
  0
LINE
 10
21.413000
 11
21.458000
 20
-13.877000
 21
-14.112000
  0
LINE
 10
21.458000
 11
21.473000
 20
-14.112000
 21
-14.351000
  0
LINE
 10
21.473000
 11
21.458000
 20
-14.351000
 21
-14.590000
  0
LINE
 10
21.458000
 11
21.413000
 20
-14.590000
 21
-14.825000
  0
LINE
 10
21.413000
 11
21.339000
 20
-14.825000
 21
-15.052000
  0
LINE
 10
21.339000
 11
21.238000
 20
-15.052000
 21
-15.269000
  0
LINE
 10
21.238000
 11
21.109000
 20
-15.269000
 21
-15.471000
  0
LINE
 10
21.109000
 11
20.957000
 20
-15.471000
 21
-15.655000
  0
LINE
 10
20.957000
 11
20.782000
 20
-15.655000
 21
-15.819000
  0
LINE
 10
20.782000
 11
20.589000
 20
-15.819000
 21
-15.959000
  0
LINE
 10
20.589000
 11
20.379000
 20
-15.959000
 21
-16.075000
  0
LINE
 10
20.379000
 11
20.157000
 20
-16.075000
 21
-16.163000
  0
LINE
 10
20.157000
 11
19.925000
 20
-16.163000
 21
-16.222000
  0
LINE
 10
19.925000
 11
19.688000
 20
-16.222000
 21
-16.252000
  0
LINE
 10
19.688000
 11
19.449000
 20
-16.252000
 21
-16.252000
  0
LINE
 10
19.449000
 11
19.211000
 20
-16.252000
 21
-16.222000
  0
LINE
 10
19.211000
 11
18.979000
 20
-16.222000
 21
-16.163000
  0
LINE
 10
18.979000
 11
18.757000
 20
-16.163000
 21
-16.075000
  0
LINE
 10
18.757000
 11
18.547000
 20
-16.075000
 21
-15.959000
  0
LINE
 10
18.547000
 11
18.354000
 20
-15.959000
 21
-15.819000
  0
LINE
 10
18.354000
 11
18.179000
 20
-15.819000
 21
-15.655000
  0
LINE
 10
18.179000
 11
18.027000
 20
-15.655000
 21
-15.471000
  0
LINE
 10
18.027000
 11
17.899000
 20
-15.471000
 21
-15.269000
  0
LINE
 10
17.899000
 11
17.797000
 20
-15.269000
 21
-15.052000
  0
LINE
 10
17.797000
 11
17.723000
 20
-15.052000
 21
-14.825000
  0
LINE
 10
17.723000
 11
17.678000
 20
-14.825000
 21
-14.590000
  0
LINE
 10
17.678000
 11
17.663000
 20
-14.590000
 21
-14.351000
  0
LINE
 10
17.663000
 11
17.678000
 20
0.000000
 21
0.239000
  0
LINE
 10
17.678000
 11
17.723000
 20
0.239000
 21
0.474000
  0
LINE
 10
17.723000
 11
17.797000
 20
0.474000
 21
0.701000
  0
LINE
 10
17.797000
 11
17.899000
 20
0.701000
 21
0.918000
  0
LINE
 10
17.899000
 11
18.027000
 20
0.918000
 21
1.120000
  0
LINE
 10
18.027000
 11
18.179000
 20
1.120000
 21
1.304000
  0
LINE
 10
18.179000
 11
18.354000
 20
1.304000
 21
1.468000
  0
LINE
 10
18.354000
 11
18.547000
 20
1.468000
 21
1.608000
  0
LINE
 10
18.547000
 11
18.757000
 20
1.608000
 21
1.724000
  0
LINE
 10
18.757000
 11
18.979000
 20
1.724000
 21
1.812000
  0
LINE
 10
18.979000
 11
19.211000
 20
1.812000
 21
1.871000
  0
LINE
 10
19.211000
 11
19.449000
 20
1.871000
 21
1.901000
  0
LINE
 10
19.449000
 11
19.688000
 20
1.901000
 21
1.901000
  0
LINE
 10
19.688000
 11
19.925000
 20
1.901000
 21
1.871000
  0
LINE
 10
19.925000
 11
20.157000
 20
1.871000
 21
1.812000
  0
LINE
 10
20.157000
 11
20.379000
 20
1.812000
 21
1.724000
  0
LINE
 10
20.379000
 11
20.589000
 20
1.724000
 21
1.608000
  0
LINE
 10
20.589000
 11
20.782000
 20
1.608000
 21
1.468000
  0
LINE
 10
20.782000
 11
20.957000
 20
1.468000
 21
1.304000
  0
LINE
 10
20.957000
 11
21.109000
 20
1.304000
 21
1.120000
  0
LINE
 10
21.109000
 11
21.238000
 20
1.120000
 21
0.918000
  0
LINE
 10
21.238000
 11
21.339000
 20
0.918000
 21
0.701000
  0
LINE
 10
21.339000
 11
21.413000
 20
0.701000
 21
0.474000
  0
LINE
 10
21.413000
 11
21.458000
 20
0.474000
 21
0.239000
  0
LINE
 10
21.458000
 11
21.473000
 20
0.239000
 21
0.000000
  0
LINE
 10
21.473000
 11
21.458000
 20
0.000000
 21
-0.239000
  0
LINE
 10
21.458000
 11
21.413000
 20
-0.239000
 21
-0.474000
  0
LINE
 10
21.413000
 11
21.339000
 20
-0.474000
 21
-0.701000
  0
LINE
 10
21.339000
 11
21.238000
 20
-0.701000
 21
-0.918000
  0
LINE
 10
21.238000
 11
21.109000
 20
-0.918000
 21
-1.120000
  0
LINE
 10
21.109000
 11
20.957000
 20
-1.120000
 21
-1.304000
  0
LINE
 10
20.957000
 11
20.782000
 20
-1.304000
 21
-1.468000
  0
LINE
 10
20.782000
 11
20.589000
 20
-1.468000
 21
-1.608000
  0
LINE
 10
20.589000
 11
20.379000
 20
-1.608000
 21
-1.724000
  0
LINE
 10
20.379000
 11
20.157000
 20
-1.724000
 21
-1.812000
  0
LINE
 10
20.157000
 11
19.925000
 20
-1.812000
 21
-1.871000
  0
LINE
 10
19.925000
 11
19.688000
 20
-1.871000
 21
-1.901000
  0
LINE
 10
19.688000
 11
19.449000
 20
-1.901000
 21
-1.901000
  0
LINE
 10
19.449000
 11
19.211000
 20
-1.901000
 21
-1.871000
  0
LINE
 10
19.211000
 11
18.979000
 20
-1.871000
 21
-1.812000
  0
LINE
 10
18.979000
 11
18.757000
 20
-1.812000
 21
-1.724000
  0
LINE
 10
18.757000
 11
18.547000
 20
-1.724000
 21
-1.608000
  0
LINE
 10
18.547000
 11
18.354000
 20
-1.608000
 21
-1.468000
  0
LINE
 10
18.354000
 11
18.179000
 20
-1.468000
 21
-1.304000
  0
LINE
 10
18.179000
 11
18.027000
 20
-1.304000
 21
-1.120000
  0
LINE
 10
18.027000
 11
17.899000
 20
-1.120000
 21
-0.918000
  0
LINE
 10
17.899000
 11
17.797000
 20
-0.918000
 21
-0.701000
  0
LINE
 10
17.797000
 11
17.723000
 20
-0.701000
 21
-0.474000
  0
LINE
 10
17.723000
 11
17.678000
 20
-0.474000
 21
-0.239000
  0
LINE
 10
17.678000
 11
17.663000
 20
-0.239000
 21
0.000000
  0
LINE
 10
17.663000
 11
17.678000
 20
14.351000
 21
14.590000
  0
LINE
 10
17.678000
 11
17.723000
 20
14.590000
 21
14.825000
  0
LINE
 10
17.723000
 11
17.797000
 20
14.825000
 21
15.052000
  0
LINE
 10
17.797000
 11
17.899000
 20
15.052000
 21
15.269000
  0
LINE
 10
17.899000
 11
18.027000
 20
15.269000
 21
15.471000
  0
LINE
 10
18.027000
 11
18.179000
 20
15.471000
 21
15.655000
  0
LINE
 10
18.179000
 11
18.354000
 20
15.655000
 21
15.819000
  0
LINE
 10
18.354000
 11
18.547000
 20
15.819000
 21
15.959000
  0
LINE
 10
18.547000
 11
18.757000
 20
15.959000
 21
16.075000
  0
LINE
 10
18.757000
 11
18.979000
 20
16.075000
 21
16.163000
  0
LINE
 10
18.979000
 11
19.211000
 20
16.163000
 21
16.222000
  0
LINE
 10
19.211000
 11
19.449000
 20
16.222000
 21
16.252000
  0
LINE
 10
19.449000
 11
19.688000
 20
16.252000
 21
16.252000
  0
LINE
 10
19.688000
 11
19.925000
 20
16.252000
 21
16.222000
  0
LINE
 10
19.925000
 11
20.157000
 20
16.222000
 21
16.163000
  0
LINE
 10
20.157000
 11
20.379000
 20
16.163000
 21
16.075000
  0
LINE
 10
20.379000
 11
20.589000
 20
16.075000
 21
15.959000
  0
LINE
 10
20.589000
 11
20.782000
 20
15.959000
 21
15.819000
  0
LINE
 10
20.782000
 11
20.957000
 20
15.819000
 21
15.655000
  0
LINE
 10
20.957000
 11
21.109000
 20
15.655000
 21
15.471000
  0
LINE
 10
21.109000
 11
21.238000
 20
15.471000
 21
15.269000
  0
LINE
 10
21.238000
 11
21.339000
 20
15.269000
 21
15.052000
  0
LINE
 10
21.339000
 11
21.413000
 20
15.052000
 21
14.825000
  0
LINE
 10
21.413000
 11
21.458000
 20
14.825000
 21
14.590000
  0
LINE
 10
21.458000
 11
21.473000
 20
14.590000
 21
14.351000
  0
LINE
 10
21.473000
 11
21.458000
 20
14.351000
 21
14.112000
  0
LINE
 10
21.458000
 11
21.413000
 20
14.112000
 21
13.877000
  0
LINE
 10
21.413000
 11
21.339000
 20
13.877000
 21
13.650000
  0
LINE
 10
21.339000
 11
21.238000
 20
13.650000
 21
13.433000
  0
LINE
 10
21.238000
 11
21.109000
 20
13.433000
 21
13.231000
  0
LINE
 10
21.109000
 11
20.957000
 20
13.231000
 21
13.047000
  0
LINE
 10
20.957000
 11
20.782000
 20
13.047000
 21
12.883000
  0
LINE
 10
20.782000
 11
20.589000
 20
12.883000
 21
12.743000
  0
LINE
 10
20.589000
 11
20.379000
 20
12.743000
 21
12.627000
  0
LINE
 10
20.379000
 11
20.157000
 20
12.627000
 21
12.539000
  0
LINE
 10
20.157000
 11
19.925000
 20
12.539000
 21
12.480000
  0
LINE
 10
19.925000
 11
19.688000
 20
12.480000
 21
12.450000
  0
LINE
 10
19.688000
 11
19.449000
 20
12.450000
 21
12.450000
  0
LINE
 10
19.449000
 11
19.211000
 20
12.450000
 21
12.480000
  0
LINE
 10
19.211000
 11
18.979000
 20
12.480000
 21
12.539000
  0
LINE
 10
18.979000
 11
18.757000
 20
12.539000
 21
12.627000
  0
LINE
 10
18.757000
 11
18.547000
 20
12.627000
 21
12.743000
  0
LINE
 10
18.547000
 11
18.354000
 20
12.743000
 21
12.883000
  0
LINE
 10
18.354000
 11
18.179000
 20
12.883000
 21
13.047000
  0
LINE
 10
18.179000
 11
18.027000
 20
13.047000
 21
13.231000
  0
LINE
 10
18.027000
 11
17.899000
 20
13.231000
 21
13.433000
  0
LINE
 10
17.899000
 11
17.797000
 20
13.433000
 21
13.650000
  0
LINE
 10
17.797000
 11
17.723000
 20
13.650000
 21
13.877000
  0
LINE
 10
17.723000
 11
17.678000
 20
13.877000
 21
14.112000
  0
LINE
 10
17.678000
 11
17.663000
 20
14.112000
 21
14.351000
  0
LINE
 10
17.663000
 11
17.678000
 20
28.702000
 21
28.941000
  0
LINE
 10
17.678000
 11
17.723000
 20
28.941000
 21
29.176000
  0
LINE
 10
17.723000
 11
17.797000
 20
29.176000
 21
29.403000
  0
LINE
 10
17.797000
 11
17.899000
 20
29.403000
 21
29.620000
  0
LINE
 10
17.899000
 11
18.027000
 20
29.620000
 21
29.822000
  0
LINE
 10
18.027000
 11
18.179000
 20
29.822000
 21
30.006000
  0
LINE
 10
18.179000
 11
18.354000
 20
30.006000
 21
30.170000
  0
LINE
 10
18.354000
 11
18.547000
 20
30.170000
 21
30.310000
  0
LINE
 10
18.547000
 11
18.757000
 20
30.310000
 21
30.426000
  0
LINE
 10
18.757000
 11
18.979000
 20
30.426000
 21
30.514000
  0
LINE
 10
18.979000
 11
19.211000
 20
30.514000
 21
30.573000
  0
LINE
 10
19.211000
 11
19.449000
 20
30.573000
 21
30.603000
  0
LINE
 10
19.449000
 11
19.688000
 20
30.603000
 21
30.603000
  0
LINE
 10
19.688000
 11
19.925000
 20
30.603000
 21
30.573000
  0
LINE
 10
19.925000
 11
20.157000
 20
30.573000
 21
30.514000
  0
LINE
 10
20.157000
 11
20.379000
 20
30.514000
 21
30.426000
  0
LINE
 10
20.379000
 11
20.589000
 20
30.426000
 21
30.310000
  0
LINE
 10
20.589000
 11
20.782000
 20
30.310000
 21
30.170000
  0
LINE
 10
20.782000
 11
20.957000
 20
30.170000
 21
30.006000
  0
LINE
 10
20.957000
 11
21.109000
 20
30.006000
 21
29.822000
  0
LINE
 10
21.109000
 11
21.238000
 20
29.822000
 21
29.620000
  0
LINE
 10
21.238000
 11
21.339000
 20
29.620000
 21
29.403000
  0
LINE
 10
21.339000
 11
21.413000
 20
29.403000
 21
29.176000
  0
LINE
 10
21.413000
 11
21.458000
 20
29.176000
 21
28.941000
  0
LINE
 10
21.458000
 11
21.473000
 20
28.941000
 21
28.702000
  0
LINE
 10
21.473000
 11
21.458000
 20
28.702000
 21
28.463000
  0
LINE
 10
21.458000
 11
21.413000
 20
28.463000
 21
28.228000
  0
LINE
 10
21.413000
 11
21.339000
 20
28.228000
 21
28.001000
  0
LINE
 10
21.339000
 11
21.238000
 20
28.001000
 21
27.784000
  0
LINE
 10
21.238000
 11
21.109000
 20
27.784000
 21
27.582000
  0
LINE
 10
21.109000
 11
20.957000
 20
27.582000
 21
27.398000
  0
LINE
 10
20.957000
 11
20.782000
 20
27.398000
 21
27.234000
  0
LINE
 10
20.782000
 11
20.589000
 20
27.234000
 21
27.094000
  0
LINE
 10
20.589000
 11
20.379000
 20
27.094000
 21
26.978000
  0
LINE
 10
20.379000
 11
20.157000
 20
26.978000
 21
26.890000
  0
LINE
 10
20.157000
 11
19.925000
 20
26.890000
 21
26.831000
  0
LINE
 10
19.925000
 11
19.688000
 20
26.831000
 21
26.801000
  0
LINE
 10
19.688000
 11
19.449000
 20
26.801000
 21
26.801000
  0
LINE
 10
19.449000
 11
19.211000
 20
26.801000
 21
26.831000
  0
LINE
 10
19.211000
 11
18.979000
 20
26.831000
 21
26.890000
  0
LINE
 10
18.979000
 11
18.757000
 20
26.890000
 21
26.978000
  0
LINE
 10
18.757000
 11
18.547000
 20
26.978000
 21
27.094000
  0
LINE
 10
18.547000
 11
18.354000
 20
27.094000
 21
27.234000
  0
LINE
 10
18.354000
 11
18.179000
 20
27.234000
 21
27.398000
  0
LINE
 10
18.179000
 11
18.027000
 20
27.398000
 21
27.582000
  0
LINE
 10
18.027000
 11
17.899000
 20
27.582000
 21
27.784000
  0
LINE
 10
17.899000
 11
17.797000
 20
27.784000
 21
28.001000
  0
LINE
 10
17.797000
 11
17.723000
 20
28.001000
 21
28.228000
  0
LINE
 10
17.723000
 11
17.678000
 20
28.228000
 21
28.463000
  0
LINE
 10
17.678000
 11
17.663000
 20
28.463000
 21
28.702000
  0
LINE
 10
28.285000
 11
28.285000
 20
-35.250000
 21
-32.250000
  0
LINE
 10
28.285000
 11
40.985000
 20
-32.250000
 21
-32.250000
  0
LINE
 10
40.985000
 11
40.985000
 20
-32.250000
 21
-35.250000
  0
LINE
 10
40.985000
 11
28.285000
 20
-35.250000
 21
-35.250000
  0
LINE
 10
28.285000
 11
28.285000
 20
32.250000
 21
35.250000
  0
LINE
 10
28.285000
 11
40.985000
 20
35.250000
 21
35.250000
  0
LINE
 10
40.985000
 11
40.985000
 20
35.250000
 21
32.250000
  0
LINE
 10
40.985000
 11
28.285000
 20
32.250000
 21
32.250000
  0
LINE
 10
30.709000
 11
30.724000
 20
-28.702000
 21
-28.463000
  0
LINE
 10
30.724000
 11
30.768000
 20
-28.463000
 21
-28.228000
  0
LINE
 10
30.768000
 11
30.842000
 20
-28.228000
 21
-28.001000
  0
LINE
 10
30.842000
 11
30.944000
 20
-28.001000
 21
-27.784000
  0
LINE
 10
30.944000
 11
31.072000
 20
-27.784000
 21
-27.582000
  0
LINE
 10
31.072000
 11
31.225000
 20
-27.582000
 21
-27.398000
  0
LINE
 10
31.225000
 11
31.399000
 20
-27.398000
 21
-27.234000
  0
LINE
 10
31.399000
 11
31.593000
 20
-27.234000
 21
-27.094000
  0
LINE
 10
31.593000
 11
31.802000
 20
-27.094000
 21
-26.978000
  0
LINE
 10
31.802000
 11
32.025000
 20
-26.978000
 21
-26.890000
  0
LINE
 10
32.025000
 11
32.257000
 20
-26.890000
 21
-26.831000
  0
LINE
 10
32.257000
 11
32.494000
 20
-26.831000
 21
-26.801000
  0
LINE
 10
32.494000
 11
32.733000
 20
-26.801000
 21
-26.801000
  0
LINE
 10
32.733000
 11
32.971000
 20
-26.801000
 21
-26.831000
  0
LINE
 10
32.971000
 11
33.202000
 20
-26.831000
 21
-26.890000
  0
LINE
 10
33.202000
 11
33.425000
 20
-26.890000
 21
-26.978000
  0
LINE
 10
33.425000
 11
33.634000
 20
-26.978000
 21
-27.094000
  0
LINE
 10
33.634000
 11
33.828000
 20
-27.094000
 21
-27.234000
  0
LINE
 10
33.828000
 11
34.002000
 20
-27.234000
 21
-27.398000
  0
LINE
 10
34.002000
 11
34.155000
 20
-27.398000
 21
-27.582000
  0
LINE
 10
34.155000
 11
34.283000
 20
-27.582000
 21
-27.784000
  0
LINE
 10
34.283000
 11
34.385000
 20
-27.784000
 21
-28.001000
  0
LINE
 10
34.385000
 11
34.459000
 20
-28.001000
 21
-28.228000
  0
LINE
 10
34.459000
 11
34.504000
 20
-28.228000
 21
-28.463000
  0
LINE
 10
34.504000
 11
34.519000
 20
-28.463000
 21
-28.702000
  0
LINE
 10
34.519000
 11
34.504000
 20
-28.702000
 21
-28.941000
  0
LINE
 10
34.504000
 11
34.459000
 20
-28.941000
 21
-29.176000
  0
LINE
 10
34.459000
 11
34.385000
 20
-29.176000
 21
-29.403000
  0
LINE
 10
34.385000
 11
34.283000
 20
-29.403000
 21
-29.620000
  0
LINE
 10
34.283000
 11
34.155000
 20
-29.620000
 21
-29.822000
  0
LINE
 10
34.155000
 11
34.002000
 20
-29.822000
 21
-30.006000
  0
LINE
 10
34.002000
 11
33.828000
 20
-30.006000
 21
-30.170000
  0
LINE
 10
33.828000
 11
33.634000
 20
-30.170000
 21
-30.310000
  0
LINE
 10
33.634000
 11
33.425000
 20
-30.310000
 21
-30.426000
  0
LINE
 10
33.425000
 11
33.202000
 20
-30.426000
 21
-30.514000
  0
LINE
 10
33.202000
 11
32.971000
 20
-30.514000
 21
-30.573000
  0
LINE
 10
32.971000
 11
32.733000
 20
-30.573000
 21
-30.603000
  0
LINE
 10
32.733000
 11
32.494000
 20
-30.603000
 21
-30.603000
  0
LINE
 10
32.494000
 11
32.257000
 20
-30.603000
 21
-30.573000
  0
LINE
 10
32.257000
 11
32.025000
 20
-30.573000
 21
-30.514000
  0
LINE
 10
32.025000
 11
31.802000
 20
-30.514000
 21
-30.426000
  0
LINE
 10
31.802000
 11
31.593000
 20
-30.426000
 21
-30.310000
  0
LINE
 10
31.593000
 11
31.399000
 20
-30.310000
 21
-30.170000
  0
LINE
 10
31.399000
 11
31.225000
 20
-30.170000
 21
-30.006000
  0
LINE
 10
31.225000
 11
31.072000
 20
-30.006000
 21
-29.822000
  0
LINE
 10
31.072000
 11
30.944000
 20
-29.822000
 21
-29.620000
  0
LINE
 10
30.944000
 11
30.842000
 20
-29.620000
 21
-29.403000
  0
LINE
 10
30.842000
 11
30.768000
 20
-29.403000
 21
-29.176000
  0
LINE
 10
30.768000
 11
30.724000
 20
-29.176000
 21
-28.941000
  0
LINE
 10
30.724000
 11
30.709000
 20
-28.941000
 21
-28.702000
  0
LINE
 10
30.709000
 11
30.724000
 20
-14.351000
 21
-14.112000
  0
LINE
 10
30.724000
 11
30.768000
 20
-14.112000
 21
-13.877000
  0
LINE
 10
30.768000
 11
30.842000
 20
-13.877000
 21
-13.650000
  0
LINE
 10
30.842000
 11
30.944000
 20
-13.650000
 21
-13.433000
  0
LINE
 10
30.944000
 11
31.072000
 20
-13.433000
 21
-13.231000
  0
LINE
 10
31.072000
 11
31.225000
 20
-13.231000
 21
-13.047000
  0
LINE
 10
31.225000
 11
31.399000
 20
-13.047000
 21
-12.883000
  0
LINE
 10
31.399000
 11
31.593000
 20
-12.883000
 21
-12.743000
  0
LINE
 10
31.593000
 11
31.802000
 20
-12.743000
 21
-12.627000
  0
LINE
 10
31.802000
 11
32.025000
 20
-12.627000
 21
-12.539000
  0
LINE
 10
32.025000
 11
32.257000
 20
-12.539000
 21
-12.480000
  0
LINE
 10
32.257000
 11
32.494000
 20
-12.480000
 21
-12.450000
  0
LINE
 10
32.494000
 11
32.733000
 20
-12.450000
 21
-12.450000
  0
LINE
 10
32.733000
 11
32.971000
 20
-12.450000
 21
-12.480000
  0
LINE
 10
32.971000
 11
33.202000
 20
-12.480000
 21
-12.539000
  0
LINE
 10
33.202000
 11
33.425000
 20
-12.539000
 21
-12.627000
  0
LINE
 10
33.425000
 11
33.634000
 20
-12.627000
 21
-12.743000
  0
LINE
 10
33.634000
 11
33.828000
 20
-12.743000
 21
-12.883000
  0
LINE
 10
33.828000
 11
34.002000
 20
-12.883000
 21
-13.047000
  0
LINE
 10
34.002000
 11
34.155000
 20
-13.047000
 21
-13.231000
  0
LINE
 10
34.155000
 11
34.283000
 20
-13.231000
 21
-13.433000
  0
LINE
 10
34.283000
 11
34.385000
 20
-13.433000
 21
-13.650000
  0
LINE
 10
34.385000
 11
34.459000
 20
-13.650000
 21
-13.877000
  0
LINE
 10
34.459000
 11
34.504000
 20
-13.877000
 21
-14.112000
  0
LINE
 10
34.504000
 11
34.519000
 20
-14.112000
 21
-14.351000
  0
LINE
 10
34.519000
 11
34.504000
 20
-14.351000
 21
-14.590000
  0
LINE
 10
34.504000
 11
34.459000
 20
-14.590000
 21
-14.825000
  0
LINE
 10
34.459000
 11
34.385000
 20
-14.825000
 21
-15.052000
  0
LINE
 10
34.385000
 11
34.283000
 20
-15.052000
 21
-15.269000
  0
LINE
 10
34.283000
 11
34.155000
 20
-15.269000
 21
-15.471000
  0
LINE
 10
34.155000
 11
34.002000
 20
-15.471000
 21
-15.655000
  0
LINE
 10
34.002000
 11
33.828000
 20
-15.655000
 21
-15.819000
  0
LINE
 10
33.828000
 11
33.634000
 20
-15.819000
 21
-15.959000
  0
LINE
 10
33.634000
 11
33.425000
 20
-15.959000
 21
-16.075000
  0
LINE
 10
33.425000
 11
33.202000
 20
-16.075000
 21
-16.163000
  0
LINE
 10
33.202000
 11
32.971000
 20
-16.163000
 21
-16.222000
  0
LINE
 10
32.971000
 11
32.733000
 20
-16.222000
 21
-16.252000
  0
LINE
 10
32.733000
 11
32.494000
 20
-16.252000
 21
-16.252000
  0
LINE
 10
32.494000
 11
32.257000
 20
-16.252000
 21
-16.222000
  0
LINE
 10
32.257000
 11
32.025000
 20
-16.222000
 21
-16.163000
  0
LINE
 10
32.025000
 11
31.802000
 20
-16.163000
 21
-16.075000
  0
LINE
 10
31.802000
 11
31.593000
 20
-16.075000
 21
-15.959000
  0
LINE
 10
31.593000
 11
31.399000
 20
-15.959000
 21
-15.819000
  0
LINE
 10
31.399000
 11
31.225000
 20
-15.819000
 21
-15.655000
  0
LINE
 10
31.225000
 11
31.072000
 20
-15.655000
 21
-15.471000
  0
LINE
 10
31.072000
 11
30.944000
 20
-15.471000
 21
-15.269000
  0
LINE
 10
30.944000
 11
30.842000
 20
-15.269000
 21
-15.052000
  0
LINE
 10
30.842000
 11
30.768000
 20
-15.052000
 21
-14.825000
  0
LINE
 10
30.768000
 11
30.724000
 20
-14.825000
 21
-14.590000
  0
LINE
 10
30.724000
 11
30.709000
 20
-14.590000
 21
-14.351000
  0
LINE
 10
30.709000
 11
30.724000
 20
0.000000
 21
0.239000
  0
LINE
 10
30.724000
 11
30.768000
 20
0.239000
 21
0.474000
  0
LINE
 10
30.768000
 11
30.842000
 20
0.474000
 21
0.701000
  0
LINE
 10
30.842000
 11
30.944000
 20
0.701000
 21
0.918000
  0
LINE
 10
30.944000
 11
31.072000
 20
0.918000
 21
1.120000
  0
LINE
 10
31.072000
 11
31.225000
 20
1.120000
 21
1.304000
  0
LINE
 10
31.225000
 11
31.399000
 20
1.304000
 21
1.468000
  0
LINE
 10
31.399000
 11
31.593000
 20
1.468000
 21
1.608000
  0
LINE
 10
31.593000
 11
31.802000
 20
1.608000
 21
1.724000
  0
LINE
 10
31.802000
 11
32.025000
 20
1.724000
 21
1.812000
  0
LINE
 10
32.025000
 11
32.257000
 20
1.812000
 21
1.871000
  0
LINE
 10
32.257000
 11
32.494000
 20
1.871000
 21
1.901000
  0
LINE
 10
32.494000
 11
32.733000
 20
1.901000
 21
1.901000
  0
LINE
 10
32.733000
 11
32.971000
 20
1.901000
 21
1.871000
  0
LINE
 10
32.971000
 11
33.202000
 20
1.871000
 21
1.812000
  0
LINE
 10
33.202000
 11
33.425000
 20
1.812000
 21
1.724000
  0
LINE
 10
33.425000
 11
33.634000
 20
1.724000
 21
1.608000
  0
LINE
 10
33.634000
 11
33.828000
 20
1.608000
 21
1.468000
  0
LINE
 10
33.828000
 11
34.002000
 20
1.468000
 21
1.304000
  0
LINE
 10
34.002000
 11
34.155000
 20
1.304000
 21
1.120000
  0
LINE
 10
34.155000
 11
34.283000
 20
1.120000
 21
0.918000
  0
LINE
 10
34.283000
 11
34.385000
 20
0.918000
 21
0.701000
  0
LINE
 10
34.385000
 11
34.459000
 20
0.701000
 21
0.474000
  0
LINE
 10
34.459000
 11
34.504000
 20
0.474000
 21
0.239000
  0
LINE
 10
34.504000
 11
34.519000
 20
0.239000
 21
0.000000
  0
LINE
 10
34.519000
 11
34.504000
 20
0.000000
 21
-0.239000
  0
LINE
 10
34.504000
 11
34.459000
 20
-0.239000
 21
-0.474000
  0
LINE
 10
34.459000
 11
34.385000
 20
-0.474000
 21
-0.701000
  0
LINE
 10
34.385000
 11
34.283000
 20
-0.701000
 21
-0.918000
  0
LINE
 10
34.283000
 11
34.155000
 20
-0.918000
 21
-1.120000
  0
LINE
 10
34.155000
 11
34.002000
 20
-1.120000
 21
-1.304000
  0
LINE
 10
34.002000
 11
33.828000
 20
-1.304000
 21
-1.468000
  0
LINE
 10
33.828000
 11
33.634000
 20
-1.468000
 21
-1.608000
  0
LINE
 10
33.634000
 11
33.425000
 20
-1.608000
 21
-1.724000
  0
LINE
 10
33.425000
 11
33.202000
 20
-1.724000
 21
-1.812000
  0
LINE
 10
33.202000
 11
32.971000
 20
-1.812000
 21
-1.871000
  0
LINE
 10
32.971000
 11
32.733000
 20
-1.871000
 21
-1.901000
  0
LINE
 10
32.733000
 11
32.494000
 20
-1.901000
 21
-1.901000
  0
LINE
 10
32.494000
 11
32.257000
 20
-1.901000
 21
-1.871000
  0
LINE
 10
32.257000
 11
32.025000
 20
-1.871000
 21
-1.812000
  0
LINE
 10
32.025000
 11
31.802000
 20
-1.812000
 21
-1.724000
  0
LINE
 10
31.802000
 11
31.593000
 20
-1.724000
 21
-1.608000
  0
LINE
 10
31.593000
 11
31.399000
 20
-1.608000
 21
-1.468000
  0
LINE
 10
31.399000
 11
31.225000
 20
-1.468000
 21
-1.304000
  0
LINE
 10
31.225000
 11
31.072000
 20
-1.304000
 21
-1.120000
  0
LINE
 10
31.072000
 11
30.944000
 20
-1.120000
 21
-0.918000
  0
LINE
 10
30.944000
 11
30.842000
 20
-0.918000
 21
-0.701000
  0
LINE
 10
30.842000
 11
30.768000
 20
-0.701000
 21
-0.474000
  0
LINE
 10
30.768000
 11
30.724000
 20
-0.474000
 21
-0.239000
  0
LINE
 10
30.724000
 11
30.709000
 20
-0.239000
 21
0.000000
  0
LINE
 10
30.709000
 11
30.724000
 20
14.351000
 21
14.590000
  0
LINE
 10
30.724000
 11
30.768000
 20
14.590000
 21
14.825000
  0
LINE
 10
30.768000
 11
30.842000
 20
14.825000
 21
15.052000
  0
LINE
 10
30.842000
 11
30.944000
 20
15.052000
 21
15.269000
  0
LINE
 10
30.944000
 11
31.072000
 20
15.269000
 21
15.471000
  0
LINE
 10
31.072000
 11
31.225000
 20
15.471000
 21
15.655000
  0
LINE
 10
31.225000
 11
31.399000
 20
15.655000
 21
15.819000
  0
LINE
 10
31.399000
 11
31.593000
 20
15.819000
 21
15.959000
  0
LINE
 10
31.593000
 11
31.802000
 20
15.959000
 21
16.075000
  0
LINE
 10
31.802000
 11
32.025000
 20
16.075000
 21
16.163000
  0
LINE
 10
32.025000
 11
32.257000
 20
16.163000
 21
16.222000
  0
LINE
 10
32.257000
 11
32.494000
 20
16.222000
 21
16.252000
  0
LINE
 10
32.494000
 11
32.733000
 20
16.252000
 21
16.252000
  0
LINE
 10
32.733000
 11
32.971000
 20
16.252000
 21
16.222000
  0
LINE
 10
32.971000
 11
33.202000
 20
16.222000
 21
16.163000
  0
LINE
 10
33.202000
 11
33.425000
 20
16.163000
 21
16.075000
  0
LINE
 10
33.425000
 11
33.634000
 20
16.075000
 21
15.959000
  0
LINE
 10
33.634000
 11
33.828000
 20
15.959000
 21
15.819000
  0
LINE
 10
33.828000
 11
34.002000
 20
15.819000
 21
15.655000
  0
LINE
 10
34.002000
 11
34.155000
 20
15.655000
 21
15.471000
  0
LINE
 10
34.155000
 11
34.283000
 20
15.471000
 21
15.269000
  0
LINE
 10
34.283000
 11
34.385000
 20
15.269000
 21
15.052000
  0
LINE
 10
34.385000
 11
34.459000
 20
15.052000
 21
14.825000
  0
LINE
 10
34.459000
 11
34.504000
 20
14.825000
 21
14.590000
  0
LINE
 10
34.504000
 11
34.519000
 20
14.590000
 21
14.351000
  0
LINE
 10
34.519000
 11
34.504000
 20
14.351000
 21
14.112000
  0
LINE
 10
34.504000
 11
34.459000
 20
14.112000
 21
13.877000
  0
LINE
 10
34.459000
 11
34.385000
 20
13.877000
 21
13.650000
  0
LINE
 10
34.385000
 11
34.283000
 20
13.650000
 21
13.433000
  0
LINE
 10
34.283000
 11
34.155000
 20
13.433000
 21
13.231000
  0
LINE
 10
34.155000
 11
34.002000
 20
13.231000
 21
13.047000
  0
LINE
 10
34.002000
 11
33.828000
 20
13.047000
 21
12.883000
  0
LINE
 10
33.828000
 11
33.634000
 20
12.883000
 21
12.743000
  0
LINE
 10
33.634000
 11
33.425000
 20
12.743000
 21
12.627000
  0
LINE
 10
33.425000
 11
33.202000
 20
12.627000
 21
12.539000
  0
LINE
 10
33.202000
 11
32.971000
 20
12.539000
 21
12.480000
  0
LINE
 10
32.971000
 11
32.733000
 20
12.480000
 21
12.450000
  0
LINE
 10
32.733000
 11
32.494000
 20
12.450000
 21
12.450000
  0
LINE
 10
32.494000
 11
32.257000
 20
12.450000
 21
12.480000
  0
LINE
 10
32.257000
 11
32.025000
 20
12.480000
 21
12.539000
  0
LINE
 10
32.025000
 11
31.802000
 20
12.539000
 21
12.627000
  0
LINE
 10
31.802000
 11
31.593000
 20
12.627000
 21
12.743000
  0
LINE
 10
31.593000
 11
31.399000
 20
12.743000
 21
12.883000
  0
LINE
 10
31.399000
 11
31.225000
 20
12.883000
 21
13.047000
  0
LINE
 10
31.225000
 11
31.072000
 20
13.047000
 21
13.231000
  0
LINE
 10
31.072000
 11
30.944000
 20
13.231000
 21
13.433000
  0
LINE
 10
30.944000
 11
30.842000
 20
13.433000
 21
13.650000
  0
LINE
 10
30.842000
 11
30.768000
 20
13.650000
 21
13.877000
  0
LINE
 10
30.768000
 11
30.724000
 20
13.877000
 21
14.112000
  0
LINE
 10
30.724000
 11
30.709000
 20
14.112000
 21
14.351000
  0
LINE
 10
30.709000
 11
30.724000
 20
28.702000
 21
28.941000
  0
LINE
 10
30.724000
 11
30.768000
 20
28.941000
 21
29.176000
  0
LINE
 10
30.768000
 11
30.842000
 20
29.176000
 21
29.403000
  0
LINE
 10
30.842000
 11
30.944000
 20
29.403000
 21
29.620000
  0
LINE
 10
30.944000
 11
31.072000
 20
29.620000
 21
29.822000
  0
LINE
 10
31.072000
 11
31.225000
 20
29.822000
 21
30.006000
  0
LINE
 10
31.225000
 11
31.399000
 20
30.006000
 21
30.170000
  0
LINE
 10
31.399000
 11
31.593000
 20
30.170000
 21
30.310000
  0
LINE
 10
31.593000
 11
31.802000
 20
30.310000
 21
30.426000
  0
LINE
 10
31.802000
 11
32.025000
 20
30.426000
 21
30.514000
  0
LINE
 10
32.025000
 11
32.257000
 20
30.514000
 21
30.573000
  0
LINE
 10
32.257000
 11
32.494000
 20
30.573000
 21
30.603000
  0
LINE
 10
32.494000
 11
32.733000
 20
30.603000
 21
30.603000
  0
LINE
 10
32.733000
 11
32.971000
 20
30.603000
 21
30.573000
  0
LINE
 10
32.971000
 11
33.202000
 20
30.573000
 21
30.514000
  0
LINE
 10
33.202000
 11
33.425000
 20
30.514000
 21
30.426000
  0
LINE
 10
33.425000
 11
33.634000
 20
30.426000
 21
30.310000
  0
LINE
 10
33.634000
 11
33.828000
 20
30.310000
 21
30.170000
  0
LINE
 10
33.828000
 11
34.002000
 20
30.170000
 21
30.006000
  0
LINE
 10
34.002000
 11
34.155000
 20
30.006000
 21
29.822000
  0
LINE
 10
34.155000
 11
34.283000
 20
29.822000
 21
29.620000
  0
LINE
 10
34.283000
 11
34.385000
 20
29.620000
 21
29.403000
  0
LINE
 10
34.385000
 11
34.459000
 20
29.403000
 21
29.176000
  0
LINE
 10
34.459000
 11
34.504000
 20
29.176000
 21
28.941000
  0
LINE
 10
34.504000
 11
34.519000
 20
28.941000
 21
28.702000
  0
LINE
 10
34.519000
 11
34.504000
 20
28.702000
 21
28.463000
  0
LINE
 10
34.504000
 11
34.459000
 20
28.463000
 21
28.228000
  0
LINE
 10
34.459000
 11
34.385000
 20
28.228000
 21
28.001000
  0
LINE
 10
34.385000
 11
34.283000
 20
28.001000
 21
27.784000
  0
LINE
 10
34.283000
 11
34.155000
 20
27.784000
 21
27.582000
  0
LINE
 10
34.155000
 11
34.002000
 20
27.582000
 21
27.398000
  0
LINE
 10
34.002000
 11
33.828000
 20
27.398000
 21
27.234000
  0
LINE
 10
33.828000
 11
33.634000
 20
27.234000
 21
27.094000
  0
LINE
 10
33.634000
 11
33.425000
 20
27.094000
 21
26.978000
  0
LINE
 10
33.425000
 11
33.202000
 20
26.978000
 21
26.890000
  0
LINE
 10
33.202000
 11
32.971000
 20
26.890000
 21
26.831000
  0
LINE
 10
32.971000
 11
32.733000
 20
26.831000
 21
26.801000
  0
LINE
 10
32.733000
 11
32.494000
 20
26.801000
 21
26.801000
  0
LINE
 10
32.494000
 11
32.257000
 20
26.801000
 21
26.831000
  0
LINE
 10
32.257000
 11
32.025000
 20
26.831000
 21
26.890000
  0
LINE
 10
32.025000
 11
31.802000
 20
26.890000
 21
26.978000
  0
LINE
 10
31.802000
 11
31.593000
 20
26.978000
 21
27.094000
  0
LINE
 10
31.593000
 11
31.399000
 20
27.094000
 21
27.234000
  0
LINE
 10
31.399000
 11
31.225000
 20
27.234000
 21
27.398000
  0
LINE
 10
31.225000
 11
31.072000
 20
27.398000
 21
27.582000
  0
LINE
 10
31.072000
 11
30.944000
 20
27.582000
 21
27.784000
  0
LINE
 10
30.944000
 11
30.842000
 20
27.784000
 21
28.001000
  0
LINE
 10
30.842000
 11
30.768000
 20
28.001000
 21
28.228000
  0
LINE
 10
30.768000
 11
30.724000
 20
28.228000
 21
28.463000
  0
LINE
 10
30.724000
 11
30.709000
 20
28.463000
 21
28.702000
  0
LINE
 10
51.807000
 11
51.819000
 20
-27.805000
 21
-27.621000
  0
LINE
 10
51.819000
 11
51.853000
 20
-27.621000
 21
-27.439000
  0
LINE
 10
51.853000
 11
51.911000
 20
-27.439000
 21
-27.263000
  0
LINE
 10
51.911000
 11
51.989000
 20
-27.263000
 21
-27.096000
  0
LINE
 10
51.989000
 11
52.088000
 20
-27.096000
 21
-26.939000
  0
LINE
 10
52.088000
 11
52.206000
 20
-26.939000
 21
-26.797000
  0
LINE
 10
52.206000
 11
52.341000
 20
-26.797000
 21
-26.670000
  0
LINE
 10
52.341000
 11
52.491000
 20
-26.670000
 21
-26.562000
  0
LINE
 10
52.491000
 11
52.653000
 20
-26.562000
 21
-26.472000
  0
LINE
 10
52.653000
 11
52.825000
 20
-26.472000
 21
-26.404000
  0
LINE
 10
52.825000
 11
53.004000
 20
-26.404000
 21
-26.358000
  0
LINE
 10
53.004000
 11
53.188000
 20
-26.358000
 21
-26.335000
  0
LINE
 10
53.188000
 11
53.373000
 20
-26.335000
 21
-26.335000
  0
LINE
 10
53.373000
 11
53.556000
 20
-26.335000
 21
-26.358000
  0
LINE
 10
53.556000
 11
53.736000
 20
-26.358000
 21
-26.404000
  0
LINE
 10
53.736000
 11
53.908000
 20
-26.404000
 21
-26.472000
  0
LINE
 10
53.908000
 11
54.070000
 20
-26.472000
 21
-26.562000
  0
LINE
 10
54.070000
 11
54.219000
 20
-26.562000
 21
-26.670000
  0
LINE
 10
54.219000
 11
54.354000
 20
-26.670000
 21
-26.797000
  0
LINE
 10
54.354000
 11
54.472000
 20
-26.797000
 21
-26.939000
  0
LINE
 10
54.472000
 11
54.571000
 20
-26.939000
 21
-27.096000
  0
LINE
 10
54.571000
 11
54.650000
 20
-27.096000
 21
-27.263000
  0
LINE
 10
54.650000
 11
54.707000
 20
-27.263000
 21
-27.439000
  0
LINE
 10
54.707000
 11
54.742000
 20
-27.439000
 21
-27.621000
  0
LINE
 10
54.742000
 11
54.754000
 20
-27.621000
 21
-27.805000
  0
LINE
 10
54.754000
 11
54.742000
 20
-27.805000
 21
-27.990000
  0
LINE
 10
54.742000
 11
54.707000
 20
-27.990000
 21
-28.172000
  0
LINE
 10
54.707000
 11
54.650000
 20
-28.172000
 21
-28.348000
  0
LINE
 10
54.650000
 11
54.571000
 20
-28.348000
 21
-28.515000
  0
LINE
 10
54.571000
 11
54.472000
 20
-28.515000
 21
-28.671000
  0
LINE
 10
54.472000
 11
54.354000
 20
-28.671000
 21
-28.814000
  0
LINE
 10
54.354000
 11
54.219000
 20
-28.814000
 21
-28.941000
  0
LINE
 10
54.219000
 11
54.070000
 20
-28.941000
 21
-29.049000
  0
LINE
 10
54.070000
 11
53.908000
 20
-29.049000
 21
-29.138000
  0
LINE
 10
53.908000
 11
53.736000
 20
-29.138000
 21
-29.206000
  0
LINE
 10
53.736000
 11
53.556000
 20
-29.206000
 21
-29.252000
  0
LINE
 10
53.556000
 11
53.373000
 20
-29.252000
 21
-29.276000
  0
LINE
 10
53.373000
 11
53.188000
 20
-29.276000
 21
-29.276000
  0
LINE
 10
53.188000
 11
53.004000
 20
-29.276000
 21
-29.252000
  0
LINE
 10
53.004000
 11
52.825000
 20
-29.252000
 21
-29.206000
  0
LINE
 10
52.825000
 11
52.653000
 20
-29.206000
 21
-29.138000
  0
LINE
 10
52.653000
 11
52.491000
 20
-29.138000
 21
-29.049000
  0
LINE
 10
52.491000
 11
52.341000
 20
-29.049000
 21
-28.941000
  0
LINE
 10
52.341000
 11
52.206000
 20
-28.941000
 21
-28.814000
  0
LINE
 10
52.206000
 11
52.088000
 20
-28.814000
 21
-28.671000
  0
LINE
 10
52.088000
 11
51.989000
 20
-28.671000
 21
-28.515000
  0
LINE
 10
51.989000
 11
51.911000
 20
-28.515000
 21
-28.348000
  0
LINE
 10
51.911000
 11
51.853000
 20
-28.348000
 21
-28.172000
  0
LINE
 10
51.853000
 11
51.819000
 20
-28.172000
 21
-27.990000
  0
LINE
 10
51.819000
 11
51.807000
 20
-27.990000
 21
-27.805000
  0
LINE
 10
51.807000
 11
51.819000
 20
27.805000
 21
27.990000
  0
LINE
 10
51.819000
 11
51.853000
 20
27.990000
 21
28.172000
  0
LINE
 10
51.853000
 11
51.911000
 20
28.172000
 21
28.348000
  0
LINE
 10
51.911000
 11
51.989000
 20
28.348000
 21
28.515000
  0
LINE
 10
51.989000
 11
52.088000
 20
28.515000
 21
28.671000
  0
LINE
 10
52.088000
 11
52.206000
 20
28.671000
 21
28.814000
  0
LINE
 10
52.206000
 11
52.341000
 20
28.814000
 21
28.941000
  0
LINE
 10
52.341000
 11
52.491000
 20
28.941000
 21
29.049000
  0
LINE
 10
52.491000
 11
52.653000
 20
29.049000
 21
29.138000
  0
LINE
 10
52.653000
 11
52.825000
 20
29.138000
 21
29.206000
  0
LINE
 10
52.825000
 11
53.004000
 20
29.206000
 21
29.252000
  0
LINE
 10
53.004000
 11
53.188000
 20
29.252000
 21
29.276000
  0
LINE
 10
53.188000
 11
53.373000
 20
29.276000
 21
29.276000
  0
LINE
 10
53.373000
 11
53.556000
 20
29.276000
 21
29.252000
  0
LINE
 10
53.556000
 11
53.736000
 20
29.252000
 21
29.206000
  0
LINE
 10
53.736000
 11
53.908000
 20
29.206000
 21
29.138000
  0
LINE
 10
53.908000
 11
54.070000
 20
29.138000
 21
29.049000
  0
LINE
 10
54.070000
 11
54.219000
 20
29.049000
 21
28.941000
  0
LINE
 10
54.219000
 11
54.354000
 20
28.941000
 21
28.814000
  0
LINE
 10
54.354000
 11
54.472000
 20
28.814000
 21
28.671000
  0
LINE
 10
54.472000
 11
54.571000
 20
28.671000
 21
28.515000
  0
LINE
 10
54.571000
 11
54.650000
 20
28.515000
 21
28.348000
  0
LINE
 10
54.650000
 11
54.707000
 20
28.348000
 21
28.172000
  0
LINE
 10
54.707000
 11
54.742000
 20
28.172000
 21
27.990000
  0
LINE
 10
54.742000
 11
54.754000
 20
27.990000
 21
27.805000
  0
LINE
 10
54.754000
 11
54.742000
 20
27.805000
 21
27.621000
  0
LINE
 10
54.742000
 11
54.707000
 20
27.621000
 21
27.439000
  0
LINE
 10
54.707000
 11
54.650000
 20
27.439000
 21
27.263000
  0
LINE
 10
54.650000
 11
54.571000
 20
27.263000
 21
27.096000
  0
LINE
 10
54.571000
 11
54.472000
 20
27.096000
 21
26.939000
  0
LINE
 10
54.472000
 11
54.354000
 20
26.939000
 21
26.797000
  0
LINE
 10
54.354000
 11
54.219000
 20
26.797000
 21
26.670000
  0
LINE
 10
54.219000
 11
54.070000
 20
26.670000
 21
26.562000
  0
LINE
 10
54.070000
 11
53.908000
 20
26.562000
 21
26.472000
  0
LINE
 10
53.908000
 11
53.736000
 20
26.472000
 21
26.404000
  0
LINE
 10
53.736000
 11
53.556000
 20
26.404000
 21
26.358000
  0
LINE
 10
53.556000
 11
53.373000
 20
26.358000
 21
26.335000
  0
LINE
 10
53.373000
 11
53.188000
 20
26.335000
 21
26.335000
  0
LINE
 10
53.188000
 11
53.004000
 20
26.335000
 21
26.358000
  0
LINE
 10
53.004000
 11
52.825000
 20
26.358000
 21
26.404000
  0
LINE
 10
52.825000
 11
52.653000
 20
26.404000
 21
26.472000
  0
LINE
 10
52.653000
 11
52.491000
 20
26.472000
 21
26.562000
  0
LINE
 10
52.491000
 11
52.341000
 20
26.562000
 21
26.670000
  0
LINE
 10
52.341000
 11
52.206000
 20
26.670000
 21
26.797000
  0
LINE
 10
52.206000
 11
52.088000
 20
26.797000
 21
26.939000
  0
LINE
 10
52.088000
 11
51.989000
 20
26.939000
 21
27.096000
  0
LINE
 10
51.989000
 11
51.911000
 20
27.096000
 21
27.263000
  0
LINE
 10
51.911000
 11
51.853000
 20
27.263000
 21
27.439000
  0
LINE
 10
51.853000
 11
51.819000
 20
27.439000
 21
27.621000
  0
LINE
 10
51.819000
 11
51.807000
 20
27.621000
 21
27.805000
  0
LINE
 10
57.725000
 11
57.725000
 20
-23.975000
 21
-11.275000
  0
LINE
 10
57.725000
 11
60.725000
 20
-11.275000
 21
-11.275000
  0
LINE
 10
60.725000
 11
60.725000
 20
-11.275000
 21
-23.975000
  0
LINE
 10
60.725000
 11
57.725000
 20
-23.975000
 21
-23.975000
  0
LINE
 10
57.725000
 11
57.725000
 20
11.275000
 21
23.975000
  0
LINE
 10
57.725000
 11
60.725000
 20
23.975000
 21
23.975000
  0
LINE
 10
60.725000
 11
60.725000
 20
23.975000
 21
11.275000
  0
LINE
 10
60.725000
 11
57.725000
 20
11.275000
 21
11.275000
  0
LINE
 10
77.525000
 11
77.525000
 20
-23.975000
 21
-11.275000
  0
LINE
 10
77.525000
 11
82.075000
 20
-11.275000
 21
-11.275000
  0
LINE
 10
82.075000
 11
82.075000
 20
-11.275000
 21
11.275000
  0
LINE
 10
82.075000
 11
77.525000
 20
11.275000
 21
11.275000
  0
LINE
 10
77.525000
 11
77.525000
 20
11.275000
 21
23.975000
  0
LINE
 10
77.525000
 11
82.075000
 20
23.975000
 21
23.975000
  0
LINE
 10
82.075000
 11
82.075000
 20
23.975000
 21
35.250000
  0
LINE
 10
82.075000
 11
91.607000
 20
35.250000
 21
35.250000
  0
LINE
 10
91.607000
 11
91.607000
 20
35.250000
 21
32.250000
  0
LINE
 10
91.607000
 11
104.307000
 20
32.250000
 21
32.250000
  0
LINE
 10
104.307000
 11
104.307000
 20
32.250000
 21
35.250000
  0
LINE
 10
104.307000
 11
113.838000
 20
35.250000
 21
35.250000
  0
LINE
 10
113.838000
 11
113.838000
 20
35.250000
 21
23.975000
  0
LINE
 10
113.838000
 11
116.838000
 20
23.975000
 21
23.975000
  0
LINE
 10
116.838000
 11
116.838000
 20
23.975000
 21
11.275000
  0
LINE
 10
116.838000
 11
113.838000
 20
11.275000
 21
11.275000
  0
LINE
 10
113.838000
 11
113.838000
 20
11.275000
 21
-11.275000
  0
LINE
 10
113.838000
 11
116.838000
 20
-11.275000
 21
-11.275000
  0
LINE
 10
116.838000
 11
116.838000
 20
-11.275000
 21
-23.975000
  0
LINE
 10
116.838000
 11
113.838000
 20
-23.975000
 21
-23.975000
  0
LINE
 10
113.838000
 11
113.838000
 20
-23.975000
 21
-35.250000
  0
LINE
 10
113.838000
 11
104.307000
 20
-35.250000
 21
-35.250000
  0
LINE
 10
104.307000
 11
104.307000
 20
-35.250000
 21
-32.250000
  0
LINE
 10
104.307000
 11
91.607000
 20
-32.250000
 21
-32.250000
  0
LINE
 10
91.607000
 11
91.607000
 20
-32.250000
 21
-35.250000
  0
LINE
 10
91.607000
 11
82.075000
 20
-35.250000
 21
-35.250000
  0
LINE
 10
82.075000
 11
82.075000
 20
-35.250000
 21
-23.975000
  0
LINE
 10
82.075000
 11
77.525000
 20
-23.975000
 21
-23.975000
  0
LINE
 10
96.360000
 11
96.360000
 20
-10.844000
 21
-10.238000
  0
LINE
 10
96.360000
 11
96.436000
 20
-10.238000
 21
-9.637000
  0
LINE
 10
96.436000
 11
96.586000
 20
-9.637000
 21
-9.050000
  0
LINE
 10
96.586000
 11
96.809000
 20
-9.050000
 21
-8.486000
  0
LINE
 10
96.809000
 11
97.101000
 20
-8.486000
 21
-7.955000
  0
LINE
 10
97.101000
 11
97.458000
 20
-7.955000
 21
-7.465000
  0
LINE
 10
97.458000
 11
97.872000
 20
-7.465000
 21
-7.023000
  0
LINE
 10
97.872000
 11
98.339000
 20
-7.023000
 21
-6.637000
  0
LINE
 10
98.339000
 11
98.851000
 20
-6.637000
 21
-6.312000
  0
LINE
 10
98.851000
 11
99.400000
 20
-6.312000
 21
-6.054000
  0
LINE
 10
99.400000
 11
99.976000
 20
-6.054000
 21
-5.867000
  0
LINE
 10
99.976000
 11
100.571000
 20
-5.867000
 21
-5.753000
  0
LINE
 10
100.571000
 11
101.176000
 20
-5.753000
 21
-5.715000
  0
LINE
 10
101.176000
 11
101.781000
 20
-5.715000
 21
-5.753000
  0
LINE
 10
101.781000
 11
102.376000
 20
-5.753000
 21
-5.867000
  0
LINE
 10
102.376000
 11
102.953000
 20
-5.867000
 21
-6.054000
  0
LINE
 10
102.953000
 11
103.501000
 20
-6.054000
 21
-6.312000
  0
LINE
 10
103.501000
 11
104.013000
 20
-6.312000
 21
-6.637000
  0
LINE
 10
104.013000
 11
104.480000
 20
-6.637000
 21
-7.023000
  0
LINE
 10
104.480000
 11
104.895000
 20
-7.023000
 21
-7.465000
  0
LINE
 10
104.895000
 11
105.251000
 20
-7.465000
 21
-7.955000
  0
LINE
 10
105.251000
 11
105.543000
 20
-7.955000
 21
-8.486000
  0
LINE
 10
105.543000
 11
105.766000
 20
-8.486000
 21
-9.050000
  0
LINE
 10
105.766000
 11
105.917000
 20
-9.050000
 21
-9.637000
  0
LINE
 10
105.917000
 11
105.993000
 20
-9.637000
 21
-10.238000
  0
LINE
 10
105.993000
 11
105.993000
 20
-10.238000
 21
-10.844000
  0
LINE
 10
105.993000
 11
105.917000
 20
-10.844000
 21
-11.445000
  0
LINE
 10
105.917000
 11
105.766000
 20
-11.445000
 21
-12.032000
  0
LINE
 10
105.766000
 11
105.543000
 20
-12.032000
 21
-12.596000
  0
LINE
 10
105.543000
 11
105.251000
 20
-12.596000
 21
-13.127000
  0
LINE
 10
105.251000
 11
104.895000
 20
-13.127000
 21
-13.617000
  0
LINE
 10
104.895000
 11
104.480000
 20
-13.617000
 21
-14.059000
  0
LINE
 10
104.480000
 11
104.013000
 20
-14.059000
 21
-14.445000
  0
LINE
 10
104.013000
 11
103.501000
 20
-14.445000
 21
-14.770000
  0
LINE
 10
103.501000
 11
102.953000
 20
-14.770000
 21
-15.028000
  0
LINE
 10
102.953000
 11
102.376000
 20
-15.028000
 21
-15.215000
  0
LINE
 10
102.376000
 11
101.781000
 20
-15.215000
 21
-15.329000
  0
LINE
 10
101.781000
 11
101.176000
 20
-15.329000
 21
-15.367000
  0
LINE
 10
101.176000
 11
100.571000
 20
-15.367000
 21
-15.329000
  0
LINE
 10
100.571000
 11
99.976000
 20
-15.329000
 21
-15.215000
  0
LINE
 10
99.976000
 11
99.400000
 20
-15.215000
 21
-15.028000
  0
LINE
 10
99.400000
 11
98.851000
 20
-15.028000
 21
-14.770000
  0
LINE
 10
98.851000
 11
98.339000
 20
-14.770000
 21
-14.445000
  0
LINE
 10
98.339000
 11
97.872000
 20
-14.445000
 21
-14.059000
  0
LINE
 10
97.872000
 11
97.458000
 20
-14.059000
 21
-13.617000
  0
LINE
 10
97.458000
 11
97.101000
 20
-13.617000
 21
-13.127000
  0
LINE
 10
97.101000
 11
96.809000
 20
-13.127000
 21
-12.596000
  0
LINE
 10
96.809000
 11
96.586000
 20
-12.596000
 21
-12.032000
  0
LINE
 10
96.586000
 11
96.436000
 20
-12.032000
 21
-11.445000
  0
LINE
 10
96.436000
 11
96.360000
 20
-11.445000
 21
-10.844000
  0
LINE
 10
97.326000
 11
97.326000
 20
4.429000
 21
12.589000
  0
LINE
 10
97.326000
 11
97.328000
 20
12.589000
 21
12.589000
  0
LINE
 10
97.328000
 11
97.328000
 20
12.589000
 21
12.652000
  0
LINE
 10
97.328000
 11
97.344000
 20
12.652000
 21
12.776000
  0
LINE
 10
97.344000
 11
97.375000
 20
12.776000
 21
12.898000
  0
LINE
 10
97.375000
 11
97.421000
 20
12.898000
 21
13.015000
  0
LINE
 10
97.421000
 11
97.482000
 20
13.015000
 21
13.125000
  0
LINE
 10
97.482000
 11
97.556000
 20
13.125000
 21
13.226000
  0
LINE
 10
97.556000
 11
97.642000
 20
13.226000
 21
13.318000
  0
LINE
 10
97.642000
 11
97.738000
 20
13.318000
 21
13.398000
  0
LINE
 10
97.738000
 11
97.844000
 20
13.398000
 21
13.465000
  0
LINE
 10
97.844000
 11
97.958000
 20
13.465000
 21
13.519000
  0
LINE
 10
97.958000
 11
98.077000
 20
13.519000
 21
13.558000
  0
LINE
 10
98.077000
 11
98.201000
 20
13.558000
 21
13.581000
  0
LINE
 10
98.201000
 11
98.326000
 20
13.581000
 21
13.589000
  0
LINE
 10
98.326000
 11
102.326000
 20
13.589000
 21
13.589000
  0
LINE
 10
102.326000
 11
102.451000
 20
13.589000
 21
13.581000
  0
LINE
 10
102.451000
 11
102.575000
 20
13.581000
 21
13.558000
  0
LINE
 10
102.575000
 11
102.694000
 20
13.558000
 21
13.519000
  0
LINE
 10
102.694000
 11
102.808000
 20
13.519000
 21
13.465000
  0
LINE
 10
102.808000
 11
102.914000
 20
13.465000
 21
13.398000
  0
LINE
 10
102.914000
 11
103.011000
 20
13.398000
 21
13.318000
  0
LINE
 10
103.011000
 11
103.097000
 20
13.318000
 21
13.226000
  0
LINE
 10
103.097000
 11
103.170000
 20
13.226000
 21
13.125000
  0
LINE
 10
103.170000
 11
103.231000
 20
13.125000
 21
13.015000
  0
LINE
 10
103.231000
 11
103.277000
 20
13.015000
 21
12.898000
  0
LINE
 10
103.277000
 11
103.308000
 20
12.898000
 21
12.776000
  0
LINE
 10
103.308000
 11
103.324000
 20
12.776000
 21
12.652000
  0
LINE
 10
103.324000
 11
103.324000
 20
12.652000
 21
12.589000
  0
LINE
 10
103.324000
 11
103.326000
 20
12.589000
 21
12.589000
  0
LINE
 10
103.326000
 11
103.326000
 20
12.589000
 21
4.429000
  0
LINE
 10
103.326000
 11
103.324000
 20
4.429000
 21
4.429000
  0
LINE
 10
103.324000
 11
103.324000
 20
4.429000
 21
4.366000
  0
LINE
 10
103.324000
 11
103.308000
 20
4.366000
 21
4.242000
  0
LINE
 10
103.308000
 11
103.277000
 20
4.242000
 21
4.120000
  0
LINE
 10
103.277000
 11
103.231000
 20
4.120000
 21
4.003000
  0
LINE
 10
103.231000
 11
103.170000
 20
4.003000
 21
3.893000
  0
LINE
 10
103.170000
 11
103.097000
 20
3.893000
 21
3.792000
  0
LINE
 10
103.097000
 11
103.011000
 20
3.792000
 21
3.700000
  0
LINE
 10
103.011000
 11
102.914000
 20
3.700000
 21
3.620000
  0
LINE
 10
102.914000
 11
102.808000
 20
3.620000
 21
3.553000
  0
LINE
 10
102.808000
 11
102.694000
 20
3.553000
 21
3.499000
  0
LINE
 10
102.694000
 11
102.575000
 20
3.499000
 21
3.460000
  0
LINE
 10
102.575000
 11
102.451000
 20
3.460000
 21
3.437000
  0
LINE
 10
102.451000
 11
102.326000
 20
3.437000
 21
3.429000
  0
LINE
 10
102.326000
 11
98.326000
 20
3.429000
 21
3.429000
  0
LINE
 10
98.326000
 11
98.201000
 20
3.429000
 21
3.437000
  0
LINE
 10
98.201000
 11
98.077000
 20
3.437000
 21
3.460000
  0
LINE
 10
98.077000
 11
97.958000
 20
3.460000
 21
3.499000
  0
LINE
 10
97.958000
 11
97.844000
 20
3.499000
 21
3.553000
  0
LINE
 10
97.844000
 11
97.738000
 20
3.553000
 21
3.620000
  0
LINE
 10
97.738000
 11
97.642000
 20
3.620000
 21
3.700000
  0
LINE
 10
97.642000
 11
97.556000
 20
3.700000
 21
3.792000
  0
LINE
 10
97.556000
 11
97.482000
 20
3.792000
 21
3.893000
  0
LINE
 10
97.482000
 11
97.421000
 20
3.893000
 21
4.003000
  0
LINE
 10
97.421000
 11
97.375000
 20
4.003000
 21
4.120000
  0
LINE
 10
97.375000
 11
97.344000
 20
4.120000
 21
4.242000
  0
LINE
 10
97.344000
 11
97.328000
 20
4.242000
 21
4.366000
  0
LINE
 10
97.328000
 11
97.328000
 20
4.366000
 21
4.429000
  0
LINE
 10
97.328000
 11
97.326000
 20
4.429000
 21
4.429000
  0
ENDSEC
  0
EOF
