  0
SECTION
  2
ENTITIES
  0
LINE
 10
-75.123000
 11
-75.112000
 20
-43.650000
 21
-43.465000
  0
LINE
 10
-75.112000
 11
-75.077000
 20
-43.465000
 21
-43.284000
  0
LINE
 10
-75.077000
 11
-75.020000
 20
-43.284000
 21
-43.108000
  0
LINE
 10
-75.020000
 11
-74.941000
 20
-43.108000
 21
-42.940000
  0
LINE
 10
-74.941000
 11
-74.842000
 20
-42.940000
 21
-42.784000
  0
LINE
 10
-74.842000
 11
-74.724000
 20
-42.784000
 21
-42.642000
  0
LINE
 10
-74.724000
 11
-74.589000
 20
-42.642000
 21
-42.515000
  0
LINE
 10
-74.589000
 11
-74.439000
 20
-42.515000
 21
-42.406000
  0
LINE
 10
-74.439000
 11
-74.277000
 20
-42.406000
 21
-42.317000
  0
LINE
 10
-74.277000
 11
-74.105000
 20
-42.317000
 21
-42.249000
  0
LINE
 10
-74.105000
 11
-73.926000
 20
-42.249000
 21
-42.203000
  0
LINE
 10
-73.926000
 11
-73.743000
 20
-42.203000
 21
-42.180000
  0
LINE
 10
-73.743000
 11
-73.557000
 20
-42.180000
 21
-42.180000
  0
LINE
 10
-73.557000
 11
-73.374000
 20
-42.180000
 21
-42.203000
  0
LINE
 10
-73.374000
 11
-73.195000
 20
-42.203000
 21
-42.249000
  0
LINE
 10
-73.195000
 11
-73.023000
 20
-42.249000
 21
-42.317000
  0
LINE
 10
-73.023000
 11
-72.861000
 20
-42.317000
 21
-42.406000
  0
LINE
 10
-72.861000
 11
-72.711000
 20
-42.406000
 21
-42.515000
  0
LINE
 10
-72.711000
 11
-72.576000
 20
-42.515000
 21
-42.642000
  0
LINE
 10
-72.576000
 11
-72.458000
 20
-42.642000
 21
-42.784000
  0
LINE
 10
-72.458000
 11
-72.359000
 20
-42.784000
 21
-42.940000
  0
LINE
 10
-72.359000
 11
-72.280000
 20
-42.940000
 21
-43.108000
  0
LINE
 10
-72.280000
 11
-72.223000
 20
-43.108000
 21
-43.284000
  0
LINE
 10
-72.223000
 11
-72.188000
 20
-43.284000
 21
-43.465000
  0
LINE
 10
-72.188000
 11
-72.177000
 20
-43.465000
 21
-43.650000
  0
LINE
 10
-72.177000
 11
-72.188000
 20
-43.650000
 21
-43.835000
  0
LINE
 10
-72.188000
 11
-72.223000
 20
-43.835000
 21
-44.016000
  0
LINE
 10
-72.223000
 11
-72.280000
 20
-44.016000
 21
-44.192000
  0
LINE
 10
-72.280000
 11
-72.359000
 20
-44.192000
 21
-44.360000
  0
LINE
 10
-72.359000
 11
-72.458000
 20
-44.360000
 21
-44.516000
  0
LINE
 10
-72.458000
 11
-72.576000
 20
-44.516000
 21
-44.658000
  0
LINE
 10
-72.576000
 11
-72.711000
 20
-44.658000
 21
-44.785000
  0
LINE
 10
-72.711000
 11
-72.861000
 20
-44.785000
 21
-44.894000
  0
LINE
 10
-72.861000
 11
-73.023000
 20
-44.894000
 21
-44.983000
  0
LINE
 10
-73.023000
 11
-73.195000
 20
-44.983000
 21
-45.051000
  0
LINE
 10
-73.195000
 11
-73.374000
 20
-45.051000
 21
-45.097000
  0
LINE
 10
-73.374000
 11
-73.557000
 20
-45.097000
 21
-45.120000
  0
LINE
 10
-73.557000
 11
-73.743000
 20
-45.120000
 21
-45.120000
  0
LINE
 10
-73.743000
 11
-73.926000
 20
-45.120000
 21
-45.097000
  0
LINE
 10
-73.926000
 11
-74.105000
 20
-45.097000
 21
-45.051000
  0
LINE
 10
-74.105000
 11
-74.277000
 20
-45.051000
 21
-44.983000
  0
LINE
 10
-74.277000
 11
-74.439000
 20
-44.983000
 21
-44.894000
  0
LINE
 10
-74.439000
 11
-74.589000
 20
-44.894000
 21
-44.785000
  0
LINE
 10
-74.589000
 11
-74.724000
 20
-44.785000
 21
-44.658000
  0
LINE
 10
-74.724000
 11
-74.842000
 20
-44.658000
 21
-44.516000
  0
LINE
 10
-74.842000
 11
-74.941000
 20
-44.516000
 21
-44.360000
  0
LINE
 10
-74.941000
 11
-75.020000
 20
-44.360000
 21
-44.192000
  0
LINE
 10
-75.020000
 11
-75.077000
 20
-44.192000
 21
-44.016000
  0
LINE
 10
-75.077000
 11
-75.112000
 20
-44.016000
 21
-43.835000
  0
LINE
 10
-75.112000
 11
-75.123000
 20
-43.835000
 21
-43.650000
  0
LINE
 10
-80.000000
 11
-80.000000
 20
-45.000000
 21
45.000000
  0
LINE
 10
-80.000000
 11
-79.961000
 20
45.000000
 21
45.627000
  0
LINE
 10
-79.961000
 11
-79.843000
 20
45.627000
 21
46.243000
  0
LINE
 10
-79.843000
 11
-79.649000
 20
46.243000
 21
46.841000
  0
LINE
 10
-79.649000
 11
-79.382000
 20
46.841000
 21
47.409000
  0
LINE
 10
-79.382000
 11
-79.045000
 20
47.409000
 21
47.939000
  0
LINE
 10
-79.045000
 11
-78.645000
 20
47.939000
 21
48.423000
  0
LINE
 10
-78.645000
 11
-78.187000
 20
48.423000
 21
48.853000
  0
LINE
 10
-78.187000
 11
-77.679000
 20
48.853000
 21
49.222000
  0
LINE
 10
-77.679000
 11
-77.129000
 20
49.222000
 21
49.524000
  0
LINE
 10
-77.129000
 11
-76.545000
 20
49.524000
 21
49.755000
  0
LINE
 10
-76.545000
 11
-75.937000
 20
49.755000
 21
49.911000
  0
LINE
 10
-75.937000
 11
-75.314000
 20
49.911000
 21
49.990000
  0
LINE
 10
-75.314000
 11
-75.000000
 20
49.990000
 21
49.990000
  0
LINE
 10
-75.000000
 11
-75.000000
 20
49.990000
 21
50.000000
  0
LINE
 10
-75.000000
 11
75.000000
 20
50.000000
 21
50.000000
  0
LINE
 10
75.000000
 11
75.000000
 20
50.000000
 21
49.990000
  0
LINE
 10
75.000000
 11
75.314000
 20
49.990000
 21
49.990000
  0
LINE
 10
75.314000
 11
75.937000
 20
49.990000
 21
49.911000
  0
LINE
 10
75.937000
 11
76.545000
 20
49.911000
 21
49.755000
  0
LINE
 10
76.545000
 11
77.129000
 20
49.755000
 21
49.524000
  0
LINE
 10
77.129000
 11
77.679000
 20
49.524000
 21
49.222000
  0
LINE
 10
77.679000
 11
78.187000
 20
49.222000
 21
48.853000
  0
LINE
 10
78.187000
 11
78.645000
 20
48.853000
 21
48.423000
  0
LINE
 10
78.645000
 11
79.045000
 20
48.423000
 21
47.939000
  0
LINE
 10
79.045000
 11
79.382000
 20
47.939000
 21
47.409000
  0
LINE
 10
79.382000
 11
79.649000
 20
47.409000
 21
46.841000
  0
LINE
 10
79.649000
 11
79.843000
 20
46.841000
 21
46.243000
  0
LINE
 10
79.843000
 11
79.961000
 20
46.243000
 21
45.627000
  0
LINE
 10
79.961000
 11
80.000000
 20
45.627000
 21
45.000000
  0
LINE
 10
80.000000
 11
80.000000
 20
45.000000
 21
-45.000000
  0
LINE
 10
80.000000
 11
79.961000
 20
-45.000000
 21
-45.627000
  0
LINE
 10
79.961000
 11
79.843000
 20
-45.627000
 21
-46.243000
  0
LINE
 10
79.843000
 11
79.649000
 20
-46.243000
 21
-46.841000
  0
LINE
 10
79.649000
 11
79.382000
 20
-46.841000
 21
-47.409000
  0
LINE
 10
79.382000
 11
79.045000
 20
-47.409000
 21
-47.939000
  0
LINE
 10
79.045000
 11
78.645000
 20
-47.939000
 21
-48.423000
  0
LINE
 10
78.645000
 11
78.187000
 20
-48.423000
 21
-48.853000
  0
LINE
 10
78.187000
 11
77.679000
 20
-48.853000
 21
-49.222000
  0
LINE
 10
77.679000
 11
77.129000
 20
-49.222000
 21
-49.524000
  0
LINE
 10
77.129000
 11
76.545000
 20
-49.524000
 21
-49.755000
  0
LINE
 10
76.545000
 11
75.937000
 20
-49.755000
 21
-49.911000
  0
LINE
 10
75.937000
 11
75.314000
 20
-49.911000
 21
-49.990000
  0
LINE
 10
75.314000
 11
75.000000
 20
-49.990000
 21
-49.990000
  0
LINE
 10
75.000000
 11
75.000000
 20
-49.990000
 21
-50.000000
  0
LINE
 10
75.000000
 11
-75.000000
 20
-50.000000
 21
-50.000000
  0
LINE
 10
-75.000000
 11
-75.000000
 20
-50.000000
 21
-49.990000
  0
LINE
 10
-75.000000
 11
-75.314000
 20
-49.990000
 21
-49.990000
  0
LINE
 10
-75.314000
 11
-75.937000
 20
-49.990000
 21
-49.911000
  0
LINE
 10
-75.937000
 11
-76.545000
 20
-49.911000
 21
-49.755000
  0
LINE
 10
-76.545000
 11
-77.129000
 20
-49.755000
 21
-49.524000
  0
LINE
 10
-77.129000
 11
-77.679000
 20
-49.524000
 21
-49.222000
  0
LINE
 10
-77.679000
 11
-78.187000
 20
-49.222000
 21
-48.853000
  0
LINE
 10
-78.187000
 11
-78.645000
 20
-48.853000
 21
-48.423000
  0
LINE
 10
-78.645000
 11
-79.045000
 20
-48.423000
 21
-47.939000
  0
LINE
 10
-79.045000
 11
-79.382000
 20
-47.939000
 21
-47.409000
  0
LINE
 10
-79.382000
 11
-79.649000
 20
-47.409000
 21
-46.841000
  0
LINE
 10
-79.649000
 11
-79.843000
 20
-46.841000
 21
-46.243000
  0
LINE
 10
-79.843000
 11
-79.961000
 20
-46.243000
 21
-45.627000
  0
LINE
 10
-79.961000
 11
-80.000000
 20
-45.627000
 21
-45.000000
  0
LINE
 10
-75.123000
 11
-75.112000
 20
43.650000
 21
43.835000
  0
LINE
 10
-75.112000
 11
-75.077000
 20
43.835000
 21
44.016000
  0
LINE
 10
-75.077000
 11
-75.020000
 20
44.016000
 21
44.192000
  0
LINE
 10
-75.020000
 11
-74.941000
 20
44.192000
 21
44.360000
  0
LINE
 10
-74.941000
 11
-74.842000
 20
44.360000
 21
44.516000
  0
LINE
 10
-74.842000
 11
-74.724000
 20
44.516000
 21
44.658000
  0
LINE
 10
-74.724000
 11
-74.589000
 20
44.658000
 21
44.785000
  0
LINE
 10
-74.589000
 11
-74.439000
 20
44.785000
 21
44.894000
  0
LINE
 10
-74.439000
 11
-74.277000
 20
44.894000
 21
44.983000
  0
LINE
 10
-74.277000
 11
-74.105000
 20
44.983000
 21
45.051000
  0
LINE
 10
-74.105000
 11
-73.926000
 20
45.051000
 21
45.097000
  0
LINE
 10
-73.926000
 11
-73.743000
 20
45.097000
 21
45.120000
  0
LINE
 10
-73.743000
 11
-73.557000
 20
45.120000
 21
45.120000
  0
LINE
 10
-73.557000
 11
-73.374000
 20
45.120000
 21
45.097000
  0
LINE
 10
-73.374000
 11
-73.195000
 20
45.097000
 21
45.051000
  0
LINE
 10
-73.195000
 11
-73.023000
 20
45.051000
 21
44.983000
  0
LINE
 10
-73.023000
 11
-72.861000
 20
44.983000
 21
44.894000
  0
LINE
 10
-72.861000
 11
-72.711000
 20
44.894000
 21
44.785000
  0
LINE
 10
-72.711000
 11
-72.576000
 20
44.785000
 21
44.658000
  0
LINE
 10
-72.576000
 11
-72.458000
 20
44.658000
 21
44.516000
  0
LINE
 10
-72.458000
 11
-72.359000
 20
44.516000
 21
44.360000
  0
LINE
 10
-72.359000
 11
-72.280000
 20
44.360000
 21
44.192000
  0
LINE
 10
-72.280000
 11
-72.223000
 20
44.192000
 21
44.016000
  0
LINE
 10
-72.223000
 11
-72.188000
 20
44.016000
 21
43.835000
  0
LINE
 10
-72.188000
 11
-72.177000
 20
43.835000
 21
43.650000
  0
LINE
 10
-72.177000
 11
-72.188000
 20
43.650000
 21
43.465000
  0
LINE
 10
-72.188000
 11
-72.223000
 20
43.465000
 21
43.284000
  0
LINE
 10
-72.223000
 11
-72.280000
 20
43.284000
 21
43.108000
  0
LINE
 10
-72.280000
 11
-72.359000
 20
43.108000
 21
42.940000
  0
LINE
 10
-72.359000
 11
-72.458000
 20
42.940000
 21
42.784000
  0
LINE
 10
-72.458000
 11
-72.576000
 20
42.784000
 21
42.642000
  0
LINE
 10
-72.576000
 11
-72.711000
 20
42.642000
 21
42.515000
  0
LINE
 10
-72.711000
 11
-72.861000
 20
42.515000
 21
42.406000
  0
LINE
 10
-72.861000
 11
-73.023000
 20
42.406000
 21
42.317000
  0
LINE
 10
-73.023000
 11
-73.195000
 20
42.317000
 21
42.249000
  0
LINE
 10
-73.195000
 11
-73.374000
 20
42.249000
 21
42.203000
  0
LINE
 10
-73.374000
 11
-73.557000
 20
42.203000
 21
42.180000
  0
LINE
 10
-73.557000
 11
-73.743000
 20
42.180000
 21
42.180000
  0
LINE
 10
-73.743000
 11
-73.926000
 20
42.180000
 21
42.203000
  0
LINE
 10
-73.926000
 11
-74.105000
 20
42.203000
 21
42.249000
  0
LINE
 10
-74.105000
 11
-74.277000
 20
42.249000
 21
42.317000
  0
LINE
 10
-74.277000
 11
-74.439000
 20
42.317000
 21
42.406000
  0
LINE
 10
-74.439000
 11
-74.589000
 20
42.406000
 21
42.515000
  0
LINE
 10
-74.589000
 11
-74.724000
 20
42.515000
 21
42.642000
  0
LINE
 10
-74.724000
 11
-74.842000
 20
42.642000
 21
42.784000
  0
LINE
 10
-74.842000
 11
-74.941000
 20
42.784000
 21
42.940000
  0
LINE
 10
-74.941000
 11
-75.020000
 20
42.940000
 21
43.108000
  0
LINE
 10
-75.020000
 11
-75.077000
 20
43.108000
 21
43.284000
  0
LINE
 10
-75.077000
 11
-75.112000
 20
43.284000
 21
43.465000
  0
LINE
 10
-75.112000
 11
-75.123000
 20
43.465000
 21
43.650000
  0
LINE
 10
72.177000
 11
72.188000
 20
-43.650000
 21
-43.465000
  0
LINE
 10
72.188000
 11
72.223000
 20
-43.465000
 21
-43.284000
  0
LINE
 10
72.223000
 11
72.280000
 20
-43.284000
 21
-43.108000
  0
LINE
 10
72.280000
 11
72.359000
 20
-43.108000
 21
-42.940000
  0
LINE
 10
72.359000
 11
72.458000
 20
-42.940000
 21
-42.784000
  0
LINE
 10
72.458000
 11
72.576000
 20
-42.784000
 21
-42.642000
  0
LINE
 10
72.576000
 11
72.711000
 20
-42.642000
 21
-42.515000
  0
LINE
 10
72.711000
 11
72.861000
 20
-42.515000
 21
-42.406000
  0
LINE
 10
72.861000
 11
73.023000
 20
-42.406000
 21
-42.317000
  0
LINE
 10
73.023000
 11
73.195000
 20
-42.317000
 21
-42.249000
  0
LINE
 10
73.195000
 11
73.374000
 20
-42.249000
 21
-42.203000
  0
LINE
 10
73.374000
 11
73.557000
 20
-42.203000
 21
-42.180000
  0
LINE
 10
73.557000
 11
73.743000
 20
-42.180000
 21
-42.180000
  0
LINE
 10
73.743000
 11
73.926000
 20
-42.180000
 21
-42.203000
  0
LINE
 10
73.926000
 11
74.105000
 20
-42.203000
 21
-42.249000
  0
LINE
 10
74.105000
 11
74.277000
 20
-42.249000
 21
-42.317000
  0
LINE
 10
74.277000
 11
74.439000
 20
-42.317000
 21
-42.406000
  0
LINE
 10
74.439000
 11
74.589000
 20
-42.406000
 21
-42.515000
  0
LINE
 10
74.589000
 11
74.724000
 20
-42.515000
 21
-42.642000
  0
LINE
 10
74.724000
 11
74.842000
 20
-42.642000
 21
-42.784000
  0
LINE
 10
74.842000
 11
74.941000
 20
-42.784000
 21
-42.940000
  0
LINE
 10
74.941000
 11
75.020000
 20
-42.940000
 21
-43.108000
  0
LINE
 10
75.020000
 11
75.077000
 20
-43.108000
 21
-43.284000
  0
LINE
 10
75.077000
 11
75.112000
 20
-43.284000
 21
-43.465000
  0
LINE
 10
75.112000
 11
75.123000
 20
-43.465000
 21
-43.650000
  0
LINE
 10
75.123000
 11
75.112000
 20
-43.650000
 21
-43.835000
  0
LINE
 10
75.112000
 11
75.077000
 20
-43.835000
 21
-44.016000
  0
LINE
 10
75.077000
 11
75.020000
 20
-44.016000
 21
-44.192000
  0
LINE
 10
75.020000
 11
74.941000
 20
-44.192000
 21
-44.360000
  0
LINE
 10
74.941000
 11
74.842000
 20
-44.360000
 21
-44.516000
  0
LINE
 10
74.842000
 11
74.724000
 20
-44.516000
 21
-44.658000
  0
LINE
 10
74.724000
 11
74.589000
 20
-44.658000
 21
-44.785000
  0
LINE
 10
74.589000
 11
74.439000
 20
-44.785000
 21
-44.894000
  0
LINE
 10
74.439000
 11
74.277000
 20
-44.894000
 21
-44.983000
  0
LINE
 10
74.277000
 11
74.105000
 20
-44.983000
 21
-45.051000
  0
LINE
 10
74.105000
 11
73.926000
 20
-45.051000
 21
-45.097000
  0
LINE
 10
73.926000
 11
73.743000
 20
-45.097000
 21
-45.120000
  0
LINE
 10
73.743000
 11
73.557000
 20
-45.120000
 21
-45.120000
  0
LINE
 10
73.557000
 11
73.374000
 20
-45.120000
 21
-45.097000
  0
LINE
 10
73.374000
 11
73.195000
 20
-45.097000
 21
-45.051000
  0
LINE
 10
73.195000
 11
73.023000
 20
-45.051000
 21
-44.983000
  0
LINE
 10
73.023000
 11
72.861000
 20
-44.983000
 21
-44.894000
  0
LINE
 10
72.861000
 11
72.711000
 20
-44.894000
 21
-44.785000
  0
LINE
 10
72.711000
 11
72.576000
 20
-44.785000
 21
-44.658000
  0
LINE
 10
72.576000
 11
72.458000
 20
-44.658000
 21
-44.516000
  0
LINE
 10
72.458000
 11
72.359000
 20
-44.516000
 21
-44.360000
  0
LINE
 10
72.359000
 11
72.280000
 20
-44.360000
 21
-44.192000
  0
LINE
 10
72.280000
 11
72.223000
 20
-44.192000
 21
-44.016000
  0
LINE
 10
72.223000
 11
72.188000
 20
-44.016000
 21
-43.835000
  0
LINE
 10
72.188000
 11
72.177000
 20
-43.835000
 21
-43.650000
  0
LINE
 10
72.177000
 11
72.188000
 20
43.650000
 21
43.835000
  0
LINE
 10
72.188000
 11
72.223000
 20
43.835000
 21
44.016000
  0
LINE
 10
72.223000
 11
72.280000
 20
44.016000
 21
44.192000
  0
LINE
 10
72.280000
 11
72.359000
 20
44.192000
 21
44.360000
  0
LINE
 10
72.359000
 11
72.458000
 20
44.360000
 21
44.516000
  0
LINE
 10
72.458000
 11
72.576000
 20
44.516000
 21
44.658000
  0
LINE
 10
72.576000
 11
72.711000
 20
44.658000
 21
44.785000
  0
LINE
 10
72.711000
 11
72.861000
 20
44.785000
 21
44.894000
  0
LINE
 10
72.861000
 11
73.023000
 20
44.894000
 21
44.983000
  0
LINE
 10
73.023000
 11
73.195000
 20
44.983000
 21
45.051000
  0
LINE
 10
73.195000
 11
73.374000
 20
45.051000
 21
45.097000
  0
LINE
 10
73.374000
 11
73.557000
 20
45.097000
 21
45.120000
  0
LINE
 10
73.557000
 11
73.743000
 20
45.120000
 21
45.120000
  0
LINE
 10
73.743000
 11
73.926000
 20
45.120000
 21
45.097000
  0
LINE
 10
73.926000
 11
74.105000
 20
45.097000
 21
45.051000
  0
LINE
 10
74.105000
 11
74.277000
 20
45.051000
 21
44.983000
  0
LINE
 10
74.277000
 11
74.439000
 20
44.983000
 21
44.894000
  0
LINE
 10
74.439000
 11
74.589000
 20
44.894000
 21
44.785000
  0
LINE
 10
74.589000
 11
74.724000
 20
44.785000
 21
44.658000
  0
LINE
 10
74.724000
 11
74.842000
 20
44.658000
 21
44.516000
  0
LINE
 10
74.842000
 11
74.941000
 20
44.516000
 21
44.360000
  0
LINE
 10
74.941000
 11
75.020000
 20
44.360000
 21
44.192000
  0
LINE
 10
75.020000
 11
75.077000
 20
44.192000
 21
44.016000
  0
LINE
 10
75.077000
 11
75.112000
 20
44.016000
 21
43.835000
  0
LINE
 10
75.112000
 11
75.123000
 20
43.835000
 21
43.650000
  0
LINE
 10
75.123000
 11
75.112000
 20
43.650000
 21
43.465000
  0
LINE
 10
75.112000
 11
75.077000
 20
43.465000
 21
43.284000
  0
LINE
 10
75.077000
 11
75.020000
 20
43.284000
 21
43.108000
  0
LINE
 10
75.020000
 11
74.941000
 20
43.108000
 21
42.940000
  0
LINE
 10
74.941000
 11
74.842000
 20
42.940000
 21
42.784000
  0
LINE
 10
74.842000
 11
74.724000
 20
42.784000
 21
42.642000
  0
LINE
 10
74.724000
 11
74.589000
 20
42.642000
 21
42.515000
  0
LINE
 10
74.589000
 11
74.439000
 20
42.515000
 21
42.406000
  0
LINE
 10
74.439000
 11
74.277000
 20
42.406000
 21
42.317000
  0
LINE
 10
74.277000
 11
74.105000
 20
42.317000
 21
42.249000
  0
LINE
 10
74.105000
 11
73.926000
 20
42.249000
 21
42.203000
  0
LINE
 10
73.926000
 11
73.743000
 20
42.203000
 21
42.180000
  0
LINE
 10
73.743000
 11
73.557000
 20
42.180000
 21
42.180000
  0
LINE
 10
73.557000
 11
73.374000
 20
42.180000
 21
42.203000
  0
LINE
 10
73.374000
 11
73.195000
 20
42.203000
 21
42.249000
  0
LINE
 10
73.195000
 11
73.023000
 20
42.249000
 21
42.317000
  0
LINE
 10
73.023000
 11
72.861000
 20
42.317000
 21
42.406000
  0
LINE
 10
72.861000
 11
72.711000
 20
42.406000
 21
42.515000
  0
LINE
 10
72.711000
 11
72.576000
 20
42.515000
 21
42.642000
  0
LINE
 10
72.576000
 11
72.458000
 20
42.642000
 21
42.784000
  0
LINE
 10
72.458000
 11
72.359000
 20
42.784000
 21
42.940000
  0
LINE
 10
72.359000
 11
72.280000
 20
42.940000
 21
43.108000
  0
LINE
 10
72.280000
 11
72.223000
 20
43.108000
 21
43.284000
  0
LINE
 10
72.223000
 11
72.188000
 20
43.284000
 21
43.465000
  0
LINE
 10
72.188000
 11
72.177000
 20
43.465000
 21
43.650000
  0
ENDSEC
  0
EOF
