  0
SECTION
  2
ENTITIES
  0
LINE
 10
-63.265000
 11
-63.265000
 20
-30.932000
 21
30.932000
  0
LINE
 10
-63.265000
 11
-63.215000
 20
30.932000
 21
31.728000
  0
LINE
 10
-63.215000
 11
-63.066000
 20
31.728000
 21
32.512000
  0
LINE
 10
-63.066000
 11
-62.819000
 20
32.512000
 21
33.270000
  0
LINE
 10
-62.819000
 11
-62.480000
 20
33.270000
 21
33.992000
  0
LINE
 10
-62.480000
 11
-62.053000
 20
33.992000
 21
34.665000
  0
LINE
 10
-62.053000
 11
-61.544000
 20
34.665000
 21
35.279000
  0
LINE
 10
-61.544000
 11
-60.963000
 20
35.279000
 21
35.825000
  0
LINE
 10
-60.963000
 11
-60.318000
 20
35.825000
 21
36.294000
  0
LINE
 10
-60.318000
 11
-59.619000
 20
36.294000
 21
36.678000
  0
LINE
 10
-59.619000
 11
-58.878000
 20
36.678000
 21
36.972000
  0
LINE
 10
-58.878000
 11
-58.105000
 20
36.972000
 21
37.170000
  0
LINE
 10
-58.105000
 11
-57.314000
 20
37.170000
 21
37.270000
  0
LINE
 10
-57.314000
 11
-56.915000
 20
37.270000
 21
37.270000
  0
LINE
 10
-56.915000
 11
-56.915000
 20
37.270000
 21
37.282000
  0
LINE
 10
-56.915000
 11
56.915000
 20
37.282000
 21
37.282000
  0
LINE
 10
56.915000
 11
56.915000
 20
37.282000
 21
37.270000
  0
LINE
 10
56.915000
 11
57.314000
 20
37.270000
 21
37.270000
  0
LINE
 10
57.314000
 11
58.105000
 20
37.270000
 21
37.170000
  0
LINE
 10
58.105000
 11
58.878000
 20
37.170000
 21
36.972000
  0
LINE
 10
58.878000
 11
59.619000
 20
36.972000
 21
36.678000
  0
LINE
 10
59.619000
 11
60.318000
 20
36.678000
 21
36.294000
  0
LINE
 10
60.318000
 11
60.963000
 20
36.294000
 21
35.825000
  0
LINE
 10
60.963000
 11
61.544000
 20
35.825000
 21
35.279000
  0
LINE
 10
61.544000
 11
62.053000
 20
35.279000
 21
34.665000
  0
LINE
 10
62.053000
 11
62.480000
 20
34.665000
 21
33.992000
  0
LINE
 10
62.480000
 11
62.819000
 20
33.992000
 21
33.270000
  0
LINE
 10
62.819000
 11
63.066000
 20
33.270000
 21
32.512000
  0
LINE
 10
63.066000
 11
63.215000
 20
32.512000
 21
31.728000
  0
LINE
 10
63.215000
 11
63.265000
 20
31.728000
 21
30.932000
  0
LINE
 10
63.265000
 11
63.265000
 20
30.932000
 21
-30.932000
  0
LINE
 10
63.265000
 11
63.215000
 20
-30.932000
 21
-31.728000
  0
LINE
 10
63.215000
 11
63.066000
 20
-31.728000
 21
-32.512000
  0
LINE
 10
63.066000
 11
62.819000
 20
-32.512000
 21
-33.270000
  0
LINE
 10
62.819000
 11
62.480000
 20
-33.270000
 21
-33.992000
  0
LINE
 10
62.480000
 11
62.053000
 20
-33.992000
 21
-34.665000
  0
LINE
 10
62.053000
 11
61.544000
 20
-34.665000
 21
-35.279000
  0
LINE
 10
61.544000
 11
60.963000
 20
-35.279000
 21
-35.825000
  0
LINE
 10
60.963000
 11
60.318000
 20
-35.825000
 21
-36.294000
  0
LINE
 10
60.318000
 11
59.619000
 20
-36.294000
 21
-36.678000
  0
LINE
 10
59.619000
 11
58.878000
 20
-36.678000
 21
-36.972000
  0
LINE
 10
58.878000
 11
58.105000
 20
-36.972000
 21
-37.170000
  0
LINE
 10
58.105000
 11
57.314000
 20
-37.170000
 21
-37.270000
  0
LINE
 10
57.314000
 11
56.915000
 20
-37.270000
 21
-37.270000
  0
LINE
 10
56.915000
 11
56.915000
 20
-37.270000
 21
-37.282000
  0
LINE
 10
56.915000
 11
-56.915000
 20
-37.282000
 21
-37.282000
  0
LINE
 10
-56.915000
 11
-56.915000
 20
-37.282000
 21
-37.270000
  0
LINE
 10
-56.915000
 11
-57.314000
 20
-37.270000
 21
-37.270000
  0
LINE
 10
-57.314000
 11
-58.105000
 20
-37.270000
 21
-37.170000
  0
LINE
 10
-58.105000
 11
-58.878000
 20
-37.170000
 21
-36.972000
  0
LINE
 10
-58.878000
 11
-59.619000
 20
-36.972000
 21
-36.678000
  0
LINE
 10
-59.619000
 11
-60.318000
 20
-36.678000
 21
-36.294000
  0
LINE
 10
-60.318000
 11
-60.963000
 20
-36.294000
 21
-35.825000
  0
LINE
 10
-60.963000
 11
-61.544000
 20
-35.825000
 21
-35.279000
  0
LINE
 10
-61.544000
 11
-62.053000
 20
-35.279000
 21
-34.665000
  0
LINE
 10
-62.053000
 11
-62.480000
 20
-34.665000
 21
-33.992000
  0
LINE
 10
-62.480000
 11
-62.819000
 20
-33.992000
 21
-33.270000
  0
LINE
 10
-62.819000
 11
-63.066000
 20
-33.270000
 21
-32.512000
  0
LINE
 10
-63.066000
 11
-63.215000
 20
-32.512000
 21
-31.728000
  0
LINE
 10
-63.215000
 11
-63.265000
 20
-31.728000
 21
-30.932000
  0
LINE
 10
-60.725000
 11
-60.725000
 20
-23.975000
 21
-11.275000
  0
LINE
 10
-60.725000
 11
-57.725000
 20
-11.275000
 21
-11.275000
  0
LINE
 10
-57.725000
 11
-57.725000
 20
-11.275000
 21
-23.975000
  0
LINE
 10
-57.725000
 11
-60.725000
 20
-23.975000
 21
-23.975000
  0
LINE
 10
-60.725000
 11
-60.725000
 20
11.275000
 21
23.975000
  0
LINE
 10
-60.725000
 11
-57.725000
 20
23.975000
 21
23.975000
  0
LINE
 10
-57.725000
 11
-57.725000
 20
23.975000
 21
11.275000
  0
LINE
 10
-57.725000
 11
-60.725000
 20
11.275000
 21
11.275000
  0
LINE
 10
-54.754000
 11
-54.742000
 20
-27.805000
 21
-27.621000
  0
LINE
 10
-54.742000
 11
-54.707000
 20
-27.621000
 21
-27.439000
  0
LINE
 10
-54.707000
 11
-54.650000
 20
-27.439000
 21
-27.263000
  0
LINE
 10
-54.650000
 11
-54.571000
 20
-27.263000
 21
-27.096000
  0
LINE
 10
-54.571000
 11
-54.472000
 20
-27.096000
 21
-26.939000
  0
LINE
 10
-54.472000
 11
-54.354000
 20
-26.939000
 21
-26.797000
  0
LINE
 10
-54.354000
 11
-54.219000
 20
-26.797000
 21
-26.670000
  0
LINE
 10
-54.219000
 11
-54.070000
 20
-26.670000
 21
-26.562000
  0
LINE
 10
-54.070000
 11
-53.908000
 20
-26.562000
 21
-26.472000
  0
LINE
 10
-53.908000
 11
-53.736000
 20
-26.472000
 21
-26.404000
  0
LINE
 10
-53.736000
 11
-53.556000
 20
-26.404000
 21
-26.358000
  0
LINE
 10
-53.556000
 11
-53.373000
 20
-26.358000
 21
-26.335000
  0
LINE
 10
-53.373000
 11
-53.188000
 20
-26.335000
 21
-26.335000
  0
LINE
 10
-53.188000
 11
-53.004000
 20
-26.335000
 21
-26.358000
  0
LINE
 10
-53.004000
 11
-52.825000
 20
-26.358000
 21
-26.404000
  0
LINE
 10
-52.825000
 11
-52.653000
 20
-26.404000
 21
-26.472000
  0
LINE
 10
-52.653000
 11
-52.491000
 20
-26.472000
 21
-26.562000
  0
LINE
 10
-52.491000
 11
-52.341000
 20
-26.562000
 21
-26.670000
  0
LINE
 10
-52.341000
 11
-52.206000
 20
-26.670000
 21
-26.797000
  0
LINE
 10
-52.206000
 11
-52.088000
 20
-26.797000
 21
-26.939000
  0
LINE
 10
-52.088000
 11
-51.989000
 20
-26.939000
 21
-27.096000
  0
LINE
 10
-51.989000
 11
-51.911000
 20
-27.096000
 21
-27.263000
  0
LINE
 10
-51.911000
 11
-51.853000
 20
-27.263000
 21
-27.439000
  0
LINE
 10
-51.853000
 11
-51.819000
 20
-27.439000
 21
-27.621000
  0
LINE
 10
-51.819000
 11
-51.807000
 20
-27.621000
 21
-27.805000
  0
LINE
 10
-51.807000
 11
-51.819000
 20
-27.805000
 21
-27.990000
  0
LINE
 10
-51.819000
 11
-51.853000
 20
-27.990000
 21
-28.172000
  0
LINE
 10
-51.853000
 11
-51.911000
 20
-28.172000
 21
-28.348000
  0
LINE
 10
-51.911000
 11
-51.989000
 20
-28.348000
 21
-28.515000
  0
LINE
 10
-51.989000
 11
-52.088000
 20
-28.515000
 21
-28.671000
  0
LINE
 10
-52.088000
 11
-52.206000
 20
-28.671000
 21
-28.814000
  0
LINE
 10
-52.206000
 11
-52.341000
 20
-28.814000
 21
-28.941000
  0
LINE
 10
-52.341000
 11
-52.491000
 20
-28.941000
 21
-29.049000
  0
LINE
 10
-52.491000
 11
-52.653000
 20
-29.049000
 21
-29.138000
  0
LINE
 10
-52.653000
 11
-52.825000
 20
-29.138000
 21
-29.206000
  0
LINE
 10
-52.825000
 11
-53.004000
 20
-29.206000
 21
-29.252000
  0
LINE
 10
-53.004000
 11
-53.188000
 20
-29.252000
 21
-29.276000
  0
LINE
 10
-53.188000
 11
-53.373000
 20
-29.276000
 21
-29.276000
  0
LINE
 10
-53.373000
 11
-53.556000
 20
-29.276000
 21
-29.252000
  0
LINE
 10
-53.556000
 11
-53.736000
 20
-29.252000
 21
-29.206000
  0
LINE
 10
-53.736000
 11
-53.908000
 20
-29.206000
 21
-29.138000
  0
LINE
 10
-53.908000
 11
-54.070000
 20
-29.138000
 21
-29.049000
  0
LINE
 10
-54.070000
 11
-54.219000
 20
-29.049000
 21
-28.941000
  0
LINE
 10
-54.219000
 11
-54.354000
 20
-28.941000
 21
-28.814000
  0
LINE
 10
-54.354000
 11
-54.472000
 20
-28.814000
 21
-28.671000
  0
LINE
 10
-54.472000
 11
-54.571000
 20
-28.671000
 21
-28.515000
  0
LINE
 10
-54.571000
 11
-54.650000
 20
-28.515000
 21
-28.348000
  0
LINE
 10
-54.650000
 11
-54.707000
 20
-28.348000
 21
-28.172000
  0
LINE
 10
-54.707000
 11
-54.742000
 20
-28.172000
 21
-27.990000
  0
LINE
 10
-54.742000
 11
-54.754000
 20
-27.990000
 21
-27.805000
  0
LINE
 10
-54.754000
 11
-54.742000
 20
27.805000
 21
27.990000
  0
LINE
 10
-54.742000
 11
-54.707000
 20
27.990000
 21
28.172000
  0
LINE
 10
-54.707000
 11
-54.650000
 20
28.172000
 21
28.348000
  0
LINE
 10
-54.650000
 11
-54.571000
 20
28.348000
 21
28.515000
  0
LINE
 10
-54.571000
 11
-54.472000
 20
28.515000
 21
28.671000
  0
LINE
 10
-54.472000
 11
-54.354000
 20
28.671000
 21
28.814000
  0
LINE
 10
-54.354000
 11
-54.219000
 20
28.814000
 21
28.941000
  0
LINE
 10
-54.219000
 11
-54.070000
 20
28.941000
 21
29.049000
  0
LINE
 10
-54.070000
 11
-53.908000
 20
29.049000
 21
29.138000
  0
LINE
 10
-53.908000
 11
-53.736000
 20
29.138000
 21
29.206000
  0
LINE
 10
-53.736000
 11
-53.556000
 20
29.206000
 21
29.252000
  0
LINE
 10
-53.556000
 11
-53.373000
 20
29.252000
 21
29.276000
  0
LINE
 10
-53.373000
 11
-53.188000
 20
29.276000
 21
29.276000
  0
LINE
 10
-53.188000
 11
-53.004000
 20
29.276000
 21
29.252000
  0
LINE
 10
-53.004000
 11
-52.825000
 20
29.252000
 21
29.206000
  0
LINE
 10
-52.825000
 11
-52.653000
 20
29.206000
 21
29.138000
  0
LINE
 10
-52.653000
 11
-52.491000
 20
29.138000
 21
29.049000
  0
LINE
 10
-52.491000
 11
-52.341000
 20
29.049000
 21
28.941000
  0
LINE
 10
-52.341000
 11
-52.206000
 20
28.941000
 21
28.814000
  0
LINE
 10
-52.206000
 11
-52.088000
 20
28.814000
 21
28.671000
  0
LINE
 10
-52.088000
 11
-51.989000
 20
28.671000
 21
28.515000
  0
LINE
 10
-51.989000
 11
-51.911000
 20
28.515000
 21
28.348000
  0
LINE
 10
-51.911000
 11
-51.853000
 20
28.348000
 21
28.172000
  0
LINE
 10
-51.853000
 11
-51.819000
 20
28.172000
 21
27.990000
  0
LINE
 10
-51.819000
 11
-51.807000
 20
27.990000
 21
27.805000
  0
LINE
 10
-51.807000
 11
-51.819000
 20
27.805000
 21
27.621000
  0
LINE
 10
-51.819000
 11
-51.853000
 20
27.621000
 21
27.439000
  0
LINE
 10
-51.853000
 11
-51.911000
 20
27.439000
 21
27.263000
  0
LINE
 10
-51.911000
 11
-51.989000
 20
27.263000
 21
27.096000
  0
LINE
 10
-51.989000
 11
-52.088000
 20
27.096000
 21
26.939000
  0
LINE
 10
-52.088000
 11
-52.206000
 20
26.939000
 21
26.797000
  0
LINE
 10
-52.206000
 11
-52.341000
 20
26.797000
 21
26.670000
  0
LINE
 10
-52.341000
 11
-52.491000
 20
26.670000
 21
26.562000
  0
LINE
 10
-52.491000
 11
-52.653000
 20
26.562000
 21
26.472000
  0
LINE
 10
-52.653000
 11
-52.825000
 20
26.472000
 21
26.404000
  0
LINE
 10
-52.825000
 11
-53.004000
 20
26.404000
 21
26.358000
  0
LINE
 10
-53.004000
 11
-53.188000
 20
26.358000
 21
26.335000
  0
LINE
 10
-53.188000
 11
-53.373000
 20
26.335000
 21
26.335000
  0
LINE
 10
-53.373000
 11
-53.556000
 20
26.335000
 21
26.358000
  0
LINE
 10
-53.556000
 11
-53.736000
 20
26.358000
 21
26.404000
  0
LINE
 10
-53.736000
 11
-53.908000
 20
26.404000
 21
26.472000
  0
LINE
 10
-53.908000
 11
-54.070000
 20
26.472000
 21
26.562000
  0
LINE
 10
-54.070000
 11
-54.219000
 20
26.562000
 21
26.670000
  0
LINE
 10
-54.219000
 11
-54.354000
 20
26.670000
 21
26.797000
  0
LINE
 10
-54.354000
 11
-54.472000
 20
26.797000
 21
26.939000
  0
LINE
 10
-54.472000
 11
-54.571000
 20
26.939000
 21
27.096000
  0
LINE
 10
-54.571000
 11
-54.650000
 20
27.096000
 21
27.263000
  0
LINE
 10
-54.650000
 11
-54.707000
 20
27.263000
 21
27.439000
  0
LINE
 10
-54.707000
 11
-54.742000
 20
27.439000
 21
27.621000
  0
LINE
 10
-54.742000
 11
-54.754000
 20
27.621000
 21
27.805000
  0
LINE
 10
-40.985000
 11
-40.985000
 20
-35.250000
 21
-32.250000
  0
LINE
 10
-40.985000
 11
-28.285000
 20
-32.250000
 21
-32.250000
  0
LINE
 10
-28.285000
 11
-28.285000
 20
-32.250000
 21
-35.250000
  0
LINE
 10
-28.285000
 11
-40.985000
 20
-35.250000
 21
-35.250000
  0
LINE
 10
-40.985000
 11
-40.985000
 20
32.250000
 21
35.250000
  0
LINE
 10
-40.985000
 11
-28.285000
 20
35.250000
 21
35.250000
  0
LINE
 10
-28.285000
 11
-28.285000
 20
35.250000
 21
32.250000
  0
LINE
 10
-28.285000
 11
-40.985000
 20
32.250000
 21
32.250000
  0
LINE
 10
-6.350000
 11
-6.350000
 20
-35.250000
 21
-32.250000
  0
LINE
 10
-6.350000
 11
6.350000
 20
-32.250000
 21
-32.250000
  0
LINE
 10
6.350000
 11
6.350000
 20
-32.250000
 21
-35.250000
  0
LINE
 10
6.350000
 11
-6.350000
 20
-35.250000
 21
-35.250000
  0
LINE
 10
-6.350000
 11
-6.350000
 20
32.250000
 21
35.250000
  0
LINE
 10
-6.350000
 11
6.350000
 20
35.250000
 21
35.250000
  0
LINE
 10
6.350000
 11
6.350000
 20
35.250000
 21
32.250000
  0
LINE
 10
6.350000
 11
-6.350000
 20
32.250000
 21
32.250000
  0
LINE
 10
28.285000
 11
28.285000
 20
-35.250000
 21
-32.250000
  0
LINE
 10
28.285000
 11
40.985000
 20
-32.250000
 21
-32.250000
  0
LINE
 10
40.985000
 11
40.985000
 20
-32.250000
 21
-35.250000
  0
LINE
 10
40.985000
 11
28.285000
 20
-35.250000
 21
-35.250000
  0
LINE
 10
28.285000
 11
28.285000
 20
32.250000
 21
35.250000
  0
LINE
 10
28.285000
 11
40.985000
 20
35.250000
 21
35.250000
  0
LINE
 10
40.985000
 11
40.985000
 20
35.250000
 21
32.250000
  0
LINE
 10
40.985000
 11
28.285000
 20
32.250000
 21
32.250000
  0
LINE
 10
51.807000
 11
51.819000
 20
-27.805000
 21
-27.621000
  0
LINE
 10
51.819000
 11
51.853000
 20
-27.621000
 21
-27.439000
  0
LINE
 10
51.853000
 11
51.911000
 20
-27.439000
 21
-27.263000
  0
LINE
 10
51.911000
 11
51.989000
 20
-27.263000
 21
-27.096000
  0
LINE
 10
51.989000
 11
52.088000
 20
-27.096000
 21
-26.939000
  0
LINE
 10
52.088000
 11
52.206000
 20
-26.939000
 21
-26.797000
  0
LINE
 10
52.206000
 11
52.341000
 20
-26.797000
 21
-26.670000
  0
LINE
 10
52.341000
 11
52.491000
 20
-26.670000
 21
-26.562000
  0
LINE
 10
52.491000
 11
52.653000
 20
-26.562000
 21
-26.472000
  0
LINE
 10
52.653000
 11
52.825000
 20
-26.472000
 21
-26.404000
  0
LINE
 10
52.825000
 11
53.004000
 20
-26.404000
 21
-26.358000
  0
LINE
 10
53.004000
 11
53.188000
 20
-26.358000
 21
-26.335000
  0
LINE
 10
53.188000
 11
53.373000
 20
-26.335000
 21
-26.335000
  0
LINE
 10
53.373000
 11
53.556000
 20
-26.335000
 21
-26.358000
  0
LINE
 10
53.556000
 11
53.736000
 20
-26.358000
 21
-26.404000
  0
LINE
 10
53.736000
 11
53.908000
 20
-26.404000
 21
-26.472000
  0
LINE
 10
53.908000
 11
54.070000
 20
-26.472000
 21
-26.562000
  0
LINE
 10
54.070000
 11
54.219000
 20
-26.562000
 21
-26.670000
  0
LINE
 10
54.219000
 11
54.354000
 20
-26.670000
 21
-26.797000
  0
LINE
 10
54.354000
 11
54.472000
 20
-26.797000
 21
-26.939000
  0
LINE
 10
54.472000
 11
54.571000
 20
-26.939000
 21
-27.096000
  0
LINE
 10
54.571000
 11
54.650000
 20
-27.096000
 21
-27.263000
  0
LINE
 10
54.650000
 11
54.707000
 20
-27.263000
 21
-27.439000
  0
LINE
 10
54.707000
 11
54.742000
 20
-27.439000
 21
-27.621000
  0
LINE
 10
54.742000
 11
54.754000
 20
-27.621000
 21
-27.805000
  0
LINE
 10
54.754000
 11
54.742000
 20
-27.805000
 21
-27.990000
  0
LINE
 10
54.742000
 11
54.707000
 20
-27.990000
 21
-28.172000
  0
LINE
 10
54.707000
 11
54.650000
 20
-28.172000
 21
-28.348000
  0
LINE
 10
54.650000
 11
54.571000
 20
-28.348000
 21
-28.515000
  0
LINE
 10
54.571000
 11
54.472000
 20
-28.515000
 21
-28.671000
  0
LINE
 10
54.472000
 11
54.354000
 20
-28.671000
 21
-28.814000
  0
LINE
 10
54.354000
 11
54.219000
 20
-28.814000
 21
-28.941000
  0
LINE
 10
54.219000
 11
54.070000
 20
-28.941000
 21
-29.049000
  0
LINE
 10
54.070000
 11
53.908000
 20
-29.049000
 21
-29.138000
  0
LINE
 10
53.908000
 11
53.736000
 20
-29.138000
 21
-29.206000
  0
LINE
 10
53.736000
 11
53.556000
 20
-29.206000
 21
-29.252000
  0
LINE
 10
53.556000
 11
53.373000
 20
-29.252000
 21
-29.276000
  0
LINE
 10
53.373000
 11
53.188000
 20
-29.276000
 21
-29.276000
  0
LINE
 10
53.188000
 11
53.004000
 20
-29.276000
 21
-29.252000
  0
LINE
 10
53.004000
 11
52.825000
 20
-29.252000
 21
-29.206000
  0
LINE
 10
52.825000
 11
52.653000
 20
-29.206000
 21
-29.138000
  0
LINE
 10
52.653000
 11
52.491000
 20
-29.138000
 21
-29.049000
  0
LINE
 10
52.491000
 11
52.341000
 20
-29.049000
 21
-28.941000
  0
LINE
 10
52.341000
 11
52.206000
 20
-28.941000
 21
-28.814000
  0
LINE
 10
52.206000
 11
52.088000
 20
-28.814000
 21
-28.671000
  0
LINE
 10
52.088000
 11
51.989000
 20
-28.671000
 21
-28.515000
  0
LINE
 10
51.989000
 11
51.911000
 20
-28.515000
 21
-28.348000
  0
LINE
 10
51.911000
 11
51.853000
 20
-28.348000
 21
-28.172000
  0
LINE
 10
51.853000
 11
51.819000
 20
-28.172000
 21
-27.990000
  0
LINE
 10
51.819000
 11
51.807000
 20
-27.990000
 21
-27.805000
  0
LINE
 10
51.807000
 11
51.819000
 20
27.805000
 21
27.990000
  0
LINE
 10
51.819000
 11
51.853000
 20
27.990000
 21
28.172000
  0
LINE
 10
51.853000
 11
51.911000
 20
28.172000
 21
28.348000
  0
LINE
 10
51.911000
 11
51.989000
 20
28.348000
 21
28.515000
  0
LINE
 10
51.989000
 11
52.088000
 20
28.515000
 21
28.671000
  0
LINE
 10
52.088000
 11
52.206000
 20
28.671000
 21
28.814000
  0
LINE
 10
52.206000
 11
52.341000
 20
28.814000
 21
28.941000
  0
LINE
 10
52.341000
 11
52.491000
 20
28.941000
 21
29.049000
  0
LINE
 10
52.491000
 11
52.653000
 20
29.049000
 21
29.138000
  0
LINE
 10
52.653000
 11
52.825000
 20
29.138000
 21
29.206000
  0
LINE
 10
52.825000
 11
53.004000
 20
29.206000
 21
29.252000
  0
LINE
 10
53.004000
 11
53.188000
 20
29.252000
 21
29.276000
  0
LINE
 10
53.188000
 11
53.373000
 20
29.276000
 21
29.276000
  0
LINE
 10
53.373000
 11
53.556000
 20
29.276000
 21
29.252000
  0
LINE
 10
53.556000
 11
53.736000
 20
29.252000
 21
29.206000
  0
LINE
 10
53.736000
 11
53.908000
 20
29.206000
 21
29.138000
  0
LINE
 10
53.908000
 11
54.070000
 20
29.138000
 21
29.049000
  0
LINE
 10
54.070000
 11
54.219000
 20
29.049000
 21
28.941000
  0
LINE
 10
54.219000
 11
54.354000
 20
28.941000
 21
28.814000
  0
LINE
 10
54.354000
 11
54.472000
 20
28.814000
 21
28.671000
  0
LINE
 10
54.472000
 11
54.571000
 20
28.671000
 21
28.515000
  0
LINE
 10
54.571000
 11
54.650000
 20
28.515000
 21
28.348000
  0
LINE
 10
54.650000
 11
54.707000
 20
28.348000
 21
28.172000
  0
LINE
 10
54.707000
 11
54.742000
 20
28.172000
 21
27.990000
  0
LINE
 10
54.742000
 11
54.754000
 20
27.990000
 21
27.805000
  0
LINE
 10
54.754000
 11
54.742000
 20
27.805000
 21
27.621000
  0
LINE
 10
54.742000
 11
54.707000
 20
27.621000
 21
27.439000
  0
LINE
 10
54.707000
 11
54.650000
 20
27.439000
 21
27.263000
  0
LINE
 10
54.650000
 11
54.571000
 20
27.263000
 21
27.096000
  0
LINE
 10
54.571000
 11
54.472000
 20
27.096000
 21
26.939000
  0
LINE
 10
54.472000
 11
54.354000
 20
26.939000
 21
26.797000
  0
LINE
 10
54.354000
 11
54.219000
 20
26.797000
 21
26.670000
  0
LINE
 10
54.219000
 11
54.070000
 20
26.670000
 21
26.562000
  0
LINE
 10
54.070000
 11
53.908000
 20
26.562000
 21
26.472000
  0
LINE
 10
53.908000
 11
53.736000
 20
26.472000
 21
26.404000
  0
LINE
 10
53.736000
 11
53.556000
 20
26.404000
 21
26.358000
  0
LINE
 10
53.556000
 11
53.373000
 20
26.358000
 21
26.335000
  0
LINE
 10
53.373000
 11
53.188000
 20
26.335000
 21
26.335000
  0
LINE
 10
53.188000
 11
53.004000
 20
26.335000
 21
26.358000
  0
LINE
 10
53.004000
 11
52.825000
 20
26.358000
 21
26.404000
  0
LINE
 10
52.825000
 11
52.653000
 20
26.404000
 21
26.472000
  0
LINE
 10
52.653000
 11
52.491000
 20
26.472000
 21
26.562000
  0
LINE
 10
52.491000
 11
52.341000
 20
26.562000
 21
26.670000
  0
LINE
 10
52.341000
 11
52.206000
 20
26.670000
 21
26.797000
  0
LINE
 10
52.206000
 11
52.088000
 20
26.797000
 21
26.939000
  0
LINE
 10
52.088000
 11
51.989000
 20
26.939000
 21
27.096000
  0
LINE
 10
51.989000
 11
51.911000
 20
27.096000
 21
27.263000
  0
LINE
 10
51.911000
 11
51.853000
 20
27.263000
 21
27.439000
  0
LINE
 10
51.853000
 11
51.819000
 20
27.439000
 21
27.621000
  0
LINE
 10
51.819000
 11
51.807000
 20
27.621000
 21
27.805000
  0
LINE
 10
57.725000
 11
57.725000
 20
-23.975000
 21
-11.275000
  0
LINE
 10
57.725000
 11
60.725000
 20
-11.275000
 21
-11.275000
  0
LINE
 10
60.725000
 11
60.725000
 20
-11.275000
 21
-23.975000
  0
LINE
 10
60.725000
 11
57.725000
 20
-23.975000
 21
-23.975000
  0
LINE
 10
57.725000
 11
57.725000
 20
11.275000
 21
23.975000
  0
LINE
 10
57.725000
 11
60.725000
 20
23.975000
 21
23.975000
  0
LINE
 10
60.725000
 11
60.725000
 20
23.975000
 21
11.275000
  0
LINE
 10
60.725000
 11
57.725000
 20
11.275000
 21
11.275000
  0
ENDSEC
  0
EOF
