<?xml version="1.0" encoding="UTF-8" standalone="no"?>
<svg
   xmlns:dc="http://purl.org/dc/elements/1.1/"
   xmlns:cc="http://creativecommons.org/ns#"
   xmlns:rdf="http://www.w3.org/1999/02/22-rdf-syntax-ns#"
   xmlns:svg="http://www.w3.org/2000/svg"
   xmlns="http://www.w3.org/2000/svg"
   xmlns:sodipodi="http://sodipodi.sourceforge.net/DTD/sodipodi-0.dtd"
   xmlns:inkscape="http://www.inkscape.org/namespaces/inkscape"
   id="svg10421"
   version="1.1"
   inkscape:version="0.47 r22583"
   width="100%"
   height="100%"
   sodipodi:docname="top_middle.dxf">
  <metadata
     id="metadata11045">
    <rdf:RDF>
      <cc:Work
         rdf:about="">
        <dc:format>image/svg+xml</dc:format>
        <dc:type
           rdf:resource="http://purl.org/dc/dcmitype/StillImage" />
        <dc:title></dc:title>
      </cc:Work>
    </rdf:RDF>
  </metadata>
  <sodipodi:namedview
     pagecolor="#ffffff"
     bordercolor="#666666"
     borderopacity="1"
     objecttolerance="10"
     gridtolerance="10"
     guidetolerance="10"
     inkscape:pageopacity="0"
     inkscape:pageshadow="2"
     inkscape:window-width="1920"
     inkscape:window-height="1005"
     id="namedview11043"
     showgrid="false"
     inkscape:zoom="1.2685914"
     inkscape:cx="372.04724"
     inkscape:cy="526.18109"
     inkscape:window-x="0"
     inkscape:window-y="24"
     inkscape:window-maximized="1"
     inkscape:current-layer="g10433" />
  <desc
     id="desc10423">/home/jo/repos/led_transilluminator_enclosure/version_0p2/top_middle.dxf - scale = 1.000000</desc>
  <defs
     id="defs10425">
    <inkscape:perspective
       sodipodi:type="inkscape:persp3d"
       inkscape:vp_x="0 : 0.5 : 1"
       inkscape:vp_y="0 : 1000 : 0"
       inkscape:vp_z="1 : 0.5 : 1"
       inkscape:persp3d-origin="0.5 : 0.33333333 : 1"
       id="perspective11047" />
    <marker
       refY="0.0"
       refX="0.0"
       style="overflow:visible"
       id="DistanceX"
       orient="auto">
      <path
         style="stroke:#000000; stroke-width:0.5"
         d="M 3,-3 L -3,3 M 0,-5 L  0,5"
         id="path10428" />
    </marker>
    <symbol
       id="*Model_Space" />
    <symbol
       id="*Paper_Space" />
    <symbol
       id="*Paper_Space0" />
  </defs>
  <g
     inkscape:label="0"
     inkscape:groupmode="layer"
     id="g10433">
    <g
       id="g11049"
       transform="translate(379.02875,-486.04864)">
      <path
         id="path10435"
         d="m -224.16732,1161.9638 0,-219.20317"
         style="fill:none;stroke:#000000" />
      <path
         id="path10437"
         d="m -224.16732,942.76063 0.17716,-2.82047"
         style="fill:none;stroke:#000000" />
      <path
         id="path10439"
         d="m -223.99016,939.94016 0.52796,-2.77796"
         style="fill:none;stroke:#000000" />
      <path
         id="path10441"
         d="m -223.4622,937.1622 0.87519,-2.68582"
         style="fill:none;stroke:#000000" />
      <path
         id="path10443"
         d="m -222.58701,934.47638 1.20118,-2.55827"
         style="fill:none;stroke:#000000" />
      <path
         id="path10445"
         d="m -221.38583,931.91811 1.513,-2.38465"
         style="fill:none;stroke:#000000" />
      <path
         id="path10447"
         d="m -219.87283,929.53346 1.80354,-2.17559"
         style="fill:none;stroke:#000000" />
      <path
         id="path10449"
         d="m -218.06929,927.35787 2.05866,-1.93464"
         style="fill:none;stroke:#000000" />
      <path
         id="path10451"
         d="m -216.01063,925.42323 2.28543,-1.66181"
         style="fill:none;stroke:#000000" />
      <path
         id="path10453"
         d="m -213.7252,923.76142 2.47678,-1.36063"
         style="fill:none;stroke:#000000" />
      <path
         id="path10455"
         d="m -211.24842,922.40079 2.62559,-1.04174"
         style="fill:none;stroke:#000000" />
      <path
         id="path10457"
         d="m -208.62283,921.35905 2.73897,-0.70157"
         style="fill:none;stroke:#000000" />
      <path
         id="path10459"
         d="m -205.88386,920.65748 2.80276,-0.35433"
         style="fill:none;stroke:#000000" />
      <path
         id="path10461"
         d="m -203.0811,920.30315 1.41378,0"
         style="fill:none;stroke:#000000" />
      <path
         id="path10463"
         d="m -201.66732,920.30315 0,-0.0425"
         style="fill:none;stroke:#000000" />
      <path
         id="path10465"
         d="m -201.66732,920.26063 403.33464,0"
         style="fill:none;stroke:#000000" />
      <path
         id="path10467"
         d="m 201.66732,920.26063 0,0.0425"
         style="fill:none;stroke:#000000" />
      <path
         id="path10469"
         d="m 201.66732,920.30315 1.41378,0"
         style="fill:none;stroke:#000000" />
      <path
         id="path10471"
         d="m 203.0811,920.30315 2.80276,0.35433"
         style="fill:none;stroke:#000000" />
      <path
         id="path10473"
         d="m 205.88386,920.65748 2.73897,0.70157"
         style="fill:none;stroke:#000000" />
      <path
         id="path10475"
         d="m 208.62283,921.35905 2.62559,1.04174"
         style="fill:none;stroke:#000000" />
      <path
         id="path10477"
         d="m 211.24842,922.40079 2.47678,1.36063"
         style="fill:none;stroke:#000000" />
      <path
         id="path10479"
         d="m 213.7252,923.76142 2.28543,1.66181"
         style="fill:none;stroke:#000000" />
      <path
         id="path10481"
         d="m 216.01063,925.42323 2.05866,1.93464"
         style="fill:none;stroke:#000000" />
      <path
         id="path10483"
         d="m 218.06929,927.35787 1.80354,2.17559"
         style="fill:none;stroke:#000000" />
      <path
         id="path10485"
         d="m 219.87283,929.53346 1.513,2.38465"
         style="fill:none;stroke:#000000" />
      <path
         id="path10487"
         d="m 221.38583,931.91811 1.20118,2.55827"
         style="fill:none;stroke:#000000" />
      <path
         id="path10489"
         d="m 222.58701,934.47638 0.87519,2.68582"
         style="fill:none;stroke:#000000" />
      <path
         id="path10491"
         d="m 223.4622,937.1622 0.52796,2.77796"
         style="fill:none;stroke:#000000" />
      <path
         id="path10493"
         d="m 223.99016,939.94016 0.17716,2.82047"
         style="fill:none;stroke:#000000" />
      <path
         id="path10495"
         d="m 224.16732,942.76063 0,219.20317"
         style="fill:none;stroke:#000000" />
      <path
         id="path10497"
         d="m 224.16732,1161.9638 -0.17716,2.8205"
         style="fill:none;stroke:#000000" />
      <path
         id="path10499"
         d="m 223.99016,1164.7843 -0.52796,2.7779"
         style="fill:none;stroke:#000000" />
      <path
         id="path10501"
         d="m 223.4622,1167.5622 -0.87519,2.6858"
         style="fill:none;stroke:#000000" />
      <path
         id="path10503"
         d="m 222.58701,1170.248 -1.20118,2.5583"
         style="fill:none;stroke:#000000" />
      <path
         id="path10505"
         d="m 221.38583,1172.8063 -1.513,2.3846"
         style="fill:none;stroke:#000000" />
      <path
         id="path10507"
         d="m 219.87283,1175.1909 -1.80354,2.1756"
         style="fill:none;stroke:#000000" />
      <path
         id="path10509"
         d="m 218.06929,1177.3665 -2.05866,1.9347"
         style="fill:none;stroke:#000000" />
      <path
         id="path10511"
         d="m 216.01063,1179.3012 -2.28543,1.6618"
         style="fill:none;stroke:#000000" />
      <path
         id="path10513"
         d="m 213.7252,1180.963 -2.47678,1.3606"
         style="fill:none;stroke:#000000" />
      <path
         id="path10515"
         d="m 211.24842,1182.3236 -2.62559,1.0418"
         style="fill:none;stroke:#000000" />
      <path
         id="path10517"
         d="m 208.62283,1183.3654 -2.73897,0.7015"
         style="fill:none;stroke:#000000" />
      <path
         id="path10519"
         d="m 205.88386,1184.0669 -2.80276,0.3544"
         style="fill:none;stroke:#000000" />
      <path
         id="path10521"
         d="m 203.0811,1184.4213 -1.41378,0"
         style="fill:none;stroke:#000000" />
      <path
         id="path10523"
         d="m 201.66732,1184.4213 0,0.043"
         style="fill:none;stroke:#000000" />
      <path
         id="path10525"
         d="m 201.66732,1184.4638 -403.33464,0"
         style="fill:none;stroke:#000000" />
      <path
         id="path10527"
         d="m -201.66732,1184.4638 0,-0.043"
         style="fill:none;stroke:#000000" />
      <path
         id="path10529"
         d="m -201.66732,1184.4213 -1.41378,0"
         style="fill:none;stroke:#000000" />
      <path
         id="path10531"
         d="m -203.0811,1184.4213 -2.80276,-0.3544"
         style="fill:none;stroke:#000000" />
      <path
         id="path10533"
         d="m -205.88386,1184.0669 -2.73897,-0.7015"
         style="fill:none;stroke:#000000" />
      <path
         id="path10535"
         d="m -208.62283,1183.3654 -2.62559,-1.0418"
         style="fill:none;stroke:#000000" />
      <path
         id="path10537"
         d="m -211.24842,1182.3236 -2.47678,-1.3606"
         style="fill:none;stroke:#000000" />
      <path
         id="path10539"
         d="m -213.7252,1180.963 -2.28543,-1.6618"
         style="fill:none;stroke:#000000" />
      <path
         id="path10541"
         d="m -216.01063,1179.3012 -2.05866,-1.9347"
         style="fill:none;stroke:#000000" />
      <path
         id="path10543"
         d="m -218.06929,1177.3665 -1.80354,-2.1756"
         style="fill:none;stroke:#000000" />
      <path
         id="path10545"
         d="m -219.87283,1175.1909 -1.513,-2.3846"
         style="fill:none;stroke:#000000" />
      <path
         id="path10547"
         d="m -221.38583,1172.8063 -1.20118,-2.5583"
         style="fill:none;stroke:#000000" />
      <path
         id="path10549"
         d="m -222.58701,1170.248 -0.87519,-2.6858"
         style="fill:none;stroke:#000000" />
      <path
         id="path10551"
         d="m -223.4622,1167.5622 -0.52796,-2.7779"
         style="fill:none;stroke:#000000" />
      <path
         id="path10553"
         d="m -223.99016,1164.7843 -0.17716,-2.8205"
         style="fill:none;stroke:#000000" />
      <path
         id="path10555"
         d="m -215.16732,1137.313 0,-45"
         style="fill:none;stroke:#000000" />
      <path
         id="path10557"
         d="m -215.16732,1092.313 10.62992,0"
         style="fill:none;stroke:#000000" />
      <path
         id="path10559"
         d="m -204.5374,1092.313 0,45"
         style="fill:none;stroke:#000000" />
      <path
         id="path10561"
         d="m -204.5374,1137.313 -10.62992,0"
         style="fill:none;stroke:#000000" />
      <path
         id="path10563"
         d="m -215.16732,1012.4114 0,-44.99998"
         style="fill:none;stroke:#000000" />
      <path
         id="path10565"
         d="m -215.16732,967.41142 10.62992,0"
         style="fill:none;stroke:#000000" />
      <path
         id="path10567"
         d="m -204.5374,967.41142 0,44.99998"
         style="fill:none;stroke:#000000" />
      <path
         id="path10569"
         d="m -204.5374,1012.4114 -10.62992,0"
         style="fill:none;stroke:#000000" />
      <path
         id="path10571"
         d="m -194.01024,1150.8839 0.0425,-0.652"
         style="fill:none;stroke:#000000" />
      <path
         id="path10573"
         d="m -193.96772,1150.2319 0.12402,-0.6449"
         style="fill:none;stroke:#000000" />
      <path
         id="path10575"
         d="m -193.8437,1149.587 0.20197,-0.6236"
         style="fill:none;stroke:#000000" />
      <path
         id="path10577"
         d="m -193.64173,1148.9634 0.27992,-0.5917"
         style="fill:none;stroke:#000000" />
      <path
         id="path10579"
         d="m -193.36181,1148.3717 0.35079,-0.5563"
         style="fill:none;stroke:#000000" />
      <path
         id="path10581"
         d="m -193.01102,1147.8154 0.41811,-0.5032"
         style="fill:none;stroke:#000000" />
      <path
         id="path10583"
         d="m -192.59291,1147.3122 0.47834,-0.45"
         style="fill:none;stroke:#000000" />
      <path
         id="path10585"
         d="m -192.11457,1146.8622 0.52796,-0.3827"
         style="fill:none;stroke:#000000" />
      <path
         id="path10587"
         d="m -191.58661,1146.4795 0.57401,-0.3189"
         style="fill:none;stroke:#000000" />
      <path
         id="path10589"
         d="m -191.0126,1146.1606 0.60945,-0.2409"
         style="fill:none;stroke:#000000" />
      <path
         id="path10591"
         d="m -190.40315,1145.9197 0.6378,-0.163"
         style="fill:none;stroke:#000000" />
      <path
         id="path10593"
         d="m -189.76535,1145.7567 0.64842,-0.082"
         style="fill:none;stroke:#000000" />
      <path
         id="path10595"
         d="m -189.11693,1145.6752 0.65551,0"
         style="fill:none;stroke:#000000" />
      <path
         id="path10597"
         d="m -188.46142,1145.6752 0.65197,0.082"
         style="fill:none;stroke:#000000" />
      <path
         id="path10599"
         d="m -187.80945,1145.7567 0.63425,0.163"
         style="fill:none;stroke:#000000" />
      <path
         id="path10601"
         d="m -187.1752,1145.9197 0.60945,0.2409"
         style="fill:none;stroke:#000000" />
      <path
         id="path10603"
         d="m -186.56575,1146.1606 0.57402,0.3189"
         style="fill:none;stroke:#000000" />
      <path
         id="path10605"
         d="m -185.99173,1146.4795 0.53149,0.3827"
         style="fill:none;stroke:#000000" />
      <path
         id="path10607"
         d="m -185.46024,1146.8622 0.47835,0.45"
         style="fill:none;stroke:#000000" />
      <path
         id="path10609"
         d="m -184.98189,1147.3122 0.41811,0.5032"
         style="fill:none;stroke:#000000" />
      <path
         id="path10611"
         d="m -184.56378,1147.8154 0.35079,0.5563"
         style="fill:none;stroke:#000000" />
      <path
         id="path10613"
         d="m -184.21299,1148.3717 0.27638,0.5917"
         style="fill:none;stroke:#000000" />
      <path
         id="path10615"
         d="m -183.93661,1148.9634 0.20551,0.6236"
         style="fill:none;stroke:#000000" />
      <path
         id="path10617"
         d="m -183.7311,1149.587 0.12047,0.6449"
         style="fill:none;stroke:#000000" />
      <path
         id="path10619"
         d="m -183.61063,1150.2319 0.0425,0.652"
         style="fill:none;stroke:#000000" />
      <path
         id="path10621"
         d="m -183.56811,1150.8839 -0.0425,0.6555"
         style="fill:none;stroke:#000000" />
      <path
         id="path10623"
         d="m -183.61063,1151.5394 -0.12047,0.6449"
         style="fill:none;stroke:#000000" />
      <path
         id="path10625"
         d="m -183.7311,1152.1843 -0.20551,0.6236"
         style="fill:none;stroke:#000000" />
      <path
         id="path10627"
         d="m -183.93661,1152.8079 -0.27638,0.5917"
         style="fill:none;stroke:#000000" />
      <path
         id="path10629"
         d="m -184.21299,1153.3996 -0.35079,0.5528"
         style="fill:none;stroke:#000000" />
      <path
         id="path10631"
         d="m -184.56378,1153.9524 -0.41811,0.5067"
         style="fill:none;stroke:#000000" />
      <path
         id="path10633"
         d="m -184.98189,1154.4591 -0.47835,0.45"
         style="fill:none;stroke:#000000" />
      <path
         id="path10635"
         d="m -185.46024,1154.9091 -0.53149,0.3826"
         style="fill:none;stroke:#000000" />
      <path
         id="path10637"
         d="m -185.99173,1155.2917 -0.57402,0.3154"
         style="fill:none;stroke:#000000" />
      <path
         id="path10639"
         d="m -186.56575,1155.6071 -0.60945,0.2409"
         style="fill:none;stroke:#000000" />
      <path
         id="path10641"
         d="m -187.1752,1155.848 -0.63425,0.163"
         style="fill:none;stroke:#000000" />
      <path
         id="path10643"
         d="m -187.80945,1156.011 -0.65197,0.085"
         style="fill:none;stroke:#000000" />
      <path
         id="path10645"
         d="m -188.46142,1156.0961 -0.65551,0"
         style="fill:none;stroke:#000000" />
      <path
         id="path10647"
         d="m -189.11693,1156.0961 -0.64842,-0.085"
         style="fill:none;stroke:#000000" />
      <path
         id="path10649"
         d="m -189.76535,1156.011 -0.6378,-0.163"
         style="fill:none;stroke:#000000" />
      <path
         id="path10651"
         d="m -190.40315,1155.848 -0.60945,-0.2409"
         style="fill:none;stroke:#000000" />
      <path
         id="path10653"
         d="m -191.0126,1155.6071 -0.57401,-0.3154"
         style="fill:none;stroke:#000000" />
      <path
         id="path10655"
         d="m -191.58661,1155.2917 -0.52796,-0.3826"
         style="fill:none;stroke:#000000" />
      <path
         id="path10657"
         d="m -192.11457,1154.9091 -0.47834,-0.45"
         style="fill:none;stroke:#000000" />
      <path
         id="path10659"
         d="m -192.59291,1154.4591 -0.41811,-0.5067"
         style="fill:none;stroke:#000000" />
      <path
         id="path10661"
         d="m -193.01102,1153.9524 -0.35079,-0.5528"
         style="fill:none;stroke:#000000" />
      <path
         id="path10663"
         d="m -193.36181,1153.3996 -0.27992,-0.5917"
         style="fill:none;stroke:#000000" />
      <path
         id="path10665"
         d="m -193.64173,1152.8079 -0.20197,-0.6236"
         style="fill:none;stroke:#000000" />
      <path
         id="path10667"
         d="m -193.8437,1152.1843 -0.12402,-0.6449"
         style="fill:none;stroke:#000000" />
      <path
         id="path10669"
         d="m -193.96772,1151.5394 -0.0425,-0.6555"
         style="fill:none;stroke:#000000" />
      <path
         id="path10671"
         d="m -194.01024,953.84055 0.0425,-0.65551"
         style="fill:none;stroke:#000000" />
      <path
         id="path10673"
         d="m -193.96772,953.18504 0.12402,-0.64488"
         style="fill:none;stroke:#000000" />
      <path
         id="path10675"
         d="m -193.8437,952.54016 0.20197,-0.62363"
         style="fill:none;stroke:#000000" />
      <path
         id="path10677"
         d="m -193.64173,951.91653 0.27992,-0.59173"
         style="fill:none;stroke:#000000" />
      <path
         id="path10679"
         d="m -193.36181,951.3248 0.35079,-0.55275"
         style="fill:none;stroke:#000000" />
      <path
         id="path10681"
         d="m -193.01102,950.77205 0.41811,-0.5067"
         style="fill:none;stroke:#000000" />
      <path
         id="path10683"
         d="m -192.59291,950.26535 0.47834,-0.45"
         style="fill:none;stroke:#000000" />
      <path
         id="path10685"
         d="m -192.11457,949.81535 0.52796,-0.38267"
         style="fill:none;stroke:#000000" />
      <path
         id="path10687"
         d="m -191.58661,949.43268 0.57401,-0.31536"
         style="fill:none;stroke:#000000" />
      <path
         id="path10689"
         d="m -191.0126,949.11732 0.60945,-0.24094"
         style="fill:none;stroke:#000000" />
      <path
         id="path10691"
         d="m -190.40315,948.87638 0.6378,-0.16299"
         style="fill:none;stroke:#000000" />
      <path
         id="path10693"
         d="m -189.76535,948.71339 0.64842,-0.085"
         style="fill:none;stroke:#000000" />
      <path
         id="path10695"
         d="m -189.11693,948.62835 0.65551,0"
         style="fill:none;stroke:#000000" />
      <path
         id="path10697"
         d="m -188.46142,948.62835 0.65197,0.085"
         style="fill:none;stroke:#000000" />
      <path
         id="path10699"
         d="m -187.80945,948.71339 0.63425,0.16299"
         style="fill:none;stroke:#000000" />
      <path
         id="path10701"
         d="m -187.1752,948.87638 0.60945,0.24094"
         style="fill:none;stroke:#000000" />
      <path
         id="path10703"
         d="m -186.56575,949.11732 0.57402,0.31536"
         style="fill:none;stroke:#000000" />
      <path
         id="path10705"
         d="m -185.99173,949.43268 0.53149,0.38267"
         style="fill:none;stroke:#000000" />
      <path
         id="path10707"
         d="m -185.46024,949.81535 0.47835,0.45"
         style="fill:none;stroke:#000000" />
      <path
         id="path10709"
         d="m -184.98189,950.26535 0.41811,0.5067"
         style="fill:none;stroke:#000000" />
      <path
         id="path10711"
         d="m -184.56378,950.77205 0.35079,0.55275"
         style="fill:none;stroke:#000000" />
      <path
         id="path10713"
         d="m -184.21299,951.3248 0.27638,0.59173"
         style="fill:none;stroke:#000000" />
      <path
         id="path10715"
         d="m -183.93661,951.91653 0.20551,0.62363"
         style="fill:none;stroke:#000000" />
      <path
         id="path10717"
         d="m -183.7311,952.54016 0.12047,0.64488"
         style="fill:none;stroke:#000000" />
      <path
         id="path10719"
         d="m -183.61063,953.18504 0.0425,0.65551"
         style="fill:none;stroke:#000000" />
      <path
         id="path10721"
         d="m -183.56811,953.84055 -0.0425,0.65197"
         style="fill:none;stroke:#000000" />
      <path
         id="path10723"
         d="m -183.61063,954.49252 -0.12047,0.64488"
         style="fill:none;stroke:#000000" />
      <path
         id="path10725"
         d="m -183.7311,955.1374 -0.20551,0.62362"
         style="fill:none;stroke:#000000" />
      <path
         id="path10727"
         d="m -183.93661,955.76102 -0.27638,0.59174"
         style="fill:none;stroke:#000000" />
      <path
         id="path10729"
         d="m -184.21299,956.35276 -0.35079,0.55629"
         style="fill:none;stroke:#000000" />
      <path
         id="path10731"
         d="m -184.56378,956.90905 -0.41811,0.50315"
         style="fill:none;stroke:#000000" />
      <path
         id="path10733"
         d="m -184.98189,957.4122 -0.47835,0.45001"
         style="fill:none;stroke:#000000" />
      <path
         id="path10735"
         d="m -185.46024,957.86221 -0.53149,0.38267"
         style="fill:none;stroke:#000000" />
      <path
         id="path10737"
         d="m -185.99173,958.24488 -0.57402,0.3189"
         style="fill:none;stroke:#000000" />
      <path
         id="path10739"
         d="m -186.56575,958.56378 -0.60945,0.24094"
         style="fill:none;stroke:#000000" />
      <path
         id="path10741"
         d="m -187.1752,958.80472 -0.63425,0.163"
         style="fill:none;stroke:#000000" />
      <path
         id="path10743"
         d="m -187.80945,958.96772 -0.65197,0.0815"
         style="fill:none;stroke:#000000" />
      <path
         id="path10745"
         d="m -188.46142,959.04921 -0.65551,0"
         style="fill:none;stroke:#000000" />
      <path
         id="path10747"
         d="m -189.11693,959.04921 -0.64842,-0.0815"
         style="fill:none;stroke:#000000" />
      <path
         id="path10749"
         d="m -189.76535,958.96772 -0.6378,-0.163"
         style="fill:none;stroke:#000000" />
      <path
         id="path10751"
         d="m -190.40315,958.80472 -0.60945,-0.24094"
         style="fill:none;stroke:#000000" />
      <path
         id="path10753"
         d="m -191.0126,958.56378 -0.57401,-0.3189"
         style="fill:none;stroke:#000000" />
      <path
         id="path10755"
         d="m -191.58661,958.24488 -0.52796,-0.38267"
         style="fill:none;stroke:#000000" />
      <path
         id="path10757"
         d="m -192.11457,957.86221 -0.47834,-0.45001"
         style="fill:none;stroke:#000000" />
      <path
         id="path10759"
         d="m -192.59291,957.4122 -0.41811,-0.50315"
         style="fill:none;stroke:#000000" />
      <path
         id="path10761"
         d="m -193.01102,956.90905 -0.35079,-0.55629"
         style="fill:none;stroke:#000000" />
      <path
         id="path10763"
         d="m -193.36181,956.35276 -0.27992,-0.59174"
         style="fill:none;stroke:#000000" />
      <path
         id="path10765"
         d="m -193.64173,955.76102 -0.20197,-0.62362"
         style="fill:none;stroke:#000000" />
      <path
         id="path10767"
         d="m -193.8437,955.1374 -0.12402,-0.64488"
         style="fill:none;stroke:#000000" />
      <path
         id="path10769"
         d="m -193.96772,954.49252 -0.0425,-0.65197"
         style="fill:none;stroke:#000000" />
      <path
         id="path10771"
         d="m -145.22244,1177.2638 0,-10.6299"
         style="fill:none;stroke:#000000" />
      <path
         id="path10773"
         d="m -145.22244,1166.6339 45,0"
         style="fill:none;stroke:#000000" />
      <path
         id="path10775"
         d="m -100.22244,1166.6339 0,10.6299"
         style="fill:none;stroke:#000000" />
      <path
         id="path10777"
         d="m -100.22244,1177.2638 -45,0"
         style="fill:none;stroke:#000000" />
      <path
         id="path10779"
         d="m -145.22244,938.09055 0,-10.62992"
         style="fill:none;stroke:#000000" />
      <path
         id="path10781"
         d="m -145.22244,927.46063 45,0"
         style="fill:none;stroke:#000000" />
      <path
         id="path10783"
         d="m -100.22244,927.46063 0,10.62992"
         style="fill:none;stroke:#000000" />
      <path
         id="path10785"
         d="m -100.22244,938.09055 -45,0"
         style="fill:none;stroke:#000000" />
      <path
         id="path10787"
         d="m -122.31142,1160.8122 0,-216.9"
         style="fill:none;stroke:#000000" />
      <path
         id="path10789"
         d="m -122.31142,943.9122 244.62284,0"
         style="fill:none;stroke:#000000" />
      <path
         id="path10791"
         d="m 122.31142,943.9122 0,216.9"
         style="fill:none;stroke:#000000" />
      <path
         id="path10793"
         d="m 122.31142,1160.8122 -244.62284,0"
         style="fill:none;stroke:#000000" />
      <path
         id="path10795"
         d="m -22.5,1177.2638 0,-10.6299"
         style="fill:none;stroke:#000000" />
      <path
         id="path10797"
         d="m -22.5,1166.6339 45,0"
         style="fill:none;stroke:#000000" />
      <path
         id="path10799"
         d="m 22.5,1166.6339 0,10.6299"
         style="fill:none;stroke:#000000" />
      <path
         id="path10801"
         d="m 22.5,1177.2638 -45,0"
         style="fill:none;stroke:#000000" />
      <path
         id="path10803"
         d="m -22.5,938.09055 0,-10.62992"
         style="fill:none;stroke:#000000" />
      <path
         id="path10805"
         d="m -22.5,927.46063 45,0"
         style="fill:none;stroke:#000000" />
      <path
         id="path10807"
         d="m 22.5,927.46063 0,10.62992"
         style="fill:none;stroke:#000000" />
      <path
         id="path10809"
         d="m 22.5,938.09055 -45,0"
         style="fill:none;stroke:#000000" />
      <path
         id="path10811"
         d="m 100.22244,1177.2638 0,-10.6299"
         style="fill:none;stroke:#000000" />
      <path
         id="path10813"
         d="m 100.22244,1166.6339 45,0"
         style="fill:none;stroke:#000000" />
      <path
         id="path10815"
         d="m 145.22244,1166.6339 0,10.6299"
         style="fill:none;stroke:#000000" />
      <path
         id="path10817"
         d="m 145.22244,1177.2638 -45,0"
         style="fill:none;stroke:#000000" />
      <path
         id="path10819"
         d="m 100.22244,938.09055 0,-10.62992"
         style="fill:none;stroke:#000000" />
      <path
         id="path10821"
         d="m 100.22244,927.46063 45,0"
         style="fill:none;stroke:#000000" />
      <path
         id="path10823"
         d="m 145.22244,927.46063 0,10.62992"
         style="fill:none;stroke:#000000" />
      <path
         id="path10825"
         d="m 145.22244,938.09055 -45,0"
         style="fill:none;stroke:#000000" />
      <path
         id="path10827"
         d="m 183.56811,1150.8839 0.0425,-0.652"
         style="fill:none;stroke:#000000" />
      <path
         id="path10829"
         d="m 183.61063,1150.2319 0.12047,-0.6449"
         style="fill:none;stroke:#000000" />
      <path
         id="path10831"
         d="m 183.7311,1149.587 0.20551,-0.6236"
         style="fill:none;stroke:#000000" />
      <path
         id="path10833"
         d="m 183.93661,1148.9634 0.27638,-0.5917"
         style="fill:none;stroke:#000000" />
      <path
         id="path10835"
         d="m 184.21299,1148.3717 0.35079,-0.5563"
         style="fill:none;stroke:#000000" />
      <path
         id="path10837"
         d="m 184.56378,1147.8154 0.41811,-0.5032"
         style="fill:none;stroke:#000000" />
      <path
         id="path10839"
         d="m 184.98189,1147.3122 0.47835,-0.45"
         style="fill:none;stroke:#000000" />
      <path
         id="path10841"
         d="m 185.46024,1146.8622 0.53149,-0.3827"
         style="fill:none;stroke:#000000" />
      <path
         id="path10843"
         d="m 185.99173,1146.4795 0.57402,-0.3189"
         style="fill:none;stroke:#000000" />
      <path
         id="path10845"
         d="m 186.56575,1146.1606 0.60945,-0.2409"
         style="fill:none;stroke:#000000" />
      <path
         id="path10847"
         d="m 187.1752,1145.9197 0.63425,-0.163"
         style="fill:none;stroke:#000000" />
      <path
         id="path10849"
         d="m 187.80945,1145.7567 0.65197,-0.082"
         style="fill:none;stroke:#000000" />
      <path
         id="path10851"
         d="m 188.46142,1145.6752 0.65551,0"
         style="fill:none;stroke:#000000" />
      <path
         id="path10853"
         d="m 189.11693,1145.6752 0.64842,0.082"
         style="fill:none;stroke:#000000" />
      <path
         id="path10855"
         d="m 189.76535,1145.7567 0.6378,0.163"
         style="fill:none;stroke:#000000" />
      <path
         id="path10857"
         d="m 190.40315,1145.9197 0.60945,0.2409"
         style="fill:none;stroke:#000000" />
      <path
         id="path10859"
         d="m 191.0126,1146.1606 0.57401,0.3189"
         style="fill:none;stroke:#000000" />
      <path
         id="path10861"
         d="m 191.58661,1146.4795 0.52796,0.3827"
         style="fill:none;stroke:#000000" />
      <path
         id="path10863"
         d="m 192.11457,1146.8622 0.47834,0.45"
         style="fill:none;stroke:#000000" />
      <path
         id="path10865"
         d="m 192.59291,1147.3122 0.41811,0.5032"
         style="fill:none;stroke:#000000" />
      <path
         id="path10867"
         d="m 193.01102,1147.8154 0.35079,0.5563"
         style="fill:none;stroke:#000000" />
      <path
         id="path10869"
         d="m 193.36181,1148.3717 0.27992,0.5917"
         style="fill:none;stroke:#000000" />
      <path
         id="path10871"
         d="m 193.64173,1148.9634 0.20197,0.6236"
         style="fill:none;stroke:#000000" />
      <path
         id="path10873"
         d="m 193.8437,1149.587 0.12402,0.6449"
         style="fill:none;stroke:#000000" />
      <path
         id="path10875"
         d="m 193.96772,1150.2319 0.0425,0.652"
         style="fill:none;stroke:#000000" />
      <path
         id="path10877"
         d="m 194.01024,1150.8839 -0.0425,0.6555"
         style="fill:none;stroke:#000000" />
      <path
         id="path10879"
         d="m 193.96772,1151.5394 -0.12402,0.6449"
         style="fill:none;stroke:#000000" />
      <path
         id="path10881"
         d="m 193.8437,1152.1843 -0.20197,0.6236"
         style="fill:none;stroke:#000000" />
      <path
         id="path10883"
         d="m 193.64173,1152.8079 -0.27992,0.5917"
         style="fill:none;stroke:#000000" />
      <path
         id="path10885"
         d="m 193.36181,1153.3996 -0.35079,0.5528"
         style="fill:none;stroke:#000000" />
      <path
         id="path10887"
         d="m 193.01102,1153.9524 -0.41811,0.5067"
         style="fill:none;stroke:#000000" />
      <path
         id="path10889"
         d="m 192.59291,1154.4591 -0.47834,0.45"
         style="fill:none;stroke:#000000" />
      <path
         id="path10891"
         d="m 192.11457,1154.9091 -0.52796,0.3826"
         style="fill:none;stroke:#000000" />
      <path
         id="path10893"
         d="m 191.58661,1155.2917 -0.57401,0.3154"
         style="fill:none;stroke:#000000" />
      <path
         id="path10895"
         d="m 191.0126,1155.6071 -0.60945,0.2409"
         style="fill:none;stroke:#000000" />
      <path
         id="path10897"
         d="m 190.40315,1155.848 -0.6378,0.163"
         style="fill:none;stroke:#000000" />
      <path
         id="path10899"
         d="m 189.76535,1156.011 -0.64842,0.085"
         style="fill:none;stroke:#000000" />
      <path
         id="path10901"
         d="m 189.11693,1156.0961 -0.65551,0"
         style="fill:none;stroke:#000000" />
      <path
         id="path10903"
         d="m 188.46142,1156.0961 -0.65197,-0.085"
         style="fill:none;stroke:#000000" />
      <path
         id="path10905"
         d="m 187.80945,1156.011 -0.63425,-0.163"
         style="fill:none;stroke:#000000" />
      <path
         id="path10907"
         d="m 187.1752,1155.848 -0.60945,-0.2409"
         style="fill:none;stroke:#000000" />
      <path
         id="path10909"
         d="m 186.56575,1155.6071 -0.57402,-0.3154"
         style="fill:none;stroke:#000000" />
      <path
         id="path10911"
         d="m 185.99173,1155.2917 -0.53149,-0.3826"
         style="fill:none;stroke:#000000" />
      <path
         id="path10913"
         d="m 185.46024,1154.9091 -0.47835,-0.45"
         style="fill:none;stroke:#000000" />
      <path
         id="path10915"
         d="m 184.98189,1154.4591 -0.41811,-0.5067"
         style="fill:none;stroke:#000000" />
      <path
         id="path10917"
         d="m 184.56378,1153.9524 -0.35079,-0.5528"
         style="fill:none;stroke:#000000" />
      <path
         id="path10919"
         d="m 184.21299,1153.3996 -0.27638,-0.5917"
         style="fill:none;stroke:#000000" />
      <path
         id="path10921"
         d="m 183.93661,1152.8079 -0.20551,-0.6236"
         style="fill:none;stroke:#000000" />
      <path
         id="path10923"
         d="m 183.7311,1152.1843 -0.12047,-0.6449"
         style="fill:none;stroke:#000000" />
      <path
         id="path10925"
         d="m 183.61063,1151.5394 -0.0425,-0.6555"
         style="fill:none;stroke:#000000" />
      <path
         id="path10927"
         d="m 183.56811,953.84055 0.0425,-0.65551"
         style="fill:none;stroke:#000000" />
      <path
         id="path10929"
         d="m 183.61063,953.18504 0.12047,-0.64488"
         style="fill:none;stroke:#000000" />
      <path
         id="path10931"
         d="m 183.7311,952.54016 0.20551,-0.62363"
         style="fill:none;stroke:#000000" />
      <path
         id="path10933"
         d="m 183.93661,951.91653 0.27638,-0.59173"
         style="fill:none;stroke:#000000" />
      <path
         id="path10935"
         d="m 184.21299,951.3248 0.35079,-0.55275"
         style="fill:none;stroke:#000000" />
      <path
         id="path10937"
         d="m 184.56378,950.77205 0.41811,-0.5067"
         style="fill:none;stroke:#000000" />
      <path
         id="path10939"
         d="m 184.98189,950.26535 0.47835,-0.45"
         style="fill:none;stroke:#000000" />
      <path
         id="path10941"
         d="m 185.46024,949.81535 0.53149,-0.38267"
         style="fill:none;stroke:#000000" />
      <path
         id="path10943"
         d="m 185.99173,949.43268 0.57402,-0.31536"
         style="fill:none;stroke:#000000" />
      <path
         id="path10945"
         d="m 186.56575,949.11732 0.60945,-0.24094"
         style="fill:none;stroke:#000000" />
      <path
         id="path10947"
         d="m 187.1752,948.87638 0.63425,-0.16299"
         style="fill:none;stroke:#000000" />
      <path
         id="path10949"
         d="m 187.80945,948.71339 0.65197,-0.085"
         style="fill:none;stroke:#000000" />
      <path
         id="path10951"
         d="m 188.46142,948.62835 0.65551,0"
         style="fill:none;stroke:#000000" />
      <path
         id="path10953"
         d="m 189.11693,948.62835 0.64842,0.085"
         style="fill:none;stroke:#000000" />
      <path
         id="path10955"
         d="m 189.76535,948.71339 0.6378,0.16299"
         style="fill:none;stroke:#000000" />
      <path
         id="path10957"
         d="m 190.40315,948.87638 0.60945,0.24094"
         style="fill:none;stroke:#000000" />
      <path
         id="path10959"
         d="m 191.0126,949.11732 0.57401,0.31536"
         style="fill:none;stroke:#000000" />
      <path
         id="path10961"
         d="m 191.58661,949.43268 0.52796,0.38267"
         style="fill:none;stroke:#000000" />
      <path
         id="path10963"
         d="m 192.11457,949.81535 0.47834,0.45"
         style="fill:none;stroke:#000000" />
      <path
         id="path10965"
         d="m 192.59291,950.26535 0.41811,0.5067"
         style="fill:none;stroke:#000000" />
      <path
         id="path10967"
         d="m 193.01102,950.77205 0.35079,0.55275"
         style="fill:none;stroke:#000000" />
      <path
         id="path10969"
         d="m 193.36181,951.3248 0.27992,0.59173"
         style="fill:none;stroke:#000000" />
      <path
         id="path10971"
         d="m 193.64173,951.91653 0.20197,0.62363"
         style="fill:none;stroke:#000000" />
      <path
         id="path10973"
         d="m 193.8437,952.54016 0.12402,0.64488"
         style="fill:none;stroke:#000000" />
      <path
         id="path10975"
         d="m 193.96772,953.18504 0.0425,0.65551"
         style="fill:none;stroke:#000000" />
      <path
         id="path10977"
         d="m 194.01024,953.84055 -0.0425,0.65197"
         style="fill:none;stroke:#000000" />
      <path
         id="path10979"
         d="m 193.96772,954.49252 -0.12402,0.64488"
         style="fill:none;stroke:#000000" />
      <path
         id="path10981"
         d="m 193.8437,955.1374 -0.20197,0.62362"
         style="fill:none;stroke:#000000" />
      <path
         id="path10983"
         d="m 193.64173,955.76102 -0.27992,0.59174"
         style="fill:none;stroke:#000000" />
      <path
         id="path10985"
         d="m 193.36181,956.35276 -0.35079,0.55629"
         style="fill:none;stroke:#000000" />
      <path
         id="path10987"
         d="m 193.01102,956.90905 -0.41811,0.50315"
         style="fill:none;stroke:#000000" />
      <path
         id="path10989"
         d="m 192.59291,957.4122 -0.47834,0.45001"
         style="fill:none;stroke:#000000" />
      <path
         id="path10991"
         d="m 192.11457,957.86221 -0.52796,0.38267"
         style="fill:none;stroke:#000000" />
      <path
         id="path10993"
         d="m 191.58661,958.24488 -0.57401,0.3189"
         style="fill:none;stroke:#000000" />
      <path
         id="path10995"
         d="m 191.0126,958.56378 -0.60945,0.24094"
         style="fill:none;stroke:#000000" />
      <path
         id="path10997"
         d="m 190.40315,958.80472 -0.6378,0.163"
         style="fill:none;stroke:#000000" />
      <path
         id="path10999"
         d="m 189.76535,958.96772 -0.64842,0.0815"
         style="fill:none;stroke:#000000" />
      <path
         id="path11001"
         d="m 189.11693,959.04921 -0.65551,0"
         style="fill:none;stroke:#000000" />
      <path
         id="path11003"
         d="m 188.46142,959.04921 -0.65197,-0.0815"
         style="fill:none;stroke:#000000" />
      <path
         id="path11005"
         d="m 187.80945,958.96772 -0.63425,-0.163"
         style="fill:none;stroke:#000000" />
      <path
         id="path11007"
         d="m 187.1752,958.80472 -0.60945,-0.24094"
         style="fill:none;stroke:#000000" />
      <path
         id="path11009"
         d="m 186.56575,958.56378 -0.57402,-0.3189"
         style="fill:none;stroke:#000000" />
      <path
         id="path11011"
         d="m 185.99173,958.24488 -0.53149,-0.38267"
         style="fill:none;stroke:#000000" />
      <path
         id="path11013"
         d="m 185.46024,957.86221 -0.47835,-0.45001"
         style="fill:none;stroke:#000000" />
      <path
         id="path11015"
         d="m 184.98189,957.4122 -0.41811,-0.50315"
         style="fill:none;stroke:#000000" />
      <path
         id="path11017"
         d="m 184.56378,956.90905 -0.35079,-0.55629"
         style="fill:none;stroke:#000000" />
      <path
         id="path11019"
         d="m 184.21299,956.35276 -0.27638,-0.59174"
         style="fill:none;stroke:#000000" />
      <path
         id="path11021"
         d="M 183.93661,955.76102 183.7311,955.1374"
         style="fill:none;stroke:#000000" />
      <path
         id="path11023"
         d="m 183.7311,955.1374 -0.12047,-0.64488"
         style="fill:none;stroke:#000000" />
      <path
         id="path11025"
         d="m 183.61063,954.49252 -0.0425,-0.65197"
         style="fill:none;stroke:#000000" />
      <path
         id="path11027"
         d="m 204.5374,1137.313 0,-45"
         style="fill:none;stroke:#000000" />
      <path
         id="path11029"
         d="m 204.5374,1092.313 10.62992,0"
         style="fill:none;stroke:#000000" />
      <path
         id="path11031"
         d="m 215.16732,1092.313 0,45"
         style="fill:none;stroke:#000000" />
      <path
         id="path11033"
         d="m 215.16732,1137.313 -10.62992,0"
         style="fill:none;stroke:#000000" />
      <path
         id="path11035"
         d="m 204.5374,1012.4114 0,-44.99998"
         style="fill:none;stroke:#000000" />
      <path
         id="path11037"
         d="m 204.5374,967.41142 10.62992,0"
         style="fill:none;stroke:#000000" />
      <path
         id="path11039"
         d="m 215.16732,967.41142 0,44.99998"
         style="fill:none;stroke:#000000" />
      <path
         id="path11041"
         d="m 215.16732,1012.4114 -10.62992,0"
         style="fill:none;stroke:#000000" />
    </g>
  </g>
</svg>
