<?xml version="1.0" encoding="UTF-8" standalone="no"?>
<svg
   xmlns:dc="http://purl.org/dc/elements/1.1/"
   xmlns:cc="http://creativecommons.org/ns#"
   xmlns:rdf="http://www.w3.org/1999/02/22-rdf-syntax-ns#"
   xmlns:svg="http://www.w3.org/2000/svg"
   xmlns="http://www.w3.org/2000/svg"
   xmlns:sodipodi="http://sodipodi.sourceforge.net/DTD/sodipodi-0.dtd"
   xmlns:inkscape="http://www.inkscape.org/namespaces/inkscape"
   id="svg9144"
   version="1.1"
   inkscape:version="0.47 r22583"
   width="744.29999"
   height="540"
   sodipodi:docname="1.5mm_clear.svg">
  <metadata
     id="metadata9760">
    <rdf:RDF>
      <cc:Work
         rdf:about="">
        <dc:format>image/svg+xml</dc:format>
        <dc:type
           rdf:resource="http://purl.org/dc/dcmitype/StillImage" />
        <dc:title />
      </cc:Work>
    </rdf:RDF>
  </metadata>
  <sodipodi:namedview
     pagecolor="#ffffff"
     bordercolor="#666666"
     borderopacity="1"
     objecttolerance="10"
     gridtolerance="10"
     guidetolerance="10"
     inkscape:pageopacity="0"
     inkscape:pageshadow="2"
     inkscape:window-width="1920"
     inkscape:window-height="1005"
     id="namedview9758"
     showgrid="false"
     inkscape:zoom="0.89702957"
     inkscape:cx="302.09414"
     inkscape:cy="328.03151"
     inkscape:window-x="0"
     inkscape:window-y="24"
     inkscape:window-maximized="1"
     inkscape:current-layer="g9156"
     units="in" />
  <desc
     id="desc9146">/home/jo/repos/led_transilluminator_enclosure/version_0p2/top_lower.dxf - scale = 1.000000</desc>
  <defs
     id="defs9148">
    <inkscape:perspective
       sodipodi:type="inkscape:persp3d"
       inkscape:vp_x="0 : 0.5 : 1"
       inkscape:vp_y="0 : 1000 : 0"
       inkscape:vp_z="1 : 0.5 : 1"
       inkscape:persp3d-origin="0.5 : 0.33333333 : 1"
       id="perspective9762" />
    <marker
       refY="0"
       refX="0"
       style="overflow:visible"
       id="DistanceX"
       orient="auto">
      <path
         style="stroke:#000000;stroke-width:0.5"
         d="M 3,-3 -3,3 M 0,-5 0,5"
         id="path9151" />
    </marker>
    <symbol
       id="*Model_Space" />
    <symbol
       id="*Paper_Space" />
    <symbol
       id="*Paper_Space0" />
    <inkscape:perspective
       id="perspective13171"
       inkscape:persp3d-origin="0.5 : 0.33333333 : 1"
       inkscape:vp_z="1 : 0.5 : 1"
       inkscape:vp_y="0 : 1000 : 0"
       inkscape:vp_x="0 : 0.5 : 1"
       sodipodi:type="inkscape:persp3d" />
    <inkscape:perspective
       id="perspective3136"
       inkscape:persp3d-origin="0.5 : 0.33333333 : 1"
       inkscape:vp_z="1 : 0.5 : 1"
       inkscape:vp_y="0 : 1000 : 0"
       inkscape:vp_x="0 : 0.5 : 1"
       sodipodi:type="inkscape:persp3d" />
    <inkscape:perspective
       id="perspective14338"
       inkscape:persp3d-origin="0.5 : 0.33333333 : 1"
       inkscape:vp_z="1 : 0.5 : 1"
       inkscape:vp_y="0 : 1000 : 0"
       inkscape:vp_x="0 : 0.5 : 1"
       sodipodi:type="inkscape:persp3d" />
  </defs>
  <g
     inkscape:label="0"
     inkscape:groupmode="layer"
     id="g9156"
     transform="translate(0,-512.35975)">
    <g
       id="g15264"
       transform="translate(17.052603,556.28044)">
      <g
         transform="translate(359.4538,-805.61824)"
         id="g12567">
        <path
           style="fill:none;stroke:#000000"
           d="m -224.16732,1161.9638 0,-219.20317"
           id="path12041" />
        <path
           style="fill:none;stroke:#000000"
           d="m -224.16732,942.76063 0.17716,-2.82047"
           id="path12043" />
        <path
           style="fill:none;stroke:#000000"
           d="m -223.99016,939.94016 0.52796,-2.77796"
           id="path12045" />
        <path
           style="fill:none;stroke:#000000"
           d="m -223.4622,937.1622 0.87519,-2.68582"
           id="path12047" />
        <path
           style="fill:none;stroke:#000000"
           d="m -222.58701,934.47638 1.20118,-2.55827"
           id="path12049" />
        <path
           style="fill:none;stroke:#000000"
           d="m -221.38583,931.91811 1.513,-2.38465"
           id="path12051" />
        <path
           style="fill:none;stroke:#000000"
           d="m -219.87283,929.53346 1.80354,-2.17559"
           id="path12053" />
        <path
           style="fill:none;stroke:#000000"
           d="m -218.06929,927.35787 2.05866,-1.93464"
           id="path12055" />
        <path
           style="fill:none;stroke:#000000"
           d="m -216.01063,925.42323 2.28543,-1.66181"
           id="path12057" />
        <path
           style="fill:none;stroke:#000000"
           d="m -213.7252,923.76142 2.47678,-1.36063"
           id="path12059" />
        <path
           style="fill:none;stroke:#000000"
           d="m -211.24842,922.40079 2.62559,-1.04174"
           id="path12061" />
        <path
           style="fill:none;stroke:#000000"
           d="m -208.62283,921.35905 2.73897,-0.70157"
           id="path12063" />
        <path
           style="fill:none;stroke:#000000"
           d="m -205.88386,920.65748 2.80276,-0.35433"
           id="path12065" />
        <path
           style="fill:none;stroke:#000000"
           d="m -203.0811,920.30315 1.41378,0"
           id="path12067" />
        <path
           style="fill:none;stroke:#000000"
           d="m -201.66732,920.30315 0,-0.0425"
           id="path12069" />
        <path
           style="fill:none;stroke:#000000"
           d="m -201.66732,920.26063 403.33464,0"
           id="path12071" />
        <path
           style="fill:none;stroke:#000000"
           d="m 201.66732,920.26063 0,0.0425"
           id="path12073" />
        <path
           style="fill:none;stroke:#000000"
           d="m 201.66732,920.30315 1.41378,0"
           id="path12075" />
        <path
           style="fill:none;stroke:#000000"
           d="m 203.0811,920.30315 2.80276,0.35433"
           id="path12077" />
        <path
           style="fill:none;stroke:#000000"
           d="m 205.88386,920.65748 2.73897,0.70157"
           id="path12079" />
        <path
           style="fill:none;stroke:#000000"
           d="m 208.62283,921.35905 2.62559,1.04174"
           id="path12081" />
        <path
           style="fill:none;stroke:#000000"
           d="m 211.24842,922.40079 2.47678,1.36063"
           id="path12083" />
        <path
           style="fill:none;stroke:#000000"
           d="m 213.7252,923.76142 2.28543,1.66181"
           id="path12085" />
        <path
           style="fill:none;stroke:#000000"
           d="m 216.01063,925.42323 2.05866,1.93464"
           id="path12087" />
        <path
           style="fill:none;stroke:#000000"
           d="m 218.06929,927.35787 1.80354,2.17559"
           id="path12089" />
        <path
           style="fill:none;stroke:#000000"
           d="m 219.87283,929.53346 1.513,2.38465"
           id="path12091" />
        <path
           style="fill:none;stroke:#000000"
           d="m 221.38583,931.91811 1.20118,2.55827"
           id="path12093" />
        <path
           style="fill:none;stroke:#000000"
           d="m 222.58701,934.47638 0.87519,2.68582"
           id="path12095" />
        <path
           style="fill:none;stroke:#000000"
           d="m 223.4622,937.1622 0.52796,2.77796"
           id="path12097" />
        <path
           style="fill:none;stroke:#000000"
           d="m 223.99016,939.94016 0.17716,2.82047"
           id="path12099" />
        <path
           style="fill:none;stroke:#000000"
           d="m 224.16732,942.76063 0,219.20317"
           id="path12101" />
        <path
           style="fill:none;stroke:#000000"
           d="m 224.16732,1161.9638 -0.17716,2.8205"
           id="path12103" />
        <path
           style="fill:none;stroke:#000000"
           d="m 223.99016,1164.7843 -0.52796,2.7779"
           id="path12105" />
        <path
           style="fill:none;stroke:#000000"
           d="m 223.4622,1167.5622 -0.87519,2.6858"
           id="path12107" />
        <path
           style="fill:none;stroke:#000000"
           d="m 222.58701,1170.248 -1.20118,2.5583"
           id="path12109" />
        <path
           style="fill:none;stroke:#000000"
           d="m 221.38583,1172.8063 -1.513,2.3846"
           id="path12111" />
        <path
           style="fill:none;stroke:#000000"
           d="m 219.87283,1175.1909 -1.80354,2.1756"
           id="path12113" />
        <path
           style="fill:none;stroke:#000000"
           d="m 218.06929,1177.3665 -2.05866,1.9347"
           id="path12115" />
        <path
           style="fill:none;stroke:#000000"
           d="m 216.01063,1179.3012 -2.28543,1.6618"
           id="path12117" />
        <path
           style="fill:none;stroke:#000000"
           d="m 213.7252,1180.963 -2.47678,1.3606"
           id="path12119" />
        <path
           style="fill:none;stroke:#000000"
           d="m 211.24842,1182.3236 -2.62559,1.0418"
           id="path12121" />
        <path
           style="fill:none;stroke:#000000"
           d="m 208.62283,1183.3654 -2.73897,0.7015"
           id="path12123" />
        <path
           style="fill:none;stroke:#000000"
           d="m 205.88386,1184.0669 -2.80276,0.3544"
           id="path12125" />
        <path
           style="fill:none;stroke:#000000"
           d="m 203.0811,1184.4213 -1.41378,0"
           id="path12127" />
        <path
           style="fill:none;stroke:#000000"
           d="m 201.66732,1184.4213 0,0.043"
           id="path12129" />
        <path
           style="fill:none;stroke:#000000"
           d="m 201.66732,1184.4638 -403.33464,0"
           id="path12131" />
        <path
           style="fill:none;stroke:#000000"
           d="m -201.66732,1184.4638 0,-0.043"
           id="path12133" />
        <path
           style="fill:none;stroke:#000000"
           d="m -201.66732,1184.4213 -1.41378,0"
           id="path12135" />
        <path
           style="fill:none;stroke:#000000"
           d="m -203.0811,1184.4213 -2.80276,-0.3544"
           id="path12137" />
        <path
           style="fill:none;stroke:#000000"
           d="m -205.88386,1184.0669 -2.73897,-0.7015"
           id="path12139" />
        <path
           style="fill:none;stroke:#000000"
           d="m -208.62283,1183.3654 -2.62559,-1.0418"
           id="path12141" />
        <path
           style="fill:none;stroke:#000000"
           d="m -211.24842,1182.3236 -2.47678,-1.3606"
           id="path12143" />
        <path
           style="fill:none;stroke:#000000"
           d="m -213.7252,1180.963 -2.28543,-1.6618"
           id="path12145" />
        <path
           style="fill:none;stroke:#000000"
           d="m -216.01063,1179.3012 -2.05866,-1.9347"
           id="path12147" />
        <path
           style="fill:none;stroke:#000000"
           d="m -218.06929,1177.3665 -1.80354,-2.1756"
           id="path12149" />
        <path
           style="fill:none;stroke:#000000"
           d="m -219.87283,1175.1909 -1.513,-2.3846"
           id="path12151" />
        <path
           style="fill:none;stroke:#000000"
           d="m -221.38583,1172.8063 -1.20118,-2.5583"
           id="path12153" />
        <path
           style="fill:none;stroke:#000000"
           d="m -222.58701,1170.248 -0.87519,-2.6858"
           id="path12155" />
        <path
           style="fill:none;stroke:#000000"
           d="m -223.4622,1167.5622 -0.52796,-2.7779"
           id="path12157" />
        <path
           style="fill:none;stroke:#000000"
           d="m -223.99016,1164.7843 -0.17716,-2.8205"
           id="path12159" />
        <path
           style="fill:none;stroke:#000000"
           d="m -194.01024,1150.8839 0.0425,-0.652"
           id="path12161" />
        <path
           style="fill:none;stroke:#000000"
           d="m -193.96772,1150.2319 0.12402,-0.6449"
           id="path12163" />
        <path
           style="fill:none;stroke:#000000"
           d="m -193.8437,1149.587 0.20197,-0.6236"
           id="path12165" />
        <path
           style="fill:none;stroke:#000000"
           d="m -193.64173,1148.9634 0.27992,-0.5917"
           id="path12167" />
        <path
           style="fill:none;stroke:#000000"
           d="m -193.36181,1148.3717 0.35079,-0.5563"
           id="path12169" />
        <path
           style="fill:none;stroke:#000000"
           d="m -193.01102,1147.8154 0.41811,-0.5032"
           id="path12171" />
        <path
           style="fill:none;stroke:#000000"
           d="m -192.59291,1147.3122 0.47834,-0.45"
           id="path12173" />
        <path
           style="fill:none;stroke:#000000"
           d="m -192.11457,1146.8622 0.52796,-0.3827"
           id="path12175" />
        <path
           style="fill:none;stroke:#000000"
           d="m -191.58661,1146.4795 0.57401,-0.3189"
           id="path12177" />
        <path
           style="fill:none;stroke:#000000"
           d="m -191.0126,1146.1606 0.60945,-0.2409"
           id="path12179" />
        <path
           style="fill:none;stroke:#000000"
           d="m -190.40315,1145.9197 0.6378,-0.163"
           id="path12181" />
        <path
           style="fill:none;stroke:#000000"
           d="m -189.76535,1145.7567 0.64842,-0.082"
           id="path12183" />
        <path
           style="fill:none;stroke:#000000"
           d="m -189.11693,1145.6752 0.65551,0"
           id="path12185" />
        <path
           style="fill:none;stroke:#000000"
           d="m -188.46142,1145.6752 0.65197,0.082"
           id="path12187" />
        <path
           style="fill:none;stroke:#000000"
           d="m -187.80945,1145.7567 0.63425,0.163"
           id="path12189" />
        <path
           style="fill:none;stroke:#000000"
           d="m -187.1752,1145.9197 0.60945,0.2409"
           id="path12191" />
        <path
           style="fill:none;stroke:#000000"
           d="m -186.56575,1146.1606 0.57402,0.3189"
           id="path12193" />
        <path
           style="fill:none;stroke:#000000"
           d="m -185.99173,1146.4795 0.53149,0.3827"
           id="path12195" />
        <path
           style="fill:none;stroke:#000000"
           d="m -185.46024,1146.8622 0.47835,0.45"
           id="path12197" />
        <path
           style="fill:none;stroke:#000000"
           d="m -184.98189,1147.3122 0.41811,0.5032"
           id="path12199" />
        <path
           style="fill:none;stroke:#000000"
           d="m -184.56378,1147.8154 0.35079,0.5563"
           id="path12201" />
        <path
           style="fill:none;stroke:#000000"
           d="m -184.21299,1148.3717 0.27638,0.5917"
           id="path12203" />
        <path
           style="fill:none;stroke:#000000"
           d="m -183.93661,1148.9634 0.20551,0.6236"
           id="path12205" />
        <path
           style="fill:none;stroke:#000000"
           d="m -183.7311,1149.587 0.12047,0.6449"
           id="path12207" />
        <path
           style="fill:none;stroke:#000000"
           d="m -183.61063,1150.2319 0.0425,0.652"
           id="path12209" />
        <path
           style="fill:none;stroke:#000000"
           d="m -183.56811,1150.8839 -0.0425,0.6555"
           id="path12211" />
        <path
           style="fill:none;stroke:#000000"
           d="m -183.61063,1151.5394 -0.12047,0.6449"
           id="path12213" />
        <path
           style="fill:none;stroke:#000000"
           d="m -183.7311,1152.1843 -0.20551,0.6236"
           id="path12215" />
        <path
           style="fill:none;stroke:#000000"
           d="m -183.93661,1152.8079 -0.27638,0.5917"
           id="path12217" />
        <path
           style="fill:none;stroke:#000000"
           d="m -184.21299,1153.3996 -0.35079,0.5528"
           id="path12219" />
        <path
           style="fill:none;stroke:#000000"
           d="m -184.56378,1153.9524 -0.41811,0.5067"
           id="path12221" />
        <path
           style="fill:none;stroke:#000000"
           d="m -184.98189,1154.4591 -0.47835,0.45"
           id="path12223" />
        <path
           style="fill:none;stroke:#000000"
           d="m -185.46024,1154.9091 -0.53149,0.3826"
           id="path12225" />
        <path
           style="fill:none;stroke:#000000"
           d="m -185.99173,1155.2917 -0.57402,0.3154"
           id="path12227" />
        <path
           style="fill:none;stroke:#000000"
           d="m -186.56575,1155.6071 -0.60945,0.2409"
           id="path12229" />
        <path
           style="fill:none;stroke:#000000"
           d="m -187.1752,1155.848 -0.63425,0.163"
           id="path12231" />
        <path
           style="fill:none;stroke:#000000"
           d="m -187.80945,1156.011 -0.65197,0.085"
           id="path12233" />
        <path
           style="fill:none;stroke:#000000"
           d="m -188.46142,1156.0961 -0.65551,0"
           id="path12235" />
        <path
           style="fill:none;stroke:#000000"
           d="m -189.11693,1156.0961 -0.64842,-0.085"
           id="path12237" />
        <path
           style="fill:none;stroke:#000000"
           d="m -189.76535,1156.011 -0.6378,-0.163"
           id="path12239" />
        <path
           style="fill:none;stroke:#000000"
           d="m -190.40315,1155.848 -0.60945,-0.2409"
           id="path12241" />
        <path
           style="fill:none;stroke:#000000"
           d="m -191.0126,1155.6071 -0.57401,-0.3154"
           id="path12243" />
        <path
           style="fill:none;stroke:#000000"
           d="m -191.58661,1155.2917 -0.52796,-0.3826"
           id="path12245" />
        <path
           style="fill:none;stroke:#000000"
           d="m -192.11457,1154.9091 -0.47834,-0.45"
           id="path12247" />
        <path
           style="fill:none;stroke:#000000"
           d="m -192.59291,1154.4591 -0.41811,-0.5067"
           id="path12249" />
        <path
           style="fill:none;stroke:#000000"
           d="m -193.01102,1153.9524 -0.35079,-0.5528"
           id="path12251" />
        <path
           style="fill:none;stroke:#000000"
           d="m -193.36181,1153.3996 -0.27992,-0.5917"
           id="path12253" />
        <path
           style="fill:none;stroke:#000000"
           d="m -193.64173,1152.8079 -0.20197,-0.6236"
           id="path12255" />
        <path
           style="fill:none;stroke:#000000"
           d="m -193.8437,1152.1843 -0.12402,-0.6449"
           id="path12257" />
        <path
           style="fill:none;stroke:#000000"
           d="m -193.96772,1151.5394 -0.0425,-0.6555"
           id="path12259" />
        <path
           style="fill:none;stroke:#000000"
           d="m -194.01024,953.84055 0.0425,-0.65551"
           id="path12261" />
        <path
           style="fill:none;stroke:#000000"
           d="m -193.96772,953.18504 0.12402,-0.64488"
           id="path12263" />
        <path
           style="fill:none;stroke:#000000"
           d="m -193.8437,952.54016 0.20197,-0.62363"
           id="path12265" />
        <path
           style="fill:none;stroke:#000000"
           d="m -193.64173,951.91653 0.27992,-0.59173"
           id="path12267" />
        <path
           style="fill:none;stroke:#000000"
           d="m -193.36181,951.3248 0.35079,-0.55275"
           id="path12269" />
        <path
           style="fill:none;stroke:#000000"
           d="m -193.01102,950.77205 0.41811,-0.5067"
           id="path12271" />
        <path
           style="fill:none;stroke:#000000"
           d="m -192.59291,950.26535 0.47834,-0.45"
           id="path12273" />
        <path
           style="fill:none;stroke:#000000"
           d="m -192.11457,949.81535 0.52796,-0.38267"
           id="path12275" />
        <path
           style="fill:none;stroke:#000000"
           d="m -191.58661,949.43268 0.57401,-0.31536"
           id="path12277" />
        <path
           style="fill:none;stroke:#000000"
           d="m -191.0126,949.11732 0.60945,-0.24094"
           id="path12279" />
        <path
           style="fill:none;stroke:#000000"
           d="m -190.40315,948.87638 0.6378,-0.16299"
           id="path12281" />
        <path
           style="fill:none;stroke:#000000"
           d="m -189.76535,948.71339 0.64842,-0.085"
           id="path12283" />
        <path
           style="fill:none;stroke:#000000"
           d="m -189.11693,948.62835 0.65551,0"
           id="path12285" />
        <path
           style="fill:none;stroke:#000000"
           d="m -188.46142,948.62835 0.65197,0.085"
           id="path12287" />
        <path
           style="fill:none;stroke:#000000"
           d="m -187.80945,948.71339 0.63425,0.16299"
           id="path12289" />
        <path
           style="fill:none;stroke:#000000"
           d="m -187.1752,948.87638 0.60945,0.24094"
           id="path12291" />
        <path
           style="fill:none;stroke:#000000"
           d="m -186.56575,949.11732 0.57402,0.31536"
           id="path12293" />
        <path
           style="fill:none;stroke:#000000"
           d="m -185.99173,949.43268 0.53149,0.38267"
           id="path12295" />
        <path
           style="fill:none;stroke:#000000"
           d="m -185.46024,949.81535 0.47835,0.45"
           id="path12297" />
        <path
           style="fill:none;stroke:#000000"
           d="m -184.98189,950.26535 0.41811,0.5067"
           id="path12299" />
        <path
           style="fill:none;stroke:#000000"
           d="m -184.56378,950.77205 0.35079,0.55275"
           id="path12301" />
        <path
           style="fill:none;stroke:#000000"
           d="m -184.21299,951.3248 0.27638,0.59173"
           id="path12303" />
        <path
           style="fill:none;stroke:#000000"
           d="m -183.93661,951.91653 0.20551,0.62363"
           id="path12305" />
        <path
           style="fill:none;stroke:#000000"
           d="m -183.7311,952.54016 0.12047,0.64488"
           id="path12307" />
        <path
           style="fill:none;stroke:#000000"
           d="m -183.61063,953.18504 0.0425,0.65551"
           id="path12309" />
        <path
           style="fill:none;stroke:#000000"
           d="m -183.56811,953.84055 -0.0425,0.65197"
           id="path12311" />
        <path
           style="fill:none;stroke:#000000"
           d="m -183.61063,954.49252 -0.12047,0.64488"
           id="path12313" />
        <path
           style="fill:none;stroke:#000000"
           d="m -183.7311,955.1374 -0.20551,0.62362"
           id="path12315" />
        <path
           style="fill:none;stroke:#000000"
           d="m -183.93661,955.76102 -0.27638,0.59174"
           id="path12317" />
        <path
           style="fill:none;stroke:#000000"
           d="m -184.21299,956.35276 -0.35079,0.55629"
           id="path12319" />
        <path
           style="fill:none;stroke:#000000"
           d="m -184.56378,956.90905 -0.41811,0.50315"
           id="path12321" />
        <path
           style="fill:none;stroke:#000000"
           d="m -184.98189,957.4122 -0.47835,0.45001"
           id="path12323" />
        <path
           style="fill:none;stroke:#000000"
           d="m -185.46024,957.86221 -0.53149,0.38267"
           id="path12325" />
        <path
           style="fill:none;stroke:#000000"
           d="m -185.99173,958.24488 -0.57402,0.3189"
           id="path12327" />
        <path
           style="fill:none;stroke:#000000"
           d="m -186.56575,958.56378 -0.60945,0.24094"
           id="path12329" />
        <path
           style="fill:none;stroke:#000000"
           d="m -187.1752,958.80472 -0.63425,0.163"
           id="path12331" />
        <path
           style="fill:none;stroke:#000000"
           d="m -187.80945,958.96772 -0.65197,0.0815"
           id="path12333" />
        <path
           style="fill:none;stroke:#000000"
           d="m -188.46142,959.04921 -0.65551,0"
           id="path12335" />
        <path
           style="fill:none;stroke:#000000"
           d="m -189.11693,959.04921 -0.64842,-0.0815"
           id="path12337" />
        <path
           style="fill:none;stroke:#000000"
           d="m -189.76535,958.96772 -0.6378,-0.163"
           id="path12339" />
        <path
           style="fill:none;stroke:#000000"
           d="m -190.40315,958.80472 -0.60945,-0.24094"
           id="path12341" />
        <path
           style="fill:none;stroke:#000000"
           d="m -191.0126,958.56378 -0.57401,-0.3189"
           id="path12343" />
        <path
           style="fill:none;stroke:#000000"
           d="m -191.58661,958.24488 -0.52796,-0.38267"
           id="path12345" />
        <path
           style="fill:none;stroke:#000000"
           d="m -192.11457,957.86221 -0.47834,-0.45001"
           id="path12347" />
        <path
           style="fill:none;stroke:#000000"
           d="m -192.59291,957.4122 -0.41811,-0.50315"
           id="path12349" />
        <path
           style="fill:none;stroke:#000000"
           d="m -193.01102,956.90905 -0.35079,-0.55629"
           id="path12351" />
        <path
           style="fill:none;stroke:#000000"
           d="m -193.36181,956.35276 -0.27992,-0.59174"
           id="path12353" />
        <path
           style="fill:none;stroke:#000000"
           d="m -193.64173,955.76102 -0.20197,-0.62362"
           id="path12355" />
        <path
           style="fill:none;stroke:#000000"
           d="m -193.8437,955.1374 -0.12402,-0.64488"
           id="path12357" />
        <path
           style="fill:none;stroke:#000000"
           d="m -193.96772,954.49252 -0.0425,-0.65197"
           id="path12359" />
        <path
           style="fill:none;stroke:#000000"
           d="m 183.56811,1150.8839 0.0425,-0.652"
           id="path12361" />
        <path
           style="fill:none;stroke:#000000"
           d="m 183.61063,1150.2319 0.12047,-0.6449"
           id="path12363" />
        <path
           style="fill:none;stroke:#000000"
           d="m 183.7311,1149.587 0.20551,-0.6236"
           id="path12365" />
        <path
           style="fill:none;stroke:#000000"
           d="m 183.93661,1148.9634 0.27638,-0.5917"
           id="path12367" />
        <path
           style="fill:none;stroke:#000000"
           d="m 184.21299,1148.3717 0.35079,-0.5563"
           id="path12369" />
        <path
           style="fill:none;stroke:#000000"
           d="m 184.56378,1147.8154 0.41811,-0.5032"
           id="path12371" />
        <path
           style="fill:none;stroke:#000000"
           d="m 184.98189,1147.3122 0.47835,-0.45"
           id="path12373" />
        <path
           style="fill:none;stroke:#000000"
           d="m 185.46024,1146.8622 0.53149,-0.3827"
           id="path12375" />
        <path
           style="fill:none;stroke:#000000"
           d="m 185.99173,1146.4795 0.57402,-0.3189"
           id="path12377" />
        <path
           style="fill:none;stroke:#000000"
           d="m 186.56575,1146.1606 0.60945,-0.2409"
           id="path12379" />
        <path
           style="fill:none;stroke:#000000"
           d="m 187.1752,1145.9197 0.63425,-0.163"
           id="path12381" />
        <path
           style="fill:none;stroke:#000000"
           d="m 187.80945,1145.7567 0.65197,-0.082"
           id="path12383" />
        <path
           style="fill:none;stroke:#000000"
           d="m 188.46142,1145.6752 0.65551,0"
           id="path12385" />
        <path
           style="fill:none;stroke:#000000"
           d="m 189.11693,1145.6752 0.64842,0.082"
           id="path12387" />
        <path
           style="fill:none;stroke:#000000"
           d="m 189.76535,1145.7567 0.6378,0.163"
           id="path12389" />
        <path
           style="fill:none;stroke:#000000"
           d="m 190.40315,1145.9197 0.60945,0.2409"
           id="path12391" />
        <path
           style="fill:none;stroke:#000000"
           d="m 191.0126,1146.1606 0.57401,0.3189"
           id="path12393" />
        <path
           style="fill:none;stroke:#000000"
           d="m 191.58661,1146.4795 0.52796,0.3827"
           id="path12395" />
        <path
           style="fill:none;stroke:#000000"
           d="m 192.11457,1146.8622 0.47834,0.45"
           id="path12397" />
        <path
           style="fill:none;stroke:#000000"
           d="m 192.59291,1147.3122 0.41811,0.5032"
           id="path12399" />
        <path
           style="fill:none;stroke:#000000"
           d="m 193.01102,1147.8154 0.35079,0.5563"
           id="path12401" />
        <path
           style="fill:none;stroke:#000000"
           d="m 193.36181,1148.3717 0.27992,0.5917"
           id="path12403" />
        <path
           style="fill:none;stroke:#000000"
           d="m 193.64173,1148.9634 0.20197,0.6236"
           id="path12405" />
        <path
           style="fill:none;stroke:#000000"
           d="m 193.8437,1149.587 0.12402,0.6449"
           id="path12407" />
        <path
           style="fill:none;stroke:#000000"
           d="m 193.96772,1150.2319 0.0425,0.652"
           id="path12409" />
        <path
           style="fill:none;stroke:#000000"
           d="m 194.01024,1150.8839 -0.0425,0.6555"
           id="path12411" />
        <path
           style="fill:none;stroke:#000000"
           d="m 193.96772,1151.5394 -0.12402,0.6449"
           id="path12413" />
        <path
           style="fill:none;stroke:#000000"
           d="m 193.8437,1152.1843 -0.20197,0.6236"
           id="path12415" />
        <path
           style="fill:none;stroke:#000000"
           d="m 193.64173,1152.8079 -0.27992,0.5917"
           id="path12417" />
        <path
           style="fill:none;stroke:#000000"
           d="m 193.36181,1153.3996 -0.35079,0.5528"
           id="path12419" />
        <path
           style="fill:none;stroke:#000000"
           d="m 193.01102,1153.9524 -0.41811,0.5067"
           id="path12421" />
        <path
           style="fill:none;stroke:#000000"
           d="m 192.59291,1154.4591 -0.47834,0.45"
           id="path12423" />
        <path
           style="fill:none;stroke:#000000"
           d="m 192.11457,1154.9091 -0.52796,0.3826"
           id="path12425" />
        <path
           style="fill:none;stroke:#000000"
           d="m 191.58661,1155.2917 -0.57401,0.3154"
           id="path12427" />
        <path
           style="fill:none;stroke:#000000"
           d="m 191.0126,1155.6071 -0.60945,0.2409"
           id="path12429" />
        <path
           style="fill:none;stroke:#000000"
           d="m 190.40315,1155.848 -0.6378,0.163"
           id="path12431" />
        <path
           style="fill:none;stroke:#000000"
           d="m 189.76535,1156.011 -0.64842,0.085"
           id="path12433" />
        <path
           style="fill:none;stroke:#000000"
           d="m 189.11693,1156.0961 -0.65551,0"
           id="path12435" />
        <path
           style="fill:none;stroke:#000000"
           d="m 188.46142,1156.0961 -0.65197,-0.085"
           id="path12437" />
        <path
           style="fill:none;stroke:#000000"
           d="m 187.80945,1156.011 -0.63425,-0.163"
           id="path12439" />
        <path
           style="fill:none;stroke:#000000"
           d="m 187.1752,1155.848 -0.60945,-0.2409"
           id="path12441" />
        <path
           style="fill:none;stroke:#000000"
           d="m 186.56575,1155.6071 -0.57402,-0.3154"
           id="path12443" />
        <path
           style="fill:none;stroke:#000000"
           d="m 185.99173,1155.2917 -0.53149,-0.3826"
           id="path12445" />
        <path
           style="fill:none;stroke:#000000"
           d="m 185.46024,1154.9091 -0.47835,-0.45"
           id="path12447" />
        <path
           style="fill:none;stroke:#000000"
           d="m 184.98189,1154.4591 -0.41811,-0.5067"
           id="path12449" />
        <path
           style="fill:none;stroke:#000000"
           d="m 184.56378,1153.9524 -0.35079,-0.5528"
           id="path12451" />
        <path
           style="fill:none;stroke:#000000"
           d="m 184.21299,1153.3996 -0.27638,-0.5917"
           id="path12453" />
        <path
           style="fill:none;stroke:#000000"
           d="m 183.93661,1152.8079 -0.20551,-0.6236"
           id="path12455" />
        <path
           style="fill:none;stroke:#000000"
           d="m 183.7311,1152.1843 -0.12047,-0.6449"
           id="path12457" />
        <path
           style="fill:none;stroke:#000000"
           d="m 183.61063,1151.5394 -0.0425,-0.6555"
           id="path12459" />
        <path
           style="fill:none;stroke:#000000"
           d="m 183.56811,953.84055 0.0425,-0.65551"
           id="path12461" />
        <path
           style="fill:none;stroke:#000000"
           d="m 183.61063,953.18504 0.12047,-0.64488"
           id="path12463" />
        <path
           style="fill:none;stroke:#000000"
           d="m 183.7311,952.54016 0.20551,-0.62363"
           id="path12465" />
        <path
           style="fill:none;stroke:#000000"
           d="m 183.93661,951.91653 0.27638,-0.59173"
           id="path12467" />
        <path
           style="fill:none;stroke:#000000"
           d="m 184.21299,951.3248 0.35079,-0.55275"
           id="path12469" />
        <path
           style="fill:none;stroke:#000000"
           d="m 184.56378,950.77205 0.41811,-0.5067"
           id="path12471" />
        <path
           style="fill:none;stroke:#000000"
           d="m 184.98189,950.26535 0.47835,-0.45"
           id="path12473" />
        <path
           style="fill:none;stroke:#000000"
           d="m 185.46024,949.81535 0.53149,-0.38267"
           id="path12475" />
        <path
           style="fill:none;stroke:#000000"
           d="m 185.99173,949.43268 0.57402,-0.31536"
           id="path12477" />
        <path
           style="fill:none;stroke:#000000"
           d="m 186.56575,949.11732 0.60945,-0.24094"
           id="path12479" />
        <path
           style="fill:none;stroke:#000000"
           d="m 187.1752,948.87638 0.63425,-0.16299"
           id="path12481" />
        <path
           style="fill:none;stroke:#000000"
           d="m 187.80945,948.71339 0.65197,-0.085"
           id="path12483" />
        <path
           style="fill:none;stroke:#000000"
           d="m 188.46142,948.62835 0.65551,0"
           id="path12485" />
        <path
           style="fill:none;stroke:#000000"
           d="m 189.11693,948.62835 0.64842,0.085"
           id="path12487" />
        <path
           style="fill:none;stroke:#000000"
           d="m 189.76535,948.71339 0.6378,0.16299"
           id="path12489" />
        <path
           style="fill:none;stroke:#000000"
           d="m 190.40315,948.87638 0.60945,0.24094"
           id="path12491" />
        <path
           style="fill:none;stroke:#000000"
           d="m 191.0126,949.11732 0.57401,0.31536"
           id="path12493" />
        <path
           style="fill:none;stroke:#000000"
           d="m 191.58661,949.43268 0.52796,0.38267"
           id="path12495" />
        <path
           style="fill:none;stroke:#000000"
           d="m 192.11457,949.81535 0.47834,0.45"
           id="path12497" />
        <path
           style="fill:none;stroke:#000000"
           d="m 192.59291,950.26535 0.41811,0.5067"
           id="path12499" />
        <path
           style="fill:none;stroke:#000000"
           d="m 193.01102,950.77205 0.35079,0.55275"
           id="path12501" />
        <path
           style="fill:none;stroke:#000000"
           d="m 193.36181,951.3248 0.27992,0.59173"
           id="path12503" />
        <path
           style="fill:none;stroke:#000000"
           d="m 193.64173,951.91653 0.20197,0.62363"
           id="path12505" />
        <path
           style="fill:none;stroke:#000000"
           d="m 193.8437,952.54016 0.12402,0.64488"
           id="path12507" />
        <path
           style="fill:none;stroke:#000000"
           d="m 193.96772,953.18504 0.0425,0.65551"
           id="path12509" />
        <path
           style="fill:none;stroke:#000000"
           d="m 194.01024,953.84055 -0.0425,0.65197"
           id="path12511" />
        <path
           style="fill:none;stroke:#000000"
           d="m 193.96772,954.49252 -0.12402,0.64488"
           id="path12513" />
        <path
           style="fill:none;stroke:#000000"
           d="m 193.8437,955.1374 -0.20197,0.62362"
           id="path12515" />
        <path
           style="fill:none;stroke:#000000"
           d="m 193.64173,955.76102 -0.27992,0.59174"
           id="path12517" />
        <path
           style="fill:none;stroke:#000000"
           d="m 193.36181,956.35276 -0.35079,0.55629"
           id="path12519" />
        <path
           style="fill:none;stroke:#000000"
           d="m 193.01102,956.90905 -0.41811,0.50315"
           id="path12521" />
        <path
           style="fill:none;stroke:#000000"
           d="m 192.59291,957.4122 -0.47834,0.45001"
           id="path12523" />
        <path
           style="fill:none;stroke:#000000"
           d="m 192.11457,957.86221 -0.52796,0.38267"
           id="path12525" />
        <path
           style="fill:none;stroke:#000000"
           d="m 191.58661,958.24488 -0.57401,0.3189"
           id="path12527" />
        <path
           style="fill:none;stroke:#000000"
           d="m 191.0126,958.56378 -0.60945,0.24094"
           id="path12529" />
        <path
           style="fill:none;stroke:#000000"
           d="m 190.40315,958.80472 -0.6378,0.163"
           id="path12531" />
        <path
           style="fill:none;stroke:#000000"
           d="m 189.76535,958.96772 -0.64842,0.0815"
           id="path12533" />
        <path
           style="fill:none;stroke:#000000"
           d="m 189.11693,959.04921 -0.65551,0"
           id="path12535" />
        <path
           style="fill:none;stroke:#000000"
           d="m 188.46142,959.04921 -0.65197,-0.0815"
           id="path12537" />
        <path
           style="fill:none;stroke:#000000"
           d="m 187.80945,958.96772 -0.63425,-0.163"
           id="path12539" />
        <path
           style="fill:none;stroke:#000000"
           d="m 187.1752,958.80472 -0.60945,-0.24094"
           id="path12541" />
        <path
           style="fill:none;stroke:#000000"
           d="m 186.56575,958.56378 -0.57402,-0.3189"
           id="path12543" />
        <path
           style="fill:none;stroke:#000000"
           d="m 185.99173,958.24488 -0.53149,-0.38267"
           id="path12545" />
        <path
           style="fill:none;stroke:#000000"
           d="m 185.46024,957.86221 -0.47835,-0.45001"
           id="path12547" />
        <path
           style="fill:none;stroke:#000000"
           d="m 184.98189,957.4122 -0.41811,-0.50315"
           id="path12549" />
        <path
           style="fill:none;stroke:#000000"
           d="m 184.56378,956.90905 -0.35079,-0.55629"
           id="path12551" />
        <path
           style="fill:none;stroke:#000000"
           d="m 184.21299,956.35276 -0.27638,-0.59174"
           id="path12553" />
        <path
           style="fill:none;stroke:#000000"
           d="M 183.93661,955.76102 183.7311,955.1374"
           id="path12555" />
        <path
           style="fill:none;stroke:#000000"
           d="m 183.7311,955.1374 -0.12047,-0.64488"
           id="path12557" />
        <path
           style="fill:none;stroke:#000000"
           d="m 183.61063,954.49252 -0.0425,-0.65197"
           id="path12559" />
      </g>
      <g
         transform="translate(3.1531103,-285.35587)"
         id="g14322">
        <text
           xml:space="preserve"
           style="font-size:12px;font-style:normal;font-weight:normal;fill:#000000;fill-opacity:1;stroke:none;font-family:Bitstream Vera Sans"
           x="-531.68018"
           y="506.09616"
           id="text3289"
           transform="matrix(0,-1,1,0,0,0)"><tspan
             sodipodi:role="line"
             x="-525.68408"
             y="506.09616"
             style="font-size:20px;font-style:normal;font-variant:normal;font-weight:bold;font-stretch:normal;text-align:center;text-anchor:middle;fill:#ff0000;font-family:Liberation Mono;-inkscape-font-specification:Liberation Mono Bold"
             id="tspan3293">Blue LED </tspan><tspan
             sodipodi:role="line"
             x="-531.68018"
             y="531.09613"
             style="font-size:20px;font-style:normal;font-variant:normal;font-weight:bold;font-stretch:normal;text-align:center;text-anchor:middle;fill:#ff0000;font-family:Liberation Mono;-inkscape-font-specification:Liberation Mono Bold"
             id="tspan6483">Transilluminator</tspan><tspan
             sodipodi:role="line"
             x="-531.68018"
             y="556.09613"
             style="font-size:20px;font-style:normal;font-variant:normal;font-weight:bold;font-stretch:normal;text-align:center;text-anchor:middle;fill:#ff0000;font-family:Liberation Mono;-inkscape-font-specification:Liberation Mono Bold"
             id="tspan3295" /></text>
        <text
           xml:space="preserve"
           style="font-size:12px;font-style:normal;font-weight:normal;fill:#000000;fill-opacity:1;stroke:none;font-family:Bitstream Vera Sans"
           x="-532.48682"
           y="198.70053"
           id="text3289-0"
           transform="matrix(0,-1,1,0,0,0)"><tspan
             sodipodi:role="line"
             x="-532.48682"
             y="198.70053"
             style="font-size:24px;font-style:normal;font-variant:normal;font-weight:bold;font-stretch:normal;text-align:center;text-anchor:middle;fill:#ff0000;font-family:Liberation Mono;-inkscape-font-specification:Liberation Mono Bold"
             id="tspan3295-3">IO Rodeo</tspan></text>
      </g>
    </g>
  </g>
</svg>
