999
DXF created by Inkscape
  0
SECTION
  2
HEADER
  9
$ACADVER
  1
AC1014
  9
$HANDSEED
  5
FFFF
  9
$MEASUREMENT
 70
     1
  0
ENDSEC
  0
SECTION
  2
TABLES
  0
TABLE
  2
VPORT
  5
8
330
0
100
AcDbSymbolTable
 70
     4
  0
VPORT
  5
2E
330
8
100
AcDbSymbolTableRecord
100
AcDbViewportTableRecord
  2
*ACTIVE
 70
     0
 10
0.0
 20
0.0
 11
1.0
 21
1.0
 12
210.0
 22
148.5
 13
0.0
 23
0.0
 14
10.0
 24
10.0
 15
10.0
 25
10.0
 16
0.0
 26
0.0
 36
1.0
 17
0.0
 27
0.0
 37
0.0
 40
341.0
 41
1.24
 42
50.0
 43
0.0
 44
0.0
 50
0.0
 51
0.0
 71
     0
 72
   100
 73
     1
 74
     3
 75
     0
 76
     0
 77
     0
 78
     0
  0
ENDTAB
  0
TABLE
  2
LTYPE
  5
5
330
0
100
AcDbSymbolTable
 70
     1
  0
LTYPE
  5
14
330
5
100
AcDbSymbolTableRecord
100
AcDbLinetypeTableRecord
  2
BYBLOCK
 70
     0
  3

 72
    65
 73
     0
 40
0.0
  0
LTYPE
  5
15
330
5
100
AcDbSymbolTableRecord
100
AcDbLinetypeTableRecord
  2
BYLAYER
 70
     0
  3

 72
    65
 73
     0
 40
0.0
  0
LTYPE
  5
16
330
5
100
AcDbSymbolTableRecord
100
AcDbLinetypeTableRecord
  2
CONTINUOUS
 70
     0
  3
Solid line
 72
    65
 73
     0
 40
0.0
  0
ENDTAB
  0
TABLE
  2
LAYER
  5
2
330
0
100
AcDbSymbolTable
 70
1
  0
LAYER
  5
10
330
2
100
AcDbSymbolTableRecord
100
AcDbLayerTableRecord
  2
0
 70
     0
 62
     7
  6
CONTINUOUS
  0
ENDTAB
  0
TABLE
  2
STYLE
  5
3
330
0
100
AcDbSymbolTable
 70
     1
  0
STYLE
  5
11
330
3
100
AcDbSymbolTableRecord
100
AcDbTextStyleTableRecord
  2
STANDARD
 70
     0
 40
0.0
 41
1.0
 50
0.0
 71
     0
 42
2.5
  3
txt
  4

  0
ENDTAB
  0
TABLE
  2
VIEW
  5
6
330
0
100
AcDbSymbolTable
 70
     0
  0
ENDTAB
  0
TABLE
  2
UCS
  5
7
330
0
100
AcDbSymbolTable
 70
     0
  0
ENDTAB
  0
TABLE
  2
APPID
  5
9
330
0
100
AcDbSymbolTable
 70
     2
  0
APPID
  5
12
330
9
100
AcDbSymbolTableRecord
100
AcDbRegAppTableRecord
  2
ACAD
 70
     0
  0
ENDTAB
  0
TABLE
  2
DIMSTYLE
  5
A
330
0
100
AcDbSymbolTable
 70
     1
  0
DIMSTYLE
105
27
330
A
100
AcDbSymbolTableRecord
100
AcDbDimStyleTableRecord
  2
ISO-25
 70
     0
  3

  4

  5

  6

  7

 40
1.0
 41
2.5
 42
0.625
 43
3.75
 44
1.25
 45
0.0
 46
0.0
 47
0.0
 48
0.0
140
2.5
141
2.5
142
0.0
143
0.03937007874016
144
1.0
145
0.0
146
1.0
147
0.625
 71
     0
 72
     0
 73
     0
 74
     0
 75
     0
 76
     0
 77
     1
 78
     8
170
     0
171
     3
172
     1
173
     0
174
     0
175
     0
176
     0
177
     0
178
     0
270
     2
271
     2
272
     2
273
     2
274
     3
340
11
275
     0
280
     0
281
     0
282
     0
283
     0
284
     8
285
     0
286
     0
287
     3
288
     0
  0
ENDTAB
  0
TABLE
  2
BLOCK_RECORD
  5
1
330
0
100
AcDbSymbolTable
 70
     1
  0
BLOCK_RECORD
  5
1F
330
1
100
AcDbSymbolTableRecord
100
AcDbBlockTableRecord
  2
*MODEL_SPACE
  0
BLOCK_RECORD
  5
1B
330
1
100
AcDbSymbolTableRecord
100
AcDbBlockTableRecord
  2
*PAPER_SPACE
  0
ENDTAB
  0
ENDSEC
  0
SECTION
  2
BLOCKS
  0
BLOCK
  5
20
330
1F
100
AcDbEntity
  8
0
100
AcDbBlockBegin
  2
*MODEL_SPACE
 70
     0
 10
0.0
 20
0.0
 30
0.0
  3
*MODEL_SPACE
  1

  0
ENDBLK
  5
21
330
1F
100
AcDbEntity
  8
0
100
AcDbBlockEnd
  0
BLOCK
  5
1C
330
1B
100
AcDbEntity
 67
     1
  8
0
100
AcDbBlockBegin
  2
*PAPER_SPACE
  1

  0
ENDBLK
  5
1D
330
1B
100
AcDbEntity
 67
     1
  8
0
100
AcDbBlockEnd
  0
ENDSEC
  0
SECTION
  2
ENTITIES
  0
LWPOLYLINE
  5
100
100
AcDbEntity
  8
0
 62
7
100
AcDbPolyline
 90
2
 70
0
 10
0.846667
 20
29.068889
 30
0.0
 10
-0.846667
 20
27.375556
 30
0.0
  0
LWPOLYLINE
  5
101
100
AcDbEntity
  8
0
 62
7
100
AcDbPolyline
 90
2
 70
0
 10
0.000000
 20
29.633333
 30
0.0
 10
0.000000
 20
26.811111
 30
0.0
  0
LWPOLYLINE
  5
102
100
AcDbEntity
  8
0
 62
7
100
AcDbPolyline
 90
61
 70
0
 10
36.154490
 20
-147.434356
 30
0.0
 10
36.154490
 20
-85.570356
 30
0.0
 10
36.204488
 20
-84.774357
 30
0.0
 10
36.353490
 20
-83.990358
 30
0.0
 10
36.600488
 20
-83.232357
 30
0.0
 10
36.939488
 20
-82.510356
 30
0.0
 10
37.366490
 20
-81.837358
 30
0.0
 10
37.875489
 20
-81.223358
 30
0.0
 10
38.456489
 20
-80.677357
 30
0.0
 10
39.101488
 20
-80.208357
 30
0.0
 10
39.800490
 20
-79.824357
 30
0.0
 10
40.541490
 20
-79.530358
 30
0.0
 10
41.314489
 20
-79.332356
 30
0.0
 10
42.105490
 20
-79.232356
 30
0.0
 10
42.504490
 20
-79.232356
 30
0.0
 10
42.504490
 20
-79.220362
 30
0.0
 10
156.334488
 20
-79.220356
 30
0.0
 10
156.334488
 20
-79.232351
 30
0.0
 10
156.733488
 20
-79.232356
 30
0.0
 10
157.524490
 20
-79.332356
 30
0.0
 10
158.297491
 20
-79.530358
 30
0.0
 10
159.038490
 20
-79.824357
 30
0.0
 10
159.737490
 20
-80.208357
 30
0.0
 10
160.382489
 20
-80.677357
 30
0.0
 10
160.963489
 20
-81.223358
 30
0.0
 10
161.472491
 20
-81.837358
 30
0.0
 10
161.899490
 20
-82.510356
 30
0.0
 10
162.238490
 20
-83.232357
 30
0.0
 10
162.485491
 20
-83.990358
 30
0.0
 10
162.634490
 20
-84.774357
 30
0.0
 10
162.684488
 20
-85.570356
 30
0.0
 10
162.684488
 20
-147.434356
 30
0.0
 10
162.634490
 20
-148.230359
 30
0.0
 10
162.485491
 20
-149.014358
 30
0.0
 10
162.238490
 20
-149.772356
 30
0.0
 10
161.899490
 20
-150.494357
 30
0.0
 10
161.472491
 20
-151.167358
 30
0.0
 10
160.963489
 20
-151.781358
 30
0.0
 10
160.382489
 20
-152.327356
 30
0.0
 10
159.737490
 20
-152.796359
 30
0.0
 10
159.038490
 20
-153.180359
 30
0.0
 10
158.297491
 20
-153.474358
 30
0.0
 10
157.524490
 20
-153.672357
 30
0.0
 10
156.733488
 20
-153.772356
 30
0.0
 10
156.334488
 20
-153.772356
 30
0.0
 10
156.334488
 20
-153.784351
 30
0.0
 10
42.504490
 20
-153.784356
 30
0.0
 10
42.504490
 20
-153.772362
 30
0.0
 10
42.105490
 20
-153.772356
 30
0.0
 10
41.314489
 20
-153.672357
 30
0.0
 10
40.541490
 20
-153.474358
 30
0.0
 10
39.800490
 20
-153.180359
 30
0.0
 10
39.101488
 20
-152.796359
 30
0.0
 10
38.456489
 20
-152.327356
 30
0.0
 10
37.875489
 20
-151.781358
 30
0.0
 10
37.366490
 20
-151.167358
 30
0.0
 10
36.939488
 20
-150.494357
 30
0.0
 10
36.600488
 20
-149.772356
 30
0.0
 10
36.353490
 20
-149.014358
 30
0.0
 10
36.204488
 20
-148.230359
 30
0.0
 10
36.154490
 20
-147.434356
 30
0.0
  0
LWPOLYLINE
  5
103
100
AcDbEntity
  8
0
 62
7
100
AcDbPolyline
 90
5
 70
0
 10
38.694490
 20
-140.477359
 30
0.0
 10
38.694490
 20
-127.777359
 30
0.0
 10
41.694489
 20
-127.777359
 30
0.0
 10
41.694489
 20
-140.477359
 30
0.0
 10
38.694490
 20
-140.477359
 30
0.0
  0
LWPOLYLINE
  5
104
100
AcDbEntity
  8
0
 62
7
100
AcDbPolyline
 90
5
 70
0
 10
38.694490
 20
-105.227357
 30
0.0
 10
38.694490
 20
-92.527357
 30
0.0
 10
41.694489
 20
-92.527357
 30
0.0
 10
41.694489
 20
-105.227357
 30
0.0
 10
38.694490
 20
-105.227357
 30
0.0
  0
LWPOLYLINE
  5
105
100
AcDbEntity
  8
0
 62
7
100
AcDbPolyline
 90
51
 70
0
 10
44.665491
 20
-144.307357
 30
0.0
 10
44.677485
 20
-144.123356
 30
0.0
 10
44.712489
 20
-143.941357
 30
0.0
 10
44.769490
 20
-143.765357
 30
0.0
 10
44.848489
 20
-143.598358
 30
0.0
 10
44.947490
 20
-143.441358
 30
0.0
 10
45.065490
 20
-143.299358
 30
0.0
 10
45.200488
 20
-143.172358
 30
0.0
 10
45.349490
 20
-143.064357
 30
0.0
 10
45.511489
 20
-142.974356
 30
0.0
 10
45.683489
 20
-142.906358
 30
0.0
 10
45.863490
 20
-142.860358
 30
0.0
 10
46.046489
 20
-142.837357
 30
0.0
 10
46.231488
 20
-142.837357
 30
0.0
 10
46.415489
 20
-142.860358
 30
0.0
 10
46.594488
 20
-142.906358
 30
0.0
 10
46.766488
 20
-142.974356
 30
0.0
 10
46.928490
 20
-143.064357
 30
0.0
 10
47.078491
 20
-143.172358
 30
0.0
 10
47.213489
 20
-143.299358
 30
0.0
 10
47.331489
 20
-143.441358
 30
0.0
 10
47.430490
 20
-143.598358
 30
0.0
 10
47.508490
 20
-143.765357
 30
0.0
 10
47.566490
 20
-143.941357
 30
0.0
 10
47.600489
 20
-144.123356
 30
0.0
 10
47.612483
 20
-144.307357
 30
0.0
 10
47.600495
 20
-144.492356
 30
0.0
 10
47.566490
 20
-144.674359
 30
0.0
 10
47.508490
 20
-144.850358
 30
0.0
 10
47.430490
 20
-145.017357
 30
0.0
 10
47.331489
 20
-145.173359
 30
0.0
 10
47.213489
 20
-145.316358
 30
0.0
 10
47.078491
 20
-145.443358
 30
0.0
 10
46.928490
 20
-145.551358
 30
0.0
 10
46.766488
 20
-145.640357
 30
0.0
 10
46.594488
 20
-145.708356
 30
0.0
 10
46.415489
 20
-145.754358
 30
0.0
 10
46.231488
 20
-145.778347
 30
0.0
 10
46.046489
 20
-145.778358
 30
0.0
 10
45.863490
 20
-145.754369
 30
0.0
 10
45.683489
 20
-145.708356
 30
0.0
 10
45.511489
 20
-145.640357
 30
0.0
 10
45.349490
 20
-145.551358
 30
0.0
 10
45.200488
 20
-145.443358
 30
0.0
 10
45.065490
 20
-145.316358
 30
0.0
 10
44.947490
 20
-145.173359
 30
0.0
 10
44.848489
 20
-145.017357
 30
0.0
 10
44.769490
 20
-144.850358
 30
0.0
 10
44.712489
 20
-144.674359
 30
0.0
 10
44.677488
 20
-144.492356
 30
0.0
 10
44.665494
 20
-144.307357
 30
0.0
  0
LWPOLYLINE
  5
106
100
AcDbEntity
  8
0
 62
7
100
AcDbPolyline
 90
51
 70
0
 10
44.665491
 20
-88.697356
 30
0.0
 10
44.677485
 20
-88.512356
 30
0.0
 10
44.712489
 20
-88.330357
 30
0.0
 10
44.769490
 20
-88.154358
 30
0.0
 10
44.848489
 20
-87.987358
 30
0.0
 10
44.947490
 20
-87.831357
 30
0.0
 10
45.065490
 20
-87.688358
 30
0.0
 10
45.200488
 20
-87.561358
 30
0.0
 10
45.349490
 20
-87.453357
 30
0.0
 10
45.511489
 20
-87.364358
 30
0.0
 10
45.683489
 20
-87.296357
 30
0.0
 10
45.863490
 20
-87.250357
 30
0.0
 10
46.046489
 20
-87.226369
 30
0.0
 10
46.231488
 20
-87.226357
 30
0.0
 10
46.415489
 20
-87.250346
 30
0.0
 10
46.594488
 20
-87.296357
 30
0.0
 10
46.766488
 20
-87.364358
 30
0.0
 10
46.928490
 20
-87.453357
 30
0.0
 10
47.078491
 20
-87.561358
 30
0.0
 10
47.213489
 20
-87.688358
 30
0.0
 10
47.331489
 20
-87.831357
 30
0.0
 10
47.430490
 20
-87.987358
 30
0.0
 10
47.508490
 20
-88.154358
 30
0.0
 10
47.566490
 20
-88.330357
 30
0.0
 10
47.600489
 20
-88.512356
 30
0.0
 10
47.612483
 20
-88.697356
 30
0.0
 10
47.600495
 20
-88.881356
 30
0.0
 10
47.566490
 20
-89.063359
 30
0.0
 10
47.508490
 20
-89.239358
 30
0.0
 10
47.430490
 20
-89.406357
 30
0.0
 10
47.331489
 20
-89.563358
 30
0.0
 10
47.213489
 20
-89.705358
 30
0.0
 10
47.078491
 20
-89.832358
 30
0.0
 10
46.928490
 20
-89.940359
 30
0.0
 10
46.766488
 20
-90.030356
 30
0.0
 10
46.594488
 20
-90.098358
 30
0.0
 10
46.415489
 20
-90.144357
 30
0.0
 10
46.231488
 20
-90.167358
 30
0.0
 10
46.046489
 20
-90.167358
 30
0.0
 10
45.863490
 20
-90.144357
 30
0.0
 10
45.683489
 20
-90.098358
 30
0.0
 10
45.511489
 20
-90.030356
 30
0.0
 10
45.349490
 20
-89.940359
 30
0.0
 10
45.200488
 20
-89.832358
 30
0.0
 10
45.065490
 20
-89.705358
 30
0.0
 10
44.947490
 20
-89.563358
 30
0.0
 10
44.848489
 20
-89.406357
 30
0.0
 10
44.769490
 20
-89.239358
 30
0.0
 10
44.712489
 20
-89.063359
 30
0.0
 10
44.677488
 20
-88.881356
 30
0.0
 10
44.665494
 20
-88.697356
 30
0.0
  0
LWPOLYLINE
  5
107
100
AcDbEntity
  8
0
 62
7
100
AcDbPolyline
 90
5
 70
0
 10
58.434489
 20
-151.752356
 30
0.0
 10
58.434489
 20
-148.752357
 30
0.0
 10
71.134489
 20
-148.752357
 30
0.0
 10
71.134489
 20
-151.752356
 30
0.0
 10
58.434489
 20
-151.752356
 30
0.0
  0
LWPOLYLINE
  5
108
100
AcDbEntity
  8
0
 62
7
100
AcDbPolyline
 90
5
 70
0
 10
58.434489
 20
-84.252356
 30
0.0
 10
58.434489
 20
-81.252356
 30
0.0
 10
71.134489
 20
-81.252356
 30
0.0
 10
71.134489
 20
-84.252356
 30
0.0
 10
58.434489
 20
-84.252356
 30
0.0
  0
LWPOLYLINE
  5
109
100
AcDbEntity
  8
0
 62
7
100
AcDbPolyline
 90
5
 70
0
 10
93.069489
 20
-151.752356
 30
0.0
 10
93.069489
 20
-148.752357
 30
0.0
 10
105.769489
 20
-148.752357
 30
0.0
 10
105.769489
 20
-151.752356
 30
0.0
 10
93.069489
 20
-151.752356
 30
0.0
  0
LWPOLYLINE
  5
10a
100
AcDbEntity
  8
0
 62
7
100
AcDbPolyline
 90
5
 70
0
 10
93.069489
 20
-84.252356
 30
0.0
 10
93.069489
 20
-81.252356
 30
0.0
 10
105.769489
 20
-81.252356
 30
0.0
 10
105.769489
 20
-84.252356
 30
0.0
 10
93.069489
 20
-84.252356
 30
0.0
  0
LWPOLYLINE
  5
10b
100
AcDbEntity
  8
0
 62
7
100
AcDbPolyline
 90
5
 70
0
 10
127.704489
 20
-151.752356
 30
0.0
 10
127.704489
 20
-148.752357
 30
0.0
 10
140.404489
 20
-148.752357
 30
0.0
 10
140.404489
 20
-151.752356
 30
0.0
 10
127.704489
 20
-151.752356
 30
0.0
  0
LWPOLYLINE
  5
10c
100
AcDbEntity
  8
0
 62
7
100
AcDbPolyline
 90
5
 70
0
 10
127.704489
 20
-84.252356
 30
0.0
 10
127.704489
 20
-81.252356
 30
0.0
 10
140.404489
 20
-81.252356
 30
0.0
 10
140.404489
 20
-84.252356
 30
0.0
 10
127.704489
 20
-84.252356
 30
0.0
  0
LWPOLYLINE
  5
10d
100
AcDbEntity
  8
0
 62
7
100
AcDbPolyline
 90
51
 70
0
 10
151.226489
 20
-144.307357
 30
0.0
 10
151.238483
 20
-144.123356
 30
0.0
 10
151.272488
 20
-143.941357
 30
0.0
 10
151.330491
 20
-143.765357
 30
0.0
 10
151.408488
 20
-143.598358
 30
0.0
 10
151.507489
 20
-143.441358
 30
0.0
 10
151.625489
 20
-143.299358
 30
0.0
 10
151.760490
 20
-143.172358
 30
0.0
 10
151.910488
 20
-143.064357
 30
0.0
 10
152.072490
 20
-142.974356
 30
0.0
 10
152.244490
 20
-142.906358
 30
0.0
 10
152.423489
 20
-142.860358
 30
0.0
 10
152.607490
 20
-142.837357
 30
0.0
 10
152.792489
 20
-142.837357
 30
0.0
 10
152.975491
 20
-142.860358
 30
0.0
 10
153.155489
 20
-142.906358
 30
0.0
 10
153.327489
 20
-142.974356
 30
0.0
 10
153.489491
 20
-143.064357
 30
0.0
 10
153.638490
 20
-143.172358
 30
0.0
 10
153.773488
 20
-143.299358
 30
0.0
 10
153.891491
 20
-143.441358
 30
0.0
 10
153.990489
 20
-143.598358
 30
0.0
 10
154.069488
 20
-143.765357
 30
0.0
 10
154.126489
 20
-143.941357
 30
0.0
 10
154.161490
 20
-144.123356
 30
0.0
 10
154.173484
 20
-144.307357
 30
0.0
 10
154.161496
 20
-144.492356
 30
0.0
 10
154.126489
 20
-144.674359
 30
0.0
 10
154.069488
 20
-144.850358
 30
0.0
 10
153.990489
 20
-145.017357
 30
0.0
 10
153.891491
 20
-145.173359
 30
0.0
 10
153.773488
 20
-145.316358
 30
0.0
 10
153.638490
 20
-145.443358
 30
0.0
 10
153.489491
 20
-145.551358
 30
0.0
 10
153.327489
 20
-145.640357
 30
0.0
 10
153.155489
 20
-145.708356
 30
0.0
 10
152.975491
 20
-145.754358
 30
0.0
 10
152.792489
 20
-145.778347
 30
0.0
 10
152.607490
 20
-145.778358
 30
0.0
 10
152.423489
 20
-145.754369
 30
0.0
 10
152.244490
 20
-145.708356
 30
0.0
 10
152.072490
 20
-145.640357
 30
0.0
 10
151.910488
 20
-145.551358
 30
0.0
 10
151.760490
 20
-145.443358
 30
0.0
 10
151.625489
 20
-145.316358
 30
0.0
 10
151.507489
 20
-145.173359
 30
0.0
 10
151.408488
 20
-145.017357
 30
0.0
 10
151.330491
 20
-144.850358
 30
0.0
 10
151.272488
 20
-144.674359
 30
0.0
 10
151.238489
 20
-144.492356
 30
0.0
 10
151.226495
 20
-144.307357
 30
0.0
  0
LWPOLYLINE
  5
10e
100
AcDbEntity
  8
0
 62
7
100
AcDbPolyline
 90
51
 70
0
 10
151.226489
 20
-88.697356
 30
0.0
 10
151.238483
 20
-88.512356
 30
0.0
 10
151.272488
 20
-88.330357
 30
0.0
 10
151.330491
 20
-88.154358
 30
0.0
 10
151.408488
 20
-87.987358
 30
0.0
 10
151.507489
 20
-87.831357
 30
0.0
 10
151.625489
 20
-87.688358
 30
0.0
 10
151.760490
 20
-87.561358
 30
0.0
 10
151.910488
 20
-87.453357
 30
0.0
 10
152.072490
 20
-87.364358
 30
0.0
 10
152.244490
 20
-87.296357
 30
0.0
 10
152.423489
 20
-87.250357
 30
0.0
 10
152.607490
 20
-87.226369
 30
0.0
 10
152.792489
 20
-87.226357
 30
0.0
 10
152.975491
 20
-87.250346
 30
0.0
 10
153.155489
 20
-87.296357
 30
0.0
 10
153.327489
 20
-87.364358
 30
0.0
 10
153.489491
 20
-87.453357
 30
0.0
 10
153.638490
 20
-87.561358
 30
0.0
 10
153.773488
 20
-87.688358
 30
0.0
 10
153.891491
 20
-87.831357
 30
0.0
 10
153.990489
 20
-87.987358
 30
0.0
 10
154.069488
 20
-88.154358
 30
0.0
 10
154.126489
 20
-88.330357
 30
0.0
 10
154.161490
 20
-88.512356
 30
0.0
 10
154.173484
 20
-88.697356
 30
0.0
 10
154.161496
 20
-88.881356
 30
0.0
 10
154.126489
 20
-89.063359
 30
0.0
 10
154.069488
 20
-89.239358
 30
0.0
 10
153.990489
 20
-89.406357
 30
0.0
 10
153.891491
 20
-89.563358
 30
0.0
 10
153.773488
 20
-89.705358
 30
0.0
 10
153.638490
 20
-89.832358
 30
0.0
 10
153.489491
 20
-89.940359
 30
0.0
 10
153.327489
 20
-90.030356
 30
0.0
 10
153.155489
 20
-90.098358
 30
0.0
 10
152.975491
 20
-90.144357
 30
0.0
 10
152.792489
 20
-90.167358
 30
0.0
 10
152.607490
 20
-90.167358
 30
0.0
 10
152.423489
 20
-90.144357
 30
0.0
 10
152.244490
 20
-90.098358
 30
0.0
 10
152.072490
 20
-90.030356
 30
0.0
 10
151.910488
 20
-89.940359
 30
0.0
 10
151.760490
 20
-89.832358
 30
0.0
 10
151.625489
 20
-89.705358
 30
0.0
 10
151.507489
 20
-89.563358
 30
0.0
 10
151.408488
 20
-89.406357
 30
0.0
 10
151.330491
 20
-89.239358
 30
0.0
 10
151.272488
 20
-89.063359
 30
0.0
 10
151.238489
 20
-88.881356
 30
0.0
 10
151.226495
 20
-88.697356
 30
0.0
  0
LWPOLYLINE
  5
10f
100
AcDbEntity
  8
0
 62
7
100
AcDbPolyline
 90
5
 70
0
 10
157.144489
 20
-140.477359
 30
0.0
 10
157.144489
 20
-127.777359
 30
0.0
 10
160.144488
 20
-127.777359
 30
0.0
 10
160.144488
 20
-140.477359
 30
0.0
 10
157.144489
 20
-140.477359
 30
0.0
  0
LWPOLYLINE
  5
110
100
AcDbEntity
  8
0
 62
7
100
AcDbPolyline
 90
5
 70
0
 10
157.144489
 20
-105.227357
 30
0.0
 10
157.144489
 20
-92.527357
 30
0.0
 10
160.144488
 20
-92.527357
 30
0.0
 10
160.144488
 20
-105.227357
 30
0.0
 10
157.144489
 20
-105.227357
 30
0.0
  0
ENDSEC
  0
SECTION
  2
OBJECTS
  0
DICTIONARY
  5
C
330
0
100
AcDbDictionary
  3
ACAD_GROUP
350
D
  3
ACAD_MLINESTYLE
350
17
  0
DICTIONARY
  5
D
330
C
100
AcDbDictionary
  0
DICTIONARY
  5
1A
330
C
100
AcDbDictionary
  0
DICTIONARY
  5
17
330
C
100
AcDbDictionary
  3
STANDARD
350
18
  0
DICTIONARY
  5
19
330
C
100
AcDbDictionary
  0
ENDSEC
  0
EOF
