<?xml version="1.0" encoding="UTF-8" standalone="no"?>
<svg
   xmlns:dc="http://purl.org/dc/elements/1.1/"
   xmlns:cc="http://creativecommons.org/ns#"
   xmlns:rdf="http://www.w3.org/1999/02/22-rdf-syntax-ns#"
   xmlns:svg="http://www.w3.org/2000/svg"
   xmlns="http://www.w3.org/2000/svg"
   xmlns:sodipodi="http://sodipodi.sourceforge.net/DTD/sodipodi-0.dtd"
   xmlns:inkscape="http://www.inkscape.org/namespaces/inkscape"
   id="svg7625"
   version="1.1"
   inkscape:version="0.47 r22583"
   width="100%"
   height="100%"
   sodipodi:docname="top_middle_projection_18x18.dxf">
  <metadata
     id="metadata8265">
    <rdf:RDF>
      <cc:Work
         rdf:about="">
        <dc:format>image/svg+xml</dc:format>
        <dc:type
           rdf:resource="http://purl.org/dc/dcmitype/StillImage" />
        <dc:title></dc:title>
      </cc:Work>
    </rdf:RDF>
  </metadata>
  <sodipodi:namedview
     pagecolor="#ffffff"
     bordercolor="#666666"
     borderopacity="1"
     objecttolerance="10"
     gridtolerance="10"
     guidetolerance="10"
     inkscape:pageopacity="0"
     inkscape:pageshadow="2"
     inkscape:window-width="1920"
     inkscape:window-height="1005"
     id="namedview8263"
     showgrid="false"
     inkscape:zoom="0.23566031"
     inkscape:cx="372.04724"
     inkscape:cy="526.18109"
     inkscape:window-x="0"
     inkscape:window-y="24"
     inkscape:window-maximized="1"
     inkscape:current-layer="g7637" />
  <desc
     id="desc7627">/home/jo/repos/led_transilluminator_enclosure/top_middle_projection_18x18.dxf - scale = 1.000000</desc>
  <defs
     id="defs7629">
    <inkscape:perspective
       sodipodi:type="inkscape:persp3d"
       inkscape:vp_x="0 : 0.5 : 1"
       inkscape:vp_y="0 : 1000 : 0"
       inkscape:vp_z="1 : 0.5 : 1"
       inkscape:persp3d-origin="0.5 : 0.33333333 : 1"
       id="perspective8267" />
    <marker
       refY="0.0"
       refX="0.0"
       style="overflow:visible"
       id="DistanceX"
       orient="auto">
      <path
         style="stroke:#000000; stroke-width:0.5"
         d="M 3,-3 L -3,3 M 0,-5 L  0,5"
         id="path7632" />
    </marker>
    <symbol
       id="*Model_Space" />
    <symbol
       id="*Paper_Space" />
    <symbol
       id="*Paper_Space0" />
  </defs>
  <g
     inkscape:label="0"
     inkscape:groupmode="layer"
     id="g7637">
    <g
       id="g9386"
       transform="matrix(0,1,-1,0,1425.781,513.45092)">
      <path
         id="path7639"
         d="m -351.69094,1308.887 0,-513.0496"
         style="fill:none;stroke:#000000" />
      <path
         id="path7641"
         d="m -351.69094,795.8374 0.1807,-2.81693"
         style="fill:none;stroke:#000000" />
      <path
         id="path7643"
         d="m -351.51024,793.02047 0.52796,-2.77795"
         style="fill:none;stroke:#000000" />
      <path
         id="path7645"
         d="m -350.98228,790.24252 0.87165,-2.68583"
         style="fill:none;stroke:#000000" />
      <path
         id="path7647"
         d="m -350.11063,787.55669 1.20472,-2.55827"
         style="fill:none;stroke:#000000" />
      <path
         id="path7649"
         d="m -348.90591,784.99842 1.513,-2.38464"
         style="fill:none;stroke:#000000" />
      <path
         id="path7651"
         d="m -347.39291,782.61378 1.8,-2.17559"
         style="fill:none;stroke:#000000" />
      <path
         id="path7653"
         d="m -345.59291,780.43819 2.0622,-1.93465"
         style="fill:none;stroke:#000000" />
      <path
         id="path7655"
         d="m -343.53071,778.50354 2.28543,-1.66181"
         style="fill:none;stroke:#000000" />
      <path
         id="path7657"
         d="m -341.24528,776.84173 2.47678,-1.36063"
         style="fill:none;stroke:#000000" />
      <path
         id="path7659"
         d="m -338.7685,775.4811 2.62559,-1.04173"
         style="fill:none;stroke:#000000" />
      <path
         id="path7661"
         d="m -336.14291,774.43937 2.73897,-0.70158"
         style="fill:none;stroke:#000000" />
      <path
         id="path7663"
         d="m -333.40394,773.73779 2.80276,-0.35433"
         style="fill:none;stroke:#000000" />
      <path
         id="path7665"
         d="m -330.60118,773.38346 1.41024,0"
         style="fill:none;stroke:#000000" />
      <path
         id="path7667"
         d="m -329.19094,773.38346 0,-0.0461"
         style="fill:none;stroke:#000000" />
      <path
         id="path7669"
         d="m -329.19094,773.3374 658.38188,0"
         style="fill:none;stroke:#000000" />
      <path
         id="path7671"
         d="m 329.19094,773.3374 0,0.0461"
         style="fill:none;stroke:#000000" />
      <path
         id="path7673"
         d="m 329.19094,773.38346 1.41024,0"
         style="fill:none;stroke:#000000" />
      <path
         id="path7675"
         d="m 330.60118,773.38346 2.80276,0.35433"
         style="fill:none;stroke:#000000" />
      <path
         id="path7677"
         d="m 333.40394,773.73779 2.73897,0.70158"
         style="fill:none;stroke:#000000" />
      <path
         id="path7679"
         d="m 336.14291,774.43937 2.62559,1.04173"
         style="fill:none;stroke:#000000" />
      <path
         id="path7681"
         d="m 338.7685,775.4811 2.47678,1.36063"
         style="fill:none;stroke:#000000" />
      <path
         id="path7683"
         d="m 341.24528,776.84173 2.28543,1.66181"
         style="fill:none;stroke:#000000" />
      <path
         id="path7685"
         d="m 343.53071,778.50354 2.0622,1.93465"
         style="fill:none;stroke:#000000" />
      <path
         id="path7687"
         d="m 345.59291,780.43819 1.8,2.17559"
         style="fill:none;stroke:#000000" />
      <path
         id="path7689"
         d="m 347.39291,782.61378 1.513,2.38464"
         style="fill:none;stroke:#000000" />
      <path
         id="path7691"
         d="m 348.90591,784.99842 1.20472,2.55827"
         style="fill:none;stroke:#000000" />
      <path
         id="path7693"
         d="m 350.11063,787.55669 0.87165,2.68583"
         style="fill:none;stroke:#000000" />
      <path
         id="path7695"
         d="m 350.98228,790.24252 0.52796,2.77795"
         style="fill:none;stroke:#000000" />
      <path
         id="path7697"
         d="m 351.51024,793.02047 0.1807,2.81693"
         style="fill:none;stroke:#000000" />
      <path
         id="path7699"
         d="m 351.69094,795.8374 0,513.0496"
         style="fill:none;stroke:#000000" />
      <path
         id="path7701"
         d="m 351.69094,1308.887 -0.1807,2.8169"
         style="fill:none;stroke:#000000" />
      <path
         id="path7703"
         d="m 351.51024,1311.7039 -0.52796,2.778"
         style="fill:none;stroke:#000000" />
      <path
         id="path7705"
         d="m 350.98228,1314.4819 -0.87165,2.6858"
         style="fill:none;stroke:#000000" />
      <path
         id="path7707"
         d="m 350.11063,1317.1677 -1.20472,2.5583"
         style="fill:none;stroke:#000000" />
      <path
         id="path7709"
         d="m 348.90591,1319.726 -1.513,2.3846"
         style="fill:none;stroke:#000000" />
      <path
         id="path7711"
         d="m 347.39291,1322.1106 -1.8,2.1756"
         style="fill:none;stroke:#000000" />
      <path
         id="path7713"
         d="m 345.59291,1324.2862 -2.0622,1.9347"
         style="fill:none;stroke:#000000" />
      <path
         id="path7715"
         d="m 343.53071,1326.2209 -2.28543,1.6618"
         style="fill:none;stroke:#000000" />
      <path
         id="path7717"
         d="m 341.24528,1327.8827 -2.47678,1.3606"
         style="fill:none;stroke:#000000" />
      <path
         id="path7719"
         d="m 338.7685,1329.2433 -2.62559,1.0417"
         style="fill:none;stroke:#000000" />
      <path
         id="path7721"
         d="m 336.14291,1330.285 -2.73897,0.7016"
         style="fill:none;stroke:#000000" />
      <path
         id="path7723"
         d="m 333.40394,1330.9866 -2.80276,0.3543"
         style="fill:none;stroke:#000000" />
      <path
         id="path7725"
         d="m 330.60118,1331.3409 -1.41024,0"
         style="fill:none;stroke:#000000" />
      <path
         id="path7727"
         d="m 329.19094,1331.3409 0,0.046"
         style="fill:none;stroke:#000000" />
      <path
         id="path7729"
         d="m 329.19094,1331.387 -658.38188,0"
         style="fill:none;stroke:#000000" />
      <path
         id="path7731"
         d="m -329.19094,1331.387 0,-0.046"
         style="fill:none;stroke:#000000" />
      <path
         id="path7733"
         d="m -329.19094,1331.3409 -1.41024,0"
         style="fill:none;stroke:#000000" />
      <path
         id="path7735"
         d="m -330.60118,1331.3409 -2.80276,-0.3543"
         style="fill:none;stroke:#000000" />
      <path
         id="path7737"
         d="m -333.40394,1330.9866 -2.73897,-0.7016"
         style="fill:none;stroke:#000000" />
      <path
         id="path7739"
         d="m -336.14291,1330.285 -2.62559,-1.0417"
         style="fill:none;stroke:#000000" />
      <path
         id="path7741"
         d="m -338.7685,1329.2433 -2.47678,-1.3606"
         style="fill:none;stroke:#000000" />
      <path
         id="path7743"
         d="m -341.24528,1327.8827 -2.28543,-1.6618"
         style="fill:none;stroke:#000000" />
      <path
         id="path7745"
         d="m -343.53071,1326.2209 -2.0622,-1.9347"
         style="fill:none;stroke:#000000" />
      <path
         id="path7747"
         d="m -345.59291,1324.2862 -1.8,-2.1756"
         style="fill:none;stroke:#000000" />
      <path
         id="path7749"
         d="m -347.39291,1322.1106 -1.513,-2.3846"
         style="fill:none;stroke:#000000" />
      <path
         id="path7751"
         d="m -348.90591,1319.726 -1.20472,-2.5583"
         style="fill:none;stroke:#000000" />
      <path
         id="path7753"
         d="m -350.11063,1317.1677 -0.87165,-2.6858"
         style="fill:none;stroke:#000000" />
      <path
         id="path7755"
         d="m -350.98228,1314.4819 -0.52796,-2.778"
         style="fill:none;stroke:#000000" />
      <path
         id="path7757"
         d="m -351.51024,1311.7039 -0.1807,-2.8169"
         style="fill:none;stroke:#000000" />
      <path
         id="path7759"
         d="m -342.69094,1237.9571 0,-45"
         style="fill:none;stroke:#000000" />
      <path
         id="path7761"
         d="m -342.69094,1192.9571 10.62992,0"
         style="fill:none;stroke:#000000" />
      <path
         id="path7763"
         d="m -332.06102,1192.9571 0,45"
         style="fill:none;stroke:#000000" />
      <path
         id="path7765"
         d="m -332.06102,1237.9571 -10.62992,0"
         style="fill:none;stroke:#000000" />
      <path
         id="path7767"
         d="m -342.69094,1074.8622 0,-45"
         style="fill:none;stroke:#000000" />
      <path
         id="path7769"
         d="m -342.69094,1029.8622 10.62992,0"
         style="fill:none;stroke:#000000" />
      <path
         id="path7771"
         d="m -332.06102,1029.8622 0,45"
         style="fill:none;stroke:#000000" />
      <path
         id="path7773"
         d="m -332.06102,1074.8622 -10.62992,0"
         style="fill:none;stroke:#000000" />
      <path
         id="path7775"
         d="m -342.69094,911.76732 0,-45"
         style="fill:none;stroke:#000000" />
      <path
         id="path7777"
         d="m -342.69094,866.76732 10.62992,0"
         style="fill:none;stroke:#000000" />
      <path
         id="path7779"
         d="m -332.06102,866.76732 0,45"
         style="fill:none;stroke:#000000" />
      <path
         id="path7781"
         d="m -332.06102,911.76732 -10.62992,0"
         style="fill:none;stroke:#000000" />
      <path
         id="path7783"
         d="m -317.03031,1293.3071 0.0425,-0.6555"
         style="fill:none;stroke:#000000" />
      <path
         id="path7785"
         d="m -316.98779,1292.6516 0.12401,-0.6449"
         style="fill:none;stroke:#000000" />
      <path
         id="path7787"
         d="m -316.86378,1292.0067 0.20197,-0.6236"
         style="fill:none;stroke:#000000" />
      <path
         id="path7789"
         d="m -316.66181,1291.3831 0.27638,-0.5918"
         style="fill:none;stroke:#000000" />
      <path
         id="path7791"
         d="m -316.38543,1290.7913 0.35433,-0.5527"
         style="fill:none;stroke:#000000" />
      <path
         id="path7793"
         d="m -316.0311,1290.2386 0.41811,-0.5067"
         style="fill:none;stroke:#000000" />
      <path
         id="path7795"
         d="m -315.61299,1289.7319 0.4748,-0.45"
         style="fill:none;stroke:#000000" />
      <path
         id="path7797"
         d="m -315.13819,1289.2819 0.5315,-0.3827"
         style="fill:none;stroke:#000000" />
      <path
         id="path7799"
         d="m -314.60669,1288.8992 0.57401,-0.3153"
         style="fill:none;stroke:#000000" />
      <path
         id="path7801"
         d="m -314.03268,1288.5839 0.60945,-0.241"
         style="fill:none;stroke:#000000" />
      <path
         id="path7803"
         d="m -313.42323,1288.3429 0.63425,-0.163"
         style="fill:none;stroke:#000000" />
      <path
         id="path7805"
         d="m -312.78898,1288.1799 0.65197,-0.085"
         style="fill:none;stroke:#000000" />
      <path
         id="path7807"
         d="m -312.13701,1288.0949 0.65551,0"
         style="fill:none;stroke:#000000" />
      <path
         id="path7809"
         d="m -311.4815,1288.0949 0.64843,0.085"
         style="fill:none;stroke:#000000" />
      <path
         id="path7811"
         d="m -310.83307,1288.1799 0.63779,0.163"
         style="fill:none;stroke:#000000" />
      <path
         id="path7813"
         d="m -310.19528,1288.3429 0.60945,0.241"
         style="fill:none;stroke:#000000" />
      <path
         id="path7815"
         d="m -309.58583,1288.5839 0.57402,0.3153"
         style="fill:none;stroke:#000000" />
      <path
         id="path7817"
         d="m -309.01181,1288.8992 0.52795,0.3827"
         style="fill:none;stroke:#000000" />
      <path
         id="path7819"
         d="m -308.48386,1289.2819 0.47835,0.45"
         style="fill:none;stroke:#000000" />
      <path
         id="path7821"
         d="m -308.00551,1289.7319 0.41811,0.5067"
         style="fill:none;stroke:#000000" />
      <path
         id="path7823"
         d="m -307.5874,1290.2386 0.35079,0.5527"
         style="fill:none;stroke:#000000" />
      <path
         id="path7825"
         d="m -307.23661,1290.7913 0.27992,0.5918"
         style="fill:none;stroke:#000000" />
      <path
         id="path7827"
         d="m -306.95669,1291.3831 0.20197,0.6236"
         style="fill:none;stroke:#000000" />
      <path
         id="path7829"
         d="m -306.75472,1292.0067 0.12401,0.6449"
         style="fill:none;stroke:#000000" />
      <path
         id="path7831"
         d="m -306.63071,1292.6516 0.0425,0.6555"
         style="fill:none;stroke:#000000" />
      <path
         id="path7833"
         d="m -306.58819,1293.3071 -0.0425,0.652"
         style="fill:none;stroke:#000000" />
      <path
         id="path7835"
         d="m -306.63071,1293.9591 -0.12401,0.6448"
         style="fill:none;stroke:#000000" />
      <path
         id="path7837"
         d="m -306.75472,1294.6039 -0.20197,0.6237"
         style="fill:none;stroke:#000000" />
      <path
         id="path7839"
         d="m -306.95669,1295.2276 -0.27992,0.5917"
         style="fill:none;stroke:#000000" />
      <path
         id="path7841"
         d="m -307.23661,1295.8193 -0.35079,0.5563"
         style="fill:none;stroke:#000000" />
      <path
         id="path7843"
         d="m -307.5874,1296.3756 -0.41811,0.5031"
         style="fill:none;stroke:#000000" />
      <path
         id="path7845"
         d="m -308.00551,1296.8787 -0.47835,0.45"
         style="fill:none;stroke:#000000" />
      <path
         id="path7847"
         d="m -308.48386,1297.3287 -0.52795,0.3827"
         style="fill:none;stroke:#000000" />
      <path
         id="path7849"
         d="m -309.01181,1297.7114 -0.57402,0.3189"
         style="fill:none;stroke:#000000" />
      <path
         id="path7851"
         d="m -309.58583,1298.0303 -0.60945,0.241"
         style="fill:none;stroke:#000000" />
      <path
         id="path7853"
         d="m -310.19528,1298.2713 -0.63779,0.163"
         style="fill:none;stroke:#000000" />
      <path
         id="path7855"
         d="m -310.83307,1298.4343 -0.64843,0.081"
         style="fill:none;stroke:#000000" />
      <path
         id="path7857"
         d="m -311.4815,1298.5157 -0.65551,0"
         style="fill:none;stroke:#000000" />
      <path
         id="path7859"
         d="m -312.13701,1298.5157 -0.65197,-0.081"
         style="fill:none;stroke:#000000" />
      <path
         id="path7861"
         d="m -312.78898,1298.4343 -0.63425,-0.163"
         style="fill:none;stroke:#000000" />
      <path
         id="path7863"
         d="m -313.42323,1298.2713 -0.60945,-0.241"
         style="fill:none;stroke:#000000" />
      <path
         id="path7865"
         d="m -314.03268,1298.0303 -0.57401,-0.3189"
         style="fill:none;stroke:#000000" />
      <path
         id="path7867"
         d="m -314.60669,1297.7114 -0.5315,-0.3827"
         style="fill:none;stroke:#000000" />
      <path
         id="path7869"
         d="m -315.13819,1297.3287 -0.4748,-0.45"
         style="fill:none;stroke:#000000" />
      <path
         id="path7871"
         d="m -315.61299,1296.8787 -0.41811,-0.5031"
         style="fill:none;stroke:#000000" />
      <path
         id="path7873"
         d="m -316.0311,1296.3756 -0.35433,-0.5563"
         style="fill:none;stroke:#000000" />
      <path
         id="path7875"
         d="m -316.38543,1295.8193 -0.27638,-0.5917"
         style="fill:none;stroke:#000000" />
      <path
         id="path7877"
         d="m -316.66181,1295.2276 -0.20197,-0.6237"
         style="fill:none;stroke:#000000" />
      <path
         id="path7879"
         d="m -316.86378,1294.6039 -0.12401,-0.6448"
         style="fill:none;stroke:#000000" />
      <path
         id="path7881"
         d="m -316.98779,1293.9591 -0.0425,-0.652"
         style="fill:none;stroke:#000000" />
      <path
         id="path7883"
         d="m -317.03031,811.41732 0.0425,-0.65197"
         style="fill:none;stroke:#000000" />
      <path
         id="path7885"
         d="m -316.98779,810.76535 0.12401,-0.64488"
         style="fill:none;stroke:#000000" />
      <path
         id="path7887"
         d="m -316.86378,810.12047 0.20197,-0.62362"
         style="fill:none;stroke:#000000" />
      <path
         id="path7889"
         d="m -316.66181,809.49685 0.27638,-0.59173"
         style="fill:none;stroke:#000000" />
      <path
         id="path7891"
         d="m -316.38543,808.90512 0.35433,-0.5563"
         style="fill:none;stroke:#000000" />
      <path
         id="path7893"
         d="m -316.0311,808.34882 0.41811,-0.50315"
         style="fill:none;stroke:#000000" />
      <path
         id="path7895"
         d="m -315.61299,807.84567 0.4748,-0.45"
         style="fill:none;stroke:#000000" />
      <path
         id="path7897"
         d="m -315.13819,807.39567 0.5315,-0.38268"
         style="fill:none;stroke:#000000" />
      <path
         id="path7899"
         d="m -314.60669,807.01299 0.57401,-0.3189"
         style="fill:none;stroke:#000000" />
      <path
         id="path7901"
         d="m -314.03268,806.69409 0.60945,-0.24094"
         style="fill:none;stroke:#000000" />
      <path
         id="path7903"
         d="m -313.42323,806.45315 0.63425,-0.16299"
         style="fill:none;stroke:#000000" />
      <path
         id="path7905"
         d="m -312.78898,806.29016 0.65197,-0.0815"
         style="fill:none;stroke:#000000" />
      <path
         id="path7907"
         d="m -312.13701,806.20866 0.65551,0"
         style="fill:none;stroke:#000000" />
      <path
         id="path7909"
         d="m -311.4815,806.20866 0.64843,0.0815"
         style="fill:none;stroke:#000000" />
      <path
         id="path7911"
         d="m -310.83307,806.29016 0.63779,0.16299"
         style="fill:none;stroke:#000000" />
      <path
         id="path7913"
         d="m -310.19528,806.45315 0.60945,0.24094"
         style="fill:none;stroke:#000000" />
      <path
         id="path7915"
         d="m -309.58583,806.69409 0.57402,0.3189"
         style="fill:none;stroke:#000000" />
      <path
         id="path7917"
         d="m -309.01181,807.01299 0.52795,0.38268"
         style="fill:none;stroke:#000000" />
      <path
         id="path7919"
         d="m -308.48386,807.39567 0.47835,0.45"
         style="fill:none;stroke:#000000" />
      <path
         id="path7921"
         d="m -308.00551,807.84567 0.41811,0.50315"
         style="fill:none;stroke:#000000" />
      <path
         id="path7923"
         d="m -307.5874,808.34882 0.35079,0.5563"
         style="fill:none;stroke:#000000" />
      <path
         id="path7925"
         d="m -307.23661,808.90512 0.27992,0.59173"
         style="fill:none;stroke:#000000" />
      <path
         id="path7927"
         d="m -306.95669,809.49685 0.20197,0.62362"
         style="fill:none;stroke:#000000" />
      <path
         id="path7929"
         d="m -306.75472,810.12047 0.12401,0.64488"
         style="fill:none;stroke:#000000" />
      <path
         id="path7931"
         d="m -306.63071,810.76535 0.0425,0.65197"
         style="fill:none;stroke:#000000" />
      <path
         id="path7933"
         d="m -306.58819,811.41732 -0.0425,0.65552"
         style="fill:none;stroke:#000000" />
      <path
         id="path7935"
         d="m -306.63071,812.07284 -0.12401,0.64488"
         style="fill:none;stroke:#000000" />
      <path
         id="path7937"
         d="m -306.75472,812.71772 -0.20197,0.62362"
         style="fill:none;stroke:#000000" />
      <path
         id="path7939"
         d="m -306.95669,813.34134 -0.27992,0.59173"
         style="fill:none;stroke:#000000" />
      <path
         id="path7941"
         d="m -307.23661,813.93307 -0.35079,0.55276"
         style="fill:none;stroke:#000000" />
      <path
         id="path7943"
         d="m -307.5874,814.48583 -0.41811,0.50669"
         style="fill:none;stroke:#000000" />
      <path
         id="path7945"
         d="m -308.00551,814.99252 -0.47835,0.45"
         style="fill:none;stroke:#000000" />
      <path
         id="path7947"
         d="m -308.48386,815.44252 -0.52795,0.38268"
         style="fill:none;stroke:#000000" />
      <path
         id="path7949"
         d="m -309.01181,815.8252 -0.57402,0.31535"
         style="fill:none;stroke:#000000" />
      <path
         id="path7951"
         d="m -309.58583,816.14055 -0.60945,0.24095"
         style="fill:none;stroke:#000000" />
      <path
         id="path7953"
         d="m -310.19528,816.3815 -0.63779,0.16299"
         style="fill:none;stroke:#000000" />
      <path
         id="path7955"
         d="m -310.83307,816.54449 -0.64843,0.085"
         style="fill:none;stroke:#000000" />
      <path
         id="path7957"
         d="m -311.4815,816.62953 -0.65551,0"
         style="fill:none;stroke:#000000" />
      <path
         id="path7959"
         d="m -312.13701,816.62953 -0.65197,-0.085"
         style="fill:none;stroke:#000000" />
      <path
         id="path7961"
         d="m -312.78898,816.54449 -0.63425,-0.16299"
         style="fill:none;stroke:#000000" />
      <path
         id="path7963"
         d="m -313.42323,816.3815 -0.60945,-0.24095"
         style="fill:none;stroke:#000000" />
      <path
         id="path7965"
         d="m -314.03268,816.14055 -0.57401,-0.31535"
         style="fill:none;stroke:#000000" />
      <path
         id="path7967"
         d="m -314.60669,815.8252 -0.5315,-0.38268"
         style="fill:none;stroke:#000000" />
      <path
         id="path7969"
         d="m -315.13819,815.44252 -0.4748,-0.45"
         style="fill:none;stroke:#000000" />
      <path
         id="path7971"
         d="m -315.61299,814.99252 -0.41811,-0.50669"
         style="fill:none;stroke:#000000" />
      <path
         id="path7973"
         d="m -316.0311,814.48583 -0.35433,-0.55276"
         style="fill:none;stroke:#000000" />
      <path
         id="path7975"
         d="m -316.38543,813.93307 -0.27638,-0.59173"
         style="fill:none;stroke:#000000" />
      <path
         id="path7977"
         d="m -316.66181,813.34134 -0.20197,-0.62362"
         style="fill:none;stroke:#000000" />
      <path
         id="path7979"
         d="m -316.86378,812.71772 -0.12401,-0.64488"
         style="fill:none;stroke:#000000" />
      <path
         id="path7981"
         d="m -316.98779,812.07284 -0.0425,-0.65552"
         style="fill:none;stroke:#000000" />
      <path
         id="path7983"
         d="m -248.0315,1300.3937 0,-496.06299"
         style="fill:none;stroke:#000000" />
      <path
         id="path7985"
         d="m -248.0315,804.33071 496.063,0"
         style="fill:none;stroke:#000000" />
      <path
         id="path7987"
         d="m 248.0315,804.33071 0,496.06299"
         style="fill:none;stroke:#000000" />
      <path
         id="path7989"
         d="m 248.0315,1300.3937 -496.063,0"
         style="fill:none;stroke:#000000" />
      <path
         id="path7991"
         d="m -221.73661,1324.187 0,-10.6299"
         style="fill:none;stroke:#000000" />
      <path
         id="path7993"
         d="m -221.73661,1313.5571 45,0"
         style="fill:none;stroke:#000000" />
      <path
         id="path7995"
         d="m -176.73661,1313.5571 0,10.6299"
         style="fill:none;stroke:#000000" />
      <path
         id="path7997"
         d="m -176.73661,1324.187 -45,0"
         style="fill:none;stroke:#000000" />
      <path
         id="path7999"
         d="m -221.73661,791.16732 0,-10.62992"
         style="fill:none;stroke:#000000" />
      <path
         id="path8001"
         d="m -221.73661,780.5374 45,0"
         style="fill:none;stroke:#000000" />
      <path
         id="path8003"
         d="m -176.73661,780.5374 0,10.62992"
         style="fill:none;stroke:#000000" />
      <path
         id="path8005"
         d="m -176.73661,791.16732 -45,0"
         style="fill:none;stroke:#000000" />
      <path
         id="path8007"
         d="m -22.5,1324.187 0,-10.6299"
         style="fill:none;stroke:#000000" />
      <path
         id="path8009"
         d="m -22.5,1313.5571 45,0"
         style="fill:none;stroke:#000000" />
      <path
         id="path8011"
         d="m 22.5,1313.5571 0,10.6299"
         style="fill:none;stroke:#000000" />
      <path
         id="path8013"
         d="m 22.5,1324.187 -45,0"
         style="fill:none;stroke:#000000" />
      <path
         id="path8015"
         d="m -22.5,791.16732 0,-10.62992"
         style="fill:none;stroke:#000000" />
      <path
         id="path8017"
         d="m -22.5,780.5374 45,0"
         style="fill:none;stroke:#000000" />
      <path
         id="path8019"
         d="m 22.5,780.5374 0,10.62992"
         style="fill:none;stroke:#000000" />
      <path
         id="path8021"
         d="m 22.5,791.16732 -45,0"
         style="fill:none;stroke:#000000" />
      <path
         id="path8023"
         d="m 176.73661,1324.187 0,-10.6299"
         style="fill:none;stroke:#000000" />
      <path
         id="path8025"
         d="m 176.73661,1313.5571 45,0"
         style="fill:none;stroke:#000000" />
      <path
         id="path8027"
         d="m 221.73661,1313.5571 0,10.6299"
         style="fill:none;stroke:#000000" />
      <path
         id="path8029"
         d="m 221.73661,1324.187 -45,0"
         style="fill:none;stroke:#000000" />
      <path
         id="path8031"
         d="m 176.73661,791.16732 0,-10.62992"
         style="fill:none;stroke:#000000" />
      <path
         id="path8033"
         d="m 176.73661,780.5374 45,0"
         style="fill:none;stroke:#000000" />
      <path
         id="path8035"
         d="m 221.73661,780.5374 0,10.62992"
         style="fill:none;stroke:#000000" />
      <path
         id="path8037"
         d="m 221.73661,791.16732 -45,0"
         style="fill:none;stroke:#000000" />
      <path
         id="path8039"
         d="m 306.58819,1293.3071 0.0425,-0.6555"
         style="fill:none;stroke:#000000" />
      <path
         id="path8041"
         d="m 306.63071,1292.6516 0.12401,-0.6449"
         style="fill:none;stroke:#000000" />
      <path
         id="path8043"
         d="m 306.75472,1292.0067 0.20197,-0.6236"
         style="fill:none;stroke:#000000" />
      <path
         id="path8045"
         d="m 306.95669,1291.3831 0.27992,-0.5918"
         style="fill:none;stroke:#000000" />
      <path
         id="path8047"
         d="m 307.23661,1290.7913 0.35079,-0.5527"
         style="fill:none;stroke:#000000" />
      <path
         id="path8049"
         d="m 307.5874,1290.2386 0.41811,-0.5067"
         style="fill:none;stroke:#000000" />
      <path
         id="path8051"
         d="m 308.00551,1289.7319 0.47835,-0.45"
         style="fill:none;stroke:#000000" />
      <path
         id="path8053"
         d="m 308.48386,1289.2819 0.52795,-0.3827"
         style="fill:none;stroke:#000000" />
      <path
         id="path8055"
         d="m 309.01181,1288.8992 0.57402,-0.3153"
         style="fill:none;stroke:#000000" />
      <path
         id="path8057"
         d="m 309.58583,1288.5839 0.60945,-0.241"
         style="fill:none;stroke:#000000" />
      <path
         id="path8059"
         d="m 310.19528,1288.3429 0.63779,-0.163"
         style="fill:none;stroke:#000000" />
      <path
         id="path8061"
         d="m 310.83307,1288.1799 0.64843,-0.085"
         style="fill:none;stroke:#000000" />
      <path
         id="path8063"
         d="m 311.4815,1288.0949 0.65551,0"
         style="fill:none;stroke:#000000" />
      <path
         id="path8065"
         d="m 312.13701,1288.0949 0.65197,0.085"
         style="fill:none;stroke:#000000" />
      <path
         id="path8067"
         d="m 312.78898,1288.1799 0.63425,0.163"
         style="fill:none;stroke:#000000" />
      <path
         id="path8069"
         d="m 313.42323,1288.3429 0.60945,0.241"
         style="fill:none;stroke:#000000" />
      <path
         id="path8071"
         d="m 314.03268,1288.5839 0.57401,0.3153"
         style="fill:none;stroke:#000000" />
      <path
         id="path8073"
         d="m 314.60669,1288.8992 0.5315,0.3827"
         style="fill:none;stroke:#000000" />
      <path
         id="path8075"
         d="m 315.13819,1289.2819 0.4748,0.45"
         style="fill:none;stroke:#000000" />
      <path
         id="path8077"
         d="m 315.61299,1289.7319 0.41811,0.5067"
         style="fill:none;stroke:#000000" />
      <path
         id="path8079"
         d="m 316.0311,1290.2386 0.35433,0.5527"
         style="fill:none;stroke:#000000" />
      <path
         id="path8081"
         d="m 316.38543,1290.7913 0.27638,0.5918"
         style="fill:none;stroke:#000000" />
      <path
         id="path8083"
         d="m 316.66181,1291.3831 0.20197,0.6236"
         style="fill:none;stroke:#000000" />
      <path
         id="path8085"
         d="m 316.86378,1292.0067 0.12401,0.6449"
         style="fill:none;stroke:#000000" />
      <path
         id="path8087"
         d="m 316.98779,1292.6516 0.0425,0.6555"
         style="fill:none;stroke:#000000" />
      <path
         id="path8089"
         d="m 317.03031,1293.3071 -0.0425,0.652"
         style="fill:none;stroke:#000000" />
      <path
         id="path8091"
         d="m 316.98779,1293.9591 -0.12401,0.6448"
         style="fill:none;stroke:#000000" />
      <path
         id="path8093"
         d="m 316.86378,1294.6039 -0.20197,0.6237"
         style="fill:none;stroke:#000000" />
      <path
         id="path8095"
         d="m 316.66181,1295.2276 -0.27638,0.5917"
         style="fill:none;stroke:#000000" />
      <path
         id="path8097"
         d="m 316.38543,1295.8193 -0.35433,0.5563"
         style="fill:none;stroke:#000000" />
      <path
         id="path8099"
         d="m 316.0311,1296.3756 -0.41811,0.5031"
         style="fill:none;stroke:#000000" />
      <path
         id="path8101"
         d="m 315.61299,1296.8787 -0.4748,0.45"
         style="fill:none;stroke:#000000" />
      <path
         id="path8103"
         d="m 315.13819,1297.3287 -0.5315,0.3827"
         style="fill:none;stroke:#000000" />
      <path
         id="path8105"
         d="m 314.60669,1297.7114 -0.57401,0.3189"
         style="fill:none;stroke:#000000" />
      <path
         id="path8107"
         d="m 314.03268,1298.0303 -0.60945,0.241"
         style="fill:none;stroke:#000000" />
      <path
         id="path8109"
         d="m 313.42323,1298.2713 -0.63425,0.163"
         style="fill:none;stroke:#000000" />
      <path
         id="path8111"
         d="m 312.78898,1298.4343 -0.65197,0.081"
         style="fill:none;stroke:#000000" />
      <path
         id="path8113"
         d="m 312.13701,1298.5157 -0.65551,0"
         style="fill:none;stroke:#000000" />
      <path
         id="path8115"
         d="m 311.4815,1298.5157 -0.64843,-0.081"
         style="fill:none;stroke:#000000" />
      <path
         id="path8117"
         d="m 310.83307,1298.4343 -0.63779,-0.163"
         style="fill:none;stroke:#000000" />
      <path
         id="path8119"
         d="m 310.19528,1298.2713 -0.60945,-0.241"
         style="fill:none;stroke:#000000" />
      <path
         id="path8121"
         d="m 309.58583,1298.0303 -0.57402,-0.3189"
         style="fill:none;stroke:#000000" />
      <path
         id="path8123"
         d="m 309.01181,1297.7114 -0.52795,-0.3827"
         style="fill:none;stroke:#000000" />
      <path
         id="path8125"
         d="m 308.48386,1297.3287 -0.47835,-0.45"
         style="fill:none;stroke:#000000" />
      <path
         id="path8127"
         d="m 308.00551,1296.8787 -0.41811,-0.5031"
         style="fill:none;stroke:#000000" />
      <path
         id="path8129"
         d="m 307.5874,1296.3756 -0.35079,-0.5563"
         style="fill:none;stroke:#000000" />
      <path
         id="path8131"
         d="m 307.23661,1295.8193 -0.27992,-0.5917"
         style="fill:none;stroke:#000000" />
      <path
         id="path8133"
         d="m 306.95669,1295.2276 -0.20197,-0.6237"
         style="fill:none;stroke:#000000" />
      <path
         id="path8135"
         d="m 306.75472,1294.6039 -0.12401,-0.6448"
         style="fill:none;stroke:#000000" />
      <path
         id="path8137"
         d="m 306.63071,1293.9591 -0.0425,-0.652"
         style="fill:none;stroke:#000000" />
      <path
         id="path8139"
         d="m 306.58819,811.41732 0.0425,-0.65197"
         style="fill:none;stroke:#000000" />
      <path
         id="path8141"
         d="m 306.63071,810.76535 0.12401,-0.64488"
         style="fill:none;stroke:#000000" />
      <path
         id="path8143"
         d="m 306.75472,810.12047 0.20197,-0.62362"
         style="fill:none;stroke:#000000" />
      <path
         id="path8145"
         d="m 306.95669,809.49685 0.27992,-0.59173"
         style="fill:none;stroke:#000000" />
      <path
         id="path8147"
         d="m 307.23661,808.90512 0.35079,-0.5563"
         style="fill:none;stroke:#000000" />
      <path
         id="path8149"
         d="m 307.5874,808.34882 0.41811,-0.50315"
         style="fill:none;stroke:#000000" />
      <path
         id="path8151"
         d="m 308.00551,807.84567 0.47835,-0.45"
         style="fill:none;stroke:#000000" />
      <path
         id="path8153"
         d="m 308.48386,807.39567 0.52795,-0.38268"
         style="fill:none;stroke:#000000" />
      <path
         id="path8155"
         d="m 309.01181,807.01299 0.57402,-0.3189"
         style="fill:none;stroke:#000000" />
      <path
         id="path8157"
         d="m 309.58583,806.69409 0.60945,-0.24094"
         style="fill:none;stroke:#000000" />
      <path
         id="path8159"
         d="m 310.19528,806.45315 0.63779,-0.16299"
         style="fill:none;stroke:#000000" />
      <path
         id="path8161"
         d="m 310.83307,806.29016 0.64843,-0.0815"
         style="fill:none;stroke:#000000" />
      <path
         id="path8163"
         d="m 311.4815,806.20866 0.65551,0"
         style="fill:none;stroke:#000000" />
      <path
         id="path8165"
         d="m 312.13701,806.20866 0.65197,0.0815"
         style="fill:none;stroke:#000000" />
      <path
         id="path8167"
         d="m 312.78898,806.29016 0.63425,0.16299"
         style="fill:none;stroke:#000000" />
      <path
         id="path8169"
         d="m 313.42323,806.45315 0.60945,0.24094"
         style="fill:none;stroke:#000000" />
      <path
         id="path8171"
         d="m 314.03268,806.69409 0.57401,0.3189"
         style="fill:none;stroke:#000000" />
      <path
         id="path8173"
         d="m 314.60669,807.01299 0.5315,0.38268"
         style="fill:none;stroke:#000000" />
      <path
         id="path8175"
         d="m 315.13819,807.39567 0.4748,0.45"
         style="fill:none;stroke:#000000" />
      <path
         id="path8177"
         d="m 315.61299,807.84567 0.41811,0.50315"
         style="fill:none;stroke:#000000" />
      <path
         id="path8179"
         d="m 316.0311,808.34882 0.35433,0.5563"
         style="fill:none;stroke:#000000" />
      <path
         id="path8181"
         d="m 316.38543,808.90512 0.27638,0.59173"
         style="fill:none;stroke:#000000" />
      <path
         id="path8183"
         d="m 316.66181,809.49685 0.20197,0.62362"
         style="fill:none;stroke:#000000" />
      <path
         id="path8185"
         d="m 316.86378,810.12047 0.12401,0.64488"
         style="fill:none;stroke:#000000" />
      <path
         id="path8187"
         d="m 316.98779,810.76535 0.0425,0.65197"
         style="fill:none;stroke:#000000" />
      <path
         id="path8189"
         d="m 317.03031,811.41732 -0.0425,0.65552"
         style="fill:none;stroke:#000000" />
      <path
         id="path8191"
         d="m 316.98779,812.07284 -0.12401,0.64488"
         style="fill:none;stroke:#000000" />
      <path
         id="path8193"
         d="m 316.86378,812.71772 -0.20197,0.62362"
         style="fill:none;stroke:#000000" />
      <path
         id="path8195"
         d="m 316.66181,813.34134 -0.27638,0.59173"
         style="fill:none;stroke:#000000" />
      <path
         id="path8197"
         d="m 316.38543,813.93307 -0.35433,0.55276"
         style="fill:none;stroke:#000000" />
      <path
         id="path8199"
         d="m 316.0311,814.48583 -0.41811,0.50669"
         style="fill:none;stroke:#000000" />
      <path
         id="path8201"
         d="m 315.61299,814.99252 -0.4748,0.45"
         style="fill:none;stroke:#000000" />
      <path
         id="path8203"
         d="m 315.13819,815.44252 -0.5315,0.38268"
         style="fill:none;stroke:#000000" />
      <path
         id="path8205"
         d="m 314.60669,815.8252 -0.57401,0.31535"
         style="fill:none;stroke:#000000" />
      <path
         id="path8207"
         d="m 314.03268,816.14055 -0.60945,0.24095"
         style="fill:none;stroke:#000000" />
      <path
         id="path8209"
         d="m 313.42323,816.3815 -0.63425,0.16299"
         style="fill:none;stroke:#000000" />
      <path
         id="path8211"
         d="m 312.78898,816.54449 -0.65197,0.085"
         style="fill:none;stroke:#000000" />
      <path
         id="path8213"
         d="m 312.13701,816.62953 -0.65551,0"
         style="fill:none;stroke:#000000" />
      <path
         id="path8215"
         d="m 311.4815,816.62953 -0.64843,-0.085"
         style="fill:none;stroke:#000000" />
      <path
         id="path8217"
         d="m 310.83307,816.54449 -0.63779,-0.16299"
         style="fill:none;stroke:#000000" />
      <path
         id="path8219"
         d="m 310.19528,816.3815 -0.60945,-0.24095"
         style="fill:none;stroke:#000000" />
      <path
         id="path8221"
         d="m 309.58583,816.14055 -0.57402,-0.31535"
         style="fill:none;stroke:#000000" />
      <path
         id="path8223"
         d="m 309.01181,815.8252 -0.52795,-0.38268"
         style="fill:none;stroke:#000000" />
      <path
         id="path8225"
         d="m 308.48386,815.44252 -0.47835,-0.45"
         style="fill:none;stroke:#000000" />
      <path
         id="path8227"
         d="m 308.00551,814.99252 -0.41811,-0.50669"
         style="fill:none;stroke:#000000" />
      <path
         id="path8229"
         d="m 307.5874,814.48583 -0.35079,-0.55276"
         style="fill:none;stroke:#000000" />
      <path
         id="path8231"
         d="m 307.23661,813.93307 -0.27992,-0.59173"
         style="fill:none;stroke:#000000" />
      <path
         id="path8233"
         d="m 306.95669,813.34134 -0.20197,-0.62362"
         style="fill:none;stroke:#000000" />
      <path
         id="path8235"
         d="m 306.75472,812.71772 -0.12401,-0.64488"
         style="fill:none;stroke:#000000" />
      <path
         id="path8237"
         d="m 306.63071,812.07284 -0.0425,-0.65552"
         style="fill:none;stroke:#000000" />
      <path
         id="path8239"
         d="m 332.06102,1237.9571 0,-45"
         style="fill:none;stroke:#000000" />
      <path
         id="path8241"
         d="m 332.06102,1192.9571 10.62992,0"
         style="fill:none;stroke:#000000" />
      <path
         id="path8243"
         d="m 342.69094,1192.9571 0,45"
         style="fill:none;stroke:#000000" />
      <path
         id="path8245"
         d="m 342.69094,1237.9571 -10.62992,0"
         style="fill:none;stroke:#000000" />
      <path
         id="path8247"
         d="m 332.06102,1074.8622 0,-45"
         style="fill:none;stroke:#000000" />
      <path
         id="path8249"
         d="m 332.06102,1029.8622 10.62992,0"
         style="fill:none;stroke:#000000" />
      <path
         id="path8251"
         d="m 342.69094,1029.8622 0,45"
         style="fill:none;stroke:#000000" />
      <path
         id="path8253"
         d="m 342.69094,1074.8622 -10.62992,0"
         style="fill:none;stroke:#000000" />
      <path
         id="path8255"
         d="m 332.06102,911.76732 0,-45"
         style="fill:none;stroke:#000000" />
      <path
         id="path8257"
         d="m 332.06102,866.76732 10.62992,0"
         style="fill:none;stroke:#000000" />
      <path
         id="path8259"
         d="m 342.69094,866.76732 0,45"
         style="fill:none;stroke:#000000" />
      <path
         id="path8261"
         d="m 342.69094,911.76732 -10.62992,0"
         style="fill:none;stroke:#000000" />
    </g>
  </g>
</svg>
