<?xml version="1.0" encoding="UTF-8" standalone="no"?>
<svg
   xmlns:dc="http://purl.org/dc/elements/1.1/"
   xmlns:cc="http://creativecommons.org/ns#"
   xmlns:rdf="http://www.w3.org/1999/02/22-rdf-syntax-ns#"
   xmlns:svg="http://www.w3.org/2000/svg"
   xmlns="http://www.w3.org/2000/svg"
   xmlns:sodipodi="http://sodipodi.sourceforge.net/DTD/sodipodi-0.dtd"
   xmlns:inkscape="http://www.inkscape.org/namespaces/inkscape"
   id="svg6989"
   version="1.1"
   inkscape:version="0.47 r22583"
   width="100%"
   height="100%"
   sodipodi:docname="top_lower_projection_18x18.dxf">
  <metadata
     id="metadata7621">
    <rdf:RDF>
      <cc:Work
         rdf:about="">
        <dc:format>image/svg+xml</dc:format>
        <dc:type
           rdf:resource="http://purl.org/dc/dcmitype/StillImage" />
        <dc:title></dc:title>
      </cc:Work>
    </rdf:RDF>
  </metadata>
  <sodipodi:namedview
     pagecolor="#ffffff"
     bordercolor="#666666"
     borderopacity="1"
     objecttolerance="10"
     gridtolerance="10"
     guidetolerance="10"
     inkscape:pageopacity="0"
     inkscape:pageshadow="2"
     inkscape:window-width="1920"
     inkscape:window-height="1005"
     id="namedview7619"
     showgrid="false"
     inkscape:zoom="0.23566031"
     inkscape:cx="372.04724"
     inkscape:cy="526.18109"
     inkscape:window-x="0"
     inkscape:window-y="24"
     inkscape:window-maximized="1"
     inkscape:current-layer="g7001" />
  <desc
     id="desc6991">/home/jo/repos/led_transilluminator_enclosure/top_lower_projection_18x18.dxf - scale = 1.000000</desc>
  <defs
     id="defs6993">
    <inkscape:perspective
       sodipodi:type="inkscape:persp3d"
       inkscape:vp_x="0 : 0.5 : 1"
       inkscape:vp_y="0 : 1000 : 0"
       inkscape:vp_z="1 : 0.5 : 1"
       inkscape:persp3d-origin="0.5 : 0.33333333 : 1"
       id="perspective7623" />
    <marker
       refY="0.0"
       refX="0.0"
       style="overflow:visible"
       id="DistanceX"
       orient="auto">
      <path
         style="stroke:#000000; stroke-width:0.5"
         d="M 3,-3 L -3,3 M 0,-5 L  0,5"
         id="path6996" />
    </marker>
    <symbol
       id="*Model_Space" />
    <symbol
       id="*Paper_Space" />
    <symbol
       id="*Paper_Space0" />
  </defs>
  <g
     inkscape:label="0"
     inkscape:groupmode="layer"
     id="g7001">
    <g
       id="g10340"
       transform="matrix(0,1,-1,0,1421.5376,513.4509)">
      <path
         id="path7003"
         d="m -342.69094,1237.9571 0,-45"
         style="fill:none;stroke:#000000" />
      <path
         id="path7005"
         d="m -342.69094,1192.9571 10.62992,0"
         style="fill:none;stroke:#000000" />
      <path
         id="path7007"
         d="m -332.06102,1192.9571 0,45"
         style="fill:none;stroke:#000000" />
      <path
         id="path7009"
         d="m -332.06102,1237.9571 -10.62992,0"
         style="fill:none;stroke:#000000" />
      <path
         id="path7011"
         d="m -342.69094,1074.8622 0,-45"
         style="fill:none;stroke:#000000" />
      <path
         id="path7013"
         d="m -342.69094,1029.8622 10.62992,0"
         style="fill:none;stroke:#000000" />
      <path
         id="path7015"
         d="m -332.06102,1029.8622 0,45"
         style="fill:none;stroke:#000000" />
      <path
         id="path7017"
         d="m -332.06102,1074.8622 -10.62992,0"
         style="fill:none;stroke:#000000" />
      <path
         id="path7019"
         d="m -342.69094,911.76732 0,-45"
         style="fill:none;stroke:#000000" />
      <path
         id="path7021"
         d="m -342.69094,866.76732 10.62992,0"
         style="fill:none;stroke:#000000" />
      <path
         id="path7023"
         d="m -332.06102,866.76732 0,45"
         style="fill:none;stroke:#000000" />
      <path
         id="path7025"
         d="m -332.06102,911.76732 -10.62992,0"
         style="fill:none;stroke:#000000" />
      <path
         id="path7027"
         d="m -317.03031,1293.3071 0.0425,-0.6555"
         style="fill:none;stroke:#000000" />
      <path
         id="path7029"
         d="m -316.98779,1292.6516 0.12401,-0.6449"
         style="fill:none;stroke:#000000" />
      <path
         id="path7031"
         d="m -316.86378,1292.0067 0.20197,-0.6236"
         style="fill:none;stroke:#000000" />
      <path
         id="path7033"
         d="m -316.66181,1291.3831 0.27638,-0.5918"
         style="fill:none;stroke:#000000" />
      <path
         id="path7035"
         d="m -316.38543,1290.7913 0.35433,-0.5527"
         style="fill:none;stroke:#000000" />
      <path
         id="path7037"
         d="m -316.0311,1290.2386 0.41811,-0.5067"
         style="fill:none;stroke:#000000" />
      <path
         id="path7039"
         d="m -315.61299,1289.7319 0.4748,-0.45"
         style="fill:none;stroke:#000000" />
      <path
         id="path7041"
         d="m -315.13819,1289.2819 0.5315,-0.3827"
         style="fill:none;stroke:#000000" />
      <path
         id="path7043"
         d="m -314.60669,1288.8992 0.57401,-0.3153"
         style="fill:none;stroke:#000000" />
      <path
         id="path7045"
         d="m -314.03268,1288.5839 0.60945,-0.241"
         style="fill:none;stroke:#000000" />
      <path
         id="path7047"
         d="m -313.42323,1288.3429 0.63425,-0.163"
         style="fill:none;stroke:#000000" />
      <path
         id="path7049"
         d="m -312.78898,1288.1799 0.65197,-0.085"
         style="fill:none;stroke:#000000" />
      <path
         id="path7051"
         d="m -312.13701,1288.0949 0.65551,0"
         style="fill:none;stroke:#000000" />
      <path
         id="path7053"
         d="m -311.4815,1288.0949 0.64843,0.085"
         style="fill:none;stroke:#000000" />
      <path
         id="path7055"
         d="m -310.83307,1288.1799 0.63779,0.163"
         style="fill:none;stroke:#000000" />
      <path
         id="path7057"
         d="m -310.19528,1288.3429 0.60945,0.241"
         style="fill:none;stroke:#000000" />
      <path
         id="path7059"
         d="m -309.58583,1288.5839 0.57402,0.3153"
         style="fill:none;stroke:#000000" />
      <path
         id="path7061"
         d="m -309.01181,1288.8992 0.52795,0.3827"
         style="fill:none;stroke:#000000" />
      <path
         id="path7063"
         d="m -308.48386,1289.2819 0.47835,0.45"
         style="fill:none;stroke:#000000" />
      <path
         id="path7065"
         d="m -308.00551,1289.7319 0.41811,0.5067"
         style="fill:none;stroke:#000000" />
      <path
         id="path7067"
         d="m -307.5874,1290.2386 0.35079,0.5527"
         style="fill:none;stroke:#000000" />
      <path
         id="path7069"
         d="m -307.23661,1290.7913 0.27992,0.5918"
         style="fill:none;stroke:#000000" />
      <path
         id="path7071"
         d="m -306.95669,1291.3831 0.20197,0.6236"
         style="fill:none;stroke:#000000" />
      <path
         id="path7073"
         d="m -306.75472,1292.0067 0.12401,0.6449"
         style="fill:none;stroke:#000000" />
      <path
         id="path7075"
         d="m -306.63071,1292.6516 0.0425,0.6555"
         style="fill:none;stroke:#000000" />
      <path
         id="path7077"
         d="m -306.58819,1293.3071 -0.0425,0.652"
         style="fill:none;stroke:#000000" />
      <path
         id="path7079"
         d="m -306.63071,1293.9591 -0.12401,0.6448"
         style="fill:none;stroke:#000000" />
      <path
         id="path7081"
         d="m -306.75472,1294.6039 -0.20197,0.6237"
         style="fill:none;stroke:#000000" />
      <path
         id="path7083"
         d="m -306.95669,1295.2276 -0.27992,0.5917"
         style="fill:none;stroke:#000000" />
      <path
         id="path7085"
         d="m -307.23661,1295.8193 -0.35079,0.5563"
         style="fill:none;stroke:#000000" />
      <path
         id="path7087"
         d="m -307.5874,1296.3756 -0.41811,0.5031"
         style="fill:none;stroke:#000000" />
      <path
         id="path7089"
         d="m -308.00551,1296.8787 -0.47835,0.45"
         style="fill:none;stroke:#000000" />
      <path
         id="path7091"
         d="m -308.48386,1297.3287 -0.52795,0.3827"
         style="fill:none;stroke:#000000" />
      <path
         id="path7093"
         d="m -309.01181,1297.7114 -0.57402,0.3189"
         style="fill:none;stroke:#000000" />
      <path
         id="path7095"
         d="m -309.58583,1298.0303 -0.60945,0.241"
         style="fill:none;stroke:#000000" />
      <path
         id="path7097"
         d="m -310.19528,1298.2713 -0.63779,0.163"
         style="fill:none;stroke:#000000" />
      <path
         id="path7099"
         d="m -310.83307,1298.4343 -0.64843,0.081"
         style="fill:none;stroke:#000000" />
      <path
         id="path7101"
         d="m -311.4815,1298.5157 -0.65551,0"
         style="fill:none;stroke:#000000" />
      <path
         id="path7103"
         d="m -312.13701,1298.5157 -0.65197,-0.081"
         style="fill:none;stroke:#000000" />
      <path
         id="path7105"
         d="m -312.78898,1298.4343 -0.63425,-0.163"
         style="fill:none;stroke:#000000" />
      <path
         id="path7107"
         d="m -313.42323,1298.2713 -0.60945,-0.241"
         style="fill:none;stroke:#000000" />
      <path
         id="path7109"
         d="m -314.03268,1298.0303 -0.57401,-0.3189"
         style="fill:none;stroke:#000000" />
      <path
         id="path7111"
         d="m -314.60669,1297.7114 -0.5315,-0.3827"
         style="fill:none;stroke:#000000" />
      <path
         id="path7113"
         d="m -315.13819,1297.3287 -0.4748,-0.45"
         style="fill:none;stroke:#000000" />
      <path
         id="path7115"
         d="m -315.61299,1296.8787 -0.41811,-0.5031"
         style="fill:none;stroke:#000000" />
      <path
         id="path7117"
         d="m -316.0311,1296.3756 -0.35433,-0.5563"
         style="fill:none;stroke:#000000" />
      <path
         id="path7119"
         d="m -316.38543,1295.8193 -0.27638,-0.5917"
         style="fill:none;stroke:#000000" />
      <path
         id="path7121"
         d="m -316.66181,1295.2276 -0.20197,-0.6237"
         style="fill:none;stroke:#000000" />
      <path
         id="path7123"
         d="m -316.86378,1294.6039 -0.12401,-0.6448"
         style="fill:none;stroke:#000000" />
      <path
         id="path7125"
         d="m -316.98779,1293.9591 -0.0425,-0.652"
         style="fill:none;stroke:#000000" />
      <path
         id="path7127"
         d="m -317.03031,811.41732 0.0425,-0.65197"
         style="fill:none;stroke:#000000" />
      <path
         id="path7129"
         d="m -316.98779,810.76535 0.12401,-0.64488"
         style="fill:none;stroke:#000000" />
      <path
         id="path7131"
         d="m -316.86378,810.12047 0.20197,-0.62362"
         style="fill:none;stroke:#000000" />
      <path
         id="path7133"
         d="m -316.66181,809.49685 0.27638,-0.59173"
         style="fill:none;stroke:#000000" />
      <path
         id="path7135"
         d="m -316.38543,808.90512 0.35433,-0.5563"
         style="fill:none;stroke:#000000" />
      <path
         id="path7137"
         d="m -316.0311,808.34882 0.41811,-0.50315"
         style="fill:none;stroke:#000000" />
      <path
         id="path7139"
         d="m -315.61299,807.84567 0.4748,-0.45"
         style="fill:none;stroke:#000000" />
      <path
         id="path7141"
         d="m -315.13819,807.39567 0.5315,-0.38268"
         style="fill:none;stroke:#000000" />
      <path
         id="path7143"
         d="m -314.60669,807.01299 0.57401,-0.3189"
         style="fill:none;stroke:#000000" />
      <path
         id="path7145"
         d="m -314.03268,806.69409 0.60945,-0.24094"
         style="fill:none;stroke:#000000" />
      <path
         id="path7147"
         d="m -313.42323,806.45315 0.63425,-0.16299"
         style="fill:none;stroke:#000000" />
      <path
         id="path7149"
         d="m -312.78898,806.29016 0.65197,-0.0815"
         style="fill:none;stroke:#000000" />
      <path
         id="path7151"
         d="m -312.13701,806.20866 0.65551,0"
         style="fill:none;stroke:#000000" />
      <path
         id="path7153"
         d="m -311.4815,806.20866 0.64843,0.0815"
         style="fill:none;stroke:#000000" />
      <path
         id="path7155"
         d="m -310.83307,806.29016 0.63779,0.16299"
         style="fill:none;stroke:#000000" />
      <path
         id="path7157"
         d="m -310.19528,806.45315 0.60945,0.24094"
         style="fill:none;stroke:#000000" />
      <path
         id="path7159"
         d="m -309.58583,806.69409 0.57402,0.3189"
         style="fill:none;stroke:#000000" />
      <path
         id="path7161"
         d="m -309.01181,807.01299 0.52795,0.38268"
         style="fill:none;stroke:#000000" />
      <path
         id="path7163"
         d="m -308.48386,807.39567 0.47835,0.45"
         style="fill:none;stroke:#000000" />
      <path
         id="path7165"
         d="m -308.00551,807.84567 0.41811,0.50315"
         style="fill:none;stroke:#000000" />
      <path
         id="path7167"
         d="m -307.5874,808.34882 0.35079,0.5563"
         style="fill:none;stroke:#000000" />
      <path
         id="path7169"
         d="m -307.23661,808.90512 0.27992,0.59173"
         style="fill:none;stroke:#000000" />
      <path
         id="path7171"
         d="m -306.95669,809.49685 0.20197,0.62362"
         style="fill:none;stroke:#000000" />
      <path
         id="path7173"
         d="m -306.75472,810.12047 0.12401,0.64488"
         style="fill:none;stroke:#000000" />
      <path
         id="path7175"
         d="m -306.63071,810.76535 0.0425,0.65197"
         style="fill:none;stroke:#000000" />
      <path
         id="path7177"
         d="m -306.58819,811.41732 -0.0425,0.65552"
         style="fill:none;stroke:#000000" />
      <path
         id="path7179"
         d="m -306.63071,812.07284 -0.12401,0.64488"
         style="fill:none;stroke:#000000" />
      <path
         id="path7181"
         d="m -306.75472,812.71772 -0.20197,0.62362"
         style="fill:none;stroke:#000000" />
      <path
         id="path7183"
         d="m -306.95669,813.34134 -0.27992,0.59173"
         style="fill:none;stroke:#000000" />
      <path
         id="path7185"
         d="m -307.23661,813.93307 -0.35079,0.55276"
         style="fill:none;stroke:#000000" />
      <path
         id="path7187"
         d="m -307.5874,814.48583 -0.41811,0.50669"
         style="fill:none;stroke:#000000" />
      <path
         id="path7189"
         d="m -308.00551,814.99252 -0.47835,0.45"
         style="fill:none;stroke:#000000" />
      <path
         id="path7191"
         d="m -308.48386,815.44252 -0.52795,0.38268"
         style="fill:none;stroke:#000000" />
      <path
         id="path7193"
         d="m -309.01181,815.8252 -0.57402,0.31535"
         style="fill:none;stroke:#000000" />
      <path
         id="path7195"
         d="m -309.58583,816.14055 -0.60945,0.24095"
         style="fill:none;stroke:#000000" />
      <path
         id="path7197"
         d="m -310.19528,816.3815 -0.63779,0.16299"
         style="fill:none;stroke:#000000" />
      <path
         id="path7199"
         d="m -310.83307,816.54449 -0.64843,0.085"
         style="fill:none;stroke:#000000" />
      <path
         id="path7201"
         d="m -311.4815,816.62953 -0.65551,0"
         style="fill:none;stroke:#000000" />
      <path
         id="path7203"
         d="m -312.13701,816.62953 -0.65197,-0.085"
         style="fill:none;stroke:#000000" />
      <path
         id="path7205"
         d="m -312.78898,816.54449 -0.63425,-0.16299"
         style="fill:none;stroke:#000000" />
      <path
         id="path7207"
         d="m -313.42323,816.3815 -0.60945,-0.24095"
         style="fill:none;stroke:#000000" />
      <path
         id="path7209"
         d="m -314.03268,816.14055 -0.57401,-0.31535"
         style="fill:none;stroke:#000000" />
      <path
         id="path7211"
         d="m -314.60669,815.8252 -0.5315,-0.38268"
         style="fill:none;stroke:#000000" />
      <path
         id="path7213"
         d="m -315.13819,815.44252 -0.4748,-0.45"
         style="fill:none;stroke:#000000" />
      <path
         id="path7215"
         d="m -315.61299,814.99252 -0.41811,-0.50669"
         style="fill:none;stroke:#000000" />
      <path
         id="path7217"
         d="m -316.0311,814.48583 -0.35433,-0.55276"
         style="fill:none;stroke:#000000" />
      <path
         id="path7219"
         d="m -316.38543,813.93307 -0.27638,-0.59173"
         style="fill:none;stroke:#000000" />
      <path
         id="path7221"
         d="m -316.66181,813.34134 -0.20197,-0.62362"
         style="fill:none;stroke:#000000" />
      <path
         id="path7223"
         d="m -316.86378,812.71772 -0.12401,-0.64488"
         style="fill:none;stroke:#000000" />
      <path
         id="path7225"
         d="m -316.98779,812.07284 -0.0425,-0.65552"
         style="fill:none;stroke:#000000" />
      <path
         id="path7227"
         d="m -351.69094,1308.887 0,-513.0496"
         style="fill:none;stroke:#000000" />
      <path
         id="path7229"
         d="m -351.69094,795.8374 0.1807,-2.81693"
         style="fill:none;stroke:#000000" />
      <path
         id="path7231"
         d="m -351.51024,793.02047 0.52796,-2.77795"
         style="fill:none;stroke:#000000" />
      <path
         id="path7233"
         d="m -350.98228,790.24252 0.87165,-2.68583"
         style="fill:none;stroke:#000000" />
      <path
         id="path7235"
         d="m -350.11063,787.55669 1.20472,-2.55827"
         style="fill:none;stroke:#000000" />
      <path
         id="path7237"
         d="m -348.90591,784.99842 1.513,-2.38464"
         style="fill:none;stroke:#000000" />
      <path
         id="path7239"
         d="m -347.39291,782.61378 1.8,-2.17559"
         style="fill:none;stroke:#000000" />
      <path
         id="path7241"
         d="m -345.59291,780.43819 2.0622,-1.93465"
         style="fill:none;stroke:#000000" />
      <path
         id="path7243"
         d="m -343.53071,778.50354 2.28543,-1.66181"
         style="fill:none;stroke:#000000" />
      <path
         id="path7245"
         d="m -341.24528,776.84173 2.47678,-1.36063"
         style="fill:none;stroke:#000000" />
      <path
         id="path7247"
         d="m -338.7685,775.4811 2.62559,-1.04173"
         style="fill:none;stroke:#000000" />
      <path
         id="path7249"
         d="m -336.14291,774.43937 2.73897,-0.70158"
         style="fill:none;stroke:#000000" />
      <path
         id="path7251"
         d="m -333.40394,773.73779 2.80276,-0.35433"
         style="fill:none;stroke:#000000" />
      <path
         id="path7253"
         d="m -330.60118,773.38346 1.41024,0"
         style="fill:none;stroke:#000000" />
      <path
         id="path7255"
         d="m -329.19094,773.38346 0,-0.0461"
         style="fill:none;stroke:#000000" />
      <path
         id="path7257"
         d="m -329.19094,773.3374 658.38188,0"
         style="fill:none;stroke:#000000" />
      <path
         id="path7259"
         d="m 329.19094,773.3374 0,0.0461"
         style="fill:none;stroke:#000000" />
      <path
         id="path7261"
         d="m 329.19094,773.38346 1.41024,0"
         style="fill:none;stroke:#000000" />
      <path
         id="path7263"
         d="m 330.60118,773.38346 2.80276,0.35433"
         style="fill:none;stroke:#000000" />
      <path
         id="path7265"
         d="m 333.40394,773.73779 2.73897,0.70158"
         style="fill:none;stroke:#000000" />
      <path
         id="path7267"
         d="m 336.14291,774.43937 2.62559,1.04173"
         style="fill:none;stroke:#000000" />
      <path
         id="path7269"
         d="m 338.7685,775.4811 2.47678,1.36063"
         style="fill:none;stroke:#000000" />
      <path
         id="path7271"
         d="m 341.24528,776.84173 2.28543,1.66181"
         style="fill:none;stroke:#000000" />
      <path
         id="path7273"
         d="m 343.53071,778.50354 2.0622,1.93465"
         style="fill:none;stroke:#000000" />
      <path
         id="path7275"
         d="m 345.59291,780.43819 1.8,2.17559"
         style="fill:none;stroke:#000000" />
      <path
         id="path7277"
         d="m 347.39291,782.61378 1.513,2.38464"
         style="fill:none;stroke:#000000" />
      <path
         id="path7279"
         d="m 348.90591,784.99842 1.20472,2.55827"
         style="fill:none;stroke:#000000" />
      <path
         id="path7281"
         d="m 350.11063,787.55669 0.87165,2.68583"
         style="fill:none;stroke:#000000" />
      <path
         id="path7283"
         d="m 350.98228,790.24252 0.52796,2.77795"
         style="fill:none;stroke:#000000" />
      <path
         id="path7285"
         d="m 351.51024,793.02047 0.1807,2.81693"
         style="fill:none;stroke:#000000" />
      <path
         id="path7287"
         d="m 351.69094,795.8374 0,513.0496"
         style="fill:none;stroke:#000000" />
      <path
         id="path7289"
         d="m 351.69094,1308.887 -0.1807,2.8169"
         style="fill:none;stroke:#000000" />
      <path
         id="path7291"
         d="m 351.51024,1311.7039 -0.52796,2.778"
         style="fill:none;stroke:#000000" />
      <path
         id="path7293"
         d="m 350.98228,1314.4819 -0.87165,2.6858"
         style="fill:none;stroke:#000000" />
      <path
         id="path7295"
         d="m 350.11063,1317.1677 -1.20472,2.5583"
         style="fill:none;stroke:#000000" />
      <path
         id="path7297"
         d="m 348.90591,1319.726 -1.513,2.3846"
         style="fill:none;stroke:#000000" />
      <path
         id="path7299"
         d="m 347.39291,1322.1106 -1.8,2.1756"
         style="fill:none;stroke:#000000" />
      <path
         id="path7301"
         d="m 345.59291,1324.2862 -2.0622,1.9347"
         style="fill:none;stroke:#000000" />
      <path
         id="path7303"
         d="m 343.53071,1326.2209 -2.28543,1.6618"
         style="fill:none;stroke:#000000" />
      <path
         id="path7305"
         d="m 341.24528,1327.8827 -2.47678,1.3606"
         style="fill:none;stroke:#000000" />
      <path
         id="path7307"
         d="m 338.7685,1329.2433 -2.62559,1.0417"
         style="fill:none;stroke:#000000" />
      <path
         id="path7309"
         d="m 336.14291,1330.285 -2.73897,0.7016"
         style="fill:none;stroke:#000000" />
      <path
         id="path7311"
         d="m 333.40394,1330.9866 -2.80276,0.3543"
         style="fill:none;stroke:#000000" />
      <path
         id="path7313"
         d="m 330.60118,1331.3409 -1.41024,0"
         style="fill:none;stroke:#000000" />
      <path
         id="path7315"
         d="m 329.19094,1331.3409 0,0.046"
         style="fill:none;stroke:#000000" />
      <path
         id="path7317"
         d="m 329.19094,1331.387 -658.38188,0"
         style="fill:none;stroke:#000000" />
      <path
         id="path7319"
         d="m -329.19094,1331.387 0,-0.046"
         style="fill:none;stroke:#000000" />
      <path
         id="path7321"
         d="m -329.19094,1331.3409 -1.41024,0"
         style="fill:none;stroke:#000000" />
      <path
         id="path7323"
         d="m -330.60118,1331.3409 -2.80276,-0.3543"
         style="fill:none;stroke:#000000" />
      <path
         id="path7325"
         d="m -333.40394,1330.9866 -2.73897,-0.7016"
         style="fill:none;stroke:#000000" />
      <path
         id="path7327"
         d="m -336.14291,1330.285 -2.62559,-1.0417"
         style="fill:none;stroke:#000000" />
      <path
         id="path7329"
         d="m -338.7685,1329.2433 -2.47678,-1.3606"
         style="fill:none;stroke:#000000" />
      <path
         id="path7331"
         d="m -341.24528,1327.8827 -2.28543,-1.6618"
         style="fill:none;stroke:#000000" />
      <path
         id="path7333"
         d="m -343.53071,1326.2209 -2.0622,-1.9347"
         style="fill:none;stroke:#000000" />
      <path
         id="path7335"
         d="m -345.59291,1324.2862 -1.8,-2.1756"
         style="fill:none;stroke:#000000" />
      <path
         id="path7337"
         d="m -347.39291,1322.1106 -1.513,-2.3846"
         style="fill:none;stroke:#000000" />
      <path
         id="path7339"
         d="m -348.90591,1319.726 -1.20472,-2.5583"
         style="fill:none;stroke:#000000" />
      <path
         id="path7341"
         d="m -350.11063,1317.1677 -0.87165,-2.6858"
         style="fill:none;stroke:#000000" />
      <path
         id="path7343"
         d="m -350.98228,1314.4819 -0.52796,-2.778"
         style="fill:none;stroke:#000000" />
      <path
         id="path7345"
         d="m -351.51024,1311.7039 -0.1807,-2.8169"
         style="fill:none;stroke:#000000" />
      <path
         id="path7347"
         d="m -221.73661,1324.187 0,-10.6299"
         style="fill:none;stroke:#000000" />
      <path
         id="path7349"
         d="m -221.73661,1313.5571 45,0"
         style="fill:none;stroke:#000000" />
      <path
         id="path7351"
         d="m -176.73661,1313.5571 0,10.6299"
         style="fill:none;stroke:#000000" />
      <path
         id="path7353"
         d="m -176.73661,1324.187 -45,0"
         style="fill:none;stroke:#000000" />
      <path
         id="path7355"
         d="m -221.73661,791.16732 0,-10.62992"
         style="fill:none;stroke:#000000" />
      <path
         id="path7357"
         d="m -221.73661,780.5374 45,0"
         style="fill:none;stroke:#000000" />
      <path
         id="path7359"
         d="m -176.73661,780.5374 0,10.62992"
         style="fill:none;stroke:#000000" />
      <path
         id="path7361"
         d="m -176.73661,791.16732 -45,0"
         style="fill:none;stroke:#000000" />
      <path
         id="path7363"
         d="m -22.5,1324.187 0,-10.6299"
         style="fill:none;stroke:#000000" />
      <path
         id="path7365"
         d="m -22.5,1313.5571 45,0"
         style="fill:none;stroke:#000000" />
      <path
         id="path7367"
         d="m 22.5,1313.5571 0,10.6299"
         style="fill:none;stroke:#000000" />
      <path
         id="path7369"
         d="m 22.5,1324.187 -45,0"
         style="fill:none;stroke:#000000" />
      <path
         id="path7371"
         d="m -22.5,791.16732 0,-10.62992"
         style="fill:none;stroke:#000000" />
      <path
         id="path7373"
         d="m -22.5,780.5374 45,0"
         style="fill:none;stroke:#000000" />
      <path
         id="path7375"
         d="m 22.5,780.5374 0,10.62992"
         style="fill:none;stroke:#000000" />
      <path
         id="path7377"
         d="m 22.5,791.16732 -45,0"
         style="fill:none;stroke:#000000" />
      <path
         id="path7379"
         d="m 176.73661,1324.187 0,-10.6299"
         style="fill:none;stroke:#000000" />
      <path
         id="path7381"
         d="m 176.73661,1313.5571 45,0"
         style="fill:none;stroke:#000000" />
      <path
         id="path7383"
         d="m 221.73661,1313.5571 0,10.6299"
         style="fill:none;stroke:#000000" />
      <path
         id="path7385"
         d="m 221.73661,1324.187 -45,0"
         style="fill:none;stroke:#000000" />
      <path
         id="path7387"
         d="m 176.73661,791.16732 0,-10.62992"
         style="fill:none;stroke:#000000" />
      <path
         id="path7389"
         d="m 176.73661,780.5374 45,0"
         style="fill:none;stroke:#000000" />
      <path
         id="path7391"
         d="m 221.73661,780.5374 0,10.62992"
         style="fill:none;stroke:#000000" />
      <path
         id="path7393"
         d="m 221.73661,791.16732 -45,0"
         style="fill:none;stroke:#000000" />
      <path
         id="path7395"
         d="m 306.58819,1293.3071 0.0425,-0.6555"
         style="fill:none;stroke:#000000" />
      <path
         id="path7397"
         d="m 306.63071,1292.6516 0.12401,-0.6449"
         style="fill:none;stroke:#000000" />
      <path
         id="path7399"
         d="m 306.75472,1292.0067 0.20197,-0.6236"
         style="fill:none;stroke:#000000" />
      <path
         id="path7401"
         d="m 306.95669,1291.3831 0.27992,-0.5918"
         style="fill:none;stroke:#000000" />
      <path
         id="path7403"
         d="m 307.23661,1290.7913 0.35079,-0.5527"
         style="fill:none;stroke:#000000" />
      <path
         id="path7405"
         d="m 307.5874,1290.2386 0.41811,-0.5067"
         style="fill:none;stroke:#000000" />
      <path
         id="path7407"
         d="m 308.00551,1289.7319 0.47835,-0.45"
         style="fill:none;stroke:#000000" />
      <path
         id="path7409"
         d="m 308.48386,1289.2819 0.52795,-0.3827"
         style="fill:none;stroke:#000000" />
      <path
         id="path7411"
         d="m 309.01181,1288.8992 0.57402,-0.3153"
         style="fill:none;stroke:#000000" />
      <path
         id="path7413"
         d="m 309.58583,1288.5839 0.60945,-0.241"
         style="fill:none;stroke:#000000" />
      <path
         id="path7415"
         d="m 310.19528,1288.3429 0.63779,-0.163"
         style="fill:none;stroke:#000000" />
      <path
         id="path7417"
         d="m 310.83307,1288.1799 0.64843,-0.085"
         style="fill:none;stroke:#000000" />
      <path
         id="path7419"
         d="m 311.4815,1288.0949 0.65551,0"
         style="fill:none;stroke:#000000" />
      <path
         id="path7421"
         d="m 312.13701,1288.0949 0.65197,0.085"
         style="fill:none;stroke:#000000" />
      <path
         id="path7423"
         d="m 312.78898,1288.1799 0.63425,0.163"
         style="fill:none;stroke:#000000" />
      <path
         id="path7425"
         d="m 313.42323,1288.3429 0.60945,0.241"
         style="fill:none;stroke:#000000" />
      <path
         id="path7427"
         d="m 314.03268,1288.5839 0.57401,0.3153"
         style="fill:none;stroke:#000000" />
      <path
         id="path7429"
         d="m 314.60669,1288.8992 0.5315,0.3827"
         style="fill:none;stroke:#000000" />
      <path
         id="path7431"
         d="m 315.13819,1289.2819 0.4748,0.45"
         style="fill:none;stroke:#000000" />
      <path
         id="path7433"
         d="m 315.61299,1289.7319 0.41811,0.5067"
         style="fill:none;stroke:#000000" />
      <path
         id="path7435"
         d="m 316.0311,1290.2386 0.35433,0.5527"
         style="fill:none;stroke:#000000" />
      <path
         id="path7437"
         d="m 316.38543,1290.7913 0.27638,0.5918"
         style="fill:none;stroke:#000000" />
      <path
         id="path7439"
         d="m 316.66181,1291.3831 0.20197,0.6236"
         style="fill:none;stroke:#000000" />
      <path
         id="path7441"
         d="m 316.86378,1292.0067 0.12401,0.6449"
         style="fill:none;stroke:#000000" />
      <path
         id="path7443"
         d="m 316.98779,1292.6516 0.0425,0.6555"
         style="fill:none;stroke:#000000" />
      <path
         id="path7445"
         d="m 317.03031,1293.3071 -0.0425,0.652"
         style="fill:none;stroke:#000000" />
      <path
         id="path7447"
         d="m 316.98779,1293.9591 -0.12401,0.6448"
         style="fill:none;stroke:#000000" />
      <path
         id="path7449"
         d="m 316.86378,1294.6039 -0.20197,0.6237"
         style="fill:none;stroke:#000000" />
      <path
         id="path7451"
         d="m 316.66181,1295.2276 -0.27638,0.5917"
         style="fill:none;stroke:#000000" />
      <path
         id="path7453"
         d="m 316.38543,1295.8193 -0.35433,0.5563"
         style="fill:none;stroke:#000000" />
      <path
         id="path7455"
         d="m 316.0311,1296.3756 -0.41811,0.5031"
         style="fill:none;stroke:#000000" />
      <path
         id="path7457"
         d="m 315.61299,1296.8787 -0.4748,0.45"
         style="fill:none;stroke:#000000" />
      <path
         id="path7459"
         d="m 315.13819,1297.3287 -0.5315,0.3827"
         style="fill:none;stroke:#000000" />
      <path
         id="path7461"
         d="m 314.60669,1297.7114 -0.57401,0.3189"
         style="fill:none;stroke:#000000" />
      <path
         id="path7463"
         d="m 314.03268,1298.0303 -0.60945,0.241"
         style="fill:none;stroke:#000000" />
      <path
         id="path7465"
         d="m 313.42323,1298.2713 -0.63425,0.163"
         style="fill:none;stroke:#000000" />
      <path
         id="path7467"
         d="m 312.78898,1298.4343 -0.65197,0.081"
         style="fill:none;stroke:#000000" />
      <path
         id="path7469"
         d="m 312.13701,1298.5157 -0.65551,0"
         style="fill:none;stroke:#000000" />
      <path
         id="path7471"
         d="m 311.4815,1298.5157 -0.64843,-0.081"
         style="fill:none;stroke:#000000" />
      <path
         id="path7473"
         d="m 310.83307,1298.4343 -0.63779,-0.163"
         style="fill:none;stroke:#000000" />
      <path
         id="path7475"
         d="m 310.19528,1298.2713 -0.60945,-0.241"
         style="fill:none;stroke:#000000" />
      <path
         id="path7477"
         d="m 309.58583,1298.0303 -0.57402,-0.3189"
         style="fill:none;stroke:#000000" />
      <path
         id="path7479"
         d="m 309.01181,1297.7114 -0.52795,-0.3827"
         style="fill:none;stroke:#000000" />
      <path
         id="path7481"
         d="m 308.48386,1297.3287 -0.47835,-0.45"
         style="fill:none;stroke:#000000" />
      <path
         id="path7483"
         d="m 308.00551,1296.8787 -0.41811,-0.5031"
         style="fill:none;stroke:#000000" />
      <path
         id="path7485"
         d="m 307.5874,1296.3756 -0.35079,-0.5563"
         style="fill:none;stroke:#000000" />
      <path
         id="path7487"
         d="m 307.23661,1295.8193 -0.27992,-0.5917"
         style="fill:none;stroke:#000000" />
      <path
         id="path7489"
         d="m 306.95669,1295.2276 -0.20197,-0.6237"
         style="fill:none;stroke:#000000" />
      <path
         id="path7491"
         d="m 306.75472,1294.6039 -0.12401,-0.6448"
         style="fill:none;stroke:#000000" />
      <path
         id="path7493"
         d="m 306.63071,1293.9591 -0.0425,-0.652"
         style="fill:none;stroke:#000000" />
      <path
         id="path7495"
         d="m 306.58819,811.41732 0.0425,-0.65197"
         style="fill:none;stroke:#000000" />
      <path
         id="path7497"
         d="m 306.63071,810.76535 0.12401,-0.64488"
         style="fill:none;stroke:#000000" />
      <path
         id="path7499"
         d="m 306.75472,810.12047 0.20197,-0.62362"
         style="fill:none;stroke:#000000" />
      <path
         id="path7501"
         d="m 306.95669,809.49685 0.27992,-0.59173"
         style="fill:none;stroke:#000000" />
      <path
         id="path7503"
         d="m 307.23661,808.90512 0.35079,-0.5563"
         style="fill:none;stroke:#000000" />
      <path
         id="path7505"
         d="m 307.5874,808.34882 0.41811,-0.50315"
         style="fill:none;stroke:#000000" />
      <path
         id="path7507"
         d="m 308.00551,807.84567 0.47835,-0.45"
         style="fill:none;stroke:#000000" />
      <path
         id="path7509"
         d="m 308.48386,807.39567 0.52795,-0.38268"
         style="fill:none;stroke:#000000" />
      <path
         id="path7511"
         d="m 309.01181,807.01299 0.57402,-0.3189"
         style="fill:none;stroke:#000000" />
      <path
         id="path7513"
         d="m 309.58583,806.69409 0.60945,-0.24094"
         style="fill:none;stroke:#000000" />
      <path
         id="path7515"
         d="m 310.19528,806.45315 0.63779,-0.16299"
         style="fill:none;stroke:#000000" />
      <path
         id="path7517"
         d="m 310.83307,806.29016 0.64843,-0.0815"
         style="fill:none;stroke:#000000" />
      <path
         id="path7519"
         d="m 311.4815,806.20866 0.65551,0"
         style="fill:none;stroke:#000000" />
      <path
         id="path7521"
         d="m 312.13701,806.20866 0.65197,0.0815"
         style="fill:none;stroke:#000000" />
      <path
         id="path7523"
         d="m 312.78898,806.29016 0.63425,0.16299"
         style="fill:none;stroke:#000000" />
      <path
         id="path7525"
         d="m 313.42323,806.45315 0.60945,0.24094"
         style="fill:none;stroke:#000000" />
      <path
         id="path7527"
         d="m 314.03268,806.69409 0.57401,0.3189"
         style="fill:none;stroke:#000000" />
      <path
         id="path7529"
         d="m 314.60669,807.01299 0.5315,0.38268"
         style="fill:none;stroke:#000000" />
      <path
         id="path7531"
         d="m 315.13819,807.39567 0.4748,0.45"
         style="fill:none;stroke:#000000" />
      <path
         id="path7533"
         d="m 315.61299,807.84567 0.41811,0.50315"
         style="fill:none;stroke:#000000" />
      <path
         id="path7535"
         d="m 316.0311,808.34882 0.35433,0.5563"
         style="fill:none;stroke:#000000" />
      <path
         id="path7537"
         d="m 316.38543,808.90512 0.27638,0.59173"
         style="fill:none;stroke:#000000" />
      <path
         id="path7539"
         d="m 316.66181,809.49685 0.20197,0.62362"
         style="fill:none;stroke:#000000" />
      <path
         id="path7541"
         d="m 316.86378,810.12047 0.12401,0.64488"
         style="fill:none;stroke:#000000" />
      <path
         id="path7543"
         d="m 316.98779,810.76535 0.0425,0.65197"
         style="fill:none;stroke:#000000" />
      <path
         id="path7545"
         d="m 317.03031,811.41732 -0.0425,0.65552"
         style="fill:none;stroke:#000000" />
      <path
         id="path7547"
         d="m 316.98779,812.07284 -0.12401,0.64488"
         style="fill:none;stroke:#000000" />
      <path
         id="path7549"
         d="m 316.86378,812.71772 -0.20197,0.62362"
         style="fill:none;stroke:#000000" />
      <path
         id="path7551"
         d="m 316.66181,813.34134 -0.27638,0.59173"
         style="fill:none;stroke:#000000" />
      <path
         id="path7553"
         d="m 316.38543,813.93307 -0.35433,0.55276"
         style="fill:none;stroke:#000000" />
      <path
         id="path7555"
         d="m 316.0311,814.48583 -0.41811,0.50669"
         style="fill:none;stroke:#000000" />
      <path
         id="path7557"
         d="m 315.61299,814.99252 -0.4748,0.45"
         style="fill:none;stroke:#000000" />
      <path
         id="path7559"
         d="m 315.13819,815.44252 -0.5315,0.38268"
         style="fill:none;stroke:#000000" />
      <path
         id="path7561"
         d="m 314.60669,815.8252 -0.57401,0.31535"
         style="fill:none;stroke:#000000" />
      <path
         id="path7563"
         d="m 314.03268,816.14055 -0.60945,0.24095"
         style="fill:none;stroke:#000000" />
      <path
         id="path7565"
         d="m 313.42323,816.3815 -0.63425,0.16299"
         style="fill:none;stroke:#000000" />
      <path
         id="path7567"
         d="m 312.78898,816.54449 -0.65197,0.085"
         style="fill:none;stroke:#000000" />
      <path
         id="path7569"
         d="m 312.13701,816.62953 -0.65551,0"
         style="fill:none;stroke:#000000" />
      <path
         id="path7571"
         d="m 311.4815,816.62953 -0.64843,-0.085"
         style="fill:none;stroke:#000000" />
      <path
         id="path7573"
         d="m 310.83307,816.54449 -0.63779,-0.16299"
         style="fill:none;stroke:#000000" />
      <path
         id="path7575"
         d="m 310.19528,816.3815 -0.60945,-0.24095"
         style="fill:none;stroke:#000000" />
      <path
         id="path7577"
         d="m 309.58583,816.14055 -0.57402,-0.31535"
         style="fill:none;stroke:#000000" />
      <path
         id="path7579"
         d="m 309.01181,815.8252 -0.52795,-0.38268"
         style="fill:none;stroke:#000000" />
      <path
         id="path7581"
         d="m 308.48386,815.44252 -0.47835,-0.45"
         style="fill:none;stroke:#000000" />
      <path
         id="path7583"
         d="m 308.00551,814.99252 -0.41811,-0.50669"
         style="fill:none;stroke:#000000" />
      <path
         id="path7585"
         d="m 307.5874,814.48583 -0.35079,-0.55276"
         style="fill:none;stroke:#000000" />
      <path
         id="path7587"
         d="m 307.23661,813.93307 -0.27992,-0.59173"
         style="fill:none;stroke:#000000" />
      <path
         id="path7589"
         d="m 306.95669,813.34134 -0.20197,-0.62362"
         style="fill:none;stroke:#000000" />
      <path
         id="path7591"
         d="m 306.75472,812.71772 -0.12401,-0.64488"
         style="fill:none;stroke:#000000" />
      <path
         id="path7593"
         d="m 306.63071,812.07284 -0.0425,-0.65552"
         style="fill:none;stroke:#000000" />
      <path
         id="path7595"
         d="m 332.06102,1237.9571 0,-45"
         style="fill:none;stroke:#000000" />
      <path
         id="path7597"
         d="m 332.06102,1192.9571 10.62992,0"
         style="fill:none;stroke:#000000" />
      <path
         id="path7599"
         d="m 342.69094,1192.9571 0,45"
         style="fill:none;stroke:#000000" />
      <path
         id="path7601"
         d="m 342.69094,1237.9571 -10.62992,0"
         style="fill:none;stroke:#000000" />
      <path
         id="path7603"
         d="m 332.06102,1074.8622 0,-45"
         style="fill:none;stroke:#000000" />
      <path
         id="path7605"
         d="m 332.06102,1029.8622 10.62992,0"
         style="fill:none;stroke:#000000" />
      <path
         id="path7607"
         d="m 342.69094,1029.8622 0,45"
         style="fill:none;stroke:#000000" />
      <path
         id="path7609"
         d="m 342.69094,1074.8622 -10.62992,0"
         style="fill:none;stroke:#000000" />
      <path
         id="path7611"
         d="m 332.06102,911.76732 0,-45"
         style="fill:none;stroke:#000000" />
      <path
         id="path7613"
         d="m 332.06102,866.76732 10.62992,0"
         style="fill:none;stroke:#000000" />
      <path
         id="path7615"
         d="m 342.69094,866.76732 0,45"
         style="fill:none;stroke:#000000" />
      <path
         id="path7617"
         d="m 342.69094,911.76732 -10.62992,0"
         style="fill:none;stroke:#000000" />
    </g>
  </g>
</svg>
