999
DXF created by Inkscape
  0
SECTION
  2
HEADER
  9
$ACADVER
  1
AC1014
  9
$HANDSEED
  5
FFFF
  9
$MEASUREMENT
 70
     1
  0
ENDSEC
  0
SECTION
  2
TABLES
  0
TABLE
  2
VPORT
  5
8
330
0
100
AcDbSymbolTable
 70
     4
  0
VPORT
  5
2E
330
8
100
AcDbSymbolTableRecord
100
AcDbViewportTableRecord
  2
*ACTIVE
 70
     0
 10
0.0
 20
0.0
 11
1.0
 21
1.0
 12
210.0
 22
148.5
 13
0.0
 23
0.0
 14
10.0
 24
10.0
 15
10.0
 25
10.0
 16
0.0
 26
0.0
 36
1.0
 17
0.0
 27
0.0
 37
0.0
 40
341.0
 41
1.24
 42
50.0
 43
0.0
 44
0.0
 50
0.0
 51
0.0
 71
     0
 72
   100
 73
     1
 74
     3
 75
     0
 76
     0
 77
     0
 78
     0
  0
ENDTAB
  0
TABLE
  2
LTYPE
  5
5
330
0
100
AcDbSymbolTable
 70
     1
  0
LTYPE
  5
14
330
5
100
AcDbSymbolTableRecord
100
AcDbLinetypeTableRecord
  2
BYBLOCK
 70
     0
  3

 72
    65
 73
     0
 40
0.0
  0
LTYPE
  5
15
330
5
100
AcDbSymbolTableRecord
100
AcDbLinetypeTableRecord
  2
BYLAYER
 70
     0
  3

 72
    65
 73
     0
 40
0.0
  0
LTYPE
  5
16
330
5
100
AcDbSymbolTableRecord
100
AcDbLinetypeTableRecord
  2
CONTINUOUS
 70
     0
  3
Solid line
 72
    65
 73
     0
 40
0.0
  0
ENDTAB
  0
TABLE
  2
LAYER
  5
2
330
0
100
AcDbSymbolTable
 70
1
  0
LAYER
  5
10
330
2
100
AcDbSymbolTableRecord
100
AcDbLayerTableRecord
  2
0
 70
     0
 62
     7
  6
CONTINUOUS
  0
ENDTAB
  0
TABLE
  2
STYLE
  5
3
330
0
100
AcDbSymbolTable
 70
     1
  0
STYLE
  5
11
330
3
100
AcDbSymbolTableRecord
100
AcDbTextStyleTableRecord
  2
STANDARD
 70
     0
 40
0.0
 41
1.0
 50
0.0
 71
     0
 42
2.5
  3
txt
  4

  0
ENDTAB
  0
TABLE
  2
VIEW
  5
6
330
0
100
AcDbSymbolTable
 70
     0
  0
ENDTAB
  0
TABLE
  2
UCS
  5
7
330
0
100
AcDbSymbolTable
 70
     0
  0
ENDTAB
  0
TABLE
  2
APPID
  5
9
330
0
100
AcDbSymbolTable
 70
     2
  0
APPID
  5
12
330
9
100
AcDbSymbolTableRecord
100
AcDbRegAppTableRecord
  2
ACAD
 70
     0
  0
ENDTAB
  0
TABLE
  2
DIMSTYLE
  5
A
330
0
100
AcDbSymbolTable
 70
     1
  0
DIMSTYLE
105
27
330
A
100
AcDbSymbolTableRecord
100
AcDbDimStyleTableRecord
  2
ISO-25
 70
     0
  3

  4

  5

  6

  7

 40
1.0
 41
2.5
 42
0.625
 43
3.75
 44
1.25
 45
0.0
 46
0.0
 47
0.0
 48
0.0
140
2.5
141
2.5
142
0.0
143
0.03937007874016
144
1.0
145
0.0
146
1.0
147
0.625
 71
     0
 72
     0
 73
     0
 74
     0
 75
     0
 76
     0
 77
     1
 78
     8
170
     0
171
     3
172
     1
173
     0
174
     0
175
     0
176
     0
177
     0
178
     0
270
     2
271
     2
272
     2
273
     2
274
     3
340
11
275
     0
280
     0
281
     0
282
     0
283
     0
284
     8
285
     0
286
     0
287
     3
288
     0
  0
ENDTAB
  0
TABLE
  2
BLOCK_RECORD
  5
1
330
0
100
AcDbSymbolTable
 70
     1
  0
BLOCK_RECORD
  5
1F
330
1
100
AcDbSymbolTableRecord
100
AcDbBlockTableRecord
  2
*MODEL_SPACE
  0
BLOCK_RECORD
  5
1B
330
1
100
AcDbSymbolTableRecord
100
AcDbBlockTableRecord
  2
*PAPER_SPACE
  0
ENDTAB
  0
ENDSEC
  0
SECTION
  2
BLOCKS
  0
BLOCK
  5
20
330
1F
100
AcDbEntity
  8
0
100
AcDbBlockBegin
  2
*MODEL_SPACE
 70
     0
 10
0.0
 20
0.0
 30
0.0
  3
*MODEL_SPACE
  1

  0
ENDBLK
  5
21
330
1F
100
AcDbEntity
  8
0
100
AcDbBlockEnd
  0
BLOCK
  5
1C
330
1B
100
AcDbEntity
 67
     1
  8
0
100
AcDbBlockBegin
  2
*PAPER_SPACE
  1

  0
ENDBLK
  5
1D
330
1B
100
AcDbEntity
 67
     1
  8
0
100
AcDbBlockEnd
  0
ENDSEC
  0
SECTION
  2
ENTITIES
  0
LWPOLYLINE
  5
100
100
AcDbEntity
  8
0
 62
7
100
AcDbPolyline
 90
2
 70
0
 10
0.846667
 20
250.528669
 30
0.0
 10
-0.846667
 20
248.835336
 30
0.0
  0
LWPOLYLINE
  5
101
100
AcDbEntity
  8
0
 62
7
100
AcDbPolyline
 90
2
 70
0
 10
0.000000
 20
251.093114
 30
0.0
 10
0.000000
 20
248.270892
 30
0.0
  0
LWPOLYLINE
  5
102
100
AcDbEntity
  8
0
 62
7
100
AcDbPolyline
 90
13
 70
0
 10
-55.970339
 20
60.445134
 30
0.0
 10
-55.970339
 20
140.795135
 30
0.0
 10
4.029660
 20
140.795135
 30
0.0
 10
4.029660
 20
99.445135
 30
0.0
 10
79.029662
 20
99.445135
 30
0.0
 10
79.029662
 20
140.795135
 30
0.0
 10
139.029660
 20
140.795135
 30
0.0
 10
139.029660
 20
60.445134
 30
0.0
 10
76.529661
 20
60.445134
 30
0.0
 10
76.529661
 20
72.095134
 30
0.0
 10
6.529660
 20
72.095134
 30
0.0
 10
6.529660
 20
60.445134
 30
0.0
 10
-55.970339
 20
60.445134
 30
0.0
  0
LWPOLYLINE
  5
103
100
AcDbEntity
  8
0
 62
7
100
AcDbPolyline
 90
13
 70
0
 10
-268.652554
 20
257.069284
 30
0.0
 10
-268.652554
 20
176.719284
 30
0.0
 10
-208.652542
 20
176.719284
 30
0.0
 10
-208.652542
 20
218.069284
 30
0.0
 10
-133.652539
 20
218.069284
 30
0.0
 10
-133.652539
 20
176.719284
 30
0.0
 10
-73.652541
 20
176.719284
 30
0.0
 10
-73.652541
 20
257.069284
 30
0.0
 10
-136.152540
 20
257.069284
 30
0.0
 10
-136.152540
 20
245.419283
 30
0.0
 10
-206.152541
 20
245.419283
 30
0.0
 10
-206.152541
 20
257.069284
 30
0.0
 10
-268.652554
 20
257.069284
 30
0.0
  0
LWPOLYLINE
  5
104
100
AcDbEntity
  8
0
 62
7
100
AcDbPolyline
 90
51
 70
0
 10
-257.872529
 20
248.894286
 30
0.0
 10
-257.857571
 20
248.653285
 30
0.0
 10
-257.812529
 20
248.417285
 30
0.0
 10
-257.737542
 20
248.187285
 30
0.0
 10
-257.635547
 20
247.969285
 30
0.0
 10
-257.505527
 20
247.765284
 30
0.0
 10
-257.352535
 20
247.580284
 30
0.0
 10
-257.176541
 20
247.415286
 30
0.0
 10
-256.981525
 20
247.273286
 30
0.0
 10
-256.769548
 20
247.157284
 30
0.0
 10
-256.545548
 20
247.068285
 30
0.0
 10
-256.312546
 20
247.008285
 30
0.0
 10
-256.073532
 20
246.978285
 30
0.0
 10
-255.831526
 20
246.978285
 30
0.0
 10
-255.592540
 20
247.008285
 30
0.0
 10
-255.359538
 20
247.068285
 30
0.0
 10
-255.135538
 20
247.157284
 30
0.0
 10
-254.923533
 20
247.273286
 30
0.0
 10
-254.728545
 20
247.415286
 30
0.0
 10
-254.552552
 20
247.580284
 30
0.0
 10
-254.399531
 20
247.765284
 30
0.0
 10
-254.269539
 20
247.969285
 30
0.0
 10
-254.167544
 20
248.187285
 30
0.0
 10
-254.092529
 20
248.417285
 30
0.0
 10
-254.047543
 20
248.653285
 30
0.0
 10
-254.032585
 20
248.894286
 30
0.0
 10
-254.047487
 20
249.135284
 30
0.0
 10
-254.092529
 20
249.371284
 30
0.0
 10
-254.167544
 20
249.601283
 30
0.0
 10
-254.269539
 20
249.819286
 30
0.0
 10
-254.399531
 20
250.023285
 30
0.0
 10
-254.552552
 20
250.208284
 30
0.0
 10
-254.728545
 20
250.373285
 30
0.0
 10
-254.923533
 20
250.515285
 30
0.0
 10
-255.135538
 20
250.631284
 30
0.0
 10
-255.359538
 20
250.720286
 30
0.0
 10
-255.592540
 20
250.780284
 30
0.0
 10
-255.831526
 20
250.810284
 30
0.0
 10
-256.073532
 20
250.810284
 30
0.0
 10
-256.312546
 20
250.780284
 30
0.0
 10
-256.545548
 20
250.720286
 30
0.0
 10
-256.769548
 20
250.631284
 30
0.0
 10
-256.981525
 20
250.515285
 30
0.0
 10
-257.176541
 20
250.373285
 30
0.0
 10
-257.352535
 20
250.208284
 30
0.0
 10
-257.505527
 20
250.023285
 30
0.0
 10
-257.635547
 20
249.819286
 30
0.0
 10
-257.737542
 20
249.601283
 30
0.0
 10
-257.812529
 20
249.371284
 30
0.0
 10
-257.857543
 20
249.135284
 30
0.0
 10
-257.872501
 20
248.894286
 30
0.0
  0
LWPOLYLINE
  5
105
100
AcDbEntity
  8
0
 62
7
100
AcDbPolyline
 90
51
 70
0
 10
-88.272541
 20
248.894286
 30
0.0
 10
-88.257555
 20
248.653285
 30
0.0
 10
-88.212541
 20
248.417285
 30
0.0
 10
-88.137540
 20
248.187285
 30
0.0
 10
-88.035542
 20
247.969285
 30
0.0
 10
-87.905542
 20
247.765284
 30
0.0
 10
-87.752541
 20
247.580284
 30
0.0
 10
-87.576541
 20
247.415286
 30
0.0
 10
-87.381540
 20
247.273286
 30
0.0
 10
-87.169540
 20
247.157284
 30
0.0
 10
-86.945541
 20
247.068285
 30
0.0
 10
-86.712541
 20
247.008285
 30
0.0
 10
-86.473541
 20
246.978285
 30
0.0
 10
-86.231541
 20
246.978285
 30
0.0
 10
-85.992541
 20
247.008285
 30
0.0
 10
-85.759541
 20
247.068285
 30
0.0
 10
-85.535541
 20
247.157284
 30
0.0
 10
-85.323542
 20
247.273286
 30
0.0
 10
-85.128540
 20
247.415286
 30
0.0
 10
-84.952541
 20
247.580284
 30
0.0
 10
-84.799540
 20
247.765284
 30
0.0
 10
-84.669540
 20
247.969285
 30
0.0
 10
-84.567542
 20
248.187285
 30
0.0
 10
-84.492541
 20
248.417285
 30
0.0
 10
-84.447541
 20
248.653285
 30
0.0
 10
-84.432527
 20
248.894286
 30
0.0
 10
-84.447555
 20
249.135284
 30
0.0
 10
-84.492541
 20
249.371284
 30
0.0
 10
-84.567542
 20
249.601283
 30
0.0
 10
-84.669540
 20
249.819286
 30
0.0
 10
-84.799540
 20
250.023285
 30
0.0
 10
-84.952541
 20
250.208284
 30
0.0
 10
-85.128540
 20
250.373285
 30
0.0
 10
-85.323542
 20
250.515285
 30
0.0
 10
-85.535541
 20
250.631284
 30
0.0
 10
-85.759541
 20
250.720286
 30
0.0
 10
-85.992541
 20
250.780284
 30
0.0
 10
-86.231541
 20
250.810284
 30
0.0
 10
-86.473541
 20
250.810284
 30
0.0
 10
-86.712541
 20
250.780284
 30
0.0
 10
-86.945541
 20
250.720286
 30
0.0
 10
-87.169540
 20
250.631284
 30
0.0
 10
-87.381540
 20
250.515285
 30
0.0
 10
-87.576541
 20
250.373285
 30
0.0
 10
-87.752541
 20
250.208284
 30
0.0
 10
-87.905542
 20
250.023285
 30
0.0
 10
-88.035542
 20
249.819286
 30
0.0
 10
-88.137540
 20
249.601283
 30
0.0
 10
-88.212541
 20
249.371284
 30
0.0
 10
-88.257541
 20
249.135284
 30
0.0
 10
-88.272527
 20
248.894286
 30
0.0
  0
LWPOLYLINE
  5
106
100
AcDbEntity
  8
0
 62
7
100
AcDbPolyline
 90
5
 70
0
 10
-185.281773
 20
185.345129
 30
0.0
 10
-185.281773
 20
210.745129
 30
0.0
 10
-159.881770
 20
210.745129
 30
0.0
 10
-159.881770
 20
185.345129
 30
0.0
 10
-185.281773
 20
185.345129
 30
0.0
  0
LWPOLYLINE
  5
107
100
AcDbEntity
  8
0
 62
7
100
AcDbPolyline
 90
9
 70
0
 10
-55.211861
 20
-108.232840
 30
0.0
 10
-55.211861
 20
-88.232824
 30
0.0
 10
7.788133
 20
-88.232824
 30
0.0
 10
7.788133
 20
-95.882824
 30
0.0
 10
77.788135
 20
-95.882824
 30
0.0
 10
77.788135
 20
-88.232824
 30
0.0
 10
140.788122
 20
-88.232824
 30
0.0
 10
140.788122
 20
-108.232840
 30
0.0
 10
-55.211861
 20
-108.232840
 30
0.0
  0
LWPOLYLINE
  5
108
100
AcDbEntity
  8
0
 62
7
100
AcDbPolyline
 90
65
 70
0
 10
-55.211861
 20
26.317186
 30
0.0
 10
-55.211861
 20
46.317185
 30
0.0
 10
140.788122
 20
46.317185
 30
0.0
 10
140.788122
 20
26.317186
 30
0.0
 10
132.668137
 20
26.317186
 30
0.0
 10
132.668137
 20
32.037187
 30
0.0
 10
132.628146
 20
32.674185
 30
0.0
 10
132.508145
 20
33.300185
 30
0.0
 10
132.311126
 20
33.907185
 30
0.0
 10
132.040136
 20
34.484186
 30
0.0
 10
131.698139
 20
35.023185
 30
0.0
 10
131.291147
 20
35.514184
 30
0.0
 10
130.826129
 20
35.951185
 30
0.0
 10
130.310142
 20
36.326185
 30
0.0
 10
129.751145
 20
36.634186
 30
0.0
 10
129.158139
 20
36.868185
 30
0.0
 10
128.540129
 20
37.027186
 30
0.0
 10
127.907133
 20
37.107185
 30
0.0
 10
127.269141
 20
37.107185
 30
0.0
 10
126.636145
 20
37.027186
 30
0.0
 10
126.018135
 20
36.868185
 30
0.0
 10
125.425129
 20
36.634186
 30
0.0
 10
124.866132
 20
36.326185
 30
0.0
 10
124.350145
 20
35.951185
 30
0.0
 10
123.885127
 20
35.514184
 30
0.0
 10
123.478135
 20
35.023185
 30
0.0
 10
123.136138
 20
34.484186
 30
0.0
 10
122.865148
 20
33.907185
 30
0.0
 10
122.668129
 20
33.300185
 30
0.0
 10
122.548128
 20
32.674185
 30
0.0
 10
122.508137
 20
32.037187
 30
0.0
 10
122.508137
 20
26.317186
 30
0.0
 10
77.788135
 20
26.317186
 30
0.0
 10
77.788135
 20
33.967186
 30
0.0
 10
7.788133
 20
33.967186
 30
0.0
 10
7.788133
 20
26.317186
 30
0.0
 10
-36.931862
 20
26.317186
 30
0.0
 10
-36.931862
 20
32.037187
 30
0.0
 10
-36.971862
 20
32.674185
 30
0.0
 10
-37.091863
 20
33.300185
 30
0.0
 10
-37.288862
 20
33.907185
 30
0.0
 10
-37.559863
 20
34.484186
 30
0.0
 10
-37.901863
 20
35.023185
 30
0.0
 10
-38.308864
 20
35.514184
 30
0.0
 10
-38.773862
 20
35.951185
 30
0.0
 10
-39.289863
 20
36.326185
 30
0.0
 10
-39.848863
 20
36.634186
 30
0.0
 10
-40.441863
 20
36.868185
 30
0.0
 10
-41.059862
 20
37.027186
 30
0.0
 10
-41.692864
 20
37.107185
 30
0.0
 10
-42.330864
 20
37.107185
 30
0.0
 10
-42.963863
 20
37.027186
 30
0.0
 10
-43.581862
 20
36.868185
 30
0.0
 10
-44.174862
 20
36.634186
 30
0.0
 10
-44.733862
 20
36.326185
 30
0.0
 10
-45.249863
 20
35.951185
 30
0.0
 10
-45.714864
 20
35.514184
 30
0.0
 10
-46.121862
 20
35.023185
 30
0.0
 10
-46.463862
 20
34.484186
 30
0.0
 10
-46.734863
 20
33.907185
 30
0.0
 10
-46.931862
 20
33.300185
 30
0.0
 10
-47.051863
 20
32.674185
 30
0.0
 10
-47.091862
 20
32.037187
 30
0.0
 10
-47.091862
 20
26.317186
 30
0.0
 10
-55.211861
 20
26.317186
 30
0.0
  0
LWPOLYLINE
  5
109
100
AcDbEntity
  8
0
 62
7
100
AcDbPolyline
 90
5
 70
0
 10
-137.589683
 20
198.403580
 30
0.0
 10
-137.589683
 20
95.003580
 30
0.0
 10
-117.589681
 20
95.003580
 30
0.0
 10
-117.589681
 20
198.403580
 30
0.0
 10
-137.589683
 20
198.403580
 30
0.0
  0
LWPOLYLINE
  5
10a
100
AcDbEntity
  8
0
 62
7
100
AcDbPolyline
 90
5
 70
0
 10
-95.151011
 20
198.403580
 30
0.0
 10
-95.151011
 20
95.003580
 30
0.0
 10
-115.151010
 20
95.003580
 30
0.0
 10
-115.151010
 20
198.403580
 30
0.0
 10
-95.151011
 20
198.403580
 30
0.0
  0
ENDSEC
  0
SECTION
  2
OBJECTS
  0
DICTIONARY
  5
C
330
0
100
AcDbDictionary
  3
ACAD_GROUP
350
D
  3
ACAD_MLINESTYLE
350
17
  0
DICTIONARY
  5
D
330
C
100
AcDbDictionary
  0
DICTIONARY
  5
1A
330
C
100
AcDbDictionary
  0
DICTIONARY
  5
17
330
C
100
AcDbDictionary
  3
STANDARD
350
18
  0
DICTIONARY
  5
19
330
C
100
AcDbDictionary
  0
ENDSEC
  0
EOF
