<?xml version="1.0" encoding="UTF-8" standalone="no"?>
<svg
   xmlns:dc="http://purl.org/dc/elements/1.1/"
   xmlns:cc="http://creativecommons.org/ns#"
   xmlns:rdf="http://www.w3.org/1999/02/22-rdf-syntax-ns#"
   xmlns:svg="http://www.w3.org/2000/svg"
   xmlns="http://www.w3.org/2000/svg"
   xmlns:sodipodi="http://sodipodi.sourceforge.net/DTD/sodipodi-0.dtd"
   xmlns:inkscape="http://www.inkscape.org/namespaces/inkscape"
   id="svg8872"
   version="1.1"
   inkscape:version="0.47 r22583"
   width="495"
   height="405"
   sodipodi:docname="black_acrylic_top_lower_projection.dxf">
  <metadata
     id="metadata9504">
    <rdf:RDF>
      <cc:Work
         rdf:about="">
        <dc:format>image/svg+xml</dc:format>
        <dc:type
           rdf:resource="http://purl.org/dc/dcmitype/StillImage" />
        <dc:title></dc:title>
      </cc:Work>
    </rdf:RDF>
  </metadata>
  <sodipodi:namedview
     pagecolor="#ffffff"
     bordercolor="#666666"
     borderopacity="1"
     objecttolerance="10"
     gridtolerance="10"
     guidetolerance="10"
     inkscape:pageopacity="0"
     inkscape:pageshadow="2"
     inkscape:window-width="1920"
     inkscape:window-height="1005"
     id="namedview9502"
     showgrid="false"
     units="in"
     inkscape:zoom="1.8691358"
     inkscape:cx="247.5"
     inkscape:cy="202.5"
     inkscape:window-x="0"
     inkscape:window-y="24"
     inkscape:window-maximized="1"
     inkscape:current-layer="g8884" />
  <desc
     id="desc8874">/home/jo/repos/led_transilluminator_enclosure/version_0p1/dxf/black_acrylic_top_lower_projection.dxf - scale = 1.000000</desc>
  <defs
     id="defs8876">
    <inkscape:perspective
       sodipodi:type="inkscape:persp3d"
       inkscape:vp_x="0 : 0.5 : 1"
       inkscape:vp_y="0 : 1000 : 0"
       inkscape:vp_z="1 : 0.5 : 1"
       inkscape:persp3d-origin="0.5 : 0.33333333 : 1"
       id="perspective9506" />
    <marker
       refY="0"
       refX="0"
       style="overflow:visible"
       id="DistanceX"
       orient="auto">
      <path
         style="stroke:#000000;stroke-width:0.5"
         d="M 3,-3 -3,3 M 0,-5 0,5"
         id="path8879" />
    </marker>
    <symbol
       id="*Model_Space" />
    <symbol
       id="*Paper_Space" />
    <symbol
       id="*Paper_Space0" />
  </defs>
  <g
     inkscape:label="0"
     inkscape:groupmode="layer"
     id="g8884"
     transform="translate(224.66732,-879.23975)">
    <g
       id="g9529"
       transform="translate(20.495173,7.8827589)">
      <path
         id="path8886"
         d="m -224.16732,1161.9638 0,-219.20317"
         style="fill:none;stroke:#000000" />
      <path
         id="path8888"
         d="m -224.16732,942.76063 0.17716,-2.82047"
         style="fill:none;stroke:#000000" />
      <path
         id="path8890"
         d="m -223.99016,939.94016 0.52796,-2.77796"
         style="fill:none;stroke:#000000" />
      <path
         id="path8892"
         d="m -223.4622,937.1622 0.87519,-2.68582"
         style="fill:none;stroke:#000000" />
      <path
         id="path8894"
         d="m -222.58701,934.47638 1.20118,-2.55827"
         style="fill:none;stroke:#000000" />
      <path
         id="path8896"
         d="m -221.38583,931.91811 1.513,-2.38465"
         style="fill:none;stroke:#000000" />
      <path
         id="path8898"
         d="m -219.87283,929.53346 1.80354,-2.17559"
         style="fill:none;stroke:#000000" />
      <path
         id="path8900"
         d="m -218.06929,927.35787 2.05866,-1.93464"
         style="fill:none;stroke:#000000" />
      <path
         id="path8902"
         d="m -216.01063,925.42323 2.28543,-1.66181"
         style="fill:none;stroke:#000000" />
      <path
         id="path8904"
         d="m -213.7252,923.76142 2.47678,-1.36063"
         style="fill:none;stroke:#000000" />
      <path
         id="path8906"
         d="m -211.24842,922.40079 2.62559,-1.04174"
         style="fill:none;stroke:#000000" />
      <path
         id="path8908"
         d="m -208.62283,921.35905 2.73897,-0.70157"
         style="fill:none;stroke:#000000" />
      <path
         id="path8910"
         d="m -205.88386,920.65748 2.80276,-0.35433"
         style="fill:none;stroke:#000000" />
      <path
         id="path8912"
         d="m -203.0811,920.30315 1.41378,0"
         style="fill:none;stroke:#000000" />
      <path
         id="path8914"
         d="m -201.66732,920.30315 0,-0.0425"
         style="fill:none;stroke:#000000" />
      <path
         id="path8916"
         d="m -201.66732,920.26063 403.33464,0"
         style="fill:none;stroke:#000000" />
      <path
         id="path8918"
         d="m 201.66732,920.26063 0,0.0425"
         style="fill:none;stroke:#000000" />
      <path
         id="path8920"
         d="m 201.66732,920.30315 1.41378,0"
         style="fill:none;stroke:#000000" />
      <path
         id="path8922"
         d="m 203.0811,920.30315 2.80276,0.35433"
         style="fill:none;stroke:#000000" />
      <path
         id="path8924"
         d="m 205.88386,920.65748 2.73897,0.70157"
         style="fill:none;stroke:#000000" />
      <path
         id="path8926"
         d="m 208.62283,921.35905 2.62559,1.04174"
         style="fill:none;stroke:#000000" />
      <path
         id="path8928"
         d="m 211.24842,922.40079 2.47678,1.36063"
         style="fill:none;stroke:#000000" />
      <path
         id="path8930"
         d="m 213.7252,923.76142 2.28543,1.66181"
         style="fill:none;stroke:#000000" />
      <path
         id="path8932"
         d="m 216.01063,925.42323 2.05866,1.93464"
         style="fill:none;stroke:#000000" />
      <path
         id="path8934"
         d="m 218.06929,927.35787 1.80354,2.17559"
         style="fill:none;stroke:#000000" />
      <path
         id="path8936"
         d="m 219.87283,929.53346 1.513,2.38465"
         style="fill:none;stroke:#000000" />
      <path
         id="path8938"
         d="m 221.38583,931.91811 1.20118,2.55827"
         style="fill:none;stroke:#000000" />
      <path
         id="path8940"
         d="m 222.58701,934.47638 0.87519,2.68582"
         style="fill:none;stroke:#000000" />
      <path
         id="path8942"
         d="m 223.4622,937.1622 0.52796,2.77796"
         style="fill:none;stroke:#000000" />
      <path
         id="path8944"
         d="m 223.99016,939.94016 0.17716,2.82047"
         style="fill:none;stroke:#000000" />
      <path
         id="path8946"
         d="m 224.16732,942.76063 0,219.20317"
         style="fill:none;stroke:#000000" />
      <path
         id="path8948"
         d="m 224.16732,1161.9638 -0.17716,2.8205"
         style="fill:none;stroke:#000000" />
      <path
         id="path8950"
         d="m 223.99016,1164.7843 -0.52796,2.7779"
         style="fill:none;stroke:#000000" />
      <path
         id="path8952"
         d="m 223.4622,1167.5622 -0.87519,2.6858"
         style="fill:none;stroke:#000000" />
      <path
         id="path8954"
         d="m 222.58701,1170.248 -1.20118,2.5583"
         style="fill:none;stroke:#000000" />
      <path
         id="path8956"
         d="m 221.38583,1172.8063 -1.513,2.3846"
         style="fill:none;stroke:#000000" />
      <path
         id="path8958"
         d="m 219.87283,1175.1909 -1.80354,2.1756"
         style="fill:none;stroke:#000000" />
      <path
         id="path8960"
         d="m 218.06929,1177.3665 -2.05866,1.9347"
         style="fill:none;stroke:#000000" />
      <path
         id="path8962"
         d="m 216.01063,1179.3012 -2.28543,1.6618"
         style="fill:none;stroke:#000000" />
      <path
         id="path8964"
         d="m 213.7252,1180.963 -2.47678,1.3606"
         style="fill:none;stroke:#000000" />
      <path
         id="path8966"
         d="m 211.24842,1182.3236 -2.62559,1.0418"
         style="fill:none;stroke:#000000" />
      <path
         id="path8968"
         d="m 208.62283,1183.3654 -2.73897,0.7015"
         style="fill:none;stroke:#000000" />
      <path
         id="path8970"
         d="m 205.88386,1184.0669 -2.80276,0.3544"
         style="fill:none;stroke:#000000" />
      <path
         id="path8972"
         d="m 203.0811,1184.4213 -1.41378,0"
         style="fill:none;stroke:#000000" />
      <path
         id="path8974"
         d="m 201.66732,1184.4213 0,0.043"
         style="fill:none;stroke:#000000" />
      <path
         id="path8976"
         d="m 201.66732,1184.4638 -403.33464,0"
         style="fill:none;stroke:#000000" />
      <path
         id="path8978"
         d="m -201.66732,1184.4638 0,-0.043"
         style="fill:none;stroke:#000000" />
      <path
         id="path8980"
         d="m -201.66732,1184.4213 -1.41378,0"
         style="fill:none;stroke:#000000" />
      <path
         id="path8982"
         d="m -203.0811,1184.4213 -2.80276,-0.3544"
         style="fill:none;stroke:#000000" />
      <path
         id="path8984"
         d="m -205.88386,1184.0669 -2.73897,-0.7015"
         style="fill:none;stroke:#000000" />
      <path
         id="path8986"
         d="m -208.62283,1183.3654 -2.62559,-1.0418"
         style="fill:none;stroke:#000000" />
      <path
         id="path8988"
         d="m -211.24842,1182.3236 -2.47678,-1.3606"
         style="fill:none;stroke:#000000" />
      <path
         id="path8990"
         d="m -213.7252,1180.963 -2.28543,-1.6618"
         style="fill:none;stroke:#000000" />
      <path
         id="path8992"
         d="m -216.01063,1179.3012 -2.05866,-1.9347"
         style="fill:none;stroke:#000000" />
      <path
         id="path8994"
         d="m -218.06929,1177.3665 -1.80354,-2.1756"
         style="fill:none;stroke:#000000" />
      <path
         id="path8996"
         d="m -219.87283,1175.1909 -1.513,-2.3846"
         style="fill:none;stroke:#000000" />
      <path
         id="path8998"
         d="m -221.38583,1172.8063 -1.20118,-2.5583"
         style="fill:none;stroke:#000000" />
      <path
         id="path9000"
         d="m -222.58701,1170.248 -0.87519,-2.6858"
         style="fill:none;stroke:#000000" />
      <path
         id="path9002"
         d="m -223.4622,1167.5622 -0.52796,-2.7779"
         style="fill:none;stroke:#000000" />
      <path
         id="path9004"
         d="m -223.99016,1164.7843 -0.17716,-2.8205"
         style="fill:none;stroke:#000000" />
      <path
         id="path9006"
         d="m -215.16732,1137.313 0,-45"
         style="fill:none;stroke:#000000" />
      <path
         id="path9008"
         d="m -215.16732,1092.313 10.62992,0"
         style="fill:none;stroke:#000000" />
      <path
         id="path9010"
         d="m -204.5374,1092.313 0,45"
         style="fill:none;stroke:#000000" />
      <path
         id="path9012"
         d="m -204.5374,1137.313 -10.62992,0"
         style="fill:none;stroke:#000000" />
      <path
         id="path9014"
         d="m -215.16732,1012.4114 0,-44.99998"
         style="fill:none;stroke:#000000" />
      <path
         id="path9016"
         d="m -215.16732,967.41142 10.62992,0"
         style="fill:none;stroke:#000000" />
      <path
         id="path9018"
         d="m -204.5374,967.41142 0,44.99998"
         style="fill:none;stroke:#000000" />
      <path
         id="path9020"
         d="m -204.5374,1012.4114 -10.62992,0"
         style="fill:none;stroke:#000000" />
      <path
         id="path9022"
         d="m -194.01024,1150.8839 0.0425,-0.652"
         style="fill:none;stroke:#000000" />
      <path
         id="path9024"
         d="m -193.96772,1150.2319 0.12402,-0.6449"
         style="fill:none;stroke:#000000" />
      <path
         id="path9026"
         d="m -193.8437,1149.587 0.20197,-0.6236"
         style="fill:none;stroke:#000000" />
      <path
         id="path9028"
         d="m -193.64173,1148.9634 0.27992,-0.5917"
         style="fill:none;stroke:#000000" />
      <path
         id="path9030"
         d="m -193.36181,1148.3717 0.35079,-0.5563"
         style="fill:none;stroke:#000000" />
      <path
         id="path9032"
         d="m -193.01102,1147.8154 0.41811,-0.5032"
         style="fill:none;stroke:#000000" />
      <path
         id="path9034"
         d="m -192.59291,1147.3122 0.47834,-0.45"
         style="fill:none;stroke:#000000" />
      <path
         id="path9036"
         d="m -192.11457,1146.8622 0.52796,-0.3827"
         style="fill:none;stroke:#000000" />
      <path
         id="path9038"
         d="m -191.58661,1146.4795 0.57401,-0.3189"
         style="fill:none;stroke:#000000" />
      <path
         id="path9040"
         d="m -191.0126,1146.1606 0.60945,-0.2409"
         style="fill:none;stroke:#000000" />
      <path
         id="path9042"
         d="m -190.40315,1145.9197 0.6378,-0.163"
         style="fill:none;stroke:#000000" />
      <path
         id="path9044"
         d="m -189.76535,1145.7567 0.64842,-0.082"
         style="fill:none;stroke:#000000" />
      <path
         id="path9046"
         d="m -189.11693,1145.6752 0.65551,0"
         style="fill:none;stroke:#000000" />
      <path
         id="path9048"
         d="m -188.46142,1145.6752 0.65197,0.082"
         style="fill:none;stroke:#000000" />
      <path
         id="path9050"
         d="m -187.80945,1145.7567 0.63425,0.163"
         style="fill:none;stroke:#000000" />
      <path
         id="path9052"
         d="m -187.1752,1145.9197 0.60945,0.2409"
         style="fill:none;stroke:#000000" />
      <path
         id="path9054"
         d="m -186.56575,1146.1606 0.57402,0.3189"
         style="fill:none;stroke:#000000" />
      <path
         id="path9056"
         d="m -185.99173,1146.4795 0.53149,0.3827"
         style="fill:none;stroke:#000000" />
      <path
         id="path9058"
         d="m -185.46024,1146.8622 0.47835,0.45"
         style="fill:none;stroke:#000000" />
      <path
         id="path9060"
         d="m -184.98189,1147.3122 0.41811,0.5032"
         style="fill:none;stroke:#000000" />
      <path
         id="path9062"
         d="m -184.56378,1147.8154 0.35079,0.5563"
         style="fill:none;stroke:#000000" />
      <path
         id="path9064"
         d="m -184.21299,1148.3717 0.27638,0.5917"
         style="fill:none;stroke:#000000" />
      <path
         id="path9066"
         d="m -183.93661,1148.9634 0.20551,0.6236"
         style="fill:none;stroke:#000000" />
      <path
         id="path9068"
         d="m -183.7311,1149.587 0.12047,0.6449"
         style="fill:none;stroke:#000000" />
      <path
         id="path9070"
         d="m -183.61063,1150.2319 0.0425,0.652"
         style="fill:none;stroke:#000000" />
      <path
         id="path9072"
         d="m -183.56811,1150.8839 -0.0425,0.6555"
         style="fill:none;stroke:#000000" />
      <path
         id="path9074"
         d="m -183.61063,1151.5394 -0.12047,0.6449"
         style="fill:none;stroke:#000000" />
      <path
         id="path9076"
         d="m -183.7311,1152.1843 -0.20551,0.6236"
         style="fill:none;stroke:#000000" />
      <path
         id="path9078"
         d="m -183.93661,1152.8079 -0.27638,0.5917"
         style="fill:none;stroke:#000000" />
      <path
         id="path9080"
         d="m -184.21299,1153.3996 -0.35079,0.5528"
         style="fill:none;stroke:#000000" />
      <path
         id="path9082"
         d="m -184.56378,1153.9524 -0.41811,0.5067"
         style="fill:none;stroke:#000000" />
      <path
         id="path9084"
         d="m -184.98189,1154.4591 -0.47835,0.45"
         style="fill:none;stroke:#000000" />
      <path
         id="path9086"
         d="m -185.46024,1154.9091 -0.53149,0.3826"
         style="fill:none;stroke:#000000" />
      <path
         id="path9088"
         d="m -185.99173,1155.2917 -0.57402,0.3154"
         style="fill:none;stroke:#000000" />
      <path
         id="path9090"
         d="m -186.56575,1155.6071 -0.60945,0.2409"
         style="fill:none;stroke:#000000" />
      <path
         id="path9092"
         d="m -187.1752,1155.848 -0.63425,0.163"
         style="fill:none;stroke:#000000" />
      <path
         id="path9094"
         d="m -187.80945,1156.011 -0.65197,0.085"
         style="fill:none;stroke:#000000" />
      <path
         id="path9096"
         d="m -188.46142,1156.0961 -0.65551,0"
         style="fill:none;stroke:#000000" />
      <path
         id="path9098"
         d="m -189.11693,1156.0961 -0.64842,-0.085"
         style="fill:none;stroke:#000000" />
      <path
         id="path9100"
         d="m -189.76535,1156.011 -0.6378,-0.163"
         style="fill:none;stroke:#000000" />
      <path
         id="path9102"
         d="m -190.40315,1155.848 -0.60945,-0.2409"
         style="fill:none;stroke:#000000" />
      <path
         id="path9104"
         d="m -191.0126,1155.6071 -0.57401,-0.3154"
         style="fill:none;stroke:#000000" />
      <path
         id="path9106"
         d="m -191.58661,1155.2917 -0.52796,-0.3826"
         style="fill:none;stroke:#000000" />
      <path
         id="path9108"
         d="m -192.11457,1154.9091 -0.47834,-0.45"
         style="fill:none;stroke:#000000" />
      <path
         id="path9110"
         d="m -192.59291,1154.4591 -0.41811,-0.5067"
         style="fill:none;stroke:#000000" />
      <path
         id="path9112"
         d="m -193.01102,1153.9524 -0.35079,-0.5528"
         style="fill:none;stroke:#000000" />
      <path
         id="path9114"
         d="m -193.36181,1153.3996 -0.27992,-0.5917"
         style="fill:none;stroke:#000000" />
      <path
         id="path9116"
         d="m -193.64173,1152.8079 -0.20197,-0.6236"
         style="fill:none;stroke:#000000" />
      <path
         id="path9118"
         d="m -193.8437,1152.1843 -0.12402,-0.6449"
         style="fill:none;stroke:#000000" />
      <path
         id="path9120"
         d="m -193.96772,1151.5394 -0.0425,-0.6555"
         style="fill:none;stroke:#000000" />
      <path
         id="path9122"
         d="m -194.01024,953.84055 0.0425,-0.65551"
         style="fill:none;stroke:#000000" />
      <path
         id="path9124"
         d="m -193.96772,953.18504 0.12402,-0.64488"
         style="fill:none;stroke:#000000" />
      <path
         id="path9126"
         d="m -193.8437,952.54016 0.20197,-0.62363"
         style="fill:none;stroke:#000000" />
      <path
         id="path9128"
         d="m -193.64173,951.91653 0.27992,-0.59173"
         style="fill:none;stroke:#000000" />
      <path
         id="path9130"
         d="m -193.36181,951.3248 0.35079,-0.55275"
         style="fill:none;stroke:#000000" />
      <path
         id="path9132"
         d="m -193.01102,950.77205 0.41811,-0.5067"
         style="fill:none;stroke:#000000" />
      <path
         id="path9134"
         d="m -192.59291,950.26535 0.47834,-0.45"
         style="fill:none;stroke:#000000" />
      <path
         id="path9136"
         d="m -192.11457,949.81535 0.52796,-0.38267"
         style="fill:none;stroke:#000000" />
      <path
         id="path9138"
         d="m -191.58661,949.43268 0.57401,-0.31536"
         style="fill:none;stroke:#000000" />
      <path
         id="path9140"
         d="m -191.0126,949.11732 0.60945,-0.24094"
         style="fill:none;stroke:#000000" />
      <path
         id="path9142"
         d="m -190.40315,948.87638 0.6378,-0.16299"
         style="fill:none;stroke:#000000" />
      <path
         id="path9144"
         d="m -189.76535,948.71339 0.64842,-0.085"
         style="fill:none;stroke:#000000" />
      <path
         id="path9146"
         d="m -189.11693,948.62835 0.65551,0"
         style="fill:none;stroke:#000000" />
      <path
         id="path9148"
         d="m -188.46142,948.62835 0.65197,0.085"
         style="fill:none;stroke:#000000" />
      <path
         id="path9150"
         d="m -187.80945,948.71339 0.63425,0.16299"
         style="fill:none;stroke:#000000" />
      <path
         id="path9152"
         d="m -187.1752,948.87638 0.60945,0.24094"
         style="fill:none;stroke:#000000" />
      <path
         id="path9154"
         d="m -186.56575,949.11732 0.57402,0.31536"
         style="fill:none;stroke:#000000" />
      <path
         id="path9156"
         d="m -185.99173,949.43268 0.53149,0.38267"
         style="fill:none;stroke:#000000" />
      <path
         id="path9158"
         d="m -185.46024,949.81535 0.47835,0.45"
         style="fill:none;stroke:#000000" />
      <path
         id="path9160"
         d="m -184.98189,950.26535 0.41811,0.5067"
         style="fill:none;stroke:#000000" />
      <path
         id="path9162"
         d="m -184.56378,950.77205 0.35079,0.55275"
         style="fill:none;stroke:#000000" />
      <path
         id="path9164"
         d="m -184.21299,951.3248 0.27638,0.59173"
         style="fill:none;stroke:#000000" />
      <path
         id="path9166"
         d="m -183.93661,951.91653 0.20551,0.62363"
         style="fill:none;stroke:#000000" />
      <path
         id="path9168"
         d="m -183.7311,952.54016 0.12047,0.64488"
         style="fill:none;stroke:#000000" />
      <path
         id="path9170"
         d="m -183.61063,953.18504 0.0425,0.65551"
         style="fill:none;stroke:#000000" />
      <path
         id="path9172"
         d="m -183.56811,953.84055 -0.0425,0.65197"
         style="fill:none;stroke:#000000" />
      <path
         id="path9174"
         d="m -183.61063,954.49252 -0.12047,0.64488"
         style="fill:none;stroke:#000000" />
      <path
         id="path9176"
         d="m -183.7311,955.1374 -0.20551,0.62362"
         style="fill:none;stroke:#000000" />
      <path
         id="path9178"
         d="m -183.93661,955.76102 -0.27638,0.59174"
         style="fill:none;stroke:#000000" />
      <path
         id="path9180"
         d="m -184.21299,956.35276 -0.35079,0.55629"
         style="fill:none;stroke:#000000" />
      <path
         id="path9182"
         d="m -184.56378,956.90905 -0.41811,0.50315"
         style="fill:none;stroke:#000000" />
      <path
         id="path9184"
         d="m -184.98189,957.4122 -0.47835,0.45001"
         style="fill:none;stroke:#000000" />
      <path
         id="path9186"
         d="m -185.46024,957.86221 -0.53149,0.38267"
         style="fill:none;stroke:#000000" />
      <path
         id="path9188"
         d="m -185.99173,958.24488 -0.57402,0.3189"
         style="fill:none;stroke:#000000" />
      <path
         id="path9190"
         d="m -186.56575,958.56378 -0.60945,0.24094"
         style="fill:none;stroke:#000000" />
      <path
         id="path9192"
         d="m -187.1752,958.80472 -0.63425,0.163"
         style="fill:none;stroke:#000000" />
      <path
         id="path9194"
         d="m -187.80945,958.96772 -0.65197,0.0815"
         style="fill:none;stroke:#000000" />
      <path
         id="path9196"
         d="m -188.46142,959.04921 -0.65551,0"
         style="fill:none;stroke:#000000" />
      <path
         id="path9198"
         d="m -189.11693,959.04921 -0.64842,-0.0815"
         style="fill:none;stroke:#000000" />
      <path
         id="path9200"
         d="m -189.76535,958.96772 -0.6378,-0.163"
         style="fill:none;stroke:#000000" />
      <path
         id="path9202"
         d="m -190.40315,958.80472 -0.60945,-0.24094"
         style="fill:none;stroke:#000000" />
      <path
         id="path9204"
         d="m -191.0126,958.56378 -0.57401,-0.3189"
         style="fill:none;stroke:#000000" />
      <path
         id="path9206"
         d="m -191.58661,958.24488 -0.52796,-0.38267"
         style="fill:none;stroke:#000000" />
      <path
         id="path9208"
         d="m -192.11457,957.86221 -0.47834,-0.45001"
         style="fill:none;stroke:#000000" />
      <path
         id="path9210"
         d="m -192.59291,957.4122 -0.41811,-0.50315"
         style="fill:none;stroke:#000000" />
      <path
         id="path9212"
         d="m -193.01102,956.90905 -0.35079,-0.55629"
         style="fill:none;stroke:#000000" />
      <path
         id="path9214"
         d="m -193.36181,956.35276 -0.27992,-0.59174"
         style="fill:none;stroke:#000000" />
      <path
         id="path9216"
         d="m -193.64173,955.76102 -0.20197,-0.62362"
         style="fill:none;stroke:#000000" />
      <path
         id="path9218"
         d="m -193.8437,955.1374 -0.12402,-0.64488"
         style="fill:none;stroke:#000000" />
      <path
         id="path9220"
         d="m -193.96772,954.49252 -0.0425,-0.65197"
         style="fill:none;stroke:#000000" />
      <path
         id="path9222"
         d="m -145.22244,1177.2638 0,-10.6299"
         style="fill:none;stroke:#000000" />
      <path
         id="path9224"
         d="m -145.22244,1166.6339 45,0"
         style="fill:none;stroke:#000000" />
      <path
         id="path9226"
         d="m -100.22244,1166.6339 0,10.6299"
         style="fill:none;stroke:#000000" />
      <path
         id="path9228"
         d="m -100.22244,1177.2638 -45,0"
         style="fill:none;stroke:#000000" />
      <path
         id="path9230"
         d="m -145.22244,938.09055 0,-10.62992"
         style="fill:none;stroke:#000000" />
      <path
         id="path9232"
         d="m -145.22244,927.46063 45,0"
         style="fill:none;stroke:#000000" />
      <path
         id="path9234"
         d="m -100.22244,927.46063 0,10.62992"
         style="fill:none;stroke:#000000" />
      <path
         id="path9236"
         d="m -100.22244,938.09055 -45,0"
         style="fill:none;stroke:#000000" />
      <path
         id="path9238"
         d="m -122.31142,1160.8122 0,-216.9"
         style="fill:none;stroke:#000000" />
      <path
         id="path9240"
         d="m -122.31142,943.9122 244.62284,0"
         style="fill:none;stroke:#000000" />
      <path
         id="path9242"
         d="m 122.31142,943.9122 0,216.9"
         style="fill:none;stroke:#000000" />
      <path
         id="path9244"
         d="m 122.31142,1160.8122 -244.62284,0"
         style="fill:none;stroke:#000000" />
      <path
         id="path9246"
         d="m -22.5,1177.2638 0,-10.6299"
         style="fill:none;stroke:#000000" />
      <path
         id="path9248"
         d="m -22.5,1166.6339 45,0"
         style="fill:none;stroke:#000000" />
      <path
         id="path9250"
         d="m 22.5,1166.6339 0,10.6299"
         style="fill:none;stroke:#000000" />
      <path
         id="path9252"
         d="m 22.5,1177.2638 -45,0"
         style="fill:none;stroke:#000000" />
      <path
         id="path9254"
         d="m -22.5,938.09055 0,-10.62992"
         style="fill:none;stroke:#000000" />
      <path
         id="path9256"
         d="m -22.5,927.46063 45,0"
         style="fill:none;stroke:#000000" />
      <path
         id="path9258"
         d="m 22.5,927.46063 0,10.62992"
         style="fill:none;stroke:#000000" />
      <path
         id="path9260"
         d="m 22.5,938.09055 -45,0"
         style="fill:none;stroke:#000000" />
      <path
         id="path9262"
         d="m 100.22244,1177.2638 0,-10.6299"
         style="fill:none;stroke:#000000" />
      <path
         id="path9264"
         d="m 100.22244,1166.6339 45,0"
         style="fill:none;stroke:#000000" />
      <path
         id="path9266"
         d="m 145.22244,1166.6339 0,10.6299"
         style="fill:none;stroke:#000000" />
      <path
         id="path9268"
         d="m 145.22244,1177.2638 -45,0"
         style="fill:none;stroke:#000000" />
      <path
         id="path9270"
         d="m 100.22244,938.09055 0,-10.62992"
         style="fill:none;stroke:#000000" />
      <path
         id="path9272"
         d="m 100.22244,927.46063 45,0"
         style="fill:none;stroke:#000000" />
      <path
         id="path9274"
         d="m 145.22244,927.46063 0,10.62992"
         style="fill:none;stroke:#000000" />
      <path
         id="path9276"
         d="m 145.22244,938.09055 -45,0"
         style="fill:none;stroke:#000000" />
      <path
         id="path9278"
         d="m 183.56811,1150.8839 0.0425,-0.652"
         style="fill:none;stroke:#000000" />
      <path
         id="path9280"
         d="m 183.61063,1150.2319 0.12047,-0.6449"
         style="fill:none;stroke:#000000" />
      <path
         id="path9282"
         d="m 183.7311,1149.587 0.20551,-0.6236"
         style="fill:none;stroke:#000000" />
      <path
         id="path9284"
         d="m 183.93661,1148.9634 0.27638,-0.5917"
         style="fill:none;stroke:#000000" />
      <path
         id="path9286"
         d="m 184.21299,1148.3717 0.35079,-0.5563"
         style="fill:none;stroke:#000000" />
      <path
         id="path9288"
         d="m 184.56378,1147.8154 0.41811,-0.5032"
         style="fill:none;stroke:#000000" />
      <path
         id="path9290"
         d="m 184.98189,1147.3122 0.47835,-0.45"
         style="fill:none;stroke:#000000" />
      <path
         id="path9292"
         d="m 185.46024,1146.8622 0.53149,-0.3827"
         style="fill:none;stroke:#000000" />
      <path
         id="path9294"
         d="m 185.99173,1146.4795 0.57402,-0.3189"
         style="fill:none;stroke:#000000" />
      <path
         id="path9296"
         d="m 186.56575,1146.1606 0.60945,-0.2409"
         style="fill:none;stroke:#000000" />
      <path
         id="path9298"
         d="m 187.1752,1145.9197 0.63425,-0.163"
         style="fill:none;stroke:#000000" />
      <path
         id="path9300"
         d="m 187.80945,1145.7567 0.65197,-0.082"
         style="fill:none;stroke:#000000" />
      <path
         id="path9302"
         d="m 188.46142,1145.6752 0.65551,0"
         style="fill:none;stroke:#000000" />
      <path
         id="path9304"
         d="m 189.11693,1145.6752 0.64842,0.082"
         style="fill:none;stroke:#000000" />
      <path
         id="path9306"
         d="m 189.76535,1145.7567 0.6378,0.163"
         style="fill:none;stroke:#000000" />
      <path
         id="path9308"
         d="m 190.40315,1145.9197 0.60945,0.2409"
         style="fill:none;stroke:#000000" />
      <path
         id="path9310"
         d="m 191.0126,1146.1606 0.57401,0.3189"
         style="fill:none;stroke:#000000" />
      <path
         id="path9312"
         d="m 191.58661,1146.4795 0.52796,0.3827"
         style="fill:none;stroke:#000000" />
      <path
         id="path9314"
         d="m 192.11457,1146.8622 0.47834,0.45"
         style="fill:none;stroke:#000000" />
      <path
         id="path9316"
         d="m 192.59291,1147.3122 0.41811,0.5032"
         style="fill:none;stroke:#000000" />
      <path
         id="path9318"
         d="m 193.01102,1147.8154 0.35079,0.5563"
         style="fill:none;stroke:#000000" />
      <path
         id="path9320"
         d="m 193.36181,1148.3717 0.27992,0.5917"
         style="fill:none;stroke:#000000" />
      <path
         id="path9322"
         d="m 193.64173,1148.9634 0.20197,0.6236"
         style="fill:none;stroke:#000000" />
      <path
         id="path9324"
         d="m 193.8437,1149.587 0.12402,0.6449"
         style="fill:none;stroke:#000000" />
      <path
         id="path9326"
         d="m 193.96772,1150.2319 0.0425,0.652"
         style="fill:none;stroke:#000000" />
      <path
         id="path9328"
         d="m 194.01024,1150.8839 -0.0425,0.6555"
         style="fill:none;stroke:#000000" />
      <path
         id="path9330"
         d="m 193.96772,1151.5394 -0.12402,0.6449"
         style="fill:none;stroke:#000000" />
      <path
         id="path9332"
         d="m 193.8437,1152.1843 -0.20197,0.6236"
         style="fill:none;stroke:#000000" />
      <path
         id="path9334"
         d="m 193.64173,1152.8079 -0.27992,0.5917"
         style="fill:none;stroke:#000000" />
      <path
         id="path9336"
         d="m 193.36181,1153.3996 -0.35079,0.5528"
         style="fill:none;stroke:#000000" />
      <path
         id="path9338"
         d="m 193.01102,1153.9524 -0.41811,0.5067"
         style="fill:none;stroke:#000000" />
      <path
         id="path9340"
         d="m 192.59291,1154.4591 -0.47834,0.45"
         style="fill:none;stroke:#000000" />
      <path
         id="path9342"
         d="m 192.11457,1154.9091 -0.52796,0.3826"
         style="fill:none;stroke:#000000" />
      <path
         id="path9344"
         d="m 191.58661,1155.2917 -0.57401,0.3154"
         style="fill:none;stroke:#000000" />
      <path
         id="path9346"
         d="m 191.0126,1155.6071 -0.60945,0.2409"
         style="fill:none;stroke:#000000" />
      <path
         id="path9348"
         d="m 190.40315,1155.848 -0.6378,0.163"
         style="fill:none;stroke:#000000" />
      <path
         id="path9350"
         d="m 189.76535,1156.011 -0.64842,0.085"
         style="fill:none;stroke:#000000" />
      <path
         id="path9352"
         d="m 189.11693,1156.0961 -0.65551,0"
         style="fill:none;stroke:#000000" />
      <path
         id="path9354"
         d="m 188.46142,1156.0961 -0.65197,-0.085"
         style="fill:none;stroke:#000000" />
      <path
         id="path9356"
         d="m 187.80945,1156.011 -0.63425,-0.163"
         style="fill:none;stroke:#000000" />
      <path
         id="path9358"
         d="m 187.1752,1155.848 -0.60945,-0.2409"
         style="fill:none;stroke:#000000" />
      <path
         id="path9360"
         d="m 186.56575,1155.6071 -0.57402,-0.3154"
         style="fill:none;stroke:#000000" />
      <path
         id="path9362"
         d="m 185.99173,1155.2917 -0.53149,-0.3826"
         style="fill:none;stroke:#000000" />
      <path
         id="path9364"
         d="m 185.46024,1154.9091 -0.47835,-0.45"
         style="fill:none;stroke:#000000" />
      <path
         id="path9366"
         d="m 184.98189,1154.4591 -0.41811,-0.5067"
         style="fill:none;stroke:#000000" />
      <path
         id="path9368"
         d="m 184.56378,1153.9524 -0.35079,-0.5528"
         style="fill:none;stroke:#000000" />
      <path
         id="path9370"
         d="m 184.21299,1153.3996 -0.27638,-0.5917"
         style="fill:none;stroke:#000000" />
      <path
         id="path9372"
         d="m 183.93661,1152.8079 -0.20551,-0.6236"
         style="fill:none;stroke:#000000" />
      <path
         id="path9374"
         d="m 183.7311,1152.1843 -0.12047,-0.6449"
         style="fill:none;stroke:#000000" />
      <path
         id="path9376"
         d="m 183.61063,1151.5394 -0.0425,-0.6555"
         style="fill:none;stroke:#000000" />
      <path
         id="path9378"
         d="m 183.56811,953.84055 0.0425,-0.65551"
         style="fill:none;stroke:#000000" />
      <path
         id="path9380"
         d="m 183.61063,953.18504 0.12047,-0.64488"
         style="fill:none;stroke:#000000" />
      <path
         id="path9382"
         d="m 183.7311,952.54016 0.20551,-0.62363"
         style="fill:none;stroke:#000000" />
      <path
         id="path9384"
         d="m 183.93661,951.91653 0.27638,-0.59173"
         style="fill:none;stroke:#000000" />
      <path
         id="path9386"
         d="m 184.21299,951.3248 0.35079,-0.55275"
         style="fill:none;stroke:#000000" />
      <path
         id="path9388"
         d="m 184.56378,950.77205 0.41811,-0.5067"
         style="fill:none;stroke:#000000" />
      <path
         id="path9390"
         d="m 184.98189,950.26535 0.47835,-0.45"
         style="fill:none;stroke:#000000" />
      <path
         id="path9392"
         d="m 185.46024,949.81535 0.53149,-0.38267"
         style="fill:none;stroke:#000000" />
      <path
         id="path9394"
         d="m 185.99173,949.43268 0.57402,-0.31536"
         style="fill:none;stroke:#000000" />
      <path
         id="path9396"
         d="m 186.56575,949.11732 0.60945,-0.24094"
         style="fill:none;stroke:#000000" />
      <path
         id="path9398"
         d="m 187.1752,948.87638 0.63425,-0.16299"
         style="fill:none;stroke:#000000" />
      <path
         id="path9400"
         d="m 187.80945,948.71339 0.65197,-0.085"
         style="fill:none;stroke:#000000" />
      <path
         id="path9402"
         d="m 188.46142,948.62835 0.65551,0"
         style="fill:none;stroke:#000000" />
      <path
         id="path9404"
         d="m 189.11693,948.62835 0.64842,0.085"
         style="fill:none;stroke:#000000" />
      <path
         id="path9406"
         d="m 189.76535,948.71339 0.6378,0.16299"
         style="fill:none;stroke:#000000" />
      <path
         id="path9408"
         d="m 190.40315,948.87638 0.60945,0.24094"
         style="fill:none;stroke:#000000" />
      <path
         id="path9410"
         d="m 191.0126,949.11732 0.57401,0.31536"
         style="fill:none;stroke:#000000" />
      <path
         id="path9412"
         d="m 191.58661,949.43268 0.52796,0.38267"
         style="fill:none;stroke:#000000" />
      <path
         id="path9414"
         d="m 192.11457,949.81535 0.47834,0.45"
         style="fill:none;stroke:#000000" />
      <path
         id="path9416"
         d="m 192.59291,950.26535 0.41811,0.5067"
         style="fill:none;stroke:#000000" />
      <path
         id="path9418"
         d="m 193.01102,950.77205 0.35079,0.55275"
         style="fill:none;stroke:#000000" />
      <path
         id="path9420"
         d="m 193.36181,951.3248 0.27992,0.59173"
         style="fill:none;stroke:#000000" />
      <path
         id="path9422"
         d="m 193.64173,951.91653 0.20197,0.62363"
         style="fill:none;stroke:#000000" />
      <path
         id="path9424"
         d="m 193.8437,952.54016 0.12402,0.64488"
         style="fill:none;stroke:#000000" />
      <path
         id="path9426"
         d="m 193.96772,953.18504 0.0425,0.65551"
         style="fill:none;stroke:#000000" />
      <path
         id="path9428"
         d="m 194.01024,953.84055 -0.0425,0.65197"
         style="fill:none;stroke:#000000" />
      <path
         id="path9430"
         d="m 193.96772,954.49252 -0.12402,0.64488"
         style="fill:none;stroke:#000000" />
      <path
         id="path9432"
         d="m 193.8437,955.1374 -0.20197,0.62362"
         style="fill:none;stroke:#000000" />
      <path
         id="path9434"
         d="m 193.64173,955.76102 -0.27992,0.59174"
         style="fill:none;stroke:#000000" />
      <path
         id="path9436"
         d="m 193.36181,956.35276 -0.35079,0.55629"
         style="fill:none;stroke:#000000" />
      <path
         id="path9438"
         d="m 193.01102,956.90905 -0.41811,0.50315"
         style="fill:none;stroke:#000000" />
      <path
         id="path9440"
         d="m 192.59291,957.4122 -0.47834,0.45001"
         style="fill:none;stroke:#000000" />
      <path
         id="path9442"
         d="m 192.11457,957.86221 -0.52796,0.38267"
         style="fill:none;stroke:#000000" />
      <path
         id="path9444"
         d="m 191.58661,958.24488 -0.57401,0.3189"
         style="fill:none;stroke:#000000" />
      <path
         id="path9446"
         d="m 191.0126,958.56378 -0.60945,0.24094"
         style="fill:none;stroke:#000000" />
      <path
         id="path9448"
         d="m 190.40315,958.80472 -0.6378,0.163"
         style="fill:none;stroke:#000000" />
      <path
         id="path9450"
         d="m 189.76535,958.96772 -0.64842,0.0815"
         style="fill:none;stroke:#000000" />
      <path
         id="path9452"
         d="m 189.11693,959.04921 -0.65551,0"
         style="fill:none;stroke:#000000" />
      <path
         id="path9454"
         d="m 188.46142,959.04921 -0.65197,-0.0815"
         style="fill:none;stroke:#000000" />
      <path
         id="path9456"
         d="m 187.80945,958.96772 -0.63425,-0.163"
         style="fill:none;stroke:#000000" />
      <path
         id="path9458"
         d="m 187.1752,958.80472 -0.60945,-0.24094"
         style="fill:none;stroke:#000000" />
      <path
         id="path9460"
         d="m 186.56575,958.56378 -0.57402,-0.3189"
         style="fill:none;stroke:#000000" />
      <path
         id="path9462"
         d="m 185.99173,958.24488 -0.53149,-0.38267"
         style="fill:none;stroke:#000000" />
      <path
         id="path9464"
         d="m 185.46024,957.86221 -0.47835,-0.45001"
         style="fill:none;stroke:#000000" />
      <path
         id="path9466"
         d="m 184.98189,957.4122 -0.41811,-0.50315"
         style="fill:none;stroke:#000000" />
      <path
         id="path9468"
         d="m 184.56378,956.90905 -0.35079,-0.55629"
         style="fill:none;stroke:#000000" />
      <path
         id="path9470"
         d="m 184.21299,956.35276 -0.27638,-0.59174"
         style="fill:none;stroke:#000000" />
      <path
         id="path9472"
         d="M 183.93661,955.76102 183.7311,955.1374"
         style="fill:none;stroke:#000000" />
      <path
         id="path9474"
         d="m 183.7311,955.1374 -0.12047,-0.64488"
         style="fill:none;stroke:#000000" />
      <path
         id="path9476"
         d="m 183.61063,954.49252 -0.0425,-0.65197"
         style="fill:none;stroke:#000000" />
      <path
         id="path9478"
         d="m 204.5374,1137.313 0,-45"
         style="fill:none;stroke:#000000" />
      <path
         id="path9480"
         d="m 204.5374,1092.313 10.62992,0"
         style="fill:none;stroke:#000000" />
      <path
         id="path9482"
         d="m 215.16732,1092.313 0,45"
         style="fill:none;stroke:#000000" />
      <path
         id="path9484"
         d="m 215.16732,1137.313 -10.62992,0"
         style="fill:none;stroke:#000000" />
      <path
         id="path9486"
         d="m 204.5374,1012.4114 0,-44.99998"
         style="fill:none;stroke:#000000" />
      <path
         id="path9488"
         d="m 204.5374,967.41142 10.62992,0"
         style="fill:none;stroke:#000000" />
      <path
         id="path9490"
         d="m 215.16732,967.41142 0,44.99998"
         style="fill:none;stroke:#000000" />
      <path
         id="path9492"
         d="m 215.16732,1012.4114 -10.62992,0"
         style="fill:none;stroke:#000000" />
    </g>
  </g>
</svg>
